G04 #@! TF.GenerationSoftware,KiCad,Pcbnew,8.0.8*
G04 #@! TF.CreationDate,2025-02-01T04:39:39+02:00*
G04 #@! TF.ProjectId,my_raspi_gpib,6d795f72-6173-4706-995f-677069622e6b,rev?*
G04 #@! TF.SameCoordinates,Original*
G04 #@! TF.FileFunction,Copper,L2,Bot*
G04 #@! TF.FilePolarity,Positive*
%FSLAX46Y46*%
G04 Gerber Fmt 4.6, Leading zero omitted, Abs format (unit mm)*
G04 Created by KiCad (PCBNEW 8.0.8) date 2025-02-01 04:39:39*
%MOMM*%
%LPD*%
G01*
G04 APERTURE LIST*
G04 #@! TA.AperFunction,ComponentPad*
%ADD10C,1.600000*%
G04 #@! TD*
G04 #@! TA.AperFunction,ComponentPad*
%ADD11O,1.600000X1.600000*%
G04 #@! TD*
G04 #@! TA.AperFunction,ComponentPad*
%ADD12R,1.400000X1.400000*%
G04 #@! TD*
G04 #@! TA.AperFunction,ComponentPad*
%ADD13C,1.400000*%
G04 #@! TD*
G04 #@! TA.AperFunction,ComponentPad*
%ADD14C,4.800000*%
G04 #@! TD*
G04 #@! TA.AperFunction,ComponentPad*
%ADD15R,1.800000X1.800000*%
G04 #@! TD*
G04 #@! TA.AperFunction,ComponentPad*
%ADD16C,1.800000*%
G04 #@! TD*
G04 #@! TA.AperFunction,ComponentPad*
%ADD17R,1.600000X1.600000*%
G04 #@! TD*
G04 #@! TA.AperFunction,ComponentPad*
%ADD18R,1.700000X1.700000*%
G04 #@! TD*
G04 #@! TA.AperFunction,ComponentPad*
%ADD19O,1.700000X1.700000*%
G04 #@! TD*
G04 #@! TA.AperFunction,ViaPad*
%ADD20C,0.600000*%
G04 #@! TD*
G04 #@! TA.AperFunction,Conductor*
%ADD21C,0.500000*%
G04 #@! TD*
G04 APERTURE END LIST*
D10*
X157480000Y-87927000D03*
D11*
X154940000Y-87927000D03*
D10*
X154940000Y-136623000D03*
D11*
X154940000Y-139163000D03*
D10*
X173228000Y-136525000D03*
D11*
X173228000Y-139065000D03*
D10*
X149860000Y-113411000D03*
D11*
X152400000Y-113411000D03*
D10*
X142748000Y-136652000D03*
D11*
X142748000Y-139192000D03*
D12*
X189004000Y-113921000D03*
D13*
X189004000Y-111761000D03*
X189004000Y-109601000D03*
X189004000Y-107441000D03*
X189004000Y-105281000D03*
X189004000Y-103121000D03*
X189004000Y-100961000D03*
X189004000Y-98801000D03*
X189004000Y-96641000D03*
X189004000Y-94481000D03*
X189004000Y-92321000D03*
X189004000Y-90161000D03*
X193294000Y-113921000D03*
X193294000Y-111761000D03*
X193294000Y-109601000D03*
X193294000Y-107441000D03*
X193294000Y-105281000D03*
X193294000Y-103121000D03*
X193294000Y-100961000D03*
X193294000Y-98801000D03*
X193294000Y-96641000D03*
X193294000Y-94481000D03*
X193294000Y-92321000D03*
X193294000Y-90161000D03*
D14*
X191149000Y-78646000D03*
X191149000Y-125436000D03*
D10*
X157988000Y-138713000D03*
D11*
X157988000Y-136173000D03*
D10*
X146812000Y-116459000D03*
D11*
X144272000Y-116459000D03*
D10*
X145034000Y-84752000D03*
D11*
X147574000Y-84752000D03*
D15*
X115316000Y-56642000D03*
D16*
X117856000Y-56642000D03*
D10*
X167444000Y-116459000D03*
D11*
X164904000Y-116459000D03*
D10*
X141458000Y-70739000D03*
X138958000Y-70739000D03*
X175641000Y-113411000D03*
D11*
X178181000Y-113411000D03*
D17*
X147701000Y-77978000D03*
D11*
X150241000Y-77978000D03*
X152781000Y-77978000D03*
X155321000Y-77978000D03*
X157861000Y-77978000D03*
X160401000Y-77978000D03*
X162941000Y-77978000D03*
X165481000Y-77978000D03*
X168021000Y-77978000D03*
X170561000Y-77978000D03*
X170561000Y-70358000D03*
X168021000Y-70358000D03*
X165481000Y-70358000D03*
X162941000Y-70358000D03*
X160401000Y-70358000D03*
X157861000Y-70358000D03*
X155321000Y-70358000D03*
X152781000Y-70358000D03*
X150241000Y-70358000D03*
X147701000Y-70358000D03*
D10*
X157226000Y-116459000D03*
D11*
X154686000Y-116459000D03*
D10*
X118872000Y-62230000D03*
D11*
X121412000Y-62230000D03*
D10*
X141605000Y-116459000D03*
D11*
X139065000Y-116459000D03*
D10*
X155448000Y-84752000D03*
D11*
X157988000Y-84752000D03*
D10*
X170180000Y-136525000D03*
D11*
X170180000Y-139065000D03*
D10*
X144751000Y-113411000D03*
D11*
X147291000Y-113411000D03*
D10*
X139827000Y-84752000D03*
D11*
X142367000Y-84752000D03*
D10*
X191897000Y-67838000D03*
X191897000Y-70338000D03*
X165833000Y-84752000D03*
D11*
X168373000Y-84752000D03*
D10*
X161036000Y-136525000D03*
D11*
X161036000Y-139065000D03*
D10*
X173101000Y-87927000D03*
D11*
X170561000Y-87927000D03*
D10*
X166878000Y-64799000D03*
D11*
X166878000Y-62259000D03*
D10*
X165354000Y-113411000D03*
D11*
X167894000Y-113411000D03*
D10*
X147095000Y-87927000D03*
D11*
X144555000Y-87927000D03*
D10*
X162335000Y-116459000D03*
D11*
X159795000Y-116459000D03*
D10*
X196723000Y-68072000D03*
D11*
X196723000Y-70612000D03*
D10*
X178308000Y-87884000D03*
D11*
X175768000Y-87884000D03*
D10*
X148590000Y-64770000D03*
D11*
X148590000Y-62230000D03*
D17*
X170307000Y-123444000D03*
D11*
X167767000Y-123444000D03*
X165227000Y-123444000D03*
X162687000Y-123444000D03*
X160147000Y-123444000D03*
X157607000Y-123444000D03*
X155067000Y-123444000D03*
X152527000Y-123444000D03*
X149987000Y-123444000D03*
X147447000Y-123444000D03*
X147447000Y-131064000D03*
X149987000Y-131064000D03*
X152527000Y-131064000D03*
X155067000Y-131064000D03*
X157607000Y-131064000D03*
X160147000Y-131064000D03*
X162687000Y-131064000D03*
X165227000Y-131064000D03*
X167767000Y-131064000D03*
X170307000Y-131064000D03*
D10*
X157734000Y-64799000D03*
D11*
X157734000Y-62259000D03*
D10*
X125603000Y-62230000D03*
D11*
X128143000Y-62230000D03*
D10*
X167894000Y-87927000D03*
D11*
X165354000Y-87927000D03*
D10*
X151892000Y-138713000D03*
D11*
X151892000Y-136173000D03*
D10*
X152273000Y-87927000D03*
D11*
X149733000Y-87927000D03*
D10*
X154686000Y-64770000D03*
D11*
X154686000Y-62230000D03*
D10*
X160782000Y-64799000D03*
D11*
X160782000Y-62259000D03*
D10*
X163830000Y-64770000D03*
D11*
X163830000Y-62230000D03*
D10*
X164084000Y-138684000D03*
D11*
X164084000Y-136144000D03*
D10*
X155067000Y-113411000D03*
D11*
X157607000Y-113411000D03*
D10*
X174518000Y-131064000D03*
X177018000Y-131064000D03*
X152019000Y-116459000D03*
D11*
X149479000Y-116459000D03*
D10*
X167132000Y-136525000D03*
D11*
X167132000Y-139065000D03*
D10*
X170532000Y-113411000D03*
D11*
X173072000Y-113411000D03*
D10*
X148844000Y-136652000D03*
D11*
X148844000Y-139192000D03*
D10*
X151638000Y-64770000D03*
D11*
X151638000Y-62230000D03*
D10*
X162687000Y-87927000D03*
D11*
X160147000Y-87927000D03*
D10*
X171069000Y-84752000D03*
D11*
X173609000Y-84752000D03*
D10*
X139573000Y-113411000D03*
D11*
X142113000Y-113411000D03*
D18*
X109601000Y-77343000D03*
D19*
X112141000Y-77343000D03*
X109601000Y-79883000D03*
X112141000Y-79883000D03*
X109601000Y-82423000D03*
X112141000Y-82423000D03*
X109601000Y-84963000D03*
X112141000Y-84963000D03*
X109601000Y-87503000D03*
X112141000Y-87503000D03*
X109601000Y-90043000D03*
X112141000Y-90043000D03*
X109601000Y-92583000D03*
X112141000Y-92583000D03*
X109601000Y-95123000D03*
X112141000Y-95123000D03*
X109601000Y-97663000D03*
X112141000Y-97663000D03*
X109601000Y-100203000D03*
X112141000Y-100203000D03*
X109601000Y-102743000D03*
X112141000Y-102743000D03*
X109601000Y-105283000D03*
X112141000Y-105283000D03*
X109601000Y-107823000D03*
X112141000Y-107823000D03*
X109601000Y-110363000D03*
X112141000Y-110363000D03*
X109601000Y-112903000D03*
X112141000Y-112903000D03*
X109601000Y-115443000D03*
X112141000Y-115443000D03*
X109601000Y-117983000D03*
X112141000Y-117983000D03*
X109601000Y-120523000D03*
X112141000Y-120523000D03*
X109601000Y-123063000D03*
X112141000Y-123063000D03*
X109601000Y-125603000D03*
X112141000Y-125603000D03*
D10*
X169926000Y-64770000D03*
D11*
X169926000Y-62230000D03*
D10*
X160626000Y-84752000D03*
D11*
X163166000Y-84752000D03*
D10*
X150241000Y-84752000D03*
D11*
X152781000Y-84752000D03*
D10*
X145796000Y-136652000D03*
D11*
X145796000Y-139192000D03*
D10*
X160245000Y-113411000D03*
D11*
X162785000Y-113411000D03*
D10*
X177702000Y-116459000D03*
D11*
X175162000Y-116459000D03*
D10*
X172593000Y-116459000D03*
D11*
X170053000Y-116459000D03*
D10*
X176247000Y-84709000D03*
D11*
X178787000Y-84709000D03*
D10*
X141859000Y-87927000D03*
D11*
X139319000Y-87927000D03*
D15*
X125603000Y-56769000D03*
D16*
X128143000Y-56769000D03*
D20*
X105410000Y-140970000D03*
X185039000Y-55626000D03*
X200406000Y-68961000D03*
X149479000Y-55753000D03*
X188214000Y-149860000D03*
X106962700Y-76366500D03*
X105537000Y-131064000D03*
X116332000Y-150114000D03*
X105918000Y-61849000D03*
X200406000Y-65278000D03*
X200533000Y-88646000D03*
X200533000Y-139954000D03*
X106045000Y-67310000D03*
X200660000Y-79502000D03*
X111633000Y-150114000D03*
X105537000Y-137668000D03*
X105283000Y-143764000D03*
X181102000Y-55753000D03*
X176276000Y-149733000D03*
X113919000Y-150114000D03*
X200406000Y-127000000D03*
X127889000Y-150114000D03*
X200279000Y-119888000D03*
X200533000Y-76073000D03*
X144907000Y-55753000D03*
X138938000Y-150114000D03*
X169799000Y-149733000D03*
X200533000Y-133350000D03*
X200406000Y-72390000D03*
X182372000Y-149733000D03*
X200533000Y-82169000D03*
X167386000Y-149733000D03*
X200406000Y-113411000D03*
X124714000Y-150114000D03*
X132969000Y-55626000D03*
X185420000Y-149733000D03*
X193167000Y-55626000D03*
X111252000Y-55626000D03*
X130810000Y-124206000D03*
X172593000Y-149733000D03*
X126365000Y-127127000D03*
X164592000Y-55626000D03*
X160401000Y-55753000D03*
X188849000Y-55626000D03*
X122174000Y-150114000D03*
X122682000Y-123825000D03*
X191389000Y-149860000D03*
X200533000Y-91821000D03*
X200406000Y-61595000D03*
X194564000Y-149987000D03*
X200533000Y-130683000D03*
X105537000Y-134239000D03*
X119126000Y-150114000D03*
X139065000Y-55626000D03*
X135509000Y-150114000D03*
X176276000Y-55753000D03*
X179324000Y-149733000D03*
X171196000Y-55880000D03*
X131445000Y-150114000D03*
X200533000Y-85344000D03*
X200406000Y-116332000D03*
X200660000Y-143256000D03*
X154940000Y-55626000D03*
X122936000Y-129540000D03*
X129667000Y-130175000D03*
X200533000Y-136652000D03*
X200406000Y-123698000D03*
X145713300Y-73763200D03*
X104307100Y-97681400D03*
X119251600Y-100815800D03*
X183600900Y-100198700D03*
X167821800Y-128322600D03*
X119076400Y-102537000D03*
X160967500Y-127285000D03*
X157644600Y-103523700D03*
X181576000Y-113110400D03*
X147971900Y-111692000D03*
X172372600Y-95060800D03*
X170118500Y-58912200D03*
X173808300Y-100075400D03*
X149055300Y-73806200D03*
X174836300Y-98165500D03*
X147396700Y-73507700D03*
X173366000Y-64016300D03*
X181536500Y-86538400D03*
X144926400Y-77211900D03*
X134859200Y-89154400D03*
X150918800Y-57833000D03*
X115453600Y-107823000D03*
X138441500Y-69091400D03*
X145865600Y-60708700D03*
X106804000Y-100680200D03*
X106325900Y-98652600D03*
X150281600Y-67520700D03*
X119666700Y-113171600D03*
X142873000Y-77343600D03*
D21*
X193294000Y-98801000D02*
X193294000Y-100961000D01*
X149733000Y-87927000D02*
X149733000Y-89377100D01*
X149733000Y-89377100D02*
X146005100Y-89377100D01*
X127956900Y-68107200D02*
X138826200Y-68107200D01*
X113641100Y-92583000D02*
X113641100Y-82423000D01*
X112141000Y-92583000D02*
X113641100Y-92583000D01*
X152174900Y-111960800D02*
X149733000Y-111960800D01*
X113641100Y-101703100D02*
X113641100Y-112903000D01*
X128143000Y-62230000D02*
X126672700Y-63700300D01*
X193294000Y-100961000D02*
X193294000Y-103121000D01*
X109601000Y-87503000D02*
X106962700Y-84864700D01*
X139395300Y-70301700D02*
X138958000Y-70739000D01*
X178181000Y-113411000D02*
X178181000Y-114861100D01*
X179163800Y-115843900D02*
X179163800Y-128918200D01*
X121412000Y-62230000D02*
X122862100Y-62230000D01*
X126672700Y-63700300D02*
X124332400Y-63700300D01*
X112141000Y-112903000D02*
X113641100Y-112903000D01*
X147596500Y-113411000D02*
X149046700Y-111960800D01*
X196723000Y-68072000D02*
X195256100Y-69538900D01*
X195256100Y-88198900D02*
X193294000Y-90161000D01*
X193294000Y-94481000D02*
X193294000Y-96641000D01*
X152400000Y-112185900D02*
X152174900Y-111960800D01*
X193294000Y-96641000D02*
X193294000Y-98801000D01*
X112141000Y-82423000D02*
X113641100Y-82423000D01*
X153489900Y-89377100D02*
X149733000Y-89377100D01*
X178181000Y-114861100D02*
X179163800Y-115843900D01*
X113641100Y-116482900D02*
X113641100Y-112903000D01*
X112141000Y-117983000D02*
X113641100Y-116482900D01*
X124332400Y-63700300D02*
X122862100Y-62230000D01*
X195256100Y-69538900D02*
X195256100Y-88198900D01*
X152400000Y-113411000D02*
X152400000Y-112185900D01*
X112141000Y-100203000D02*
X113641100Y-101703100D01*
X138826200Y-68107200D02*
X139395300Y-68676300D01*
X193294000Y-92321000D02*
X193294000Y-94481000D01*
X149046700Y-111960800D02*
X149733000Y-111960800D01*
X146005100Y-89377100D02*
X144555000Y-87927000D01*
X147291000Y-113411000D02*
X147596500Y-113411000D01*
X193294000Y-90161000D02*
X193294000Y-92321000D01*
X139395300Y-68676300D02*
X139395300Y-70301700D01*
X113641100Y-82423000D02*
X127956900Y-68107200D01*
X106962700Y-84864700D02*
X106962700Y-76366500D01*
X149733000Y-111960800D02*
X149733000Y-89377100D01*
X154940000Y-87927000D02*
X153489900Y-89377100D01*
X179163800Y-128918200D02*
X177018000Y-131064000D01*
X145876500Y-73926400D02*
X145876500Y-82622500D01*
X141605000Y-116459000D02*
X140103900Y-114957900D01*
X145876500Y-82622500D02*
X148111500Y-82622500D01*
X125540500Y-65443600D02*
X129628100Y-65443600D01*
X112141000Y-77343000D02*
X113641100Y-77343000D01*
X140103900Y-114957900D02*
X139065500Y-114957900D01*
X145713300Y-73763200D02*
X145876500Y-73926400D01*
X147701000Y-70358000D02*
X147701000Y-71808100D01*
X137868900Y-113761300D02*
X137868900Y-86710100D01*
X144870800Y-83301800D02*
X145034000Y-83465000D01*
X113641100Y-77343000D02*
X125540500Y-65443600D01*
X129628100Y-65443600D02*
X129628100Y-58254100D01*
X129628100Y-58254100D02*
X128143000Y-56769000D01*
X141277200Y-83301800D02*
X144870800Y-83301800D01*
X147668400Y-71808100D02*
X145713300Y-73763200D01*
X177702000Y-116459000D02*
X177702000Y-127880000D01*
X147701000Y-71808100D02*
X147668400Y-71808100D01*
X145034000Y-83465000D02*
X145034000Y-84752000D01*
X148111500Y-82622500D02*
X150241000Y-84752000D01*
X141458000Y-70739000D02*
X141458000Y-69402400D01*
X112141000Y-79883000D02*
X112141000Y-77343000D01*
X137499200Y-65443600D02*
X129628100Y-65443600D01*
X139065500Y-114957900D02*
X137868900Y-113761300D01*
X139827000Y-84752000D02*
X141277200Y-83301800D01*
X137868900Y-86710100D02*
X139827000Y-84752000D01*
X145876500Y-82622500D02*
X145034000Y-83465000D01*
X177702000Y-127880000D02*
X174518000Y-131064000D01*
X141458000Y-69402400D02*
X137499200Y-65443600D01*
X125603000Y-56769000D02*
X125603000Y-62230000D01*
X117856000Y-56642000D02*
X117856000Y-56421600D01*
X117856000Y-56421600D02*
X116526200Y-55091800D01*
X116526200Y-55091800D02*
X114135200Y-55091800D01*
X108100600Y-61126400D02*
X108100600Y-83462600D01*
X114135200Y-55091800D02*
X108100600Y-61126400D01*
X108100600Y-83462600D02*
X109601000Y-84963000D01*
X115316000Y-58674000D02*
X118872000Y-62230000D01*
X115316000Y-56642000D02*
X115316000Y-58674000D01*
X104307100Y-96376800D02*
X104307100Y-97681400D01*
X109601000Y-92583000D02*
X108100900Y-92583000D01*
X108100900Y-92583000D02*
X104307100Y-96376800D01*
X162687000Y-133296900D02*
X164084000Y-134693900D01*
X164084000Y-136144000D02*
X164084000Y-134693900D01*
X162687000Y-131064000D02*
X162687000Y-133296900D01*
X119251600Y-100815800D02*
X113641100Y-95205300D01*
X112141000Y-95123000D02*
X113641100Y-95123000D01*
X113641100Y-95205300D02*
X113641100Y-95123000D01*
X164904000Y-113861000D02*
X165354000Y-113411000D01*
X183600900Y-100198700D02*
X184998600Y-98801000D01*
X164904000Y-116459000D02*
X164904000Y-117909100D01*
X162687000Y-120126100D02*
X162687000Y-123444000D01*
X162687000Y-124894100D02*
X166115500Y-128322600D01*
X184998600Y-98801000D02*
X189004000Y-98801000D01*
X164904000Y-117909100D02*
X162687000Y-120126100D01*
X162687000Y-123444000D02*
X162687000Y-124894100D01*
X166115500Y-128322600D02*
X167821800Y-128322600D01*
X164904000Y-116459000D02*
X164904000Y-113861000D01*
X144751000Y-113411000D02*
X144751000Y-114529900D01*
X144272000Y-116459000D02*
X144272000Y-115008900D01*
X147246100Y-137252600D02*
X147246100Y-136051400D01*
X144136300Y-132941600D02*
X144136300Y-129653200D01*
X145796100Y-138702600D02*
X147246100Y-137252600D01*
X148088600Y-119005600D02*
X146818600Y-119005600D01*
X146818600Y-119005600D02*
X144272000Y-116459000D01*
X147860400Y-125929100D02*
X150042000Y-125929100D01*
X144136300Y-129653200D02*
X147860400Y-125929100D01*
X150042000Y-125929100D02*
X150042000Y-125929000D01*
X147246100Y-136051400D02*
X144136300Y-132941600D01*
X145796000Y-139192000D02*
X145796000Y-138702600D01*
X145796000Y-138702600D02*
X145796100Y-138702600D01*
X152527000Y-123444000D02*
X148088600Y-119005600D01*
X150042000Y-125929000D02*
X152527000Y-123444000D01*
X144751000Y-114529900D02*
X144272000Y-115008900D01*
X119076400Y-102537000D02*
X118515100Y-102537000D01*
X157988000Y-136173000D02*
X159438100Y-136173000D01*
X160147000Y-135464100D02*
X160061100Y-135550000D01*
X118515100Y-102537000D02*
X113641100Y-97663000D01*
X112141000Y-97663000D02*
X113641100Y-97663000D01*
X161036000Y-136525000D02*
X160061100Y-135550000D01*
X160061100Y-135550000D02*
X159438100Y-136173000D01*
X160147000Y-131064000D02*
X160147000Y-132514100D01*
X160147000Y-132514100D02*
X160147000Y-135464100D01*
X160147000Y-123444000D02*
X160147000Y-124894100D01*
X159795000Y-117909100D02*
X159795000Y-121641900D01*
X159795000Y-121641900D02*
X160147000Y-121993900D01*
X160147000Y-123444000D02*
X160147000Y-121993900D01*
X159795000Y-116459000D02*
X159795000Y-117909100D01*
X160245000Y-113411000D02*
X159795000Y-113861000D01*
X160147000Y-126464500D02*
X160967500Y-127285000D01*
X160147000Y-124894100D02*
X160147000Y-126464500D01*
X159795000Y-113861000D02*
X159795000Y-116459000D01*
X181576000Y-113110400D02*
X171989300Y-103523700D01*
X171989300Y-103523700D02*
X157644600Y-103523700D01*
X149987000Y-123444000D02*
X148492400Y-124938600D01*
X141292000Y-111692000D02*
X147971900Y-111692000D01*
X146094500Y-124938600D02*
X141284200Y-129748900D01*
X139065000Y-116459000D02*
X139065000Y-117909100D01*
X146094500Y-124938600D02*
X139065000Y-117909100D01*
X139573000Y-113411000D02*
X141292000Y-111692000D01*
X141284200Y-129748900D02*
X141284200Y-137728200D01*
X148492400Y-124938600D02*
X146094500Y-124938600D01*
X141284200Y-137728200D02*
X142748000Y-139192000D01*
X170532000Y-113411000D02*
X170053000Y-113890000D01*
X171758500Y-137486500D02*
X171758500Y-130406700D01*
X165227000Y-123370100D02*
X165227000Y-123444000D01*
X170053000Y-116459000D02*
X170053000Y-117909100D01*
X165227000Y-123444000D02*
X165227000Y-124894100D01*
X165227000Y-121993900D02*
X165968200Y-121993900D01*
X170053000Y-113890000D02*
X170053000Y-116459000D01*
X171758500Y-130406700D02*
X166245900Y-124894100D01*
X165968200Y-121993900D02*
X170053000Y-117909100D01*
X166245900Y-124894100D02*
X165227000Y-124894100D01*
X165227000Y-123370100D02*
X165227000Y-121993900D01*
X170180000Y-139065000D02*
X171758500Y-137486500D01*
X165227000Y-132514100D02*
X166169100Y-132514100D01*
X166681100Y-141569700D02*
X168656000Y-139594800D01*
X168656000Y-139594800D02*
X168656000Y-138049000D01*
X105348600Y-127463200D02*
X119455100Y-141569700D01*
X105348600Y-97875300D02*
X105348600Y-127463200D01*
X108100900Y-95123000D02*
X105348600Y-97875300D01*
X168656000Y-138049000D02*
X170180000Y-136525000D01*
X119455100Y-141569700D02*
X166681100Y-141569700D01*
X109601000Y-95123000D02*
X108100900Y-95123000D01*
X165227000Y-131064000D02*
X165227000Y-132514100D01*
X166169100Y-132514100D02*
X170180000Y-136525000D01*
X194720900Y-114474300D02*
X194720900Y-106707900D01*
X175641000Y-113411000D02*
X175162000Y-113890000D01*
X167767000Y-124894100D02*
X172678200Y-129805300D01*
X183940900Y-117098700D02*
X192096500Y-117098700D01*
X174701600Y-137591400D02*
X173228000Y-139065000D01*
X192096500Y-117098700D02*
X194720900Y-114474300D01*
X178801000Y-111958800D02*
X183940900Y-117098700D01*
X175162000Y-113890000D02*
X175162000Y-116459000D01*
X172678200Y-129805300D02*
X172678200Y-133880100D01*
X177093200Y-111958800D02*
X178801000Y-111958800D01*
X174701600Y-135903500D02*
X174701600Y-137591400D01*
X167767000Y-123444000D02*
X167767000Y-124894100D01*
X194720900Y-106707900D02*
X193294000Y-105281000D01*
X175641000Y-113411000D02*
X177093200Y-111958800D01*
X174752000Y-116459000D02*
X167767000Y-123444000D01*
X175162000Y-116459000D02*
X174752000Y-116459000D01*
X172678200Y-133880100D02*
X174701600Y-135903500D01*
X145973200Y-131649200D02*
X147697900Y-133373900D01*
X147328500Y-129073300D02*
X145973200Y-130428600D01*
X154686000Y-116459000D02*
X154686000Y-117909100D01*
X155067000Y-113411000D02*
X154686000Y-113792000D01*
X157607000Y-123444000D02*
X151977700Y-129073300D01*
X153364300Y-135529300D02*
X153364300Y-137587300D01*
X154686000Y-117909100D02*
X157607000Y-120830100D01*
X151208900Y-133373900D02*
X153364300Y-135529300D01*
X153364300Y-137587300D02*
X154940000Y-139163000D01*
X147697900Y-133373900D02*
X151208900Y-133373900D01*
X151977700Y-129073300D02*
X147328500Y-129073300D01*
X145973200Y-130428600D02*
X145973200Y-131649200D01*
X157607000Y-120830100D02*
X157607000Y-123444000D01*
X154686000Y-113792000D02*
X154686000Y-116459000D01*
X145039000Y-130085900D02*
X147781800Y-127343100D01*
X148224300Y-135201900D02*
X145039000Y-132016600D01*
X150294100Y-137741900D02*
X150294100Y-136051400D01*
X154822500Y-123252600D02*
X154822500Y-123444000D01*
X149479000Y-117909100D02*
X154822500Y-123252600D01*
X148844000Y-139192000D02*
X150294100Y-137741900D01*
X150294100Y-136051400D02*
X149444600Y-135201900D01*
X154822500Y-123444000D02*
X155067000Y-123444000D01*
X147781800Y-127343100D02*
X150923400Y-127343100D01*
X149444600Y-135201900D02*
X148224300Y-135201900D01*
X145039000Y-132016600D02*
X145039000Y-130085900D01*
X149479000Y-116459000D02*
X149479000Y-117909100D01*
X150923400Y-127343100D02*
X154822500Y-123444000D01*
X173609000Y-83301900D02*
X170804900Y-83301900D01*
X173609000Y-84752000D02*
X173609000Y-83301900D01*
X191301700Y-107608700D02*
X193294000Y-109601000D01*
X171143100Y-74466700D02*
X168992200Y-74466700D01*
X166878000Y-62259000D02*
X168416500Y-63797500D01*
X173609000Y-83301900D02*
X173667100Y-83243800D01*
X170804900Y-83301900D02*
X165481000Y-77978000D01*
X168992200Y-74466700D02*
X168992200Y-74466800D01*
X168416500Y-65388900D02*
X169274500Y-66246900D01*
X173840700Y-68883200D02*
X173840700Y-71769100D01*
X168992200Y-74466800D02*
X165481000Y-77978000D01*
X169274500Y-66246900D02*
X171204400Y-66246900D01*
X173840700Y-71769100D02*
X171143100Y-74466700D01*
X191301700Y-90526500D02*
X191301700Y-107608700D01*
X168416500Y-63797500D02*
X168416500Y-65388900D01*
X173609000Y-84752000D02*
X173609000Y-87419000D01*
X173667100Y-83243800D02*
X184019000Y-83243800D01*
X173609000Y-87419000D02*
X173101000Y-87927000D01*
X184019000Y-83243800D02*
X191301700Y-90526500D01*
X171204400Y-66246900D02*
X173840700Y-68883200D01*
X152781000Y-85378400D02*
X152781000Y-86202100D01*
X152781000Y-85378400D02*
X152781000Y-84752000D01*
X174463800Y-95060800D02*
X189004000Y-109601000D01*
X156136100Y-62230000D02*
X156136100Y-61776800D01*
X172372600Y-95060800D02*
X174463800Y-95060800D01*
X155321000Y-80761900D02*
X155321000Y-77978000D01*
X159000700Y-58912200D02*
X170118500Y-58912200D01*
X154686000Y-62230000D02*
X156136100Y-62230000D01*
X152273000Y-86710100D02*
X152273000Y-87927000D01*
X152781000Y-83301900D02*
X155321000Y-80761900D01*
X152781000Y-86202100D02*
X152273000Y-86710100D01*
X156136100Y-61776800D02*
X159000700Y-58912200D01*
X152781000Y-84752000D02*
X152781000Y-83301900D01*
X173808300Y-100075400D02*
X187653900Y-113921000D01*
X150241000Y-77978000D02*
X150241000Y-76527900D01*
X189004000Y-113921000D02*
X187653900Y-113921000D01*
X141859000Y-86710100D02*
X141859000Y-87927000D01*
X142367000Y-84752000D02*
X142367000Y-86202100D01*
X149055300Y-73806200D02*
X149055300Y-75342200D01*
X149055300Y-75342200D02*
X150241000Y-76527900D01*
X142367000Y-86202100D02*
X141859000Y-86710100D01*
X170377700Y-75621300D02*
X168021000Y-77978000D01*
X174749000Y-67053000D02*
X174749000Y-72133900D01*
X171261600Y-75621300D02*
X170377700Y-75621300D01*
X169926000Y-62230000D02*
X174749000Y-67053000D01*
X174749000Y-72133900D02*
X171261600Y-75621300D01*
X178787000Y-86159100D02*
X178308000Y-86638100D01*
X178787000Y-84709000D02*
X178787000Y-86159100D01*
X178308000Y-86638100D02*
X178308000Y-87884000D01*
X147574000Y-86202100D02*
X147095000Y-86681100D01*
X188431800Y-111761000D02*
X189004000Y-111761000D01*
X174836300Y-98165500D02*
X188431800Y-111761000D01*
X152781000Y-76105000D02*
X149509200Y-72833200D01*
X147095000Y-86681100D02*
X147095000Y-87927000D01*
X149509200Y-72833200D02*
X148071200Y-72833200D01*
X152781000Y-77978000D02*
X152781000Y-76527900D01*
X147574000Y-84752000D02*
X147574000Y-86202100D01*
X148071200Y-72833200D02*
X147396700Y-73507700D01*
X152781000Y-76527900D02*
X152781000Y-76105000D01*
X170729900Y-72286900D02*
X166553600Y-72286900D01*
X171243100Y-68907800D02*
X172011200Y-69675900D01*
X191021200Y-116193800D02*
X193294000Y-113921000D01*
X172011200Y-71005600D02*
X170729900Y-72286900D01*
X163166000Y-85314900D02*
X163166000Y-84752000D01*
X160401000Y-80536900D02*
X160401000Y-79257400D01*
X162291600Y-63768600D02*
X162291600Y-65282200D01*
X166553600Y-72286900D02*
X160401000Y-78439500D01*
X172011200Y-69675900D02*
X172011200Y-71005600D01*
X163166000Y-83301900D02*
X160401000Y-80536900D01*
X163166000Y-85314900D02*
X163166000Y-86202100D01*
X162687000Y-86681100D02*
X162687000Y-87927000D01*
X160782000Y-62259000D02*
X162291600Y-63768600D01*
X160401000Y-78439500D02*
X160401000Y-79257400D01*
X163166000Y-84752000D02*
X163166000Y-83301900D01*
X162291600Y-65282200D02*
X165917200Y-68907800D01*
X160401000Y-79257400D02*
X160401000Y-77978000D01*
X165917200Y-68907800D02*
X171243100Y-68907800D01*
X187276300Y-116193800D02*
X191021200Y-116193800D01*
X162687000Y-87927000D02*
X162687000Y-91604500D01*
X162687000Y-91604500D02*
X187276300Y-116193800D01*
X163166000Y-86202100D02*
X162687000Y-86681100D01*
X172917300Y-71392900D02*
X170831400Y-73478800D01*
X167894000Y-86681100D02*
X167894000Y-87927000D01*
X165339600Y-63739600D02*
X165339600Y-65377400D01*
X167894000Y-87927000D02*
X167894000Y-95538400D01*
X167407700Y-67445500D02*
X171128100Y-67445500D01*
X162941000Y-77978000D02*
X163049100Y-77978000D01*
X163049100Y-77978000D02*
X163203000Y-78131900D01*
X167856100Y-73478800D02*
X163203000Y-78131900D01*
X167894000Y-95538400D02*
X187626800Y-115271200D01*
X168373000Y-86202100D02*
X167894000Y-86681100D01*
X168373000Y-84752000D02*
X168373000Y-86202100D01*
X193294000Y-112011600D02*
X193294000Y-111761000D01*
X168373000Y-84752000D02*
X168373000Y-83301900D01*
X187626800Y-115271200D02*
X190034400Y-115271200D01*
X170831400Y-73478800D02*
X167856100Y-73478800D01*
X190034400Y-115271200D02*
X193294000Y-112011600D01*
X172917300Y-69234700D02*
X172917300Y-71392900D01*
X163830000Y-62230000D02*
X165339600Y-63739600D01*
X163203000Y-78131900D02*
X168373000Y-83301900D01*
X165339600Y-65377400D02*
X167407700Y-67445500D01*
X171128100Y-67445500D02*
X172917300Y-69234700D01*
X157988000Y-85314900D02*
X157988000Y-86202100D01*
X160216600Y-60773300D02*
X170553500Y-60773300D01*
X159184100Y-61805800D02*
X160216600Y-60773300D01*
X157861000Y-77978000D02*
X157861000Y-79428100D01*
X157480000Y-86710100D02*
X157480000Y-87927000D01*
X170553500Y-60773300D02*
X173366000Y-63585800D01*
X159184100Y-62259000D02*
X159184100Y-61805800D01*
X157734000Y-62259000D02*
X159184100Y-62259000D01*
X157988000Y-85314900D02*
X157988000Y-84752000D01*
X173366000Y-63585800D02*
X173366000Y-64016300D01*
X181536500Y-86538400D02*
X181536500Y-99973500D01*
X157988000Y-79555100D02*
X157988000Y-84752000D01*
X157988000Y-86202100D02*
X157480000Y-86710100D01*
X157861000Y-79428100D02*
X157988000Y-79555100D01*
X181536500Y-99973500D02*
X189004000Y-107441000D01*
X133909100Y-88229200D02*
X133909100Y-108534700D01*
X106295300Y-121288700D02*
X109601000Y-117983000D01*
X108185600Y-128970700D02*
X106295300Y-127080400D01*
X160782000Y-68526900D02*
X160782000Y-64799000D01*
X144926400Y-77211900D02*
X133909100Y-88229200D01*
X106295300Y-127080400D02*
X106295300Y-121288700D01*
X160401000Y-70358000D02*
X160401000Y-68907900D01*
X133909100Y-108534700D02*
X113473100Y-128970700D01*
X160401000Y-68907900D02*
X160782000Y-68526900D01*
X113473100Y-128970700D02*
X108185600Y-128970700D01*
X156087300Y-140613700D02*
X157988000Y-138713000D01*
X153792700Y-140613700D02*
X156087300Y-140613700D01*
X151892000Y-138713000D02*
X153792700Y-140613700D01*
X157988000Y-138713000D02*
X159799000Y-140524000D01*
X134859200Y-133395100D02*
X142119900Y-140655800D01*
X149949200Y-140655800D02*
X151892000Y-138713000D01*
X159799000Y-140524000D02*
X162244000Y-140524000D01*
X134859200Y-89154400D02*
X134859200Y-133395100D01*
X142119900Y-140655800D02*
X149949200Y-140655800D01*
X162244000Y-140524000D02*
X164084000Y-138684000D01*
X115554300Y-119649700D02*
X115554300Y-115940400D01*
X143894100Y-69465900D02*
X148590000Y-64770000D01*
X115554300Y-115940400D02*
X125666000Y-105828700D01*
X143894100Y-71667500D02*
X143894100Y-69465900D01*
X125666000Y-105828700D02*
X125666000Y-89895600D01*
X112141000Y-123063000D02*
X115554300Y-119649700D01*
X125666000Y-89895600D02*
X143894100Y-71667500D01*
X138441500Y-69091400D02*
X120731100Y-86801800D01*
X150918800Y-57833000D02*
X148741300Y-57833000D01*
X148741300Y-57833000D02*
X145865600Y-60708700D01*
X120731100Y-102545500D02*
X115453600Y-107823000D01*
X120731100Y-86801800D02*
X120731100Y-102545500D01*
X106804000Y-112646000D02*
X106804000Y-100680200D01*
X109601000Y-115443000D02*
X106804000Y-112646000D01*
X114541300Y-115680400D02*
X123865800Y-106355900D01*
X114541300Y-118122700D02*
X114541300Y-115680400D01*
X152263800Y-60775700D02*
X153162000Y-61673900D01*
X123865800Y-90422900D02*
X142994000Y-71294700D01*
X142994000Y-65773400D02*
X147991700Y-60775700D01*
X155321000Y-70358000D02*
X155321000Y-68907900D01*
X153162000Y-63246000D02*
X154686000Y-64770000D01*
X154686000Y-64770000D02*
X154686000Y-68272900D01*
X153162000Y-61673900D02*
X153162000Y-63246000D01*
X142994000Y-71294700D02*
X142994000Y-65773400D01*
X154686000Y-68272900D02*
X155321000Y-68907900D01*
X112141000Y-120523000D02*
X114541300Y-118122700D01*
X147991700Y-60775700D02*
X152263800Y-60775700D01*
X123865800Y-106355900D02*
X123865800Y-90422900D01*
X107761300Y-100088000D02*
X106325900Y-98652600D01*
X109601000Y-112903000D02*
X107761300Y-111063300D01*
X107761300Y-111063300D02*
X107761300Y-100088000D01*
X145963500Y-72156800D02*
X145963500Y-70024900D01*
X147517600Y-68470800D02*
X151076600Y-68470800D01*
X112742100Y-127153900D02*
X128483200Y-111412800D01*
X151782500Y-67909400D02*
X152781000Y-68907900D01*
X128483200Y-111412800D02*
X128483200Y-89637100D01*
X151638000Y-67909400D02*
X151638000Y-64770000D01*
X152781000Y-70358000D02*
X152781000Y-68907900D01*
X128483200Y-89637100D02*
X145963500Y-72156800D01*
X151076600Y-68470800D02*
X151638000Y-67909400D01*
X151638000Y-67909400D02*
X151782500Y-67909400D01*
X108100400Y-124563600D02*
X108100400Y-126288400D01*
X109601000Y-123063000D02*
X108100400Y-124563600D01*
X108965900Y-127153900D02*
X112742100Y-127153900D01*
X108100400Y-126288400D02*
X108965900Y-127153900D01*
X145963500Y-70024900D02*
X147517600Y-68470800D01*
X144794300Y-69838800D02*
X147112400Y-67520700D01*
X126566100Y-106272200D02*
X126566100Y-90274800D01*
X126566100Y-90274800D02*
X144794300Y-72046600D01*
X147112400Y-67520700D02*
X150281600Y-67520700D01*
X119666700Y-113171600D02*
X126566100Y-106272200D01*
X144794300Y-72046600D02*
X144794300Y-69838800D01*
X157734000Y-68780900D02*
X157734000Y-64799000D01*
X109601000Y-120523000D02*
X107195400Y-122928600D01*
X113100200Y-128070600D02*
X129956800Y-111214000D01*
X129956800Y-111214000D02*
X129956800Y-90259800D01*
X129956800Y-90259800D02*
X142873000Y-77343600D01*
X157861000Y-70358000D02*
X157861000Y-68907900D01*
X107195400Y-126707500D02*
X108558500Y-128070600D01*
X157861000Y-68907900D02*
X157734000Y-68780900D01*
X107195400Y-122928600D02*
X107195400Y-126707500D01*
X108558500Y-128070600D02*
X113100200Y-128070600D01*
G04 #@! TA.AperFunction,Conductor*
G36*
X202642539Y-52971185D02*
G01*
X202688294Y-53023989D01*
X202699500Y-53075500D01*
X202699500Y-151775500D01*
X202679815Y-151842539D01*
X202627011Y-151888294D01*
X202575500Y-151899500D01*
X103875500Y-151899500D01*
X103808461Y-151879815D01*
X103762706Y-151827011D01*
X103751500Y-151775500D01*
X103751500Y-148722711D01*
X104956500Y-148722711D01*
X104956500Y-148965288D01*
X104988161Y-149205785D01*
X105050947Y-149440104D01*
X105143773Y-149664205D01*
X105143776Y-149664212D01*
X105265064Y-149874289D01*
X105265066Y-149874292D01*
X105265067Y-149874293D01*
X105412733Y-150066736D01*
X105412739Y-150066743D01*
X105584256Y-150238260D01*
X105584262Y-150238265D01*
X105776711Y-150385936D01*
X105986788Y-150507224D01*
X106210900Y-150600054D01*
X106445211Y-150662838D01*
X106625586Y-150686584D01*
X106685711Y-150694500D01*
X106685712Y-150694500D01*
X106928289Y-150694500D01*
X106976388Y-150688167D01*
X107168789Y-150662838D01*
X107403100Y-150600054D01*
X107627212Y-150507224D01*
X107837289Y-150385936D01*
X108029738Y-150238265D01*
X108201265Y-150066738D01*
X108348936Y-149874289D01*
X108470224Y-149664212D01*
X108563054Y-149440100D01*
X108625838Y-149205789D01*
X108657500Y-148965288D01*
X108657500Y-148722712D01*
X108657500Y-148722711D01*
X197793500Y-148722711D01*
X197793500Y-148965288D01*
X197825161Y-149205785D01*
X197887947Y-149440104D01*
X197980773Y-149664205D01*
X197980776Y-149664212D01*
X198102064Y-149874289D01*
X198102066Y-149874292D01*
X198102067Y-149874293D01*
X198249733Y-150066736D01*
X198249739Y-150066743D01*
X198421256Y-150238260D01*
X198421262Y-150238265D01*
X198613711Y-150385936D01*
X198823788Y-150507224D01*
X199047900Y-150600054D01*
X199282211Y-150662838D01*
X199462586Y-150686584D01*
X199522711Y-150694500D01*
X199522712Y-150694500D01*
X199765289Y-150694500D01*
X199813388Y-150688167D01*
X200005789Y-150662838D01*
X200240100Y-150600054D01*
X200464212Y-150507224D01*
X200674289Y-150385936D01*
X200866738Y-150238265D01*
X201038265Y-150066738D01*
X201185936Y-149874289D01*
X201307224Y-149664212D01*
X201400054Y-149440100D01*
X201462838Y-149205789D01*
X201494500Y-148965288D01*
X201494500Y-148722712D01*
X201462838Y-148482211D01*
X201400054Y-148247900D01*
X201307224Y-148023788D01*
X201185936Y-147813711D01*
X201038265Y-147621262D01*
X201038260Y-147621256D01*
X200866743Y-147449739D01*
X200866736Y-147449733D01*
X200674293Y-147302067D01*
X200674292Y-147302066D01*
X200674289Y-147302064D01*
X200464212Y-147180776D01*
X200464205Y-147180773D01*
X200240104Y-147087947D01*
X200005785Y-147025161D01*
X199765289Y-146993500D01*
X199765288Y-146993500D01*
X199522712Y-146993500D01*
X199522711Y-146993500D01*
X199282214Y-147025161D01*
X199047895Y-147087947D01*
X198823794Y-147180773D01*
X198823785Y-147180777D01*
X198613706Y-147302067D01*
X198421263Y-147449733D01*
X198421256Y-147449739D01*
X198249739Y-147621256D01*
X198249733Y-147621263D01*
X198102067Y-147813706D01*
X197980777Y-148023785D01*
X197980773Y-148023794D01*
X197887947Y-148247895D01*
X197825161Y-148482214D01*
X197793500Y-148722711D01*
X108657500Y-148722711D01*
X108625838Y-148482211D01*
X108563054Y-148247900D01*
X108470224Y-148023788D01*
X108348936Y-147813711D01*
X108201265Y-147621262D01*
X108201260Y-147621256D01*
X108029743Y-147449739D01*
X108029736Y-147449733D01*
X107837293Y-147302067D01*
X107837292Y-147302066D01*
X107837289Y-147302064D01*
X107627212Y-147180776D01*
X107627205Y-147180773D01*
X107403104Y-147087947D01*
X107168785Y-147025161D01*
X106928289Y-146993500D01*
X106928288Y-146993500D01*
X106685712Y-146993500D01*
X106685711Y-146993500D01*
X106445214Y-147025161D01*
X106210895Y-147087947D01*
X105986794Y-147180773D01*
X105986785Y-147180777D01*
X105776706Y-147302067D01*
X105584263Y-147449733D01*
X105584256Y-147449739D01*
X105412739Y-147621256D01*
X105412733Y-147621263D01*
X105265067Y-147813706D01*
X105143777Y-148023785D01*
X105143773Y-148023794D01*
X105050947Y-148247895D01*
X104988161Y-148482214D01*
X104956500Y-148722711D01*
X103751500Y-148722711D01*
X103751500Y-98502063D01*
X103771185Y-98435024D01*
X103823989Y-98389269D01*
X103893147Y-98379325D01*
X103941473Y-98397070D01*
X103957575Y-98407188D01*
X104127845Y-98466768D01*
X104127850Y-98466769D01*
X104307096Y-98486965D01*
X104307100Y-98486965D01*
X104307103Y-98486965D01*
X104417548Y-98474520D01*
X104460216Y-98469713D01*
X104529038Y-98481767D01*
X104580418Y-98529116D01*
X104598100Y-98592933D01*
X104598100Y-127537118D01*
X104598100Y-127537120D01*
X104598099Y-127537120D01*
X104626940Y-127682107D01*
X104626943Y-127682117D01*
X104661897Y-127766502D01*
X104683516Y-127818695D01*
X104705561Y-127851688D01*
X104705560Y-127851688D01*
X104765646Y-127941614D01*
X104765652Y-127941621D01*
X118872149Y-142048116D01*
X118976684Y-142152651D01*
X118976687Y-142152653D01*
X118976688Y-142152654D01*
X119099603Y-142234783D01*
X119099606Y-142234785D01*
X119156179Y-142258218D01*
X119156180Y-142258218D01*
X119236188Y-142291359D01*
X119352341Y-142314463D01*
X119371568Y-142318287D01*
X119381181Y-142320200D01*
X119381182Y-142320200D01*
X166755020Y-142320200D01*
X166852562Y-142300796D01*
X166900013Y-142291358D01*
X167036595Y-142234784D01*
X167085829Y-142201886D01*
X167159516Y-142152652D01*
X169212153Y-140100013D01*
X169273476Y-140066529D01*
X169343168Y-140071513D01*
X169370955Y-140086119D01*
X169527266Y-140195568D01*
X169733504Y-140291739D01*
X169953308Y-140350635D01*
X170115230Y-140364801D01*
X170179998Y-140370468D01*
X170180000Y-140370468D01*
X170180002Y-140370468D01*
X170236673Y-140365509D01*
X170406692Y-140350635D01*
X170626496Y-140291739D01*
X170832734Y-140195568D01*
X171019139Y-140065047D01*
X171180047Y-139904139D01*
X171310568Y-139717734D01*
X171406739Y-139511496D01*
X171465635Y-139291692D01*
X171485468Y-139065000D01*
X171470869Y-138898137D01*
X171484635Y-138829639D01*
X171506713Y-138799653D01*
X171788743Y-138517623D01*
X171850064Y-138484140D01*
X171919756Y-138489124D01*
X171975689Y-138530996D01*
X172000106Y-138596460D01*
X171996197Y-138637399D01*
X171942366Y-138838302D01*
X171942364Y-138838313D01*
X171922532Y-139064998D01*
X171922532Y-139065001D01*
X171942364Y-139291686D01*
X171942366Y-139291697D01*
X172001258Y-139511488D01*
X172001261Y-139511497D01*
X172097431Y-139717732D01*
X172097432Y-139717734D01*
X172227954Y-139904141D01*
X172388858Y-140065045D01*
X172398095Y-140071513D01*
X172575266Y-140195568D01*
X172781504Y-140291739D01*
X173001308Y-140350635D01*
X173163230Y-140364801D01*
X173227998Y-140370468D01*
X173228000Y-140370468D01*
X173228002Y-140370468D01*
X173284673Y-140365509D01*
X173454692Y-140350635D01*
X173674496Y-140291739D01*
X173880734Y-140195568D01*
X174067139Y-140065047D01*
X174228047Y-139904139D01*
X174358568Y-139717734D01*
X174454739Y-139511496D01*
X174513635Y-139291692D01*
X174533468Y-139065000D01*
X174518869Y-138898137D01*
X174532635Y-138829639D01*
X174554713Y-138799653D01*
X175284551Y-138069816D01*
X175329129Y-138003100D01*
X175366684Y-137946895D01*
X175423258Y-137810313D01*
X175440981Y-137721214D01*
X175452100Y-137665320D01*
X175452100Y-135829581D01*
X175443005Y-135783862D01*
X175443004Y-135783858D01*
X175423259Y-135684588D01*
X175384099Y-135590049D01*
X175373243Y-135563840D01*
X175366687Y-135548011D01*
X175366683Y-135548004D01*
X175328772Y-135491266D01*
X175284552Y-135425084D01*
X173465019Y-133605551D01*
X173431534Y-133544228D01*
X173428700Y-133517870D01*
X173428700Y-132113249D01*
X173448385Y-132046210D01*
X173501189Y-132000455D01*
X173570347Y-131990511D01*
X173633903Y-132019536D01*
X173640381Y-132025568D01*
X173678858Y-132064045D01*
X173678861Y-132064047D01*
X173865266Y-132194568D01*
X174071504Y-132290739D01*
X174071509Y-132290740D01*
X174071511Y-132290741D01*
X174124415Y-132304916D01*
X174291308Y-132349635D01*
X174453230Y-132363801D01*
X174517998Y-132369468D01*
X174518000Y-132369468D01*
X174518002Y-132369468D01*
X174574673Y-132364509D01*
X174744692Y-132349635D01*
X174964496Y-132290739D01*
X175170734Y-132194568D01*
X175357139Y-132064047D01*
X175518047Y-131903139D01*
X175648568Y-131716734D01*
X175655893Y-131701024D01*
X175702064Y-131648586D01*
X175769257Y-131629433D01*
X175836138Y-131649648D01*
X175880657Y-131701024D01*
X175887864Y-131716480D01*
X175938974Y-131789472D01*
X176618000Y-131110446D01*
X176618000Y-131116661D01*
X176645259Y-131218394D01*
X176697920Y-131309606D01*
X176772394Y-131384080D01*
X176863606Y-131436741D01*
X176965339Y-131464000D01*
X176971553Y-131464000D01*
X176292526Y-132143025D01*
X176365513Y-132194132D01*
X176365521Y-132194136D01*
X176571668Y-132290264D01*
X176571682Y-132290269D01*
X176791389Y-132349139D01*
X176791400Y-132349141D01*
X177017998Y-132368966D01*
X177018002Y-132368966D01*
X177244599Y-132349141D01*
X177244610Y-132349139D01*
X177464317Y-132290269D01*
X177464331Y-132290264D01*
X177670478Y-132194136D01*
X177743471Y-132143024D01*
X177064447Y-131464000D01*
X177070661Y-131464000D01*
X177172394Y-131436741D01*
X177263606Y-131384080D01*
X177338080Y-131309606D01*
X177390741Y-131218394D01*
X177418000Y-131116661D01*
X177418000Y-131110447D01*
X178097024Y-131789471D01*
X178148136Y-131716478D01*
X178244264Y-131510331D01*
X178244269Y-131510317D01*
X178303139Y-131290610D01*
X178303141Y-131290599D01*
X178322966Y-131064002D01*
X178322966Y-131063997D01*
X178303141Y-130837400D01*
X178303139Y-130837389D01*
X178244269Y-130617682D01*
X178244264Y-130617668D01*
X178148136Y-130411521D01*
X178148132Y-130411513D01*
X178097025Y-130338526D01*
X177418000Y-131017551D01*
X177418000Y-131011339D01*
X177390741Y-130909606D01*
X177338080Y-130818394D01*
X177263606Y-130743920D01*
X177172394Y-130691259D01*
X177070661Y-130664000D01*
X177064446Y-130664000D01*
X177743472Y-129984974D01*
X177670478Y-129933863D01*
X177464331Y-129837735D01*
X177464317Y-129837730D01*
X177244610Y-129778860D01*
X177244600Y-129778858D01*
X177159992Y-129771456D01*
X177094923Y-129746003D01*
X177053945Y-129689412D01*
X177050067Y-129619650D01*
X177083117Y-129560250D01*
X178284952Y-128358416D01*
X178325804Y-128297276D01*
X178358030Y-128249046D01*
X178361061Y-128244507D01*
X178367084Y-128235495D01*
X178423658Y-128098913D01*
X178433096Y-128051462D01*
X178452500Y-127953920D01*
X178452500Y-125435996D01*
X188243584Y-125435996D01*
X188243584Y-125436003D01*
X188263229Y-125773298D01*
X188263230Y-125773309D01*
X188321896Y-126106017D01*
X188321899Y-126106031D01*
X188418801Y-126429710D01*
X188552621Y-126739939D01*
X188552627Y-126739952D01*
X188721560Y-127032553D01*
X188923318Y-127303561D01*
X188923323Y-127303567D01*
X188966850Y-127349702D01*
X189155183Y-127549323D01*
X189155189Y-127549328D01*
X189155191Y-127549330D01*
X189414001Y-127766499D01*
X189414006Y-127766502D01*
X189696292Y-127952164D01*
X189998224Y-128103800D01*
X190315717Y-128219358D01*
X190644480Y-128297276D01*
X190980065Y-128336500D01*
X190980072Y-128336500D01*
X191317928Y-128336500D01*
X191317935Y-128336500D01*
X191653520Y-128297276D01*
X191982283Y-128219358D01*
X192299776Y-128103800D01*
X192601708Y-127952164D01*
X192883994Y-127766502D01*
X193142817Y-127549323D01*
X193374678Y-127303565D01*
X193576440Y-127032552D01*
X193745375Y-126739948D01*
X193879198Y-126429711D01*
X193976100Y-126106035D01*
X194034771Y-125773298D01*
X194054416Y-125436000D01*
X194050718Y-125372515D01*
X194050017Y-125360475D01*
X194034771Y-125098702D01*
X193976100Y-124765965D01*
X193879198Y-124442289D01*
X193745375Y-124132052D01*
X193576440Y-123839448D01*
X193576439Y-123839446D01*
X193374681Y-123568438D01*
X193374676Y-123568432D01*
X193203539Y-123387039D01*
X193142817Y-123322677D01*
X193142810Y-123322671D01*
X193142808Y-123322669D01*
X192883998Y-123105500D01*
X192719797Y-122997504D01*
X192601708Y-122919836D01*
X192563504Y-122900649D01*
X192299783Y-122768203D01*
X192299777Y-122768200D01*
X191982284Y-122652642D01*
X191982281Y-122652641D01*
X191743810Y-122596123D01*
X191653520Y-122574724D01*
X191317935Y-122535500D01*
X190980065Y-122535500D01*
X190644480Y-122574724D01*
X190315718Y-122652641D01*
X190315715Y-122652642D01*
X189998222Y-122768200D01*
X189998216Y-122768203D01*
X189696295Y-122919834D01*
X189414001Y-123105500D01*
X189155191Y-123322669D01*
X189155181Y-123322679D01*
X188923323Y-123568432D01*
X188923318Y-123568438D01*
X188721560Y-123839446D01*
X188552627Y-124132047D01*
X188552621Y-124132060D01*
X188418801Y-124442289D01*
X188321899Y-124765968D01*
X188321896Y-124765982D01*
X188263230Y-125098690D01*
X188263229Y-125098701D01*
X188243584Y-125435996D01*
X178452500Y-125435996D01*
X178452500Y-117585662D01*
X178472185Y-117518623D01*
X178505379Y-117484086D01*
X178541140Y-117459046D01*
X178702045Y-117298141D01*
X178702047Y-117298139D01*
X178832568Y-117111734D01*
X178928739Y-116905496D01*
X178987635Y-116685692D01*
X179007468Y-116459000D01*
X178987635Y-116232308D01*
X178928739Y-116012504D01*
X178832568Y-115806266D01*
X178702047Y-115619861D01*
X178702045Y-115619858D01*
X178541141Y-115458954D01*
X178354734Y-115328432D01*
X178354732Y-115328431D01*
X178148497Y-115232261D01*
X178148488Y-115232258D01*
X177928697Y-115173366D01*
X177928693Y-115173365D01*
X177928692Y-115173365D01*
X177928691Y-115173364D01*
X177928686Y-115173364D01*
X177702002Y-115153532D01*
X177701998Y-115153532D01*
X177475313Y-115173364D01*
X177475302Y-115173366D01*
X177255511Y-115232258D01*
X177255502Y-115232261D01*
X177049267Y-115328431D01*
X177049265Y-115328432D01*
X176862858Y-115458954D01*
X176701954Y-115619858D01*
X176571432Y-115806265D01*
X176571431Y-115806267D01*
X176544382Y-115864275D01*
X176498209Y-115916714D01*
X176431016Y-115935866D01*
X176364135Y-115915650D01*
X176319618Y-115864275D01*
X176292568Y-115806267D01*
X176292567Y-115806265D01*
X176162048Y-115619862D01*
X176148665Y-115606479D01*
X176001139Y-115458953D01*
X175978356Y-115443000D01*
X175965375Y-115433910D01*
X175921751Y-115379332D01*
X175912500Y-115332336D01*
X175912500Y-114779777D01*
X175932185Y-114712738D01*
X175984989Y-114666983D01*
X176004408Y-114660002D01*
X176087486Y-114637742D01*
X176087489Y-114637740D01*
X176087496Y-114637739D01*
X176293734Y-114541568D01*
X176480139Y-114411047D01*
X176641047Y-114250139D01*
X176771568Y-114063734D01*
X176798895Y-114005129D01*
X176845064Y-113952695D01*
X176912257Y-113933542D01*
X176979139Y-113953757D01*
X177023657Y-114005133D01*
X177050865Y-114063482D01*
X177181342Y-114249820D01*
X177342179Y-114410657D01*
X177528517Y-114541134D01*
X177734673Y-114637265D01*
X177734682Y-114637269D01*
X177930999Y-114689872D01*
X177931000Y-114689871D01*
X177931000Y-113726686D01*
X177935394Y-113731080D01*
X178026606Y-113783741D01*
X178128339Y-113811000D01*
X178233661Y-113811000D01*
X178335394Y-113783741D01*
X178426606Y-113731080D01*
X178431000Y-113726686D01*
X178431000Y-114689872D01*
X178627317Y-114637269D01*
X178627326Y-114637265D01*
X178833482Y-114541134D01*
X179019820Y-114410657D01*
X179180657Y-114249820D01*
X179311134Y-114063482D01*
X179405852Y-113860359D01*
X179452024Y-113807920D01*
X179519218Y-113788768D01*
X179586099Y-113808984D01*
X179605915Y-113825083D01*
X183462480Y-117681648D01*
X183462484Y-117681651D01*
X183585398Y-117763780D01*
X183585411Y-117763787D01*
X183664229Y-117796434D01*
X183721987Y-117820358D01*
X183721991Y-117820358D01*
X183721992Y-117820359D01*
X183866979Y-117849200D01*
X183866982Y-117849200D01*
X192170420Y-117849200D01*
X192279468Y-117827508D01*
X192315413Y-117820358D01*
X192451995Y-117763784D01*
X192501229Y-117730886D01*
X192574916Y-117681652D01*
X195303852Y-114952716D01*
X195348834Y-114885395D01*
X195382523Y-114834976D01*
X195382524Y-114834974D01*
X195385981Y-114829799D01*
X195385984Y-114829795D01*
X195442558Y-114693213D01*
X195471400Y-114548218D01*
X195471400Y-106633982D01*
X195471400Y-106633979D01*
X195442559Y-106488992D01*
X195442558Y-106488991D01*
X195442558Y-106488987D01*
X195433214Y-106466428D01*
X195385987Y-106352411D01*
X195385980Y-106352398D01*
X195303852Y-106229485D01*
X195303851Y-106229484D01*
X195199316Y-106124949D01*
X194528568Y-105454201D01*
X194495083Y-105392878D01*
X194492778Y-105355078D01*
X194499643Y-105280999D01*
X194479115Y-105059464D01*
X194479114Y-105059462D01*
X194473844Y-105040941D01*
X194418229Y-104845472D01*
X194405219Y-104819344D01*
X194319061Y-104646316D01*
X194319056Y-104646308D01*
X194184979Y-104468761D01*
X194020563Y-104318876D01*
X194004701Y-104309055D01*
X193998536Y-104305238D01*
X193951900Y-104253211D01*
X193940639Y-104185520D01*
X193947326Y-104127879D01*
X193382585Y-103563138D01*
X193467694Y-103540333D01*
X193570306Y-103481090D01*
X193654090Y-103397306D01*
X193713333Y-103294694D01*
X193736138Y-103209584D01*
X194302860Y-103776306D01*
X194302861Y-103776306D01*
X194318631Y-103755425D01*
X194318632Y-103755422D01*
X194417759Y-103556350D01*
X194478621Y-103342439D01*
X194499141Y-103121000D01*
X194499141Y-103120999D01*
X194478621Y-102899560D01*
X194417759Y-102685649D01*
X194318633Y-102486577D01*
X194318631Y-102486574D01*
X194302860Y-102465691D01*
X193736137Y-103032414D01*
X193713333Y-102947306D01*
X193654090Y-102844694D01*
X193570306Y-102760910D01*
X193467694Y-102701667D01*
X193382584Y-102678861D01*
X193947326Y-102114119D01*
X193940501Y-102055290D01*
X193940501Y-102026708D01*
X193947326Y-101967879D01*
X193382585Y-101403138D01*
X193467694Y-101380333D01*
X193570306Y-101321090D01*
X193654090Y-101237306D01*
X193713333Y-101134694D01*
X193736138Y-101049584D01*
X194302860Y-101616306D01*
X194302861Y-101616306D01*
X194318631Y-101595425D01*
X194318632Y-101595422D01*
X194417759Y-101396350D01*
X194478621Y-101182439D01*
X194499141Y-100961000D01*
X194499141Y-100960999D01*
X194478621Y-100739560D01*
X194417759Y-100525649D01*
X194318633Y-100326577D01*
X194318631Y-100326574D01*
X194302860Y-100305691D01*
X193736137Y-100872414D01*
X193713333Y-100787306D01*
X193654090Y-100684694D01*
X193570306Y-100600910D01*
X193467694Y-100541667D01*
X193382584Y-100518861D01*
X193947326Y-99954119D01*
X193940501Y-99895290D01*
X193940501Y-99866708D01*
X193947326Y-99807879D01*
X193382585Y-99243138D01*
X193467694Y-99220333D01*
X193570306Y-99161090D01*
X193654090Y-99077306D01*
X193713333Y-98974694D01*
X193736138Y-98889584D01*
X194302860Y-99456306D01*
X194302861Y-99456306D01*
X194318631Y-99435425D01*
X194318632Y-99435422D01*
X194417759Y-99236350D01*
X194478621Y-99022439D01*
X194499141Y-98801000D01*
X194499141Y-98800999D01*
X194478621Y-98579560D01*
X194417759Y-98365649D01*
X194318633Y-98166577D01*
X194318631Y-98166574D01*
X194302860Y-98145691D01*
X193736137Y-98712414D01*
X193713333Y-98627306D01*
X193654090Y-98524694D01*
X193570306Y-98440910D01*
X193467694Y-98381667D01*
X193382584Y-98358861D01*
X193947326Y-97794119D01*
X193940501Y-97735290D01*
X193940501Y-97706708D01*
X193947326Y-97647879D01*
X193382585Y-97083138D01*
X193467694Y-97060333D01*
X193570306Y-97001090D01*
X193654090Y-96917306D01*
X193713333Y-96814694D01*
X193736138Y-96729584D01*
X194302860Y-97296306D01*
X194302861Y-97296306D01*
X194318631Y-97275425D01*
X194318632Y-97275422D01*
X194417759Y-97076350D01*
X194478621Y-96862439D01*
X194499141Y-96641000D01*
X194499141Y-96640999D01*
X194478621Y-96419560D01*
X194417759Y-96205649D01*
X194318633Y-96006577D01*
X194318631Y-96006574D01*
X194302860Y-95985691D01*
X193736137Y-96552414D01*
X193713333Y-96467306D01*
X193654090Y-96364694D01*
X193570306Y-96280910D01*
X193467694Y-96221667D01*
X193382584Y-96198861D01*
X193947326Y-95634119D01*
X193940501Y-95575290D01*
X193940501Y-95546708D01*
X193947326Y-95487879D01*
X193382585Y-94923138D01*
X193467694Y-94900333D01*
X193570306Y-94841090D01*
X193654090Y-94757306D01*
X193713333Y-94654694D01*
X193736138Y-94569584D01*
X194302860Y-95136306D01*
X194302861Y-95136306D01*
X194318631Y-95115425D01*
X194318632Y-95115422D01*
X194417759Y-94916350D01*
X194478621Y-94702439D01*
X194499141Y-94481000D01*
X194499141Y-94480999D01*
X194478621Y-94259560D01*
X194417759Y-94045649D01*
X194318633Y-93846577D01*
X194318631Y-93846574D01*
X194302860Y-93825691D01*
X193736137Y-94392414D01*
X193713333Y-94307306D01*
X193654090Y-94204694D01*
X193570306Y-94120910D01*
X193467694Y-94061667D01*
X193382584Y-94038861D01*
X193947326Y-93474119D01*
X193940501Y-93415290D01*
X193940501Y-93386708D01*
X193947326Y-93327879D01*
X193382585Y-92763138D01*
X193467694Y-92740333D01*
X193570306Y-92681090D01*
X193654090Y-92597306D01*
X193713333Y-92494694D01*
X193736138Y-92409584D01*
X194302860Y-92976306D01*
X194302861Y-92976306D01*
X194318631Y-92955425D01*
X194318632Y-92955422D01*
X194417759Y-92756350D01*
X194478621Y-92542439D01*
X194499141Y-92321000D01*
X194499141Y-92320999D01*
X194478621Y-92099560D01*
X194417759Y-91885649D01*
X194318633Y-91686577D01*
X194318631Y-91686574D01*
X194302860Y-91665691D01*
X193736137Y-92232414D01*
X193713333Y-92147306D01*
X193654090Y-92044694D01*
X193570306Y-91960910D01*
X193467694Y-91901667D01*
X193382584Y-91878861D01*
X193947326Y-91314119D01*
X193940501Y-91255290D01*
X193940501Y-91226708D01*
X193947326Y-91167879D01*
X193382585Y-90603138D01*
X193467694Y-90580333D01*
X193570306Y-90521090D01*
X193654090Y-90437306D01*
X193713333Y-90334694D01*
X193736138Y-90249584D01*
X194302860Y-90816306D01*
X194302861Y-90816306D01*
X194318631Y-90795425D01*
X194318632Y-90795422D01*
X194417759Y-90596350D01*
X194478621Y-90382439D01*
X194499141Y-90161000D01*
X194499141Y-90160999D01*
X194478621Y-89939560D01*
X194417759Y-89725649D01*
X194318633Y-89526577D01*
X194318631Y-89526574D01*
X194302860Y-89505691D01*
X193736137Y-90072414D01*
X193713333Y-89987306D01*
X193654090Y-89884694D01*
X193570306Y-89800910D01*
X193467694Y-89741667D01*
X193382584Y-89718861D01*
X193947327Y-89154118D01*
X193947326Y-89154117D01*
X193831181Y-89082203D01*
X193831175Y-89082200D01*
X193623804Y-89001865D01*
X193405193Y-88961000D01*
X193182807Y-88961000D01*
X192964195Y-89001865D01*
X192756824Y-89082200D01*
X192756818Y-89082204D01*
X192640672Y-89154117D01*
X192640671Y-89154118D01*
X193205415Y-89718861D01*
X193120306Y-89741667D01*
X193017694Y-89800910D01*
X192933910Y-89884694D01*
X192874667Y-89987306D01*
X192851861Y-90072414D01*
X192285138Y-89505691D01*
X192285137Y-89505691D01*
X192269369Y-89526571D01*
X192170240Y-89725649D01*
X192109378Y-89939559D01*
X192105391Y-89982587D01*
X192079604Y-90047524D01*
X192022803Y-90088211D01*
X191953022Y-90091730D01*
X191892416Y-90056963D01*
X191886065Y-90049807D01*
X191884651Y-90048084D01*
X191877454Y-90040887D01*
X191780116Y-89943549D01*
X189966173Y-88129606D01*
X184497421Y-82660852D01*
X184497414Y-82660846D01*
X184423729Y-82611612D01*
X184423729Y-82611613D01*
X184374491Y-82578713D01*
X184237917Y-82522143D01*
X184237907Y-82522140D01*
X184092920Y-82493300D01*
X184092918Y-82493300D01*
X173593182Y-82493300D01*
X173593180Y-82493300D01*
X173448192Y-82522140D01*
X173448186Y-82522142D01*
X173400340Y-82541961D01*
X173352887Y-82551400D01*
X171167129Y-82551400D01*
X171100090Y-82531715D01*
X171079448Y-82515081D01*
X168049799Y-79485431D01*
X168016314Y-79424108D01*
X168021298Y-79354416D01*
X168063170Y-79298483D01*
X168126670Y-79274223D01*
X168247692Y-79263635D01*
X168467496Y-79204739D01*
X168673734Y-79108568D01*
X168860139Y-78978047D01*
X169021047Y-78817139D01*
X169151568Y-78630734D01*
X169178895Y-78572129D01*
X169225064Y-78519695D01*
X169292257Y-78500542D01*
X169359139Y-78520757D01*
X169403657Y-78572133D01*
X169430865Y-78630482D01*
X169561342Y-78816820D01*
X169722179Y-78977657D01*
X169908517Y-79108134D01*
X170114673Y-79204265D01*
X170114682Y-79204269D01*
X170310999Y-79256872D01*
X170311000Y-79256871D01*
X170311000Y-78293686D01*
X170315394Y-78298080D01*
X170406606Y-78350741D01*
X170508339Y-78378000D01*
X170613661Y-78378000D01*
X170715394Y-78350741D01*
X170806606Y-78298080D01*
X170811000Y-78293686D01*
X170811000Y-79256872D01*
X171007317Y-79204269D01*
X171007326Y-79204265D01*
X171213482Y-79108134D01*
X171399820Y-78977657D01*
X171560657Y-78816820D01*
X171680271Y-78645996D01*
X188243584Y-78645996D01*
X188243584Y-78646003D01*
X188263229Y-78983298D01*
X188263230Y-78983309D01*
X188321896Y-79316017D01*
X188321899Y-79316031D01*
X188321900Y-79316035D01*
X188343209Y-79387214D01*
X188418801Y-79639710D01*
X188552621Y-79949939D01*
X188552627Y-79949952D01*
X188721560Y-80242553D01*
X188923318Y-80513561D01*
X188923323Y-80513567D01*
X189015077Y-80610820D01*
X189155183Y-80759323D01*
X189155189Y-80759328D01*
X189155191Y-80759330D01*
X189414001Y-80976499D01*
X189459722Y-81006570D01*
X189696292Y-81162164D01*
X189998224Y-81313800D01*
X190315717Y-81429358D01*
X190644480Y-81507276D01*
X190980065Y-81546500D01*
X190980072Y-81546500D01*
X191317928Y-81546500D01*
X191317935Y-81546500D01*
X191653520Y-81507276D01*
X191982283Y-81429358D01*
X192299776Y-81313800D01*
X192601708Y-81162164D01*
X192883994Y-80976502D01*
X192949548Y-80921496D01*
X193051654Y-80835818D01*
X193142817Y-80759323D01*
X193374678Y-80513565D01*
X193576440Y-80242552D01*
X193745375Y-79949948D01*
X193879198Y-79639711D01*
X193976100Y-79316035D01*
X194034771Y-78983298D01*
X194054416Y-78646000D01*
X194034771Y-78308702D01*
X194026107Y-78259569D01*
X193976103Y-77975982D01*
X193976102Y-77975981D01*
X193976100Y-77975965D01*
X193879198Y-77652289D01*
X193745375Y-77342052D01*
X193670937Y-77213122D01*
X193576439Y-77049446D01*
X193374681Y-76778438D01*
X193374676Y-76778432D01*
X193254715Y-76651282D01*
X193142817Y-76532677D01*
X193142810Y-76532671D01*
X193142808Y-76532669D01*
X192883998Y-76315500D01*
X192666431Y-76172405D01*
X192601708Y-76129836D01*
X192480761Y-76069094D01*
X192299783Y-75978203D01*
X192299777Y-75978200D01*
X191982284Y-75862642D01*
X191982281Y-75862641D01*
X191755639Y-75808926D01*
X191653520Y-75784724D01*
X191317935Y-75745500D01*
X190980065Y-75745500D01*
X190644480Y-75784724D01*
X190315718Y-75862641D01*
X190315715Y-75862642D01*
X189998222Y-75978200D01*
X189998216Y-75978203D01*
X189696295Y-76129834D01*
X189414001Y-76315500D01*
X189155191Y-76532669D01*
X189155181Y-76532679D01*
X188923323Y-76778432D01*
X188923318Y-76778438D01*
X188721560Y-77049446D01*
X188552627Y-77342047D01*
X188552621Y-77342060D01*
X188418801Y-77652289D01*
X188321899Y-77975968D01*
X188321896Y-77975982D01*
X188263230Y-78308690D01*
X188263229Y-78308701D01*
X188243584Y-78645996D01*
X171680271Y-78645996D01*
X171691134Y-78630482D01*
X171787265Y-78424326D01*
X171787269Y-78424317D01*
X171839872Y-78228000D01*
X170876686Y-78228000D01*
X170881080Y-78223606D01*
X170933741Y-78132394D01*
X170961000Y-78030661D01*
X170961000Y-77925339D01*
X170933741Y-77823606D01*
X170881080Y-77732394D01*
X170876686Y-77728000D01*
X171839872Y-77728000D01*
X171839872Y-77727999D01*
X171787269Y-77531682D01*
X171787265Y-77531673D01*
X171691134Y-77325517D01*
X171560657Y-77139179D01*
X171399820Y-76978342D01*
X171213482Y-76847865D01*
X171007328Y-76751734D01*
X170811000Y-76699127D01*
X170811000Y-77662314D01*
X170806606Y-77657920D01*
X170715394Y-77605259D01*
X170613661Y-77578000D01*
X170508339Y-77578000D01*
X170406606Y-77605259D01*
X170315394Y-77657920D01*
X170311000Y-77662314D01*
X170311000Y-76800729D01*
X170330685Y-76733690D01*
X170347319Y-76713048D01*
X170652248Y-76408119D01*
X170713571Y-76374634D01*
X170739929Y-76371800D01*
X171335520Y-76371800D01*
X171433062Y-76352396D01*
X171480513Y-76342958D01*
X171617095Y-76286384D01*
X171670546Y-76250669D01*
X171740016Y-76204252D01*
X175331951Y-72612316D01*
X175414084Y-72489395D01*
X175470658Y-72352813D01*
X175491060Y-72250248D01*
X175499500Y-72207820D01*
X175499500Y-70337998D01*
X190591532Y-70337998D01*
X190591532Y-70338001D01*
X190611364Y-70564686D01*
X190611366Y-70564697D01*
X190670258Y-70784488D01*
X190670261Y-70784497D01*
X190766431Y-70990732D01*
X190766432Y-70990734D01*
X190896954Y-71177141D01*
X191057858Y-71338045D01*
X191057861Y-71338047D01*
X191244266Y-71468568D01*
X191450504Y-71564739D01*
X191670308Y-71623635D01*
X191832230Y-71637801D01*
X191896998Y-71643468D01*
X191897000Y-71643468D01*
X191897002Y-71643468D01*
X191953673Y-71638509D01*
X192123692Y-71623635D01*
X192343496Y-71564739D01*
X192549734Y-71468568D01*
X192736139Y-71338047D01*
X192897047Y-71177139D01*
X193027568Y-70990734D01*
X193123739Y-70784496D01*
X193169959Y-70611998D01*
X195417532Y-70611998D01*
X195417532Y-70612001D01*
X195437364Y-70838686D01*
X195437366Y-70838697D01*
X195496258Y-71058488D01*
X195496261Y-71058497D01*
X195592431Y-71264732D01*
X195592432Y-71264734D01*
X195722954Y-71451141D01*
X195883858Y-71612045D01*
X195928735Y-71643468D01*
X196070266Y-71742568D01*
X196276504Y-71838739D01*
X196496308Y-71897635D01*
X196658230Y-71911801D01*
X196722998Y-71917468D01*
X196723000Y-71917468D01*
X196723002Y-71917468D01*
X196779673Y-71912509D01*
X196949692Y-71897635D01*
X197169496Y-71838739D01*
X197375734Y-71742568D01*
X197562139Y-71612047D01*
X197723047Y-71451139D01*
X197853568Y-71264734D01*
X197949739Y-71058496D01*
X198008635Y-70838692D01*
X198028468Y-70612000D01*
X198008635Y-70385308D01*
X197949739Y-70165504D01*
X197853568Y-69959266D01*
X197723047Y-69772861D01*
X197723045Y-69772858D01*
X197562141Y-69611954D01*
X197429190Y-69518862D01*
X197375734Y-69481432D01*
X197317132Y-69454105D01*
X197264694Y-69407933D01*
X197245543Y-69340739D01*
X197265759Y-69273858D01*
X197317135Y-69229341D01*
X197375482Y-69202133D01*
X197448471Y-69151024D01*
X196769447Y-68472000D01*
X196775661Y-68472000D01*
X196877394Y-68444741D01*
X196968606Y-68392080D01*
X197043080Y-68317606D01*
X197095741Y-68226394D01*
X197123000Y-68124661D01*
X197123000Y-68118447D01*
X197802024Y-68797471D01*
X197853136Y-68724478D01*
X197949264Y-68518331D01*
X197949269Y-68518317D01*
X198008139Y-68298610D01*
X198008141Y-68298599D01*
X198027966Y-68072002D01*
X198027966Y-68071997D01*
X198008141Y-67845400D01*
X198008139Y-67845389D01*
X197949269Y-67625682D01*
X197949264Y-67625668D01*
X197853136Y-67419521D01*
X197853132Y-67419513D01*
X197802025Y-67346526D01*
X197123000Y-68025551D01*
X197123000Y-68019339D01*
X197095741Y-67917606D01*
X197043080Y-67826394D01*
X196968606Y-67751920D01*
X196877394Y-67699259D01*
X196775661Y-67672000D01*
X196769445Y-67672000D01*
X197448472Y-66992974D01*
X197375478Y-66941863D01*
X197169331Y-66845735D01*
X197169317Y-66845730D01*
X196949610Y-66786860D01*
X196949599Y-66786858D01*
X196723002Y-66767034D01*
X196722998Y-66767034D01*
X196496400Y-66786858D01*
X196496389Y-66786860D01*
X196276682Y-66845730D01*
X196276673Y-66845734D01*
X196070516Y-66941866D01*
X196070512Y-66941868D01*
X195997526Y-66992973D01*
X195997526Y-66992974D01*
X196676553Y-67672000D01*
X196670339Y-67672000D01*
X196568606Y-67699259D01*
X196477394Y-67751920D01*
X196402920Y-67826394D01*
X196350259Y-67917606D01*
X196323000Y-68019339D01*
X196323000Y-68025552D01*
X195643974Y-67346526D01*
X195643973Y-67346526D01*
X195592868Y-67419512D01*
X195592866Y-67419516D01*
X195496734Y-67625673D01*
X195496730Y-67625682D01*
X195437860Y-67845389D01*
X195437858Y-67845400D01*
X195418034Y-68071997D01*
X195418034Y-68072002D01*
X195437858Y-68298599D01*
X195437860Y-68298610D01*
X195496730Y-68518317D01*
X195496735Y-68518331D01*
X195592863Y-68724478D01*
X195643974Y-68797472D01*
X196323000Y-68118446D01*
X196323000Y-68124661D01*
X196350259Y-68226394D01*
X196402920Y-68317606D01*
X196477394Y-68392080D01*
X196568606Y-68444741D01*
X196670339Y-68472000D01*
X196676553Y-68472000D01*
X195997526Y-69151025D01*
X196070513Y-69202132D01*
X196070521Y-69202136D01*
X196128864Y-69229342D01*
X196181304Y-69275514D01*
X196200456Y-69342707D01*
X196180241Y-69409589D01*
X196128866Y-69454105D01*
X196070272Y-69481428D01*
X196070265Y-69481432D01*
X195883858Y-69611954D01*
X195722954Y-69772858D01*
X195592432Y-69959265D01*
X195592431Y-69959267D01*
X195496261Y-70165502D01*
X195496258Y-70165511D01*
X195437366Y-70385302D01*
X195437364Y-70385313D01*
X195417532Y-70611998D01*
X193169959Y-70611998D01*
X193182635Y-70564692D01*
X193202468Y-70338000D01*
X193182635Y-70111308D01*
X193123739Y-69891504D01*
X193027568Y-69685266D01*
X192897047Y-69498861D01*
X192897045Y-69498858D01*
X192736141Y-69337954D01*
X192549734Y-69207432D01*
X192549730Y-69207430D01*
X192534022Y-69200105D01*
X192481583Y-69153931D01*
X192462433Y-69086737D01*
X192482650Y-69019857D01*
X192534028Y-68975340D01*
X192549481Y-68968134D01*
X192622471Y-68917024D01*
X191943447Y-68238000D01*
X191949661Y-68238000D01*
X192051394Y-68210741D01*
X192142606Y-68158080D01*
X192217080Y-68083606D01*
X192269741Y-67992394D01*
X192297000Y-67890661D01*
X192297000Y-67884447D01*
X192976024Y-68563471D01*
X193027136Y-68490478D01*
X193123264Y-68284331D01*
X193123269Y-68284317D01*
X193182139Y-68064610D01*
X193182141Y-68064599D01*
X193201966Y-67838002D01*
X193201966Y-67837997D01*
X193182141Y-67611400D01*
X193182139Y-67611389D01*
X193123269Y-67391682D01*
X193123264Y-67391668D01*
X193027136Y-67185521D01*
X193027132Y-67185513D01*
X192976025Y-67112526D01*
X192297000Y-67791551D01*
X192297000Y-67785339D01*
X192269741Y-67683606D01*
X192217080Y-67592394D01*
X192142606Y-67517920D01*
X192051394Y-67465259D01*
X191949661Y-67438000D01*
X191943445Y-67438000D01*
X192622472Y-66758974D01*
X192549478Y-66707863D01*
X192343331Y-66611735D01*
X192343317Y-66611730D01*
X192123610Y-66552860D01*
X192123599Y-66552858D01*
X191897002Y-66533034D01*
X191896998Y-66533034D01*
X191670400Y-66552858D01*
X191670389Y-66552860D01*
X191450682Y-66611730D01*
X191450673Y-66611734D01*
X191244516Y-66707866D01*
X191244512Y-66707868D01*
X191171526Y-66758973D01*
X191171526Y-66758974D01*
X191850553Y-67438000D01*
X191844339Y-67438000D01*
X191742606Y-67465259D01*
X191651394Y-67517920D01*
X191576920Y-67592394D01*
X191524259Y-67683606D01*
X191497000Y-67785339D01*
X191497000Y-67791552D01*
X190817974Y-67112526D01*
X190817973Y-67112526D01*
X190766868Y-67185512D01*
X190766866Y-67185516D01*
X190670734Y-67391673D01*
X190670730Y-67391682D01*
X190611860Y-67611389D01*
X190611858Y-67611400D01*
X190592034Y-67837997D01*
X190592034Y-67838002D01*
X190611858Y-68064599D01*
X190611860Y-68064610D01*
X190670730Y-68284317D01*
X190670735Y-68284331D01*
X190766863Y-68490478D01*
X190817974Y-68563472D01*
X191497000Y-67884446D01*
X191497000Y-67890661D01*
X191524259Y-67992394D01*
X191576920Y-68083606D01*
X191651394Y-68158080D01*
X191742606Y-68210741D01*
X191844339Y-68238000D01*
X191850553Y-68238000D01*
X191171526Y-68917025D01*
X191244513Y-68968132D01*
X191244515Y-68968133D01*
X191259973Y-68975341D01*
X191312413Y-69021513D01*
X191331566Y-69088706D01*
X191311351Y-69155587D01*
X191259979Y-69200104D01*
X191244270Y-69207429D01*
X191244265Y-69207432D01*
X191057858Y-69337954D01*
X190896954Y-69498858D01*
X190766432Y-69685265D01*
X190766431Y-69685267D01*
X190670261Y-69891502D01*
X190670258Y-69891511D01*
X190611366Y-70111302D01*
X190611364Y-70111313D01*
X190591532Y-70337998D01*
X175499500Y-70337998D01*
X175499500Y-66979079D01*
X175470659Y-66834092D01*
X175470658Y-66834091D01*
X175470658Y-66834087D01*
X175439545Y-66758973D01*
X175414085Y-66697507D01*
X175395884Y-66670267D01*
X175350534Y-66602395D01*
X175331952Y-66574584D01*
X173692780Y-64935412D01*
X173659295Y-64874089D01*
X173664279Y-64804397D01*
X173706151Y-64748464D01*
X173714489Y-64742737D01*
X173715518Y-64742090D01*
X173715522Y-64742089D01*
X173868262Y-64646116D01*
X173995816Y-64518562D01*
X174091789Y-64365822D01*
X174151368Y-64195555D01*
X174151369Y-64195549D01*
X174171565Y-64016303D01*
X174171565Y-64016296D01*
X174151368Y-63837047D01*
X174151368Y-63837045D01*
X174123458Y-63757282D01*
X174116500Y-63716328D01*
X174116500Y-63511880D01*
X174105531Y-63456740D01*
X174105531Y-63456739D01*
X174087659Y-63366888D01*
X174042989Y-63259047D01*
X174042988Y-63259045D01*
X174042988Y-63259042D01*
X174031088Y-63230314D01*
X174031086Y-63230311D01*
X174031084Y-63230305D01*
X174030910Y-63230045D01*
X173948954Y-63107388D01*
X173948953Y-63107387D01*
X173948951Y-63107384D01*
X173844416Y-63002849D01*
X173225961Y-62384394D01*
X171031921Y-60190352D01*
X171031914Y-60190346D01*
X170958229Y-60141112D01*
X170958229Y-60141113D01*
X170908991Y-60108213D01*
X170772417Y-60051643D01*
X170772407Y-60051640D01*
X170627420Y-60022800D01*
X170627418Y-60022800D01*
X160142682Y-60022800D01*
X160130617Y-60025200D01*
X160130616Y-60025200D01*
X159997695Y-60051639D01*
X159997687Y-60051641D01*
X159931918Y-60078884D01*
X159861109Y-60108214D01*
X159861101Y-60108218D01*
X159778972Y-60163095D01*
X159738185Y-60190347D01*
X159738181Y-60190350D01*
X158703434Y-61225097D01*
X158642111Y-61258582D01*
X158572419Y-61253598D01*
X158544630Y-61238991D01*
X158524074Y-61224598D01*
X158386734Y-61128432D01*
X158180496Y-61032261D01*
X158180493Y-61032260D01*
X158178346Y-61031259D01*
X158125907Y-60985087D01*
X158106755Y-60917893D01*
X158126971Y-60851012D01*
X158143065Y-60831201D01*
X159275248Y-59699019D01*
X159336571Y-59665534D01*
X159362929Y-59662700D01*
X169818528Y-59662700D01*
X169859483Y-59669658D01*
X169939245Y-59697568D01*
X169939250Y-59697569D01*
X170118496Y-59717765D01*
X170118500Y-59717765D01*
X170118504Y-59717765D01*
X170297749Y-59697569D01*
X170297752Y-59697568D01*
X170297755Y-59697568D01*
X170468022Y-59637989D01*
X170620762Y-59542016D01*
X170748316Y-59414462D01*
X170844289Y-59261722D01*
X170903868Y-59091455D01*
X170924065Y-58912200D01*
X170921891Y-58892907D01*
X170903869Y-58732950D01*
X170903868Y-58732945D01*
X170870843Y-58638565D01*
X170844289Y-58562678D01*
X170841845Y-58558789D01*
X170748315Y-58409937D01*
X170620762Y-58282384D01*
X170468023Y-58186411D01*
X170297754Y-58126831D01*
X170297749Y-58126830D01*
X170118504Y-58106635D01*
X170118496Y-58106635D01*
X169939250Y-58126830D01*
X169939245Y-58126831D01*
X169859483Y-58154742D01*
X169818528Y-58161700D01*
X158926780Y-58161700D01*
X158781792Y-58190540D01*
X158781782Y-58190543D01*
X158645211Y-58247112D01*
X158645198Y-58247119D01*
X158522284Y-58329248D01*
X158522280Y-58329251D01*
X155655434Y-61196097D01*
X155594111Y-61229582D01*
X155524419Y-61224598D01*
X155496630Y-61209991D01*
X155338734Y-61099432D01*
X155338732Y-61099431D01*
X155132497Y-61003261D01*
X155132488Y-61003258D01*
X154912697Y-60944366D01*
X154912693Y-60944365D01*
X154912692Y-60944365D01*
X154912691Y-60944364D01*
X154912686Y-60944364D01*
X154686002Y-60924532D01*
X154685998Y-60924532D01*
X154459313Y-60944364D01*
X154459302Y-60944366D01*
X154239511Y-61003258D01*
X154239502Y-61003261D01*
X154033267Y-61099431D01*
X153892424Y-61198049D01*
X153826218Y-61220376D01*
X153758451Y-61203364D01*
X153733621Y-61184154D01*
X152742221Y-60192752D01*
X152742214Y-60192746D01*
X152668529Y-60143512D01*
X152668529Y-60143513D01*
X152619291Y-60110613D01*
X152482717Y-60054043D01*
X152482707Y-60054040D01*
X152337720Y-60025200D01*
X152337718Y-60025200D01*
X147917782Y-60025200D01*
X147911690Y-60025200D01*
X147911690Y-60022896D01*
X147853119Y-60011779D01*
X147802415Y-59963707D01*
X147785750Y-59895854D01*
X147808415Y-59829763D01*
X147821945Y-59813722D01*
X147917903Y-59717765D01*
X149015849Y-58619819D01*
X149077172Y-58586334D01*
X149103530Y-58583500D01*
X150618828Y-58583500D01*
X150659783Y-58590458D01*
X150739545Y-58618368D01*
X150739550Y-58618369D01*
X150918796Y-58638565D01*
X150918800Y-58638565D01*
X150918804Y-58638565D01*
X151098049Y-58618369D01*
X151098052Y-58618368D01*
X151098055Y-58618368D01*
X151268322Y-58558789D01*
X151421062Y-58462816D01*
X151548616Y-58335262D01*
X151644589Y-58182522D01*
X151704168Y-58012255D01*
X151707149Y-57985797D01*
X151724365Y-57833003D01*
X151724365Y-57832996D01*
X151704169Y-57653750D01*
X151704168Y-57653745D01*
X151644588Y-57483476D01*
X151548615Y-57330737D01*
X151421062Y-57203184D01*
X151268323Y-57107211D01*
X151098054Y-57047631D01*
X151098049Y-57047630D01*
X150918804Y-57027435D01*
X150918796Y-57027435D01*
X150739550Y-57047630D01*
X150739545Y-57047631D01*
X150659783Y-57075542D01*
X150618828Y-57082500D01*
X148667380Y-57082500D01*
X148522392Y-57111340D01*
X148522386Y-57111342D01*
X148385808Y-57167914D01*
X148385796Y-57167921D01*
X148336569Y-57200813D01*
X148262888Y-57250044D01*
X148262880Y-57250050D01*
X145557537Y-59955393D01*
X145521476Y-59978062D01*
X145522356Y-59979888D01*
X145516078Y-59982911D01*
X145363337Y-60078884D01*
X145235784Y-60206437D01*
X145139811Y-60359176D01*
X145080231Y-60529445D01*
X145080230Y-60529450D01*
X145060035Y-60708696D01*
X145060035Y-60708700D01*
X145080230Y-60887949D01*
X145080231Y-60887954D01*
X145139811Y-61058223D01*
X145208718Y-61167887D01*
X145235784Y-61210962D01*
X145363338Y-61338516D01*
X145516078Y-61434489D01*
X145670798Y-61488628D01*
X145686345Y-61494068D01*
X145686350Y-61494069D01*
X145865596Y-61514265D01*
X145865598Y-61514265D01*
X145865598Y-61514264D01*
X145865600Y-61514265D01*
X145881039Y-61512525D01*
X145949859Y-61524578D01*
X146001240Y-61571925D01*
X146018866Y-61639535D01*
X145997141Y-61705942D01*
X145982605Y-61723426D01*
X142411050Y-65294980D01*
X142411044Y-65294988D01*
X142361812Y-65368668D01*
X142361813Y-65368669D01*
X142328921Y-65417896D01*
X142328914Y-65417908D01*
X142272342Y-65554486D01*
X142272340Y-65554492D01*
X142243500Y-65699479D01*
X142243500Y-68827170D01*
X142223815Y-68894209D01*
X142171011Y-68939964D01*
X142101853Y-68949908D01*
X142038297Y-68920883D01*
X142031819Y-68914851D01*
X137977617Y-64860649D01*
X137889344Y-64801668D01*
X137854695Y-64778516D01*
X137854691Y-64778514D01*
X137854689Y-64778513D01*
X137854690Y-64778513D01*
X137718117Y-64721943D01*
X137718107Y-64721940D01*
X137573120Y-64693100D01*
X137573118Y-64693100D01*
X130502600Y-64693100D01*
X130435561Y-64673415D01*
X130389806Y-64620611D01*
X130378600Y-64569100D01*
X130378600Y-58180179D01*
X130367988Y-58126830D01*
X130365196Y-58112796D01*
X130349759Y-58035188D01*
X130296627Y-57906917D01*
X130296627Y-57906916D01*
X130293187Y-57898610D01*
X130293180Y-57898598D01*
X130211052Y-57775685D01*
X130189508Y-57754141D01*
X130106516Y-57671149D01*
X129560068Y-57124701D01*
X129526583Y-57063378D01*
X129527545Y-57006576D01*
X129529134Y-57000305D01*
X129539658Y-56873297D01*
X129548300Y-56769006D01*
X129548300Y-56768993D01*
X129529135Y-56537702D01*
X129529133Y-56537691D01*
X129472157Y-56312699D01*
X129378924Y-56100151D01*
X129251983Y-55905852D01*
X129251980Y-55905849D01*
X129251979Y-55905847D01*
X129233443Y-55885711D01*
X197793500Y-55885711D01*
X197793500Y-56128288D01*
X197817777Y-56312699D01*
X197825162Y-56368789D01*
X197836390Y-56410691D01*
X197887947Y-56603104D01*
X197904061Y-56642006D01*
X197980776Y-56827212D01*
X198102064Y-57037289D01*
X198102066Y-57037292D01*
X198102067Y-57037293D01*
X198249733Y-57229736D01*
X198249739Y-57229743D01*
X198421256Y-57401260D01*
X198421262Y-57401265D01*
X198613711Y-57548936D01*
X198823788Y-57670224D01*
X199047900Y-57763054D01*
X199282211Y-57825838D01*
X199462586Y-57849584D01*
X199522711Y-57857500D01*
X199522712Y-57857500D01*
X199765289Y-57857500D01*
X199813388Y-57851167D01*
X200005789Y-57825838D01*
X200240100Y-57763054D01*
X200464212Y-57670224D01*
X200674289Y-57548936D01*
X200866738Y-57401265D01*
X201038265Y-57229738D01*
X201185936Y-57037289D01*
X201307224Y-56827212D01*
X201400054Y-56603100D01*
X201462838Y-56368789D01*
X201494500Y-56128288D01*
X201494500Y-55885712D01*
X201462838Y-55645211D01*
X201400054Y-55410900D01*
X201307224Y-55186788D01*
X201185936Y-54976711D01*
X201038265Y-54784262D01*
X201038260Y-54784256D01*
X200866743Y-54612739D01*
X200866736Y-54612733D01*
X200674293Y-54465067D01*
X200674292Y-54465066D01*
X200674289Y-54465064D01*
X200464212Y-54343776D01*
X200464205Y-54343773D01*
X200240104Y-54250947D01*
X200005785Y-54188161D01*
X199765289Y-54156500D01*
X199765288Y-54156500D01*
X199522712Y-54156500D01*
X199522711Y-54156500D01*
X199282214Y-54188161D01*
X199047895Y-54250947D01*
X198823794Y-54343773D01*
X198823785Y-54343777D01*
X198680126Y-54426719D01*
X198623153Y-54459613D01*
X198613706Y-54465067D01*
X198421263Y-54612733D01*
X198421256Y-54612739D01*
X198249739Y-54784256D01*
X198249733Y-54784263D01*
X198102067Y-54976706D01*
X197980777Y-55186785D01*
X197980773Y-55186794D01*
X197887947Y-55410895D01*
X197825161Y-55645214D01*
X197793500Y-55885711D01*
X129233443Y-55885711D01*
X129094784Y-55735087D01*
X129094779Y-55735083D01*
X129094777Y-55735081D01*
X128911634Y-55592535D01*
X128911628Y-55592531D01*
X128707504Y-55482064D01*
X128707495Y-55482061D01*
X128487984Y-55406702D01*
X128297450Y-55374908D01*
X128259049Y-55368500D01*
X128026951Y-55368500D01*
X127988550Y-55374908D01*
X127798015Y-55406702D01*
X127578504Y-55482061D01*
X127578495Y-55482064D01*
X127374371Y-55592531D01*
X127374365Y-55592535D01*
X127191222Y-55735081D01*
X127191218Y-55735085D01*
X127182866Y-55744158D01*
X127122979Y-55780148D01*
X127053141Y-55778047D01*
X126995525Y-55738522D01*
X126975455Y-55703507D01*
X126946797Y-55626671D01*
X126946793Y-55626664D01*
X126860547Y-55511455D01*
X126860544Y-55511452D01*
X126745335Y-55425206D01*
X126745328Y-55425202D01*
X126610482Y-55374908D01*
X126610483Y-55374908D01*
X126550883Y-55368501D01*
X126550881Y-55368500D01*
X126550873Y-55368500D01*
X126550864Y-55368500D01*
X124655129Y-55368500D01*
X124655123Y-55368501D01*
X124595516Y-55374908D01*
X124460671Y-55425202D01*
X124460664Y-55425206D01*
X124345455Y-55511452D01*
X124345452Y-55511455D01*
X124259206Y-55626664D01*
X124259202Y-55626671D01*
X124208908Y-55761517D01*
X124202501Y-55821116D01*
X124202500Y-55821135D01*
X124202500Y-57716870D01*
X124202501Y-57716876D01*
X124208908Y-57776483D01*
X124259202Y-57911328D01*
X124259206Y-57911335D01*
X124345452Y-58026544D01*
X124345455Y-58026547D01*
X124460664Y-58112793D01*
X124460671Y-58112797D01*
X124498296Y-58126830D01*
X124595517Y-58163091D01*
X124655127Y-58169500D01*
X124728500Y-58169499D01*
X124795538Y-58189183D01*
X124841294Y-58241986D01*
X124852500Y-58293499D01*
X124852500Y-61103336D01*
X124832815Y-61170375D01*
X124799625Y-61204910D01*
X124763863Y-61229951D01*
X124602951Y-61390862D01*
X124472432Y-61577265D01*
X124472431Y-61577267D01*
X124376261Y-61783502D01*
X124376258Y-61783511D01*
X124317366Y-62003302D01*
X124317364Y-62003313D01*
X124297532Y-62229998D01*
X124297532Y-62230001D01*
X124317364Y-62456686D01*
X124317366Y-62456697D01*
X124376258Y-62676488D01*
X124376261Y-62676497D01*
X124472431Y-62882732D01*
X124472432Y-62882734D01*
X124602954Y-63069141D01*
X124763858Y-63230045D01*
X124763861Y-63230047D01*
X124950266Y-63360568D01*
X125156504Y-63456739D01*
X125376308Y-63515635D01*
X125538230Y-63529801D01*
X125602998Y-63535468D01*
X125603000Y-63535468D01*
X125603002Y-63535468D01*
X125665682Y-63529984D01*
X125829692Y-63515635D01*
X126049496Y-63456739D01*
X126255734Y-63360568D01*
X126442139Y-63230047D01*
X126603047Y-63069139D01*
X126733568Y-62882734D01*
X126760895Y-62824129D01*
X126807064Y-62771695D01*
X126874257Y-62752542D01*
X126941139Y-62772757D01*
X126985657Y-62824133D01*
X127012865Y-62882482D01*
X127143342Y-63068820D01*
X127304179Y-63229657D01*
X127490517Y-63360134D01*
X127696673Y-63456265D01*
X127696682Y-63456269D01*
X127892999Y-63508872D01*
X127893000Y-63508871D01*
X127893000Y-62545686D01*
X127897394Y-62550080D01*
X127988606Y-62602741D01*
X128090339Y-62630000D01*
X128195661Y-62630000D01*
X128297394Y-62602741D01*
X128388606Y-62550080D01*
X128393000Y-62545686D01*
X128393000Y-63508872D01*
X128589317Y-63456269D01*
X128589326Y-63456265D01*
X128701195Y-63404101D01*
X128770273Y-63393609D01*
X128834057Y-63422129D01*
X128872296Y-63480605D01*
X128877600Y-63516483D01*
X128877600Y-64569100D01*
X128857915Y-64636139D01*
X128805111Y-64681894D01*
X128753600Y-64693100D01*
X125466580Y-64693100D01*
X125321592Y-64721940D01*
X125321582Y-64721943D01*
X125185009Y-64778513D01*
X125150356Y-64801668D01*
X125062082Y-64860649D01*
X113395859Y-76526872D01*
X113334536Y-76560357D01*
X113264844Y-76555373D01*
X113208911Y-76513501D01*
X113206619Y-76510337D01*
X113179495Y-76471599D01*
X113179494Y-76471598D01*
X113179492Y-76471595D01*
X113012402Y-76304506D01*
X113012395Y-76304501D01*
X112986521Y-76286384D01*
X112973521Y-76277281D01*
X112818834Y-76168967D01*
X112818830Y-76168965D01*
X112818828Y-76168964D01*
X112604663Y-76069097D01*
X112604659Y-76069096D01*
X112604655Y-76069094D01*
X112376413Y-76007938D01*
X112376403Y-76007936D01*
X112141001Y-75987341D01*
X112140999Y-75987341D01*
X111905596Y-76007936D01*
X111905586Y-76007938D01*
X111677344Y-76069094D01*
X111677335Y-76069098D01*
X111463171Y-76168964D01*
X111463169Y-76168965D01*
X111269600Y-76304503D01*
X111147673Y-76426430D01*
X111086350Y-76459914D01*
X111016658Y-76454930D01*
X110960725Y-76413058D01*
X110943810Y-76382081D01*
X110894796Y-76250669D01*
X110894793Y-76250664D01*
X110808547Y-76135455D01*
X110808544Y-76135452D01*
X110693335Y-76049206D01*
X110693328Y-76049202D01*
X110558482Y-75998908D01*
X110558483Y-75998908D01*
X110498883Y-75992501D01*
X110498881Y-75992500D01*
X110498873Y-75992500D01*
X110498865Y-75992500D01*
X108975100Y-75992500D01*
X108908061Y-75972815D01*
X108862306Y-75920011D01*
X108851100Y-75868500D01*
X108851100Y-61488628D01*
X108870785Y-61421589D01*
X108887414Y-61400952D01*
X113703821Y-56584544D01*
X113765142Y-56551061D01*
X113834834Y-56556045D01*
X113890767Y-56597917D01*
X113915184Y-56663381D01*
X113915500Y-56672227D01*
X113915500Y-57589870D01*
X113915501Y-57589876D01*
X113921908Y-57649483D01*
X113972202Y-57784328D01*
X113972206Y-57784335D01*
X114058452Y-57899544D01*
X114058455Y-57899547D01*
X114173664Y-57985793D01*
X114173671Y-57985797D01*
X114218618Y-58002561D01*
X114308517Y-58036091D01*
X114368127Y-58042500D01*
X114441500Y-58042499D01*
X114508538Y-58062183D01*
X114554294Y-58114986D01*
X114565500Y-58166499D01*
X114565500Y-58747918D01*
X114565500Y-58747920D01*
X114565499Y-58747920D01*
X114594340Y-58892907D01*
X114594342Y-58892913D01*
X114650914Y-59029491D01*
X114650918Y-59029498D01*
X114677323Y-59069017D01*
X114733049Y-59152418D01*
X114733052Y-59152421D01*
X117545282Y-61964650D01*
X117578767Y-62025973D01*
X117581129Y-62063137D01*
X117566532Y-62229996D01*
X117566532Y-62230001D01*
X117586364Y-62456686D01*
X117586366Y-62456697D01*
X117645258Y-62676488D01*
X117645261Y-62676497D01*
X117741431Y-62882732D01*
X117741432Y-62882734D01*
X117871954Y-63069141D01*
X118032858Y-63230045D01*
X118032861Y-63230047D01*
X118219266Y-63360568D01*
X118425504Y-63456739D01*
X118645308Y-63515635D01*
X118807230Y-63529801D01*
X118871998Y-63535468D01*
X118872000Y-63535468D01*
X118872002Y-63535468D01*
X118934682Y-63529984D01*
X119098692Y-63515635D01*
X119318496Y-63456739D01*
X119524734Y-63360568D01*
X119711139Y-63230047D01*
X119872047Y-63069139D01*
X120002568Y-62882734D01*
X120029895Y-62824129D01*
X120076064Y-62771695D01*
X120143257Y-62752542D01*
X120210139Y-62772757D01*
X120254657Y-62824133D01*
X120281865Y-62882482D01*
X120412342Y-63068820D01*
X120573179Y-63229657D01*
X120759517Y-63360134D01*
X120965673Y-63456265D01*
X120965682Y-63456269D01*
X121161999Y-63508872D01*
X121162000Y-63508871D01*
X121162000Y-62545686D01*
X121166394Y-62550080D01*
X121257606Y-62602741D01*
X121359339Y-62630000D01*
X121464661Y-62630000D01*
X121566394Y-62602741D01*
X121657606Y-62550080D01*
X121662000Y-62545686D01*
X121662000Y-63508872D01*
X121858317Y-63456269D01*
X121858326Y-63456265D01*
X122064482Y-63360134D01*
X122250820Y-63229657D01*
X122411657Y-63068820D01*
X122542134Y-62882482D01*
X122638265Y-62676326D01*
X122638269Y-62676317D01*
X122690872Y-62480000D01*
X121727686Y-62480000D01*
X121732080Y-62475606D01*
X121784741Y-62384394D01*
X121812000Y-62282661D01*
X121812000Y-62177339D01*
X121784741Y-62075606D01*
X121732080Y-61984394D01*
X121727686Y-61980000D01*
X122690872Y-61980000D01*
X122690872Y-61979999D01*
X122638269Y-61783682D01*
X122638265Y-61783673D01*
X122542134Y-61577517D01*
X122411657Y-61391179D01*
X122250820Y-61230342D01*
X122064482Y-61099865D01*
X121858328Y-61003734D01*
X121662000Y-60951127D01*
X121662000Y-61914314D01*
X121657606Y-61909920D01*
X121566394Y-61857259D01*
X121464661Y-61830000D01*
X121359339Y-61830000D01*
X121257606Y-61857259D01*
X121166394Y-61909920D01*
X121162000Y-61914314D01*
X121162000Y-60951127D01*
X120965671Y-61003734D01*
X120759517Y-61099865D01*
X120573179Y-61230342D01*
X120412342Y-61391179D01*
X120281867Y-61577515D01*
X120254657Y-61635867D01*
X120208484Y-61688306D01*
X120141290Y-61707457D01*
X120074409Y-61687241D01*
X120029893Y-61635865D01*
X120012557Y-61598689D01*
X120002568Y-61577266D01*
X119872047Y-61390861D01*
X119872045Y-61390858D01*
X119711141Y-61229954D01*
X119524734Y-61099432D01*
X119524732Y-61099431D01*
X119318497Y-61003261D01*
X119318488Y-61003258D01*
X119098697Y-60944366D01*
X119098693Y-60944365D01*
X119098692Y-60944365D01*
X119098691Y-60944364D01*
X119098686Y-60944364D01*
X118872002Y-60924532D01*
X118871997Y-60924532D01*
X118705137Y-60939129D01*
X118636637Y-60925362D01*
X118606650Y-60903282D01*
X116102819Y-58399451D01*
X116069334Y-58338128D01*
X116066500Y-58311770D01*
X116066500Y-58166499D01*
X116086185Y-58099460D01*
X116138989Y-58053705D01*
X116190500Y-58042499D01*
X116263871Y-58042499D01*
X116263872Y-58042499D01*
X116323483Y-58036091D01*
X116458331Y-57985796D01*
X116573546Y-57899546D01*
X116659796Y-57784331D01*
X116684957Y-57716872D01*
X116688455Y-57707493D01*
X116730326Y-57651559D01*
X116795790Y-57627141D01*
X116864063Y-57641992D01*
X116895866Y-57666843D01*
X116903302Y-57674920D01*
X116904215Y-57675912D01*
X116904222Y-57675918D01*
X117087365Y-57818464D01*
X117087371Y-57818468D01*
X117087374Y-57818470D01*
X117291497Y-57928936D01*
X117405487Y-57968068D01*
X117511015Y-58004297D01*
X117511017Y-58004297D01*
X117511019Y-58004298D01*
X117739951Y-58042500D01*
X117739952Y-58042500D01*
X117972048Y-58042500D01*
X117972049Y-58042500D01*
X118200981Y-58004298D01*
X118420503Y-57928936D01*
X118624626Y-57818470D01*
X118807784Y-57675913D01*
X118964979Y-57505153D01*
X119091924Y-57310849D01*
X119185157Y-57098300D01*
X119242134Y-56873305D01*
X119245953Y-56827214D01*
X119261300Y-56642006D01*
X119261300Y-56641993D01*
X119242135Y-56410702D01*
X119242133Y-56410691D01*
X119185157Y-56185699D01*
X119091924Y-55973151D01*
X118964983Y-55778852D01*
X118964980Y-55778849D01*
X118964979Y-55778847D01*
X118807784Y-55608087D01*
X118807779Y-55608083D01*
X118807777Y-55608081D01*
X118624634Y-55465535D01*
X118624628Y-55465531D01*
X118420504Y-55355064D01*
X118420495Y-55355061D01*
X118200984Y-55279702D01*
X118029282Y-55251050D01*
X117972049Y-55241500D01*
X117788630Y-55241500D01*
X117721591Y-55221815D01*
X117700949Y-55205181D01*
X117004621Y-54508852D01*
X117004614Y-54508846D01*
X116930929Y-54459612D01*
X116930929Y-54459613D01*
X116881691Y-54426713D01*
X116745117Y-54370143D01*
X116745107Y-54370140D01*
X116600120Y-54341300D01*
X116600118Y-54341300D01*
X114209117Y-54341300D01*
X114061282Y-54341300D01*
X114061280Y-54341300D01*
X113916292Y-54370140D01*
X113916282Y-54370143D01*
X113779711Y-54426712D01*
X113779698Y-54426719D01*
X113656784Y-54508848D01*
X113656780Y-54508851D01*
X107517648Y-60647983D01*
X107497296Y-60678442D01*
X107477080Y-60708700D01*
X107435519Y-60770899D01*
X107435512Y-60770911D01*
X107378943Y-60907482D01*
X107378940Y-60907492D01*
X107350100Y-61052479D01*
X107350100Y-61052482D01*
X107350100Y-83536518D01*
X107350100Y-83536520D01*
X107350099Y-83536520D01*
X107378940Y-83681507D01*
X107378943Y-83681517D01*
X107435514Y-83818092D01*
X107435515Y-83818094D01*
X107435516Y-83818095D01*
X107462025Y-83857769D01*
X107468412Y-83867327D01*
X107468413Y-83867330D01*
X107517646Y-83941014D01*
X107517652Y-83941021D01*
X108228130Y-84651498D01*
X108261615Y-84712821D01*
X108263977Y-84749986D01*
X108245341Y-84962997D01*
X108245341Y-84963000D01*
X108265936Y-85198403D01*
X108265938Y-85198413D01*
X108327094Y-85426655D01*
X108327096Y-85426659D01*
X108327097Y-85426663D01*
X108403794Y-85591139D01*
X108426965Y-85640830D01*
X108426967Y-85640834D01*
X108535281Y-85795521D01*
X108562505Y-85834401D01*
X108729599Y-86001495D01*
X108913401Y-86130195D01*
X108915594Y-86131730D01*
X108959219Y-86186307D01*
X108966413Y-86255805D01*
X108934890Y-86318160D01*
X108915595Y-86334880D01*
X108729922Y-86464890D01*
X108729920Y-86464891D01*
X108562891Y-86631920D01*
X108562886Y-86631926D01*
X108427400Y-86825420D01*
X108427399Y-86825422D01*
X108327570Y-87039507D01*
X108327567Y-87039513D01*
X108270364Y-87252999D01*
X108270364Y-87253000D01*
X109167988Y-87253000D01*
X109135075Y-87310007D01*
X109101000Y-87437174D01*
X109101000Y-87568826D01*
X109135075Y-87695993D01*
X109167988Y-87753000D01*
X108270364Y-87753000D01*
X108327567Y-87966486D01*
X108327570Y-87966492D01*
X108427399Y-88180578D01*
X108562894Y-88374082D01*
X108729917Y-88541105D01*
X108915595Y-88671119D01*
X108959219Y-88725696D01*
X108966412Y-88795195D01*
X108934890Y-88857549D01*
X108915595Y-88874269D01*
X108729594Y-89004508D01*
X108562505Y-89171597D01*
X108426965Y-89365169D01*
X108426964Y-89365171D01*
X108327098Y-89579335D01*
X108327094Y-89579344D01*
X108265938Y-89807586D01*
X108265936Y-89807596D01*
X108245341Y-90042999D01*
X108245341Y-90043000D01*
X108265936Y-90278403D01*
X108265938Y-90278413D01*
X108327094Y-90506655D01*
X108327096Y-90506659D01*
X108327097Y-90506663D01*
X108376573Y-90612764D01*
X108426965Y-90720830D01*
X108426967Y-90720834D01*
X108493818Y-90816306D01*
X108562501Y-90914396D01*
X108562506Y-90914402D01*
X108729597Y-91081493D01*
X108729603Y-91081498D01*
X108915158Y-91211425D01*
X108958783Y-91266002D01*
X108965977Y-91335500D01*
X108934454Y-91397855D01*
X108915158Y-91414575D01*
X108729597Y-91544505D01*
X108562506Y-91711596D01*
X108514874Y-91779623D01*
X108460297Y-91823248D01*
X108413299Y-91832500D01*
X108026980Y-91832500D01*
X107881992Y-91861340D01*
X107881982Y-91861343D01*
X107745411Y-91917912D01*
X107745398Y-91917919D01*
X107622484Y-92000048D01*
X107622480Y-92000051D01*
X103963181Y-95659351D01*
X103901858Y-95692836D01*
X103832166Y-95687852D01*
X103776233Y-95645980D01*
X103751816Y-95580516D01*
X103751500Y-95571670D01*
X103751500Y-55885711D01*
X104956500Y-55885711D01*
X104956500Y-56128288D01*
X104980777Y-56312699D01*
X104988162Y-56368789D01*
X104999390Y-56410691D01*
X105050947Y-56603104D01*
X105067061Y-56642006D01*
X105143776Y-56827212D01*
X105265064Y-57037289D01*
X105265066Y-57037292D01*
X105265067Y-57037293D01*
X105412733Y-57229736D01*
X105412739Y-57229743D01*
X105584256Y-57401260D01*
X105584262Y-57401265D01*
X105776711Y-57548936D01*
X105986788Y-57670224D01*
X106210900Y-57763054D01*
X106445211Y-57825838D01*
X106625586Y-57849584D01*
X106685711Y-57857500D01*
X106685712Y-57857500D01*
X106928289Y-57857500D01*
X106976388Y-57851167D01*
X107168789Y-57825838D01*
X107403100Y-57763054D01*
X107627212Y-57670224D01*
X107837289Y-57548936D01*
X108029738Y-57401265D01*
X108201265Y-57229738D01*
X108348936Y-57037289D01*
X108470224Y-56827212D01*
X108563054Y-56603100D01*
X108625838Y-56368789D01*
X108657500Y-56128288D01*
X108657500Y-55885712D01*
X108625838Y-55645211D01*
X108563054Y-55410900D01*
X108470224Y-55186788D01*
X108348936Y-54976711D01*
X108201265Y-54784262D01*
X108201260Y-54784256D01*
X108029743Y-54612739D01*
X108029736Y-54612733D01*
X107837293Y-54465067D01*
X107837292Y-54465066D01*
X107837289Y-54465064D01*
X107627212Y-54343776D01*
X107627205Y-54343773D01*
X107403104Y-54250947D01*
X107168785Y-54188161D01*
X106928289Y-54156500D01*
X106928288Y-54156500D01*
X106685712Y-54156500D01*
X106685711Y-54156500D01*
X106445214Y-54188161D01*
X106210895Y-54250947D01*
X105986794Y-54343773D01*
X105986785Y-54343777D01*
X105843126Y-54426719D01*
X105786153Y-54459613D01*
X105776706Y-54465067D01*
X105584263Y-54612733D01*
X105584256Y-54612739D01*
X105412739Y-54784256D01*
X105412733Y-54784263D01*
X105265067Y-54976706D01*
X105143777Y-55186785D01*
X105143773Y-55186794D01*
X105050947Y-55410895D01*
X104988161Y-55645214D01*
X104956500Y-55885711D01*
X103751500Y-55885711D01*
X103751500Y-53075500D01*
X103771185Y-53008461D01*
X103823989Y-52962706D01*
X103875500Y-52951500D01*
X202575500Y-52951500D01*
X202642539Y-52971185D01*
G37*
G04 #@! TD.AperFunction*
G04 #@! TA.AperFunction,Conductor*
G36*
X134028034Y-109579647D02*
G01*
X134083967Y-109621519D01*
X134108384Y-109686983D01*
X134108700Y-109695829D01*
X134108700Y-133469018D01*
X134108700Y-133469020D01*
X134108699Y-133469020D01*
X134137540Y-133614007D01*
X134137543Y-133614017D01*
X134194112Y-133750588D01*
X134194116Y-133750595D01*
X134210632Y-133775313D01*
X134210633Y-133775316D01*
X134276246Y-133873514D01*
X134276252Y-133873521D01*
X141010252Y-140607519D01*
X141043737Y-140668842D01*
X141038753Y-140738534D01*
X140996881Y-140794467D01*
X140931417Y-140818884D01*
X140922571Y-140819200D01*
X119817329Y-140819200D01*
X119750290Y-140799515D01*
X119729648Y-140782881D01*
X108879649Y-129932881D01*
X108846164Y-129871558D01*
X108851148Y-129801866D01*
X108893020Y-129745933D01*
X108958484Y-129721516D01*
X108967330Y-129721200D01*
X113547020Y-129721200D01*
X113644562Y-129701796D01*
X113692013Y-129692358D01*
X113828595Y-129635784D01*
X113902522Y-129586388D01*
X113951516Y-129553652D01*
X133897019Y-109608147D01*
X133958342Y-109574663D01*
X134028034Y-109579647D01*
G37*
G04 #@! TD.AperFunction*
G04 #@! TA.AperFunction,Conductor*
G36*
X143006365Y-116866174D02*
G01*
X143050880Y-116917547D01*
X143114382Y-117053725D01*
X143141431Y-117111732D01*
X143141432Y-117111734D01*
X143271954Y-117298141D01*
X143432858Y-117459045D01*
X143445803Y-117468109D01*
X143619266Y-117589568D01*
X143825504Y-117685739D01*
X144045308Y-117744635D01*
X144207230Y-117758801D01*
X144271998Y-117764468D01*
X144272000Y-117764468D01*
X144272001Y-117764468D01*
X144292062Y-117762712D01*
X144438861Y-117749869D01*
X144507359Y-117763635D01*
X144537348Y-117785716D01*
X146340180Y-119588548D01*
X146340184Y-119588551D01*
X146463098Y-119670680D01*
X146463111Y-119670687D01*
X146585472Y-119721370D01*
X146599687Y-119727258D01*
X146599691Y-119727258D01*
X146599692Y-119727259D01*
X146744679Y-119756100D01*
X146744682Y-119756100D01*
X146892517Y-119756100D01*
X147726370Y-119756100D01*
X147793409Y-119775785D01*
X147814051Y-119792419D01*
X149958201Y-121936568D01*
X149991686Y-121997891D01*
X149986702Y-122067583D01*
X149944830Y-122123516D01*
X149881328Y-122147777D01*
X149760312Y-122158364D01*
X149760302Y-122158366D01*
X149540511Y-122217258D01*
X149540502Y-122217261D01*
X149334267Y-122313431D01*
X149334265Y-122313432D01*
X149147858Y-122443954D01*
X148986954Y-122604858D01*
X148857631Y-122789553D01*
X148856432Y-122791266D01*
X148829383Y-122849274D01*
X148829106Y-122849867D01*
X148782933Y-122902306D01*
X148715739Y-122921457D01*
X148648858Y-122901241D01*
X148604342Y-122849865D01*
X148577135Y-122791520D01*
X148577134Y-122791518D01*
X148446657Y-122605179D01*
X148285820Y-122444342D01*
X148099482Y-122313865D01*
X147893328Y-122217734D01*
X147697000Y-122165127D01*
X147697000Y-123128314D01*
X147692606Y-123123920D01*
X147601394Y-123071259D01*
X147499661Y-123044000D01*
X147394339Y-123044000D01*
X147292606Y-123071259D01*
X147201394Y-123123920D01*
X147197000Y-123128314D01*
X147197000Y-122165127D01*
X147000671Y-122217734D01*
X146794517Y-122313865D01*
X146608179Y-122444342D01*
X146447342Y-122605179D01*
X146316865Y-122791517D01*
X146220734Y-122997673D01*
X146220730Y-122997682D01*
X146168127Y-123193999D01*
X146168128Y-123194000D01*
X147131314Y-123194000D01*
X147126920Y-123198394D01*
X147074259Y-123289606D01*
X147047000Y-123391339D01*
X147047000Y-123496661D01*
X147074259Y-123598394D01*
X147126920Y-123689606D01*
X147131314Y-123694000D01*
X146168127Y-123694000D01*
X146142680Y-123727163D01*
X146086252Y-123768365D01*
X146016506Y-123772520D01*
X145956624Y-123739357D01*
X143051768Y-120834501D01*
X139874635Y-117657367D01*
X139841150Y-117596044D01*
X139846134Y-117526352D01*
X139888006Y-117470419D01*
X139891198Y-117468108D01*
X139904140Y-117459046D01*
X140065045Y-117298141D01*
X140065047Y-117298139D01*
X140195568Y-117111734D01*
X140222618Y-117053724D01*
X140268790Y-117001285D01*
X140335983Y-116982133D01*
X140402865Y-117002348D01*
X140447382Y-117053725D01*
X140474429Y-117111728D01*
X140474432Y-117111734D01*
X140604954Y-117298141D01*
X140765858Y-117459045D01*
X140778803Y-117468109D01*
X140952266Y-117589568D01*
X141158504Y-117685739D01*
X141378308Y-117744635D01*
X141540230Y-117758801D01*
X141604998Y-117764468D01*
X141605000Y-117764468D01*
X141605002Y-117764468D01*
X141661673Y-117759509D01*
X141831692Y-117744635D01*
X142051496Y-117685739D01*
X142257734Y-117589568D01*
X142444139Y-117459047D01*
X142605047Y-117298139D01*
X142735568Y-117111734D01*
X142826119Y-116917547D01*
X142872290Y-116865110D01*
X142939484Y-116845958D01*
X143006365Y-116866174D01*
G37*
G04 #@! TD.AperFunction*
G04 #@! TA.AperFunction,Conductor*
G36*
X138558000Y-70791661D02*
G01*
X138585259Y-70893394D01*
X138637920Y-70984606D01*
X138712394Y-71059080D01*
X138803606Y-71111741D01*
X138905339Y-71139000D01*
X138911553Y-71139000D01*
X138232526Y-71818025D01*
X138305513Y-71869132D01*
X138305521Y-71869136D01*
X138511668Y-71965264D01*
X138511682Y-71965269D01*
X138731389Y-72024139D01*
X138731400Y-72024141D01*
X138957998Y-72043966D01*
X138958002Y-72043966D01*
X139184599Y-72024141D01*
X139184610Y-72024139D01*
X139404317Y-71965269D01*
X139404331Y-71965264D01*
X139610478Y-71869136D01*
X139683471Y-71818024D01*
X139004447Y-71139000D01*
X139010661Y-71139000D01*
X139112394Y-71111741D01*
X139203606Y-71059080D01*
X139278080Y-70984606D01*
X139330741Y-70893394D01*
X139358000Y-70791661D01*
X139358000Y-70785447D01*
X140037024Y-71464471D01*
X140088134Y-71391481D01*
X140095340Y-71376028D01*
X140141511Y-71323587D01*
X140208704Y-71304433D01*
X140275585Y-71324646D01*
X140320105Y-71376022D01*
X140327430Y-71391730D01*
X140327432Y-71391734D01*
X140457954Y-71578141D01*
X140618858Y-71739045D01*
X140665693Y-71771839D01*
X140805266Y-71869568D01*
X141011504Y-71965739D01*
X141011506Y-71965739D01*
X141011942Y-71965898D01*
X141012108Y-71966020D01*
X141016411Y-71968027D01*
X141016008Y-71968891D01*
X141068210Y-72007318D01*
X141093153Y-72072584D01*
X141078850Y-72140974D01*
X141057225Y-72170105D01*
X123282847Y-89944484D01*
X123282845Y-89944486D01*
X123250705Y-89992591D01*
X123250703Y-89992594D01*
X123200719Y-90067398D01*
X123200712Y-90067411D01*
X123144143Y-90203982D01*
X123144140Y-90203992D01*
X123115300Y-90348979D01*
X123115300Y-105993669D01*
X123095615Y-106060708D01*
X123078981Y-106081350D01*
X113958352Y-115201978D01*
X113958349Y-115201981D01*
X113909349Y-115275315D01*
X113909350Y-115275316D01*
X113876214Y-115324908D01*
X113819643Y-115461482D01*
X113819640Y-115461492D01*
X113790800Y-115606479D01*
X113790800Y-117760469D01*
X113771115Y-117827508D01*
X113754481Y-117848150D01*
X113694123Y-117908508D01*
X113632800Y-117941993D01*
X113563108Y-117937009D01*
X113507175Y-117895137D01*
X113482914Y-117831634D01*
X113475569Y-117747684D01*
X113475567Y-117747673D01*
X113414433Y-117519516D01*
X113414429Y-117519507D01*
X113314600Y-117305422D01*
X113314599Y-117305420D01*
X113179113Y-117111926D01*
X113179108Y-117111920D01*
X113012078Y-116944890D01*
X112826405Y-116814879D01*
X112782780Y-116760302D01*
X112775588Y-116690804D01*
X112807110Y-116628449D01*
X112826406Y-116611730D01*
X112826842Y-116611425D01*
X113012401Y-116481495D01*
X113179495Y-116314401D01*
X113315035Y-116120830D01*
X113414903Y-115906663D01*
X113476063Y-115678408D01*
X113496659Y-115443000D01*
X113476063Y-115207592D01*
X113414903Y-114979337D01*
X113315035Y-114765171D01*
X113309425Y-114757158D01*
X113179494Y-114571597D01*
X113012402Y-114404506D01*
X113012401Y-114404505D01*
X112826405Y-114274269D01*
X112782781Y-114219692D01*
X112775588Y-114150193D01*
X112807110Y-114087839D01*
X112826405Y-114071119D01*
X113012082Y-113941105D01*
X113179105Y-113774082D01*
X113314600Y-113580578D01*
X113414429Y-113366492D01*
X113414432Y-113366486D01*
X113471636Y-113153000D01*
X112574012Y-113153000D01*
X112606925Y-113095993D01*
X112641000Y-112968826D01*
X112641000Y-112837174D01*
X112606925Y-112710007D01*
X112574012Y-112653000D01*
X113471636Y-112653000D01*
X113471635Y-112652999D01*
X113414432Y-112439513D01*
X113414429Y-112439507D01*
X113314600Y-112225422D01*
X113314599Y-112225420D01*
X113179113Y-112031926D01*
X113179108Y-112031920D01*
X113012078Y-111864890D01*
X112826405Y-111734879D01*
X112782780Y-111680302D01*
X112775588Y-111610804D01*
X112807110Y-111548449D01*
X112826406Y-111531730D01*
X112826842Y-111531425D01*
X113012401Y-111401495D01*
X113179495Y-111234401D01*
X113315035Y-111040830D01*
X113414903Y-110826663D01*
X113476063Y-110598408D01*
X113496659Y-110363000D01*
X113476063Y-110127592D01*
X113414903Y-109899337D01*
X113315035Y-109685171D01*
X113309425Y-109677158D01*
X113179494Y-109491597D01*
X113012402Y-109324506D01*
X113012396Y-109324501D01*
X112826842Y-109194575D01*
X112783217Y-109139998D01*
X112776023Y-109070500D01*
X112807546Y-109008145D01*
X112826842Y-108991425D01*
X112896928Y-108942350D01*
X113012401Y-108861495D01*
X113179495Y-108694401D01*
X113315035Y-108500830D01*
X113414903Y-108286663D01*
X113476063Y-108058408D01*
X113496659Y-107823000D01*
X113476063Y-107587592D01*
X113414903Y-107359337D01*
X113315035Y-107145171D01*
X113309731Y-107137595D01*
X113179494Y-106951597D01*
X113012402Y-106784506D01*
X113012396Y-106784501D01*
X112826842Y-106654575D01*
X112783217Y-106599998D01*
X112776023Y-106530500D01*
X112807546Y-106468145D01*
X112826842Y-106451425D01*
X112849026Y-106435891D01*
X113012401Y-106321495D01*
X113179495Y-106154401D01*
X113315035Y-105960830D01*
X113414903Y-105746663D01*
X113476063Y-105518408D01*
X113496659Y-105283000D01*
X113476063Y-105047592D01*
X113414903Y-104819337D01*
X113315035Y-104605171D01*
X113309425Y-104597158D01*
X113179494Y-104411597D01*
X113012402Y-104244506D01*
X113012396Y-104244501D01*
X112826842Y-104114575D01*
X112783217Y-104059998D01*
X112776023Y-103990500D01*
X112807546Y-103928145D01*
X112826842Y-103911425D01*
X112895917Y-103863058D01*
X113012401Y-103781495D01*
X113179495Y-103614401D01*
X113315035Y-103420830D01*
X113414903Y-103206663D01*
X113476063Y-102978408D01*
X113496659Y-102743000D01*
X113476063Y-102507592D01*
X113414903Y-102279337D01*
X113315035Y-102065171D01*
X113309425Y-102057158D01*
X113179494Y-101871597D01*
X113012402Y-101704506D01*
X113012401Y-101704505D01*
X112826405Y-101574269D01*
X112782781Y-101519692D01*
X112775588Y-101450193D01*
X112807110Y-101387839D01*
X112826405Y-101371119D01*
X113012082Y-101241105D01*
X113179105Y-101074082D01*
X113314600Y-100880578D01*
X113414429Y-100666492D01*
X113414432Y-100666486D01*
X113471636Y-100453000D01*
X112574012Y-100453000D01*
X112606925Y-100395993D01*
X112641000Y-100268826D01*
X112641000Y-100137174D01*
X112606925Y-100010007D01*
X112574012Y-99953000D01*
X113471636Y-99953000D01*
X113471635Y-99952999D01*
X113414432Y-99739513D01*
X113414429Y-99739507D01*
X113314600Y-99525422D01*
X113314599Y-99525420D01*
X113179113Y-99331926D01*
X113179108Y-99331920D01*
X113012078Y-99164890D01*
X112826405Y-99034879D01*
X112782780Y-98980302D01*
X112775588Y-98910804D01*
X112807110Y-98848449D01*
X112826406Y-98831730D01*
X112870293Y-98801000D01*
X113012401Y-98701495D01*
X113179495Y-98534401D01*
X113206605Y-98495683D01*
X113261179Y-98452060D01*
X113330677Y-98444866D01*
X113393032Y-98476388D01*
X113395859Y-98479127D01*
X118036686Y-103119954D01*
X118038252Y-103121000D01*
X118106823Y-103166816D01*
X118159605Y-103202084D01*
X118159607Y-103202085D01*
X118159611Y-103202087D01*
X118296182Y-103258656D01*
X118296187Y-103258658D01*
X118296191Y-103258658D01*
X118296192Y-103258659D01*
X118441179Y-103287500D01*
X118441182Y-103287500D01*
X118441183Y-103287500D01*
X118589017Y-103287500D01*
X118628369Y-103287500D01*
X118695408Y-103307185D01*
X118741163Y-103359989D01*
X118751107Y-103429147D01*
X118722082Y-103492703D01*
X118716050Y-103499181D01*
X115145537Y-107069693D01*
X115109476Y-107092362D01*
X115110356Y-107094188D01*
X115104078Y-107097211D01*
X114951337Y-107193184D01*
X114823784Y-107320737D01*
X114727811Y-107473476D01*
X114668231Y-107643745D01*
X114668230Y-107643750D01*
X114648035Y-107822996D01*
X114648035Y-107823003D01*
X114668230Y-108002249D01*
X114668231Y-108002254D01*
X114727811Y-108172523D01*
X114799531Y-108286664D01*
X114823784Y-108325262D01*
X114951338Y-108452816D01*
X115104078Y-108548789D01*
X115177273Y-108574401D01*
X115274345Y-108608368D01*
X115274350Y-108608369D01*
X115453596Y-108628565D01*
X115453600Y-108628565D01*
X115453604Y-108628565D01*
X115632849Y-108608369D01*
X115632852Y-108608368D01*
X115632855Y-108608368D01*
X115803122Y-108548789D01*
X115955862Y-108452816D01*
X116083416Y-108325262D01*
X116179389Y-108172522D01*
X116179390Y-108172518D01*
X116182411Y-108166246D01*
X116184255Y-108167134D01*
X116206905Y-108131061D01*
X121314052Y-103023916D01*
X121389496Y-102911004D01*
X121396184Y-102900995D01*
X121452758Y-102764413D01*
X121468463Y-102685461D01*
X121481600Y-102619420D01*
X121481600Y-87164029D01*
X121501285Y-87096990D01*
X121517914Y-87076353D01*
X137511654Y-71082612D01*
X137572973Y-71049130D01*
X137642665Y-71054114D01*
X137698598Y-71095986D01*
X137719106Y-71138202D01*
X137731731Y-71185319D01*
X137731735Y-71185331D01*
X137827863Y-71391478D01*
X137878974Y-71464472D01*
X138558000Y-70785446D01*
X138558000Y-70791661D01*
G37*
G04 #@! TD.AperFunction*
G04 #@! TA.AperFunction,Conductor*
G36*
X160397000Y-89205872D02*
G01*
X160593317Y-89153269D01*
X160593326Y-89153265D01*
X160799482Y-89057134D01*
X160985820Y-88926657D01*
X161146657Y-88765820D01*
X161277132Y-88579484D01*
X161304341Y-88521134D01*
X161350513Y-88468695D01*
X161417707Y-88449542D01*
X161484588Y-88469757D01*
X161529106Y-88521133D01*
X161556431Y-88579732D01*
X161556432Y-88579734D01*
X161686954Y-88766141D01*
X161847859Y-88927046D01*
X161883621Y-88952086D01*
X161927247Y-89006662D01*
X161936500Y-89053662D01*
X161936500Y-91678418D01*
X161936500Y-91678420D01*
X161936499Y-91678420D01*
X161965340Y-91823407D01*
X161965343Y-91823417D01*
X162017118Y-91948412D01*
X162021916Y-91959995D01*
X162048679Y-92000049D01*
X162048678Y-92000049D01*
X162104046Y-92082914D01*
X162104052Y-92082921D01*
X186157652Y-116136519D01*
X186191137Y-116197842D01*
X186186153Y-116267534D01*
X186144281Y-116323467D01*
X186078817Y-116347884D01*
X186069971Y-116348200D01*
X184303129Y-116348200D01*
X184236090Y-116328515D01*
X184215448Y-116311881D01*
X181921388Y-114017820D01*
X181887903Y-113956497D01*
X181892887Y-113886805D01*
X181934759Y-113830872D01*
X181943081Y-113825155D01*
X182078262Y-113740216D01*
X182205816Y-113612662D01*
X182301789Y-113459922D01*
X182361368Y-113289655D01*
X182367550Y-113234791D01*
X182381565Y-113110403D01*
X182381565Y-113110396D01*
X182361369Y-112931150D01*
X182361368Y-112931145D01*
X182350610Y-112900400D01*
X182301789Y-112760878D01*
X182300305Y-112758517D01*
X182233892Y-112652821D01*
X182205816Y-112608138D01*
X182078262Y-112480584D01*
X181925522Y-112384611D01*
X181925518Y-112384609D01*
X181919244Y-112381588D01*
X181920125Y-112379758D01*
X181884059Y-112357092D01*
X172467715Y-102940747D01*
X172467710Y-102940743D01*
X172386560Y-102886522D01*
X172386559Y-102886522D01*
X172344795Y-102858616D01*
X172344793Y-102858615D01*
X172344790Y-102858613D01*
X172208217Y-102802043D01*
X172208207Y-102802040D01*
X172063220Y-102773200D01*
X172063218Y-102773200D01*
X157944572Y-102773200D01*
X157903617Y-102766242D01*
X157823854Y-102738331D01*
X157823849Y-102738330D01*
X157644604Y-102718135D01*
X157644596Y-102718135D01*
X157465350Y-102738330D01*
X157465345Y-102738331D01*
X157295076Y-102797911D01*
X157142337Y-102893884D01*
X157014784Y-103021437D01*
X156918811Y-103174176D01*
X156859231Y-103344445D01*
X156859230Y-103344450D01*
X156839035Y-103523696D01*
X156839035Y-103523703D01*
X156859230Y-103702949D01*
X156859231Y-103702954D01*
X156918811Y-103873223D01*
X156992502Y-103990500D01*
X157014784Y-104025962D01*
X157142338Y-104153516D01*
X157193272Y-104185520D01*
X157287147Y-104244506D01*
X157295078Y-104249489D01*
X157454394Y-104305236D01*
X157465345Y-104309068D01*
X157465350Y-104309069D01*
X157644596Y-104329265D01*
X157644600Y-104329265D01*
X157644604Y-104329265D01*
X157823849Y-104309069D01*
X157823852Y-104309068D01*
X157823855Y-104309068D01*
X157903617Y-104281157D01*
X157944572Y-104274200D01*
X171627070Y-104274200D01*
X171694109Y-104293885D01*
X171714751Y-104310519D01*
X175086852Y-107682620D01*
X178400852Y-110996619D01*
X178434337Y-111057942D01*
X178429353Y-111127634D01*
X178387481Y-111183567D01*
X178322017Y-111207984D01*
X178313171Y-111208300D01*
X177019280Y-111208300D01*
X176874292Y-111237140D01*
X176874282Y-111237143D01*
X176737711Y-111293712D01*
X176737699Y-111293719D01*
X176690810Y-111325050D01*
X176690808Y-111325051D01*
X176614789Y-111375843D01*
X176614784Y-111375847D01*
X175906348Y-112084282D01*
X175845025Y-112117767D01*
X175807861Y-112120129D01*
X175641003Y-112105532D01*
X175640998Y-112105532D01*
X175414313Y-112125364D01*
X175414302Y-112125366D01*
X175194511Y-112184258D01*
X175194502Y-112184261D01*
X174988267Y-112280431D01*
X174988265Y-112280432D01*
X174801858Y-112410954D01*
X174640954Y-112571858D01*
X174510432Y-112758265D01*
X174510431Y-112758267D01*
X174468606Y-112847961D01*
X174422433Y-112900400D01*
X174355239Y-112919552D01*
X174288358Y-112899336D01*
X174243842Y-112847961D01*
X174202133Y-112758517D01*
X174071657Y-112572179D01*
X173910820Y-112411342D01*
X173724482Y-112280865D01*
X173518328Y-112184734D01*
X173322000Y-112132127D01*
X173322000Y-113095314D01*
X173317606Y-113090920D01*
X173226394Y-113038259D01*
X173124661Y-113011000D01*
X173019339Y-113011000D01*
X172917606Y-113038259D01*
X172826394Y-113090920D01*
X172822000Y-113095314D01*
X172822000Y-112132127D01*
X172625671Y-112184734D01*
X172419517Y-112280865D01*
X172233179Y-112411342D01*
X172072342Y-112572179D01*
X171941867Y-112758515D01*
X171914657Y-112816867D01*
X171868484Y-112869306D01*
X171801290Y-112888457D01*
X171734409Y-112868241D01*
X171689893Y-112816865D01*
X171689602Y-112816242D01*
X171662568Y-112758266D01*
X171557448Y-112608138D01*
X171532045Y-112571858D01*
X171371141Y-112410954D01*
X171184734Y-112280432D01*
X171184732Y-112280431D01*
X170978497Y-112184261D01*
X170978488Y-112184258D01*
X170758697Y-112125366D01*
X170758693Y-112125365D01*
X170758692Y-112125365D01*
X170758691Y-112125364D01*
X170758686Y-112125364D01*
X170532002Y-112105532D01*
X170531998Y-112105532D01*
X170305313Y-112125364D01*
X170305302Y-112125366D01*
X170085511Y-112184258D01*
X170085502Y-112184261D01*
X169879267Y-112280431D01*
X169879265Y-112280432D01*
X169692858Y-112410954D01*
X169531954Y-112571858D01*
X169401432Y-112758265D01*
X169401431Y-112758267D01*
X169325106Y-112921946D01*
X169278933Y-112974385D01*
X169211740Y-112993537D01*
X169144859Y-112973321D01*
X169100342Y-112921946D01*
X169024134Y-112758517D01*
X168893657Y-112572179D01*
X168732820Y-112411342D01*
X168546482Y-112280865D01*
X168340328Y-112184734D01*
X168144000Y-112132127D01*
X168144000Y-113095314D01*
X168139606Y-113090920D01*
X168048394Y-113038259D01*
X167946661Y-113011000D01*
X167841339Y-113011000D01*
X167739606Y-113038259D01*
X167648394Y-113090920D01*
X167644000Y-113095314D01*
X167644000Y-112132127D01*
X167447671Y-112184734D01*
X167241517Y-112280865D01*
X167055179Y-112411342D01*
X166894342Y-112572179D01*
X166763867Y-112758515D01*
X166736657Y-112816867D01*
X166690484Y-112869306D01*
X166623290Y-112888457D01*
X166556409Y-112868241D01*
X166511893Y-112816865D01*
X166511602Y-112816242D01*
X166484568Y-112758266D01*
X166379448Y-112608138D01*
X166354045Y-112571858D01*
X166193141Y-112410954D01*
X166006734Y-112280432D01*
X166006732Y-112280431D01*
X165800497Y-112184261D01*
X165800488Y-112184258D01*
X165580697Y-112125366D01*
X165580693Y-112125365D01*
X165580692Y-112125365D01*
X165580691Y-112125364D01*
X165580686Y-112125364D01*
X165354002Y-112105532D01*
X165353998Y-112105532D01*
X165127313Y-112125364D01*
X165127302Y-112125366D01*
X164907511Y-112184258D01*
X164907502Y-112184261D01*
X164701267Y-112280431D01*
X164701265Y-112280432D01*
X164514858Y-112410954D01*
X164353954Y-112571858D01*
X164223432Y-112758265D01*
X164223431Y-112758267D01*
X164181606Y-112847961D01*
X164135433Y-112900400D01*
X164068239Y-112919552D01*
X164001358Y-112899336D01*
X163956842Y-112847961D01*
X163915133Y-112758517D01*
X163784657Y-112572179D01*
X163623820Y-112411342D01*
X163437482Y-112280865D01*
X163231328Y-112184734D01*
X163035000Y-112132127D01*
X163035000Y-113095314D01*
X163030606Y-113090920D01*
X162939394Y-113038259D01*
X162837661Y-113011000D01*
X162732339Y-113011000D01*
X162630606Y-113038259D01*
X162539394Y-113090920D01*
X162535000Y-113095314D01*
X162535000Y-112132127D01*
X162338671Y-112184734D01*
X162132517Y-112280865D01*
X161946179Y-112411342D01*
X161785342Y-112572179D01*
X161654867Y-112758515D01*
X161627657Y-112816867D01*
X161581484Y-112869306D01*
X161514290Y-112888457D01*
X161447409Y-112868241D01*
X161402893Y-112816865D01*
X161402602Y-112816242D01*
X161375568Y-112758266D01*
X161270448Y-112608138D01*
X161245045Y-112571858D01*
X161084141Y-112410954D01*
X160897734Y-112280432D01*
X160897732Y-112280431D01*
X160691497Y-112184261D01*
X160691488Y-112184258D01*
X160471697Y-112125366D01*
X160471693Y-112125365D01*
X160471692Y-112125365D01*
X160471691Y-112125364D01*
X160471686Y-112125364D01*
X160245002Y-112105532D01*
X160244998Y-112105532D01*
X160018313Y-112125364D01*
X160018302Y-112125366D01*
X159798511Y-112184258D01*
X159798502Y-112184261D01*
X159592267Y-112280431D01*
X159592265Y-112280432D01*
X159405858Y-112410954D01*
X159244954Y-112571858D01*
X159114432Y-112758265D01*
X159114431Y-112758267D01*
X159038106Y-112921946D01*
X158991933Y-112974385D01*
X158924740Y-112993537D01*
X158857859Y-112973321D01*
X158813342Y-112921946D01*
X158737134Y-112758517D01*
X158606657Y-112572179D01*
X158445820Y-112411342D01*
X158259482Y-112280865D01*
X158053328Y-112184734D01*
X157857000Y-112132127D01*
X157857000Y-113095314D01*
X157852606Y-113090920D01*
X157761394Y-113038259D01*
X157659661Y-113011000D01*
X157554339Y-113011000D01*
X157452606Y-113038259D01*
X157361394Y-113090920D01*
X157357000Y-113095314D01*
X157357000Y-112132127D01*
X157160671Y-112184734D01*
X156954517Y-112280865D01*
X156768179Y-112411342D01*
X156607342Y-112572179D01*
X156476867Y-112758515D01*
X156449657Y-112816867D01*
X156403484Y-112869306D01*
X156336290Y-112888457D01*
X156269409Y-112868241D01*
X156224893Y-112816865D01*
X156224602Y-112816242D01*
X156197568Y-112758266D01*
X156092448Y-112608138D01*
X156067045Y-112571858D01*
X155906141Y-112410954D01*
X155719734Y-112280432D01*
X155719732Y-112280431D01*
X155513497Y-112184261D01*
X155513488Y-112184258D01*
X155293697Y-112125366D01*
X155293693Y-112125365D01*
X155293692Y-112125365D01*
X155293691Y-112125364D01*
X155293686Y-112125364D01*
X155067002Y-112105532D01*
X155066998Y-112105532D01*
X154840313Y-112125364D01*
X154840302Y-112125366D01*
X154620511Y-112184258D01*
X154620502Y-112184261D01*
X154414267Y-112280431D01*
X154414265Y-112280432D01*
X154227858Y-112410954D01*
X154066954Y-112571858D01*
X153936432Y-112758265D01*
X153936431Y-112758267D01*
X153845606Y-112953041D01*
X153799433Y-113005480D01*
X153732240Y-113024632D01*
X153665359Y-113004416D01*
X153620842Y-112953041D01*
X153530134Y-112758517D01*
X153399657Y-112572179D01*
X153238820Y-112411342D01*
X153052482Y-112280865D01*
X152846328Y-112184734D01*
X152650000Y-112132127D01*
X152650000Y-113095314D01*
X152645606Y-113090920D01*
X152554394Y-113038259D01*
X152452661Y-113011000D01*
X152347339Y-113011000D01*
X152245606Y-113038259D01*
X152154394Y-113090920D01*
X152150000Y-113095314D01*
X152150000Y-112132127D01*
X151953671Y-112184734D01*
X151747517Y-112280865D01*
X151561179Y-112411342D01*
X151400342Y-112572179D01*
X151269867Y-112758515D01*
X151242657Y-112816867D01*
X151196484Y-112869306D01*
X151129290Y-112888457D01*
X151062409Y-112868241D01*
X151017893Y-112816865D01*
X151017602Y-112816242D01*
X150990568Y-112758266D01*
X150885448Y-112608138D01*
X150860045Y-112571858D01*
X150699141Y-112410954D01*
X150512734Y-112280432D01*
X150512732Y-112280431D01*
X150306497Y-112184261D01*
X150306488Y-112184258D01*
X150086697Y-112125366D01*
X150086693Y-112125365D01*
X150086692Y-112125365D01*
X150086691Y-112125364D01*
X150086686Y-112125364D01*
X149860002Y-112105532D01*
X149859998Y-112105532D01*
X149633313Y-112125364D01*
X149633302Y-112125366D01*
X149413511Y-112184258D01*
X149413502Y-112184261D01*
X149207267Y-112280431D01*
X149207265Y-112280432D01*
X149020858Y-112410954D01*
X148859954Y-112571858D01*
X148729432Y-112758265D01*
X148729431Y-112758267D01*
X148687606Y-112847961D01*
X148641433Y-112900400D01*
X148574239Y-112919552D01*
X148507358Y-112899336D01*
X148462842Y-112847961D01*
X148421133Y-112758516D01*
X148421129Y-112758510D01*
X148299745Y-112585157D01*
X148277417Y-112518951D01*
X148294427Y-112451184D01*
X148335346Y-112409039D01*
X148474162Y-112321816D01*
X148601716Y-112194262D01*
X148697689Y-112041522D01*
X148757268Y-111871255D01*
X148757985Y-111864890D01*
X148777465Y-111692003D01*
X148777465Y-111691996D01*
X148757269Y-111512750D01*
X148757268Y-111512745D01*
X148718339Y-111401493D01*
X148697689Y-111342478D01*
X148687003Y-111325472D01*
X148658482Y-111280080D01*
X148601716Y-111189738D01*
X148474162Y-111062184D01*
X148440184Y-111040834D01*
X148321423Y-110966211D01*
X148151154Y-110906631D01*
X148151149Y-110906630D01*
X147971904Y-110886435D01*
X147971896Y-110886435D01*
X147792650Y-110906630D01*
X147792645Y-110906631D01*
X147712883Y-110934542D01*
X147671928Y-110941500D01*
X141218080Y-110941500D01*
X141073092Y-110970340D01*
X141073082Y-110970343D01*
X140936511Y-111026912D01*
X140936504Y-111026916D01*
X140915681Y-111040830D01*
X140883723Y-111062184D01*
X140813581Y-111109050D01*
X140813578Y-111109053D01*
X139838348Y-112084282D01*
X139777025Y-112117767D01*
X139739861Y-112120129D01*
X139573003Y-112105532D01*
X139572998Y-112105532D01*
X139346313Y-112125364D01*
X139346302Y-112125366D01*
X139126511Y-112184258D01*
X139126502Y-112184261D01*
X138920267Y-112280431D01*
X138920265Y-112280432D01*
X138814523Y-112354473D01*
X138748316Y-112376801D01*
X138680549Y-112359789D01*
X138632737Y-112308841D01*
X138619400Y-112252898D01*
X138619400Y-89229803D01*
X138639085Y-89162764D01*
X138691889Y-89117009D01*
X138761047Y-89107065D01*
X138795806Y-89117421D01*
X138872678Y-89153267D01*
X138872682Y-89153269D01*
X139068999Y-89205872D01*
X139069000Y-89205871D01*
X139069000Y-88242686D01*
X139073394Y-88247080D01*
X139164606Y-88299741D01*
X139266339Y-88327000D01*
X139371661Y-88327000D01*
X139473394Y-88299741D01*
X139564606Y-88247080D01*
X139569000Y-88242686D01*
X139569000Y-89205872D01*
X139765317Y-89153269D01*
X139765326Y-89153265D01*
X139971482Y-89057134D01*
X140157820Y-88926657D01*
X140318657Y-88765820D01*
X140449132Y-88579484D01*
X140476341Y-88521134D01*
X140522513Y-88468695D01*
X140589707Y-88449542D01*
X140656588Y-88469757D01*
X140701106Y-88521133D01*
X140728431Y-88579732D01*
X140728432Y-88579734D01*
X140858954Y-88766141D01*
X141019858Y-88927045D01*
X141019861Y-88927047D01*
X141206266Y-89057568D01*
X141412504Y-89153739D01*
X141412509Y-89153740D01*
X141412511Y-89153741D01*
X141414982Y-89154403D01*
X141632308Y-89212635D01*
X141794230Y-89226801D01*
X141858998Y-89232468D01*
X141859000Y-89232468D01*
X141859002Y-89232468D01*
X141915673Y-89227509D01*
X142085692Y-89212635D01*
X142305496Y-89153739D01*
X142511734Y-89057568D01*
X142698139Y-88927047D01*
X142859047Y-88766139D01*
X142989568Y-88579734D01*
X143085739Y-88373496D01*
X143087481Y-88366993D01*
X143123841Y-88307331D01*
X143186685Y-88276796D01*
X143256062Y-88285086D01*
X143309943Y-88329567D01*
X143327031Y-88366976D01*
X143328730Y-88373317D01*
X143328734Y-88373326D01*
X143424865Y-88579482D01*
X143555342Y-88765820D01*
X143716179Y-88926657D01*
X143902517Y-89057134D01*
X144108673Y-89153265D01*
X144108682Y-89153269D01*
X144304999Y-89205872D01*
X144305000Y-89205871D01*
X144305000Y-88242686D01*
X144309394Y-88247080D01*
X144400606Y-88299741D01*
X144502339Y-88327000D01*
X144607661Y-88327000D01*
X144709394Y-88299741D01*
X144800606Y-88247080D01*
X144805000Y-88242686D01*
X144805000Y-89205872D01*
X145001317Y-89153269D01*
X145001326Y-89153265D01*
X145207482Y-89057134D01*
X145393820Y-88926657D01*
X145554657Y-88765820D01*
X145685132Y-88579484D01*
X145712341Y-88521134D01*
X145758513Y-88468695D01*
X145825707Y-88449542D01*
X145892588Y-88469757D01*
X145937106Y-88521133D01*
X145964431Y-88579732D01*
X145964432Y-88579734D01*
X146094954Y-88766141D01*
X146255858Y-88927045D01*
X146255861Y-88927047D01*
X146442266Y-89057568D01*
X146648504Y-89153739D01*
X146648509Y-89153740D01*
X146648511Y-89153741D01*
X146650982Y-89154403D01*
X146868308Y-89212635D01*
X147030230Y-89226801D01*
X147094998Y-89232468D01*
X147095000Y-89232468D01*
X147095002Y-89232468D01*
X147151673Y-89227509D01*
X147321692Y-89212635D01*
X147541496Y-89153739D01*
X147747734Y-89057568D01*
X147934139Y-88927047D01*
X148095047Y-88766139D01*
X148225568Y-88579734D01*
X148301894Y-88416052D01*
X148348065Y-88363614D01*
X148415258Y-88344462D01*
X148482140Y-88364678D01*
X148526657Y-88416053D01*
X148602865Y-88579482D01*
X148733342Y-88765820D01*
X148894179Y-88926657D01*
X149080517Y-89057134D01*
X149286673Y-89153265D01*
X149286682Y-89153269D01*
X149482999Y-89205872D01*
X149483000Y-89205871D01*
X149483000Y-88242686D01*
X149487394Y-88247080D01*
X149578606Y-88299741D01*
X149680339Y-88327000D01*
X149785661Y-88327000D01*
X149887394Y-88299741D01*
X149978606Y-88247080D01*
X149983000Y-88242686D01*
X149983000Y-89205872D01*
X150179317Y-89153269D01*
X150179326Y-89153265D01*
X150385482Y-89057134D01*
X150571820Y-88926657D01*
X150732657Y-88765820D01*
X150863132Y-88579484D01*
X150890341Y-88521134D01*
X150936513Y-88468695D01*
X151003707Y-88449542D01*
X151070588Y-88469757D01*
X151115106Y-88521133D01*
X151142431Y-88579732D01*
X151142432Y-88579734D01*
X151272954Y-88766141D01*
X151433858Y-88927045D01*
X151433861Y-88927047D01*
X151620266Y-89057568D01*
X151826504Y-89153739D01*
X151826509Y-89153740D01*
X151826511Y-89153741D01*
X151828982Y-89154403D01*
X152046308Y-89212635D01*
X152208230Y-89226801D01*
X152272998Y-89232468D01*
X152273000Y-89232468D01*
X152273002Y-89232468D01*
X152329673Y-89227509D01*
X152499692Y-89212635D01*
X152719496Y-89153739D01*
X152925734Y-89057568D01*
X153112139Y-88927047D01*
X153273047Y-88766139D01*
X153403568Y-88579734D01*
X153494395Y-88384955D01*
X153540565Y-88332519D01*
X153607759Y-88313367D01*
X153674640Y-88333583D01*
X153719157Y-88384958D01*
X153809865Y-88579482D01*
X153940342Y-88765820D01*
X154101179Y-88926657D01*
X154287517Y-89057134D01*
X154493673Y-89153265D01*
X154493682Y-89153269D01*
X154689999Y-89205872D01*
X154690000Y-89205871D01*
X154690000Y-88242686D01*
X154694394Y-88247080D01*
X154785606Y-88299741D01*
X154887339Y-88327000D01*
X154992661Y-88327000D01*
X155094394Y-88299741D01*
X155185606Y-88247080D01*
X155190000Y-88242686D01*
X155190000Y-89205872D01*
X155386317Y-89153269D01*
X155386326Y-89153265D01*
X155592482Y-89057134D01*
X155778820Y-88926657D01*
X155939657Y-88765820D01*
X156070132Y-88579484D01*
X156097341Y-88521134D01*
X156143513Y-88468695D01*
X156210707Y-88449542D01*
X156277588Y-88469757D01*
X156322106Y-88521133D01*
X156349431Y-88579732D01*
X156349432Y-88579734D01*
X156479954Y-88766141D01*
X156640858Y-88927045D01*
X156640861Y-88927047D01*
X156827266Y-89057568D01*
X157033504Y-89153739D01*
X157033509Y-89153740D01*
X157033511Y-89153741D01*
X157035982Y-89154403D01*
X157253308Y-89212635D01*
X157415230Y-89226801D01*
X157479998Y-89232468D01*
X157480000Y-89232468D01*
X157480002Y-89232468D01*
X157536673Y-89227509D01*
X157706692Y-89212635D01*
X157926496Y-89153739D01*
X158132734Y-89057568D01*
X158319139Y-88927047D01*
X158480047Y-88766139D01*
X158610568Y-88579734D01*
X158701395Y-88384955D01*
X158747565Y-88332519D01*
X158814759Y-88313367D01*
X158881640Y-88333583D01*
X158926157Y-88384958D01*
X159016865Y-88579482D01*
X159147342Y-88765820D01*
X159308179Y-88926657D01*
X159494517Y-89057134D01*
X159700673Y-89153265D01*
X159700682Y-89153269D01*
X159896999Y-89205872D01*
X159897000Y-89205871D01*
X159897000Y-88242686D01*
X159901394Y-88247080D01*
X159992606Y-88299741D01*
X160094339Y-88327000D01*
X160199661Y-88327000D01*
X160301394Y-88299741D01*
X160392606Y-88247080D01*
X160397000Y-88242686D01*
X160397000Y-89205872D01*
G37*
G04 #@! TD.AperFunction*
G04 #@! TA.AperFunction,Conductor*
G36*
X142363000Y-114689872D02*
G01*
X142559317Y-114637269D01*
X142559326Y-114637265D01*
X142765482Y-114541134D01*
X142951820Y-114410657D01*
X143112657Y-114249820D01*
X143243134Y-114063481D01*
X143243135Y-114063479D01*
X143319342Y-113900054D01*
X143365514Y-113847614D01*
X143432707Y-113828462D01*
X143499589Y-113848678D01*
X143544105Y-113900052D01*
X143581485Y-113980213D01*
X143620431Y-114063732D01*
X143620432Y-114063734D01*
X143750954Y-114250141D01*
X143772491Y-114271678D01*
X143805976Y-114333001D01*
X143800992Y-114402693D01*
X143772491Y-114447040D01*
X143689052Y-114530478D01*
X143689049Y-114530481D01*
X143651897Y-114586083D01*
X143651898Y-114586084D01*
X143606914Y-114653408D01*
X143550343Y-114789982D01*
X143550340Y-114789992D01*
X143521500Y-114934979D01*
X143521500Y-115332336D01*
X143501815Y-115399375D01*
X143468625Y-115433910D01*
X143432863Y-115458951D01*
X143271951Y-115619862D01*
X143141432Y-115806265D01*
X143141431Y-115806267D01*
X143050882Y-116000450D01*
X143004709Y-116052889D01*
X142937516Y-116072041D01*
X142870635Y-116051825D01*
X142826118Y-116000450D01*
X142786287Y-115915032D01*
X142735568Y-115806266D01*
X142605047Y-115619861D01*
X142605045Y-115619858D01*
X142444141Y-115458954D01*
X142257734Y-115328432D01*
X142257732Y-115328431D01*
X142051497Y-115232261D01*
X142051488Y-115232258D01*
X141831697Y-115173366D01*
X141831693Y-115173365D01*
X141831692Y-115173365D01*
X141831691Y-115173364D01*
X141831686Y-115173364D01*
X141605002Y-115153532D01*
X141604997Y-115153532D01*
X141438137Y-115168129D01*
X141369637Y-115154362D01*
X141339650Y-115132282D01*
X140599037Y-114391668D01*
X140565552Y-114330345D01*
X140570536Y-114260653D01*
X140585143Y-114232864D01*
X140627060Y-114173000D01*
X140703568Y-114063734D01*
X140730895Y-114005129D01*
X140777064Y-113952695D01*
X140844257Y-113933542D01*
X140911139Y-113953757D01*
X140955657Y-114005133D01*
X140982865Y-114063482D01*
X141113342Y-114249820D01*
X141274179Y-114410657D01*
X141460517Y-114541134D01*
X141666673Y-114637265D01*
X141666682Y-114637269D01*
X141862999Y-114689872D01*
X141863000Y-114689871D01*
X141863000Y-113726686D01*
X141867394Y-113731080D01*
X141958606Y-113783741D01*
X142060339Y-113811000D01*
X142165661Y-113811000D01*
X142267394Y-113783741D01*
X142358606Y-113731080D01*
X142363000Y-113726686D01*
X142363000Y-114689872D01*
G37*
G04 #@! TD.AperFunction*
G04 #@! TA.AperFunction,Conductor*
G36*
X152650000Y-114689872D02*
G01*
X152846317Y-114637269D01*
X152846326Y-114637265D01*
X153052482Y-114541134D01*
X153238820Y-114410657D01*
X153399657Y-114249820D01*
X153530133Y-114063482D01*
X153620842Y-113868958D01*
X153667014Y-113816519D01*
X153734208Y-113797367D01*
X153801089Y-113817583D01*
X153845605Y-113868957D01*
X153886646Y-113956969D01*
X153923882Y-114036820D01*
X153935500Y-114089225D01*
X153935500Y-115332336D01*
X153915815Y-115399375D01*
X153882625Y-115433910D01*
X153846863Y-115458951D01*
X153685951Y-115619862D01*
X153555432Y-115806265D01*
X153555431Y-115806267D01*
X153464882Y-116000450D01*
X153418709Y-116052889D01*
X153351516Y-116072041D01*
X153284635Y-116051825D01*
X153240118Y-116000450D01*
X153200287Y-115915032D01*
X153149568Y-115806266D01*
X153019047Y-115619861D01*
X153019045Y-115619858D01*
X152858141Y-115458954D01*
X152671734Y-115328432D01*
X152671732Y-115328431D01*
X152465497Y-115232261D01*
X152465488Y-115232258D01*
X152245697Y-115173366D01*
X152245693Y-115173365D01*
X152245692Y-115173365D01*
X152245691Y-115173364D01*
X152245686Y-115173364D01*
X152019002Y-115153532D01*
X152018998Y-115153532D01*
X151792313Y-115173364D01*
X151792302Y-115173366D01*
X151572511Y-115232258D01*
X151572502Y-115232261D01*
X151366267Y-115328431D01*
X151366265Y-115328432D01*
X151179858Y-115458954D01*
X151018954Y-115619858D01*
X150888432Y-115806265D01*
X150888431Y-115806267D01*
X150861382Y-115864275D01*
X150815209Y-115916714D01*
X150748016Y-115935866D01*
X150681135Y-115915650D01*
X150636618Y-115864275D01*
X150609568Y-115806267D01*
X150609567Y-115806265D01*
X150479045Y-115619858D01*
X150318141Y-115458954D01*
X150131734Y-115328432D01*
X150131732Y-115328431D01*
X149925497Y-115232261D01*
X149925488Y-115232258D01*
X149705697Y-115173366D01*
X149705693Y-115173365D01*
X149705692Y-115173365D01*
X149705691Y-115173364D01*
X149705686Y-115173364D01*
X149479002Y-115153532D01*
X149478998Y-115153532D01*
X149252313Y-115173364D01*
X149252302Y-115173366D01*
X149032511Y-115232258D01*
X149032502Y-115232261D01*
X148826267Y-115328431D01*
X148826265Y-115328432D01*
X148639858Y-115458954D01*
X148478954Y-115619858D01*
X148348432Y-115806265D01*
X148348431Y-115806267D01*
X148257882Y-116000450D01*
X148211709Y-116052889D01*
X148144516Y-116072041D01*
X148077635Y-116051825D01*
X148033118Y-116000450D01*
X147993287Y-115915032D01*
X147942568Y-115806266D01*
X147812047Y-115619861D01*
X147812045Y-115619858D01*
X147651141Y-115458954D01*
X147464734Y-115328432D01*
X147464732Y-115328431D01*
X147258497Y-115232261D01*
X147258488Y-115232258D01*
X147038697Y-115173366D01*
X147038693Y-115173365D01*
X147038692Y-115173365D01*
X147038691Y-115173364D01*
X147038686Y-115173364D01*
X146812002Y-115153532D01*
X146811998Y-115153532D01*
X146585313Y-115173364D01*
X146585302Y-115173366D01*
X146365511Y-115232258D01*
X146365502Y-115232261D01*
X146159267Y-115328431D01*
X146159265Y-115328432D01*
X145972858Y-115458954D01*
X145811954Y-115619858D01*
X145681432Y-115806265D01*
X145681431Y-115806267D01*
X145654382Y-115864275D01*
X145608209Y-115916714D01*
X145541016Y-115935866D01*
X145474135Y-115915650D01*
X145429618Y-115864275D01*
X145402568Y-115806267D01*
X145402567Y-115806265D01*
X145272048Y-115619862D01*
X145258665Y-115606479D01*
X145111139Y-115458953D01*
X145111135Y-115458950D01*
X145111131Y-115458946D01*
X145098189Y-115449884D01*
X145054566Y-115395306D01*
X145047375Y-115325807D01*
X145078900Y-115263453D01*
X145081572Y-115260694D01*
X145333951Y-115008316D01*
X145416084Y-114885395D01*
X145472658Y-114748813D01*
X145483037Y-114696635D01*
X145501500Y-114603820D01*
X145501500Y-114537662D01*
X145521185Y-114470623D01*
X145554379Y-114436086D01*
X145590140Y-114411046D01*
X145751045Y-114250141D01*
X145751047Y-114250139D01*
X145881568Y-114063734D01*
X145908895Y-114005129D01*
X145955064Y-113952695D01*
X146022257Y-113933542D01*
X146089139Y-113953757D01*
X146133657Y-114005133D01*
X146160865Y-114063482D01*
X146291342Y-114249820D01*
X146452179Y-114410657D01*
X146638517Y-114541134D01*
X146844673Y-114637265D01*
X146844682Y-114637269D01*
X147040999Y-114689872D01*
X147041000Y-114689871D01*
X147041000Y-113726686D01*
X147045394Y-113731080D01*
X147136606Y-113783741D01*
X147238339Y-113811000D01*
X147343661Y-113811000D01*
X147445394Y-113783741D01*
X147536606Y-113731080D01*
X147541000Y-113726686D01*
X147541000Y-114689872D01*
X147737317Y-114637269D01*
X147737326Y-114637265D01*
X147943482Y-114541134D01*
X148129820Y-114410657D01*
X148290657Y-114249820D01*
X148421134Y-114063481D01*
X148421135Y-114063479D01*
X148462842Y-113974039D01*
X148509014Y-113921599D01*
X148576207Y-113902447D01*
X148643088Y-113922662D01*
X148687605Y-113974037D01*
X148703373Y-114007850D01*
X148729431Y-114063732D01*
X148729432Y-114063734D01*
X148859954Y-114250141D01*
X149020858Y-114411045D01*
X149020861Y-114411047D01*
X149207266Y-114541568D01*
X149413504Y-114637739D01*
X149413509Y-114637740D01*
X149413511Y-114637741D01*
X149466415Y-114651916D01*
X149633308Y-114696635D01*
X149795230Y-114710801D01*
X149859998Y-114716468D01*
X149860000Y-114716468D01*
X149860002Y-114716468D01*
X149916673Y-114711509D01*
X150086692Y-114696635D01*
X150306496Y-114637739D01*
X150512734Y-114541568D01*
X150699139Y-114411047D01*
X150860047Y-114250139D01*
X150990568Y-114063734D01*
X151017895Y-114005129D01*
X151064064Y-113952695D01*
X151131257Y-113933542D01*
X151198139Y-113953757D01*
X151242657Y-114005133D01*
X151269865Y-114063482D01*
X151400342Y-114249820D01*
X151561179Y-114410657D01*
X151747517Y-114541134D01*
X151953673Y-114637265D01*
X151953682Y-114637269D01*
X152149999Y-114689872D01*
X152150000Y-114689871D01*
X152150000Y-113726686D01*
X152154394Y-113731080D01*
X152245606Y-113783741D01*
X152347339Y-113811000D01*
X152452661Y-113811000D01*
X152554394Y-113783741D01*
X152645606Y-113731080D01*
X152650000Y-113726686D01*
X152650000Y-114689872D01*
G37*
G04 #@! TD.AperFunction*
G04 #@! TA.AperFunction,Conductor*
G36*
X168144000Y-114689872D02*
G01*
X168340317Y-114637269D01*
X168340326Y-114637265D01*
X168546482Y-114541134D01*
X168732820Y-114410657D01*
X168893657Y-114249820D01*
X169024134Y-114063481D01*
X169024135Y-114063479D01*
X169066118Y-113973448D01*
X169112290Y-113921008D01*
X169179484Y-113901856D01*
X169246365Y-113922072D01*
X169291699Y-113975237D01*
X169302500Y-114025852D01*
X169302500Y-115332336D01*
X169282815Y-115399375D01*
X169249625Y-115433910D01*
X169213863Y-115458951D01*
X169052951Y-115619862D01*
X168922432Y-115806265D01*
X168922431Y-115806267D01*
X168860882Y-115938259D01*
X168814709Y-115990698D01*
X168747516Y-116009850D01*
X168680634Y-115989634D01*
X168636118Y-115938259D01*
X168574568Y-115806267D01*
X168574567Y-115806265D01*
X168444045Y-115619858D01*
X168283141Y-115458954D01*
X168096734Y-115328432D01*
X168096732Y-115328431D01*
X167890497Y-115232261D01*
X167890488Y-115232258D01*
X167670697Y-115173366D01*
X167670693Y-115173365D01*
X167670692Y-115173365D01*
X167670691Y-115173364D01*
X167670686Y-115173364D01*
X167444002Y-115153532D01*
X167443998Y-115153532D01*
X167217313Y-115173364D01*
X167217302Y-115173366D01*
X166997511Y-115232258D01*
X166997502Y-115232261D01*
X166791267Y-115328431D01*
X166791265Y-115328432D01*
X166604858Y-115458954D01*
X166443954Y-115619858D01*
X166313432Y-115806265D01*
X166313431Y-115806267D01*
X166286382Y-115864275D01*
X166240209Y-115916714D01*
X166173016Y-115935866D01*
X166106135Y-115915650D01*
X166061618Y-115864275D01*
X166034568Y-115806267D01*
X166034567Y-115806265D01*
X165904048Y-115619862D01*
X165890665Y-115606479D01*
X165743139Y-115458953D01*
X165720356Y-115443000D01*
X165707375Y-115433910D01*
X165663751Y-115379332D01*
X165654500Y-115332336D01*
X165654500Y-114772007D01*
X165674185Y-114704968D01*
X165726989Y-114659213D01*
X165746407Y-114652232D01*
X165792453Y-114639894D01*
X165800496Y-114637739D01*
X166006734Y-114541568D01*
X166193139Y-114411047D01*
X166354047Y-114250139D01*
X166484568Y-114063734D01*
X166511895Y-114005129D01*
X166558064Y-113952695D01*
X166625257Y-113933542D01*
X166692139Y-113953757D01*
X166736657Y-114005133D01*
X166763865Y-114063482D01*
X166894342Y-114249820D01*
X167055179Y-114410657D01*
X167241517Y-114541134D01*
X167447673Y-114637265D01*
X167447682Y-114637269D01*
X167643999Y-114689872D01*
X167644000Y-114689871D01*
X167644000Y-113726686D01*
X167648394Y-113731080D01*
X167739606Y-113783741D01*
X167841339Y-113811000D01*
X167946661Y-113811000D01*
X168048394Y-113783741D01*
X168139606Y-113731080D01*
X168144000Y-113726686D01*
X168144000Y-114689872D01*
G37*
G04 #@! TD.AperFunction*
G04 #@! TA.AperFunction,Conductor*
G36*
X157857000Y-114689872D02*
G01*
X158053317Y-114637269D01*
X158053326Y-114637265D01*
X158259482Y-114541134D01*
X158445820Y-114410657D01*
X158606657Y-114249820D01*
X158737134Y-114063481D01*
X158737135Y-114063479D01*
X158808118Y-113911257D01*
X158854290Y-113858817D01*
X158921484Y-113839665D01*
X158988365Y-113859881D01*
X159033699Y-113913046D01*
X159044500Y-113963661D01*
X159044500Y-115332336D01*
X159024815Y-115399375D01*
X158991625Y-115433910D01*
X158955863Y-115458951D01*
X158794951Y-115619862D01*
X158664432Y-115806265D01*
X158664431Y-115806267D01*
X158622882Y-115895370D01*
X158576709Y-115947809D01*
X158509516Y-115966961D01*
X158442635Y-115946745D01*
X158398118Y-115895370D01*
X158356568Y-115806267D01*
X158356567Y-115806265D01*
X158226045Y-115619858D01*
X158065141Y-115458954D01*
X157878734Y-115328432D01*
X157878732Y-115328431D01*
X157672497Y-115232261D01*
X157672488Y-115232258D01*
X157452697Y-115173366D01*
X157452693Y-115173365D01*
X157452692Y-115173365D01*
X157452691Y-115173364D01*
X157452686Y-115173364D01*
X157226002Y-115153532D01*
X157225998Y-115153532D01*
X156999313Y-115173364D01*
X156999302Y-115173366D01*
X156779511Y-115232258D01*
X156779502Y-115232261D01*
X156573267Y-115328431D01*
X156573265Y-115328432D01*
X156386858Y-115458954D01*
X156225954Y-115619858D01*
X156095432Y-115806265D01*
X156095431Y-115806267D01*
X156068382Y-115864275D01*
X156022209Y-115916714D01*
X155955016Y-115935866D01*
X155888135Y-115915650D01*
X155843618Y-115864275D01*
X155816568Y-115806267D01*
X155816567Y-115806265D01*
X155686048Y-115619862D01*
X155672665Y-115606479D01*
X155525139Y-115458953D01*
X155502356Y-115443000D01*
X155489375Y-115433910D01*
X155445751Y-115379332D01*
X155436500Y-115332336D01*
X155436500Y-114752588D01*
X155456185Y-114685549D01*
X155508626Y-114640107D01*
X155508589Y-114640027D01*
X155508872Y-114639894D01*
X155508989Y-114639794D01*
X155509797Y-114639463D01*
X155513491Y-114637740D01*
X155513496Y-114637739D01*
X155719734Y-114541568D01*
X155906139Y-114411047D01*
X156067047Y-114250139D01*
X156197568Y-114063734D01*
X156224895Y-114005129D01*
X156271064Y-113952695D01*
X156338257Y-113933542D01*
X156405139Y-113953757D01*
X156449657Y-114005133D01*
X156476865Y-114063482D01*
X156607342Y-114249820D01*
X156768179Y-114410657D01*
X156954517Y-114541134D01*
X157160673Y-114637265D01*
X157160682Y-114637269D01*
X157356999Y-114689872D01*
X157357000Y-114689871D01*
X157357000Y-113726686D01*
X157361394Y-113731080D01*
X157452606Y-113783741D01*
X157554339Y-113811000D01*
X157659661Y-113811000D01*
X157761394Y-113783741D01*
X157852606Y-113731080D01*
X157857000Y-113726686D01*
X157857000Y-114689872D01*
G37*
G04 #@! TD.AperFunction*
G04 #@! TA.AperFunction,Conductor*
G36*
X163035000Y-114689872D02*
G01*
X163231317Y-114637269D01*
X163231326Y-114637265D01*
X163437482Y-114541134D01*
X163623820Y-114410657D01*
X163784657Y-114249820D01*
X163915131Y-114063485D01*
X163917116Y-114059230D01*
X163963287Y-114006790D01*
X164030480Y-113987636D01*
X164097362Y-114007850D01*
X164142698Y-114061014D01*
X164153500Y-114111632D01*
X164153500Y-115332336D01*
X164133815Y-115399375D01*
X164100625Y-115433910D01*
X164064863Y-115458951D01*
X163903951Y-115619862D01*
X163773432Y-115806265D01*
X163773431Y-115806267D01*
X163731882Y-115895370D01*
X163685709Y-115947809D01*
X163618516Y-115966961D01*
X163551635Y-115946745D01*
X163507118Y-115895370D01*
X163465568Y-115806267D01*
X163465567Y-115806265D01*
X163335045Y-115619858D01*
X163174141Y-115458954D01*
X162987734Y-115328432D01*
X162987732Y-115328431D01*
X162781497Y-115232261D01*
X162781488Y-115232258D01*
X162561697Y-115173366D01*
X162561693Y-115173365D01*
X162561692Y-115173365D01*
X162561691Y-115173364D01*
X162561686Y-115173364D01*
X162335002Y-115153532D01*
X162334998Y-115153532D01*
X162108313Y-115173364D01*
X162108302Y-115173366D01*
X161888511Y-115232258D01*
X161888502Y-115232261D01*
X161682267Y-115328431D01*
X161682265Y-115328432D01*
X161495858Y-115458954D01*
X161334954Y-115619858D01*
X161204432Y-115806265D01*
X161204431Y-115806267D01*
X161177382Y-115864275D01*
X161131209Y-115916714D01*
X161064016Y-115935866D01*
X160997135Y-115915650D01*
X160952618Y-115864275D01*
X160925568Y-115806267D01*
X160925567Y-115806265D01*
X160795048Y-115619862D01*
X160781665Y-115606479D01*
X160634139Y-115458953D01*
X160611356Y-115443000D01*
X160598375Y-115433910D01*
X160554751Y-115379332D01*
X160545500Y-115332336D01*
X160545500Y-114772007D01*
X160565185Y-114704968D01*
X160617989Y-114659213D01*
X160637407Y-114652232D01*
X160683453Y-114639894D01*
X160691496Y-114637739D01*
X160897734Y-114541568D01*
X161084139Y-114411047D01*
X161245047Y-114250139D01*
X161375568Y-114063734D01*
X161402895Y-114005129D01*
X161449064Y-113952695D01*
X161516257Y-113933542D01*
X161583139Y-113953757D01*
X161627657Y-114005133D01*
X161654865Y-114063482D01*
X161785342Y-114249820D01*
X161946179Y-114410657D01*
X162132517Y-114541134D01*
X162338673Y-114637265D01*
X162338682Y-114637269D01*
X162534999Y-114689872D01*
X162535000Y-114689871D01*
X162535000Y-113726686D01*
X162539394Y-113731080D01*
X162630606Y-113783741D01*
X162732339Y-113811000D01*
X162837661Y-113811000D01*
X162939394Y-113783741D01*
X163030606Y-113731080D01*
X163035000Y-113726686D01*
X163035000Y-114689872D01*
G37*
G04 #@! TD.AperFunction*
G04 #@! TA.AperFunction,Conductor*
G36*
X173322000Y-114689872D02*
G01*
X173518317Y-114637269D01*
X173518326Y-114637265D01*
X173724482Y-114541134D01*
X173910820Y-114410657D01*
X174071657Y-114249820D01*
X174185925Y-114086631D01*
X174240502Y-114043006D01*
X174310001Y-114035814D01*
X174372355Y-114067336D01*
X174407769Y-114127566D01*
X174411500Y-114157755D01*
X174411500Y-115332336D01*
X174391815Y-115399375D01*
X174358625Y-115433910D01*
X174322863Y-115458951D01*
X174161951Y-115619862D01*
X174031432Y-115806265D01*
X174031431Y-115806267D01*
X173989882Y-115895370D01*
X173943709Y-115947809D01*
X173876516Y-115966961D01*
X173809635Y-115946745D01*
X173765118Y-115895370D01*
X173723568Y-115806267D01*
X173723567Y-115806265D01*
X173593045Y-115619858D01*
X173432141Y-115458954D01*
X173245734Y-115328432D01*
X173245732Y-115328431D01*
X173039497Y-115232261D01*
X173039488Y-115232258D01*
X172819697Y-115173366D01*
X172819693Y-115173365D01*
X172819692Y-115173365D01*
X172819691Y-115173364D01*
X172819686Y-115173364D01*
X172593002Y-115153532D01*
X172592998Y-115153532D01*
X172366313Y-115173364D01*
X172366302Y-115173366D01*
X172146511Y-115232258D01*
X172146502Y-115232261D01*
X171940267Y-115328431D01*
X171940265Y-115328432D01*
X171753858Y-115458954D01*
X171592954Y-115619858D01*
X171462432Y-115806265D01*
X171462431Y-115806267D01*
X171435382Y-115864275D01*
X171389209Y-115916714D01*
X171322016Y-115935866D01*
X171255135Y-115915650D01*
X171210618Y-115864275D01*
X171183568Y-115806267D01*
X171183567Y-115806265D01*
X171053048Y-115619862D01*
X171039665Y-115606479D01*
X170892139Y-115458953D01*
X170869356Y-115443000D01*
X170856375Y-115433910D01*
X170812751Y-115379332D01*
X170803500Y-115332336D01*
X170803500Y-114779777D01*
X170823185Y-114712738D01*
X170875989Y-114666983D01*
X170895408Y-114660002D01*
X170978486Y-114637742D01*
X170978489Y-114637740D01*
X170978496Y-114637739D01*
X171184734Y-114541568D01*
X171371139Y-114411047D01*
X171532047Y-114250139D01*
X171662568Y-114063734D01*
X171689895Y-114005129D01*
X171736064Y-113952695D01*
X171803257Y-113933542D01*
X171870139Y-113953757D01*
X171914657Y-114005133D01*
X171941865Y-114063482D01*
X172072342Y-114249820D01*
X172233179Y-114410657D01*
X172419517Y-114541134D01*
X172625673Y-114637265D01*
X172625682Y-114637269D01*
X172821999Y-114689872D01*
X172822000Y-114689871D01*
X172822000Y-113726686D01*
X172826394Y-113731080D01*
X172917606Y-113783741D01*
X173019339Y-113811000D01*
X173124661Y-113811000D01*
X173226394Y-113783741D01*
X173317606Y-113731080D01*
X173322000Y-113726686D01*
X173322000Y-114689872D01*
G37*
G04 #@! TD.AperFunction*
G04 #@! TA.AperFunction,Conductor*
G36*
X190012860Y-90816306D02*
G01*
X190012861Y-90816306D01*
X190028630Y-90795426D01*
X190111580Y-90628839D01*
X190159083Y-90577602D01*
X190226746Y-90560180D01*
X190293086Y-90582105D01*
X190310262Y-90596429D01*
X190514881Y-90801048D01*
X190548366Y-90862371D01*
X190551200Y-90888729D01*
X190551200Y-107682618D01*
X190551200Y-107682620D01*
X190551199Y-107682620D01*
X190580040Y-107827607D01*
X190580043Y-107827617D01*
X190636612Y-107964188D01*
X190636618Y-107964199D01*
X190647052Y-107979813D01*
X190647054Y-107979818D01*
X190718746Y-108087114D01*
X190718752Y-108087121D01*
X192059431Y-109427798D01*
X192092916Y-109489121D01*
X192095221Y-109526920D01*
X192088357Y-109600998D01*
X192088357Y-109601000D01*
X192108884Y-109822535D01*
X192108885Y-109822537D01*
X192169769Y-110036523D01*
X192169775Y-110036538D01*
X192268938Y-110235683D01*
X192268943Y-110235691D01*
X192403020Y-110413238D01*
X192489366Y-110491952D01*
X192567438Y-110563124D01*
X192587542Y-110575572D01*
X192587544Y-110575573D01*
X192634179Y-110627601D01*
X192645283Y-110696583D01*
X192617330Y-110760617D01*
X192587544Y-110786427D01*
X192567436Y-110798877D01*
X192403020Y-110948761D01*
X192268943Y-111126308D01*
X192268938Y-111126316D01*
X192169775Y-111325461D01*
X192169769Y-111325476D01*
X192108885Y-111539462D01*
X192108884Y-111539464D01*
X192088357Y-111760999D01*
X192088357Y-111761000D01*
X192108884Y-111982535D01*
X192122791Y-112031409D01*
X192122205Y-112101276D01*
X192091206Y-112153025D01*
X190416180Y-113828051D01*
X190354857Y-113861536D01*
X190285165Y-113856552D01*
X190229232Y-113814680D01*
X190204815Y-113749216D01*
X190204499Y-113740370D01*
X190204499Y-113173129D01*
X190204498Y-113173123D01*
X190203667Y-113165394D01*
X190198091Y-113113517D01*
X190196928Y-113110400D01*
X190147797Y-112978671D01*
X190147793Y-112978664D01*
X190061547Y-112863455D01*
X190061544Y-112863452D01*
X189946335Y-112777206D01*
X189946326Y-112777201D01*
X189941169Y-112775278D01*
X189885235Y-112733408D01*
X189860817Y-112667943D01*
X189875668Y-112599670D01*
X189892868Y-112575553D01*
X189894976Y-112573239D01*
X189894981Y-112573236D01*
X190029058Y-112395689D01*
X190128229Y-112196528D01*
X190189115Y-111982536D01*
X190209643Y-111761000D01*
X190189115Y-111539464D01*
X190128229Y-111325472D01*
X190128224Y-111325461D01*
X190029061Y-111126316D01*
X190029056Y-111126308D01*
X189894979Y-110948761D01*
X189730563Y-110798876D01*
X189718724Y-110791546D01*
X189710456Y-110786427D01*
X189663821Y-110734401D01*
X189652716Y-110665419D01*
X189680668Y-110601385D01*
X189710455Y-110575573D01*
X189730562Y-110563124D01*
X189894981Y-110413236D01*
X190029058Y-110235689D01*
X190128229Y-110036528D01*
X190189115Y-109822536D01*
X190209643Y-109601000D01*
X190199505Y-109491597D01*
X190189115Y-109379464D01*
X190189114Y-109379462D01*
X190184745Y-109364107D01*
X190128229Y-109165472D01*
X190128224Y-109165461D01*
X190029061Y-108966316D01*
X190029056Y-108966308D01*
X189894979Y-108788761D01*
X189730563Y-108638876D01*
X189713909Y-108628565D01*
X189710456Y-108626427D01*
X189663821Y-108574401D01*
X189652716Y-108505419D01*
X189680668Y-108441385D01*
X189710455Y-108415573D01*
X189730562Y-108403124D01*
X189858312Y-108286664D01*
X189894979Y-108253238D01*
X189917186Y-108223832D01*
X190029058Y-108075689D01*
X190128229Y-107876528D01*
X190189115Y-107662536D01*
X190209643Y-107441000D01*
X190189115Y-107219464D01*
X190128229Y-107005472D01*
X190128224Y-107005461D01*
X190029061Y-106806316D01*
X190029056Y-106806308D01*
X189894979Y-106628761D01*
X189730563Y-106478876D01*
X189718724Y-106471546D01*
X189710456Y-106466427D01*
X189663821Y-106414401D01*
X189652716Y-106345419D01*
X189680668Y-106281385D01*
X189710455Y-106255573D01*
X189730562Y-106243124D01*
X189827893Y-106154395D01*
X189894979Y-106093238D01*
X189903477Y-106081986D01*
X190029058Y-105915689D01*
X190128229Y-105716528D01*
X190189115Y-105502536D01*
X190209643Y-105281000D01*
X190189115Y-105059464D01*
X190128229Y-104845472D01*
X190115219Y-104819344D01*
X190029061Y-104646316D01*
X190029056Y-104646308D01*
X189894979Y-104468761D01*
X189730563Y-104318876D01*
X189714721Y-104309068D01*
X189710456Y-104306427D01*
X189663821Y-104254401D01*
X189652716Y-104185419D01*
X189680668Y-104121385D01*
X189710455Y-104095573D01*
X189730562Y-104083124D01*
X189832166Y-103990500D01*
X189894979Y-103933238D01*
X189898826Y-103928145D01*
X190029058Y-103755689D01*
X190128229Y-103556528D01*
X190189115Y-103342536D01*
X190209643Y-103121000D01*
X190200647Y-103023921D01*
X190189115Y-102899464D01*
X190189114Y-102899462D01*
X190185432Y-102886522D01*
X190128229Y-102685472D01*
X190048442Y-102525239D01*
X190029061Y-102486316D01*
X190029056Y-102486308D01*
X189894979Y-102308761D01*
X189730563Y-102158876D01*
X189718724Y-102151546D01*
X189710456Y-102146427D01*
X189663821Y-102094401D01*
X189652716Y-102025419D01*
X189680668Y-101961385D01*
X189710455Y-101935573D01*
X189730562Y-101923124D01*
X189849826Y-101814400D01*
X189894979Y-101773238D01*
X189903417Y-101762065D01*
X190029058Y-101595689D01*
X190128229Y-101396528D01*
X190189115Y-101182536D01*
X190209643Y-100961000D01*
X190189115Y-100739464D01*
X190128229Y-100525472D01*
X190121023Y-100511000D01*
X190029061Y-100326316D01*
X190029056Y-100326308D01*
X189894979Y-100148761D01*
X189730563Y-99998876D01*
X189718724Y-99991546D01*
X189710456Y-99986427D01*
X189663821Y-99934401D01*
X189652716Y-99865419D01*
X189680668Y-99801385D01*
X189710455Y-99775573D01*
X189730562Y-99763124D01*
X189894981Y-99613236D01*
X190029058Y-99435689D01*
X190128229Y-99236528D01*
X190189115Y-99022536D01*
X190209643Y-98801000D01*
X190200422Y-98701493D01*
X190189115Y-98579464D01*
X190189114Y-98579462D01*
X190176293Y-98534402D01*
X190128229Y-98365472D01*
X190121023Y-98351000D01*
X190029061Y-98166316D01*
X190029056Y-98166308D01*
X189894979Y-97988761D01*
X189730563Y-97838876D01*
X189718724Y-97831546D01*
X189710456Y-97826427D01*
X189663821Y-97774401D01*
X189652716Y-97705419D01*
X189680668Y-97641385D01*
X189710455Y-97615573D01*
X189730562Y-97603124D01*
X189894981Y-97453236D01*
X190029058Y-97275689D01*
X190128229Y-97076528D01*
X190189115Y-96862536D01*
X190209643Y-96641000D01*
X190189115Y-96419464D01*
X190128229Y-96205472D01*
X190121023Y-96191000D01*
X190029061Y-96006316D01*
X190029056Y-96006308D01*
X189894979Y-95828761D01*
X189730563Y-95678876D01*
X189718724Y-95671546D01*
X189710456Y-95666427D01*
X189663821Y-95614401D01*
X189652716Y-95545419D01*
X189680668Y-95481385D01*
X189710455Y-95455573D01*
X189730562Y-95443124D01*
X189894981Y-95293236D01*
X190029058Y-95115689D01*
X190128229Y-94916528D01*
X190189115Y-94702536D01*
X190209643Y-94481000D01*
X190189115Y-94259464D01*
X190128229Y-94045472D01*
X190121023Y-94031000D01*
X190029061Y-93846316D01*
X190029056Y-93846308D01*
X189894979Y-93668761D01*
X189730563Y-93518876D01*
X189718724Y-93511546D01*
X189710456Y-93506427D01*
X189663821Y-93454401D01*
X189652716Y-93385419D01*
X189680668Y-93321385D01*
X189710455Y-93295573D01*
X189730562Y-93283124D01*
X189894981Y-93133236D01*
X190029058Y-92955689D01*
X190128229Y-92756528D01*
X190189115Y-92542536D01*
X190209643Y-92321000D01*
X190189115Y-92099464D01*
X190128229Y-91885472D01*
X190121023Y-91871000D01*
X190029061Y-91686316D01*
X190029056Y-91686308D01*
X189894979Y-91508761D01*
X189730563Y-91358876D01*
X189708537Y-91345239D01*
X189661900Y-91293211D01*
X189650639Y-91225520D01*
X189657326Y-91167879D01*
X189092585Y-90603138D01*
X189177694Y-90580333D01*
X189280306Y-90521090D01*
X189364090Y-90437306D01*
X189423333Y-90334694D01*
X189446138Y-90249584D01*
X190012860Y-90816306D01*
G37*
G04 #@! TD.AperFunction*
G04 #@! TA.AperFunction,Conductor*
G36*
X183723809Y-84013985D02*
G01*
X183744451Y-84030619D01*
X187118289Y-87404457D01*
X188569546Y-88855713D01*
X188603031Y-88917036D01*
X188598047Y-88986728D01*
X188556175Y-89042661D01*
X188526659Y-89059021D01*
X188466824Y-89082200D01*
X188466818Y-89082204D01*
X188350672Y-89154117D01*
X188350671Y-89154118D01*
X188915415Y-89718861D01*
X188830306Y-89741667D01*
X188727694Y-89800910D01*
X188643910Y-89884694D01*
X188584667Y-89987306D01*
X188561861Y-90072414D01*
X187995138Y-89505691D01*
X187995137Y-89505691D01*
X187979369Y-89526571D01*
X187880240Y-89725649D01*
X187819378Y-89939560D01*
X187798859Y-90160999D01*
X187798859Y-90161000D01*
X187819378Y-90382439D01*
X187880240Y-90596350D01*
X187979364Y-90795419D01*
X187979366Y-90795421D01*
X187995138Y-90816306D01*
X188561861Y-90249584D01*
X188584667Y-90334694D01*
X188643910Y-90437306D01*
X188727694Y-90521090D01*
X188830306Y-90580333D01*
X188915415Y-90603138D01*
X188350671Y-91167880D01*
X188357359Y-91225521D01*
X188345531Y-91294382D01*
X188299465Y-91345236D01*
X188277441Y-91358872D01*
X188277437Y-91358876D01*
X188113020Y-91508761D01*
X187978943Y-91686308D01*
X187978938Y-91686316D01*
X187879775Y-91885461D01*
X187879769Y-91885476D01*
X187818885Y-92099462D01*
X187818884Y-92099464D01*
X187798357Y-92320999D01*
X187798357Y-92321000D01*
X187818884Y-92542535D01*
X187818885Y-92542537D01*
X187879769Y-92756523D01*
X187879775Y-92756538D01*
X187978938Y-92955683D01*
X187978943Y-92955691D01*
X188113020Y-93133238D01*
X188205547Y-93217587D01*
X188277438Y-93283124D01*
X188297542Y-93295572D01*
X188297544Y-93295573D01*
X188344179Y-93347601D01*
X188355283Y-93416583D01*
X188327330Y-93480617D01*
X188297544Y-93506427D01*
X188277436Y-93518877D01*
X188113020Y-93668761D01*
X187978943Y-93846308D01*
X187978938Y-93846316D01*
X187879775Y-94045461D01*
X187879769Y-94045476D01*
X187818885Y-94259462D01*
X187818884Y-94259464D01*
X187798357Y-94480999D01*
X187798357Y-94481000D01*
X187818884Y-94702535D01*
X187818885Y-94702537D01*
X187879769Y-94916523D01*
X187879775Y-94916538D01*
X187978938Y-95115683D01*
X187978943Y-95115691D01*
X188113020Y-95293238D01*
X188241456Y-95410322D01*
X188277438Y-95443124D01*
X188297542Y-95455572D01*
X188297544Y-95455573D01*
X188344179Y-95507601D01*
X188355283Y-95576583D01*
X188327330Y-95640617D01*
X188297544Y-95666427D01*
X188277436Y-95678877D01*
X188113020Y-95828761D01*
X187978943Y-96006308D01*
X187978938Y-96006316D01*
X187879775Y-96205461D01*
X187879769Y-96205476D01*
X187818885Y-96419462D01*
X187818884Y-96419464D01*
X187798357Y-96640999D01*
X187798357Y-96641000D01*
X187818884Y-96862535D01*
X187818885Y-96862537D01*
X187879769Y-97076523D01*
X187879775Y-97076538D01*
X187978938Y-97275683D01*
X187978943Y-97275691D01*
X188113020Y-97453238D01*
X188203460Y-97535684D01*
X188277438Y-97603124D01*
X188297542Y-97615572D01*
X188297544Y-97615573D01*
X188344179Y-97667601D01*
X188355283Y-97736583D01*
X188327330Y-97800617D01*
X188297544Y-97826427D01*
X188277436Y-97838877D01*
X188113021Y-97988760D01*
X188103606Y-98001229D01*
X188047496Y-98042864D01*
X188004653Y-98050500D01*
X184924680Y-98050500D01*
X184779692Y-98079340D01*
X184779682Y-98079343D01*
X184643111Y-98135912D01*
X184643098Y-98135919D01*
X184520184Y-98218048D01*
X184520180Y-98218051D01*
X183292837Y-99445393D01*
X183256773Y-99468070D01*
X183257650Y-99469891D01*
X183251375Y-99472912D01*
X183098637Y-99568884D01*
X182971084Y-99696437D01*
X182875111Y-99849177D01*
X182836199Y-99960382D01*
X182795477Y-100017158D01*
X182730524Y-100042905D01*
X182661962Y-100029449D01*
X182631476Y-100007108D01*
X182323319Y-99698951D01*
X182289834Y-99637628D01*
X182287000Y-99611270D01*
X182287000Y-86838372D01*
X182293958Y-86797417D01*
X182307983Y-86757336D01*
X182321868Y-86717655D01*
X182323828Y-86700260D01*
X182342065Y-86538403D01*
X182342065Y-86538396D01*
X182321869Y-86359150D01*
X182321868Y-86359145D01*
X182292781Y-86276019D01*
X182262289Y-86188878D01*
X182226380Y-86131730D01*
X182197133Y-86085183D01*
X182166316Y-86036138D01*
X182038762Y-85908584D01*
X182032324Y-85904539D01*
X181886023Y-85812611D01*
X181715754Y-85753031D01*
X181715749Y-85753030D01*
X181536504Y-85732835D01*
X181536496Y-85732835D01*
X181357250Y-85753030D01*
X181357245Y-85753031D01*
X181186976Y-85812611D01*
X181034237Y-85908584D01*
X180906684Y-86036137D01*
X180810711Y-86188876D01*
X180751131Y-86359145D01*
X180751130Y-86359150D01*
X180730935Y-86538396D01*
X180730935Y-86538403D01*
X180751130Y-86717649D01*
X180751131Y-86717654D01*
X180779042Y-86797417D01*
X180786000Y-86838372D01*
X180786000Y-100022269D01*
X180766315Y-100089308D01*
X180713511Y-100135063D01*
X180644353Y-100145007D01*
X180580797Y-100115982D01*
X180574319Y-100109950D01*
X174942221Y-94477852D01*
X174942214Y-94477846D01*
X174868529Y-94428612D01*
X174868529Y-94428613D01*
X174819291Y-94395713D01*
X174682717Y-94339143D01*
X174682707Y-94339140D01*
X174537720Y-94310300D01*
X174537718Y-94310300D01*
X172672572Y-94310300D01*
X172631617Y-94303342D01*
X172551854Y-94275431D01*
X172551849Y-94275430D01*
X172372604Y-94255235D01*
X172372596Y-94255235D01*
X172193350Y-94275430D01*
X172193345Y-94275431D01*
X172023076Y-94335011D01*
X171870337Y-94430984D01*
X171742784Y-94558537D01*
X171646811Y-94711276D01*
X171587231Y-94881545D01*
X171587230Y-94881550D01*
X171567035Y-95060796D01*
X171567035Y-95060803D01*
X171587230Y-95240049D01*
X171587231Y-95240054D01*
X171646811Y-95410323D01*
X171731698Y-95545419D01*
X171742784Y-95563062D01*
X171870338Y-95690616D01*
X171960680Y-95747382D01*
X171977615Y-95758023D01*
X172023078Y-95786589D01*
X172193345Y-95846168D01*
X172193350Y-95846169D01*
X172372596Y-95866365D01*
X172372600Y-95866365D01*
X172372604Y-95866365D01*
X172551849Y-95846169D01*
X172551852Y-95846168D01*
X172551855Y-95846168D01*
X172631617Y-95818257D01*
X172672572Y-95811300D01*
X174101570Y-95811300D01*
X174168609Y-95830985D01*
X174189251Y-95847619D01*
X187769431Y-109427799D01*
X187802916Y-109489122D01*
X187805221Y-109526921D01*
X187798357Y-109600998D01*
X187798357Y-109601001D01*
X187814177Y-109771735D01*
X187800762Y-109840305D01*
X187752405Y-109890737D01*
X187684458Y-109907019D01*
X187618496Y-109883981D01*
X187603025Y-109870857D01*
X175589607Y-97857439D01*
X175566953Y-97821369D01*
X175565113Y-97822256D01*
X175562092Y-97815984D01*
X175562089Y-97815980D01*
X175562089Y-97815978D01*
X175466116Y-97663238D01*
X175338562Y-97535684D01*
X175185823Y-97439711D01*
X175015554Y-97380131D01*
X175015549Y-97380130D01*
X174836304Y-97359935D01*
X174836296Y-97359935D01*
X174657050Y-97380130D01*
X174657045Y-97380131D01*
X174486776Y-97439711D01*
X174334037Y-97535684D01*
X174206484Y-97663237D01*
X174110511Y-97815976D01*
X174050931Y-97986245D01*
X174050930Y-97986250D01*
X174030735Y-98165496D01*
X174030735Y-98165503D01*
X174050930Y-98344749D01*
X174050931Y-98344754D01*
X174110511Y-98515023D01*
X174181064Y-98627306D01*
X174206484Y-98667762D01*
X174334038Y-98795316D01*
X174486778Y-98891289D01*
X174486780Y-98891289D01*
X174486784Y-98891292D01*
X174493056Y-98894313D01*
X174492169Y-98896153D01*
X174528239Y-98918807D01*
X187848848Y-112239415D01*
X187938672Y-112329239D01*
X187961991Y-112361648D01*
X187978938Y-112395683D01*
X187978943Y-112395691D01*
X188113021Y-112573239D01*
X188115138Y-112575561D01*
X188115799Y-112576917D01*
X188116474Y-112577811D01*
X188116299Y-112577943D01*
X188145753Y-112638366D01*
X188137553Y-112707753D01*
X188093141Y-112761691D01*
X188066833Y-112775277D01*
X188061674Y-112777201D01*
X188061664Y-112777206D01*
X187946455Y-112863452D01*
X187908601Y-112914018D01*
X187852666Y-112955889D01*
X187782975Y-112960872D01*
X187721654Y-112927387D01*
X181170850Y-106376583D01*
X174561607Y-99767339D01*
X174538953Y-99731269D01*
X174537113Y-99732156D01*
X174534092Y-99725884D01*
X174534089Y-99725880D01*
X174534089Y-99725878D01*
X174438116Y-99573138D01*
X174310562Y-99445584D01*
X174294389Y-99435422D01*
X174157823Y-99349611D01*
X173987554Y-99290031D01*
X173987549Y-99290030D01*
X173808304Y-99269835D01*
X173808296Y-99269835D01*
X173629050Y-99290030D01*
X173629045Y-99290031D01*
X173458776Y-99349611D01*
X173306037Y-99445584D01*
X173173560Y-99578062D01*
X173171754Y-99576256D01*
X173124155Y-99609622D01*
X173054342Y-99612427D01*
X172996791Y-99579824D01*
X170870205Y-97453238D01*
X168680819Y-95263851D01*
X168647334Y-95202528D01*
X168644500Y-95176170D01*
X168644500Y-89053662D01*
X168664185Y-88986623D01*
X168697379Y-88952086D01*
X168733140Y-88927046D01*
X168894045Y-88766141D01*
X168894047Y-88766139D01*
X169024568Y-88579734D01*
X169115395Y-88384955D01*
X169161565Y-88332519D01*
X169228759Y-88313367D01*
X169295640Y-88333583D01*
X169340157Y-88384958D01*
X169430865Y-88579482D01*
X169561342Y-88765820D01*
X169722179Y-88926657D01*
X169908517Y-89057134D01*
X170114673Y-89153265D01*
X170114682Y-89153269D01*
X170310999Y-89205872D01*
X170311000Y-89205871D01*
X170311000Y-88242686D01*
X170315394Y-88247080D01*
X170406606Y-88299741D01*
X170508339Y-88327000D01*
X170613661Y-88327000D01*
X170715394Y-88299741D01*
X170806606Y-88247080D01*
X170811000Y-88242686D01*
X170811000Y-89205872D01*
X171007317Y-89153269D01*
X171007326Y-89153265D01*
X171213482Y-89057134D01*
X171399820Y-88926657D01*
X171560657Y-88765820D01*
X171691132Y-88579484D01*
X171718341Y-88521134D01*
X171764513Y-88468695D01*
X171831707Y-88449542D01*
X171898588Y-88469757D01*
X171943106Y-88521133D01*
X171970431Y-88579732D01*
X171970432Y-88579734D01*
X172100954Y-88766141D01*
X172261858Y-88927045D01*
X172261861Y-88927047D01*
X172448266Y-89057568D01*
X172654504Y-89153739D01*
X172654509Y-89153740D01*
X172654511Y-89153741D01*
X172656982Y-89154403D01*
X172874308Y-89212635D01*
X173036230Y-89226801D01*
X173100998Y-89232468D01*
X173101000Y-89232468D01*
X173101002Y-89232468D01*
X173157673Y-89227509D01*
X173327692Y-89212635D01*
X173547496Y-89153739D01*
X173753734Y-89057568D01*
X173940139Y-88927047D01*
X174101047Y-88766139D01*
X174231568Y-88579734D01*
X174327739Y-88373496D01*
X174327743Y-88373481D01*
X174327980Y-88372831D01*
X174328167Y-88372575D01*
X174330027Y-88368589D01*
X174330827Y-88368962D01*
X174369402Y-88316563D01*
X174434668Y-88291622D01*
X174503058Y-88305926D01*
X174552858Y-88354933D01*
X174556888Y-88362826D01*
X174637865Y-88536482D01*
X174768342Y-88722820D01*
X174929179Y-88883657D01*
X175115517Y-89014134D01*
X175321673Y-89110265D01*
X175321682Y-89110269D01*
X175517999Y-89162872D01*
X175518000Y-89162871D01*
X175518000Y-88199686D01*
X175522394Y-88204080D01*
X175613606Y-88256741D01*
X175715339Y-88284000D01*
X175820661Y-88284000D01*
X175922394Y-88256741D01*
X176013606Y-88204080D01*
X176018000Y-88199686D01*
X176018000Y-89162872D01*
X176214317Y-89110269D01*
X176214326Y-89110265D01*
X176420482Y-89014134D01*
X176606820Y-88883657D01*
X176767657Y-88722820D01*
X176898132Y-88536484D01*
X176925341Y-88478134D01*
X176971513Y-88425695D01*
X177038707Y-88406542D01*
X177105588Y-88426757D01*
X177150106Y-88478133D01*
X177177431Y-88536732D01*
X177177432Y-88536734D01*
X177307954Y-88723141D01*
X177468858Y-88884045D01*
X177468861Y-88884047D01*
X177655266Y-89014568D01*
X177861504Y-89110739D01*
X177861509Y-89110740D01*
X177861511Y-89110741D01*
X177914415Y-89124916D01*
X178081308Y-89169635D01*
X178243230Y-89183801D01*
X178307998Y-89189468D01*
X178308000Y-89189468D01*
X178308002Y-89189468D01*
X178364673Y-89184509D01*
X178534692Y-89169635D01*
X178754496Y-89110739D01*
X178960734Y-89014568D01*
X179147139Y-88884047D01*
X179308047Y-88723139D01*
X179438568Y-88536734D01*
X179534739Y-88330496D01*
X179593635Y-88110692D01*
X179613468Y-87884000D01*
X179593635Y-87657308D01*
X179543189Y-87469041D01*
X179534741Y-87437511D01*
X179534738Y-87437502D01*
X179514053Y-87393143D01*
X179438568Y-87231266D01*
X179308047Y-87044861D01*
X179308045Y-87044858D01*
X179223007Y-86959820D01*
X179189522Y-86898497D01*
X179194506Y-86828805D01*
X179223005Y-86784460D01*
X179369951Y-86637516D01*
X179452084Y-86514595D01*
X179508658Y-86378013D01*
X179520564Y-86318160D01*
X179537500Y-86233020D01*
X179537500Y-85835662D01*
X179557185Y-85768623D01*
X179590379Y-85734086D01*
X179626140Y-85709046D01*
X179787045Y-85548141D01*
X179787047Y-85548139D01*
X179917568Y-85361734D01*
X180013739Y-85155496D01*
X180072635Y-84935692D01*
X180092468Y-84709000D01*
X180072635Y-84482308D01*
X180013739Y-84262504D01*
X179970931Y-84170704D01*
X179960440Y-84101627D01*
X179988960Y-84037843D01*
X180047436Y-83999604D01*
X180083314Y-83994300D01*
X183656770Y-83994300D01*
X183723809Y-84013985D01*
G37*
G04 #@! TD.AperFunction*
G04 #@! TA.AperFunction,Conductor*
G36*
X192874667Y-103294694D02*
G01*
X192933910Y-103397306D01*
X193017694Y-103481090D01*
X193120306Y-103540333D01*
X193205415Y-103563138D01*
X192640671Y-104127880D01*
X192647359Y-104185521D01*
X192635531Y-104254382D01*
X192589465Y-104305236D01*
X192567441Y-104318872D01*
X192567437Y-104318876D01*
X192403020Y-104468761D01*
X192275154Y-104638084D01*
X192219045Y-104679720D01*
X192149333Y-104684411D01*
X192088151Y-104650669D01*
X192054924Y-104589206D01*
X192052200Y-104563357D01*
X192052200Y-103837813D01*
X192071885Y-103770774D01*
X192124689Y-103725019D01*
X192193847Y-103715075D01*
X192257403Y-103744100D01*
X192275153Y-103763084D01*
X192285138Y-103776306D01*
X192851861Y-103209584D01*
X192874667Y-103294694D01*
G37*
G04 #@! TD.AperFunction*
G04 #@! TA.AperFunction,Conductor*
G36*
X192874667Y-101134694D02*
G01*
X192933910Y-101237306D01*
X193017694Y-101321090D01*
X193120306Y-101380333D01*
X193205415Y-101403138D01*
X192640671Y-101967880D01*
X192647497Y-102026709D01*
X192647497Y-102055289D01*
X192640671Y-102114118D01*
X193205415Y-102678861D01*
X193120306Y-102701667D01*
X193017694Y-102760910D01*
X192933910Y-102844694D01*
X192874667Y-102947306D01*
X192851861Y-103032414D01*
X192285138Y-102465691D01*
X192285137Y-102465691D01*
X192275154Y-102478912D01*
X192219045Y-102520548D01*
X192149333Y-102525239D01*
X192088151Y-102491497D01*
X192054924Y-102430034D01*
X192052200Y-102404185D01*
X192052200Y-101677813D01*
X192071885Y-101610774D01*
X192124689Y-101565019D01*
X192193847Y-101555075D01*
X192257403Y-101584100D01*
X192275153Y-101603084D01*
X192285138Y-101616306D01*
X192851861Y-101049584D01*
X192874667Y-101134694D01*
G37*
G04 #@! TD.AperFunction*
G04 #@! TA.AperFunction,Conductor*
G36*
X192874667Y-98974694D02*
G01*
X192933910Y-99077306D01*
X193017694Y-99161090D01*
X193120306Y-99220333D01*
X193205415Y-99243138D01*
X192640671Y-99807880D01*
X192647497Y-99866709D01*
X192647497Y-99895289D01*
X192640671Y-99954118D01*
X193205415Y-100518861D01*
X193120306Y-100541667D01*
X193017694Y-100600910D01*
X192933910Y-100684694D01*
X192874667Y-100787306D01*
X192851861Y-100872414D01*
X192285138Y-100305691D01*
X192285137Y-100305691D01*
X192275154Y-100318912D01*
X192219045Y-100360548D01*
X192149333Y-100365239D01*
X192088151Y-100331497D01*
X192054924Y-100270034D01*
X192052200Y-100244185D01*
X192052200Y-99517813D01*
X192071885Y-99450774D01*
X192124689Y-99405019D01*
X192193847Y-99395075D01*
X192257403Y-99424100D01*
X192275153Y-99443084D01*
X192285138Y-99456306D01*
X192851861Y-98889584D01*
X192874667Y-98974694D01*
G37*
G04 #@! TD.AperFunction*
G04 #@! TA.AperFunction,Conductor*
G36*
X137204009Y-66213785D02*
G01*
X137224651Y-66230419D01*
X140588341Y-69594109D01*
X140621826Y-69655432D01*
X140616842Y-69725124D01*
X140588342Y-69769471D01*
X140457951Y-69899862D01*
X140327432Y-70086265D01*
X140327429Y-70086270D01*
X140320104Y-70101979D01*
X140273929Y-70154417D01*
X140206735Y-70173566D01*
X140139855Y-70153347D01*
X140095341Y-70101973D01*
X140088133Y-70086515D01*
X140088132Y-70086513D01*
X140037025Y-70013526D01*
X139358000Y-70692551D01*
X139358000Y-70686339D01*
X139330741Y-70584606D01*
X139278080Y-70493394D01*
X139203606Y-70418920D01*
X139112394Y-70366259D01*
X139010661Y-70339000D01*
X139004446Y-70339000D01*
X139683472Y-69659974D01*
X139610478Y-69608863D01*
X139404331Y-69512735D01*
X139404319Y-69512731D01*
X139293721Y-69483096D01*
X139234061Y-69446730D01*
X139203532Y-69383883D01*
X139208774Y-69322365D01*
X139226867Y-69270659D01*
X139226869Y-69270649D01*
X139247065Y-69091403D01*
X139247065Y-69091396D01*
X139226869Y-68912150D01*
X139226868Y-68912145D01*
X139206808Y-68854818D01*
X139167289Y-68741878D01*
X139134058Y-68688992D01*
X139071315Y-68589137D01*
X138943762Y-68461584D01*
X138791023Y-68365611D01*
X138620754Y-68306031D01*
X138620749Y-68306030D01*
X138441504Y-68285835D01*
X138441496Y-68285835D01*
X138262250Y-68306030D01*
X138262245Y-68306031D01*
X138091976Y-68365611D01*
X137939237Y-68461584D01*
X137811684Y-68589137D01*
X137715711Y-68741878D01*
X137712688Y-68748156D01*
X137710862Y-68747276D01*
X137688193Y-68783337D01*
X120148149Y-86323382D01*
X120148143Y-86323389D01*
X120127285Y-86354606D01*
X120127286Y-86354607D01*
X120066014Y-86446308D01*
X120009443Y-86582882D01*
X120009440Y-86582892D01*
X119980600Y-86727879D01*
X119980600Y-100113360D01*
X119960915Y-100180399D01*
X119908111Y-100226154D01*
X119838953Y-100236098D01*
X119775397Y-100207073D01*
X119768919Y-100201041D01*
X119753862Y-100185984D01*
X119601122Y-100090011D01*
X119601118Y-100090009D01*
X119594844Y-100086988D01*
X119595725Y-100085158D01*
X119559659Y-100062492D01*
X114352977Y-94855809D01*
X114326097Y-94815580D01*
X114306187Y-94767511D01*
X114306185Y-94767508D01*
X114306184Y-94767505D01*
X114299369Y-94757306D01*
X114224054Y-94644588D01*
X114224048Y-94644580D01*
X114119519Y-94540051D01*
X114119515Y-94540048D01*
X113996601Y-94457919D01*
X113996588Y-94457912D01*
X113860017Y-94401343D01*
X113860007Y-94401340D01*
X113715020Y-94372500D01*
X113715018Y-94372500D01*
X113328701Y-94372500D01*
X113261662Y-94352815D01*
X113227126Y-94319623D01*
X113179494Y-94251597D01*
X113012402Y-94084506D01*
X113012401Y-94084505D01*
X112826405Y-93954269D01*
X112782781Y-93899692D01*
X112775588Y-93830193D01*
X112807110Y-93767839D01*
X112826405Y-93751119D01*
X113012082Y-93621105D01*
X113179105Y-93454082D01*
X113314600Y-93260578D01*
X113414429Y-93046492D01*
X113414432Y-93046486D01*
X113471636Y-92833000D01*
X112574012Y-92833000D01*
X112606925Y-92775993D01*
X112641000Y-92648826D01*
X112641000Y-92517174D01*
X112606925Y-92390007D01*
X112574012Y-92333000D01*
X113471636Y-92333000D01*
X113471635Y-92332999D01*
X113414432Y-92119513D01*
X113414429Y-92119507D01*
X113314600Y-91905422D01*
X113314599Y-91905420D01*
X113179113Y-91711926D01*
X113179108Y-91711920D01*
X113012078Y-91544890D01*
X112826405Y-91414879D01*
X112782780Y-91360302D01*
X112775588Y-91290804D01*
X112807110Y-91228449D01*
X112826406Y-91211730D01*
X112826842Y-91211425D01*
X113012401Y-91081495D01*
X113179495Y-90914401D01*
X113315035Y-90720830D01*
X113414903Y-90506663D01*
X113476063Y-90278408D01*
X113496659Y-90043000D01*
X113476063Y-89807592D01*
X113414903Y-89579337D01*
X113315035Y-89365171D01*
X113309425Y-89357158D01*
X113179494Y-89171597D01*
X113012402Y-89004506D01*
X113012396Y-89004501D01*
X112826842Y-88874575D01*
X112783217Y-88819998D01*
X112776023Y-88750500D01*
X112807546Y-88688145D01*
X112826842Y-88671425D01*
X112957790Y-88579734D01*
X113012401Y-88541495D01*
X113179495Y-88374401D01*
X113315035Y-88180830D01*
X113414903Y-87966663D01*
X113476063Y-87738408D01*
X113496659Y-87503000D01*
X113476063Y-87267592D01*
X113416468Y-87045179D01*
X113414905Y-87039344D01*
X113414904Y-87039343D01*
X113414903Y-87039337D01*
X113315035Y-86825171D01*
X113309731Y-86817595D01*
X113179494Y-86631597D01*
X113012402Y-86464506D01*
X113012396Y-86464501D01*
X112826842Y-86334575D01*
X112783217Y-86279998D01*
X112776023Y-86210500D01*
X112807546Y-86148145D01*
X112826842Y-86131425D01*
X112932463Y-86057468D01*
X113012401Y-86001495D01*
X113179495Y-85834401D01*
X113315035Y-85640830D01*
X113414903Y-85426663D01*
X113476063Y-85198408D01*
X113496659Y-84963000D01*
X113476063Y-84727592D01*
X113414903Y-84499337D01*
X113315035Y-84285171D01*
X113309425Y-84277158D01*
X113179494Y-84091597D01*
X113012402Y-83924506D01*
X113012401Y-83924505D01*
X112826405Y-83794269D01*
X112782781Y-83739692D01*
X112775588Y-83670193D01*
X112807110Y-83607839D01*
X112826405Y-83591119D01*
X113012082Y-83461105D01*
X113179105Y-83294082D01*
X113314600Y-83100578D01*
X113414429Y-82886492D01*
X113414432Y-82886486D01*
X113471636Y-82673000D01*
X112574012Y-82673000D01*
X112606925Y-82615993D01*
X112641000Y-82488826D01*
X112641000Y-82357174D01*
X112606925Y-82230007D01*
X112574012Y-82173000D01*
X113471636Y-82173000D01*
X113471635Y-82172999D01*
X113414432Y-81959513D01*
X113414429Y-81959507D01*
X113314600Y-81745422D01*
X113314599Y-81745420D01*
X113179113Y-81551926D01*
X113179108Y-81551920D01*
X113012078Y-81384890D01*
X112826405Y-81254879D01*
X112782780Y-81200302D01*
X112775588Y-81130804D01*
X112807110Y-81068449D01*
X112826406Y-81051730D01*
X112826842Y-81051425D01*
X113012401Y-80921495D01*
X113179495Y-80754401D01*
X113315035Y-80560830D01*
X113414903Y-80346663D01*
X113476063Y-80118408D01*
X113496659Y-79883000D01*
X113476063Y-79647592D01*
X113414903Y-79419337D01*
X113315035Y-79205171D01*
X113314404Y-79204269D01*
X113179494Y-79011597D01*
X113012404Y-78844507D01*
X112944375Y-78796872D01*
X112900751Y-78742294D01*
X112891500Y-78695298D01*
X112891500Y-78530700D01*
X112911185Y-78463661D01*
X112944375Y-78429126D01*
X113012401Y-78381495D01*
X113179495Y-78214401D01*
X113227127Y-78146376D01*
X113281704Y-78102751D01*
X113328701Y-78093500D01*
X113715020Y-78093500D01*
X113814718Y-78073668D01*
X113860013Y-78064658D01*
X113996595Y-78008084D01*
X114045829Y-77975186D01*
X114119516Y-77925952D01*
X125815049Y-66230419D01*
X125876372Y-66196934D01*
X125902730Y-66194100D01*
X129554182Y-66194100D01*
X137136970Y-66194100D01*
X137204009Y-66213785D01*
G37*
G04 #@! TD.AperFunction*
G04 #@! TA.AperFunction,Conductor*
G36*
X192874667Y-96814694D02*
G01*
X192933910Y-96917306D01*
X193017694Y-97001090D01*
X193120306Y-97060333D01*
X193205415Y-97083138D01*
X192640671Y-97647880D01*
X192647497Y-97706709D01*
X192647497Y-97735289D01*
X192640671Y-97794118D01*
X193205415Y-98358861D01*
X193120306Y-98381667D01*
X193017694Y-98440910D01*
X192933910Y-98524694D01*
X192874667Y-98627306D01*
X192851861Y-98712414D01*
X192285138Y-98145691D01*
X192285137Y-98145691D01*
X192275154Y-98158912D01*
X192219045Y-98200548D01*
X192149333Y-98205239D01*
X192088151Y-98171497D01*
X192054924Y-98110034D01*
X192052200Y-98084185D01*
X192052200Y-97357813D01*
X192071885Y-97290774D01*
X192124689Y-97245019D01*
X192193847Y-97235075D01*
X192257403Y-97264100D01*
X192275153Y-97283084D01*
X192285138Y-97296306D01*
X192851861Y-96729584D01*
X192874667Y-96814694D01*
G37*
G04 #@! TD.AperFunction*
G04 #@! TA.AperFunction,Conductor*
G36*
X192874667Y-94654694D02*
G01*
X192933910Y-94757306D01*
X193017694Y-94841090D01*
X193120306Y-94900333D01*
X193205415Y-94923138D01*
X192640671Y-95487880D01*
X192647497Y-95546709D01*
X192647497Y-95575289D01*
X192640671Y-95634118D01*
X193205415Y-96198861D01*
X193120306Y-96221667D01*
X193017694Y-96280910D01*
X192933910Y-96364694D01*
X192874667Y-96467306D01*
X192851861Y-96552414D01*
X192285138Y-95985691D01*
X192285137Y-95985691D01*
X192275154Y-95998912D01*
X192219045Y-96040548D01*
X192149333Y-96045239D01*
X192088151Y-96011497D01*
X192054924Y-95950034D01*
X192052200Y-95924185D01*
X192052200Y-95197813D01*
X192071885Y-95130774D01*
X192124689Y-95085019D01*
X192193847Y-95075075D01*
X192257403Y-95104100D01*
X192275153Y-95123084D01*
X192285138Y-95136306D01*
X192851861Y-94569584D01*
X192874667Y-94654694D01*
G37*
G04 #@! TD.AperFunction*
G04 #@! TA.AperFunction,Conductor*
G36*
X165604000Y-89205872D02*
G01*
X165800317Y-89153269D01*
X165800326Y-89153265D01*
X166006482Y-89057134D01*
X166192820Y-88926657D01*
X166353657Y-88765820D01*
X166484132Y-88579484D01*
X166511341Y-88521134D01*
X166557513Y-88468695D01*
X166624707Y-88449542D01*
X166691588Y-88469757D01*
X166736106Y-88521133D01*
X166763431Y-88579732D01*
X166763432Y-88579734D01*
X166893954Y-88766141D01*
X167054859Y-88927046D01*
X167090621Y-88952086D01*
X167134247Y-89006662D01*
X167143500Y-89053662D01*
X167143500Y-94700270D01*
X167123815Y-94767309D01*
X167071011Y-94813064D01*
X167001853Y-94823008D01*
X166938297Y-94793983D01*
X166931819Y-94787951D01*
X163473819Y-91329951D01*
X163440334Y-91268628D01*
X163437500Y-91242270D01*
X163437500Y-89053662D01*
X163457185Y-88986623D01*
X163490379Y-88952086D01*
X163526140Y-88927046D01*
X163687045Y-88766141D01*
X163687047Y-88766139D01*
X163817568Y-88579734D01*
X163908395Y-88384955D01*
X163954565Y-88332519D01*
X164021759Y-88313367D01*
X164088640Y-88333583D01*
X164133157Y-88384958D01*
X164223865Y-88579482D01*
X164354342Y-88765820D01*
X164515179Y-88926657D01*
X164701517Y-89057134D01*
X164907673Y-89153265D01*
X164907682Y-89153269D01*
X165103999Y-89205872D01*
X165104000Y-89205871D01*
X165104000Y-88242686D01*
X165108394Y-88247080D01*
X165199606Y-88299741D01*
X165301339Y-88327000D01*
X165406661Y-88327000D01*
X165508394Y-88299741D01*
X165599606Y-88247080D01*
X165604000Y-88242686D01*
X165604000Y-89205872D01*
G37*
G04 #@! TD.AperFunction*
G04 #@! TA.AperFunction,Conductor*
G36*
X192874667Y-92494694D02*
G01*
X192933910Y-92597306D01*
X193017694Y-92681090D01*
X193120306Y-92740333D01*
X193205415Y-92763138D01*
X192640671Y-93327880D01*
X192647497Y-93386709D01*
X192647497Y-93415289D01*
X192640671Y-93474118D01*
X193205415Y-94038861D01*
X193120306Y-94061667D01*
X193017694Y-94120910D01*
X192933910Y-94204694D01*
X192874667Y-94307306D01*
X192851861Y-94392414D01*
X192285138Y-93825691D01*
X192285137Y-93825691D01*
X192275154Y-93838912D01*
X192219045Y-93880548D01*
X192149333Y-93885239D01*
X192088151Y-93851497D01*
X192054924Y-93790034D01*
X192052200Y-93764185D01*
X192052200Y-93037813D01*
X192071885Y-92970774D01*
X192124689Y-92925019D01*
X192193847Y-92915075D01*
X192257403Y-92944100D01*
X192275153Y-92963084D01*
X192285138Y-92976306D01*
X192851861Y-92409584D01*
X192874667Y-92494694D01*
G37*
G04 #@! TD.AperFunction*
G04 #@! TA.AperFunction,Conductor*
G36*
X192874667Y-90334694D02*
G01*
X192933910Y-90437306D01*
X193017694Y-90521090D01*
X193120306Y-90580333D01*
X193205415Y-90603138D01*
X192640671Y-91167880D01*
X192647497Y-91226709D01*
X192647497Y-91255289D01*
X192640671Y-91314118D01*
X193205415Y-91878861D01*
X193120306Y-91901667D01*
X193017694Y-91960910D01*
X192933910Y-92044694D01*
X192874667Y-92147306D01*
X192851861Y-92232414D01*
X192285138Y-91665691D01*
X192285137Y-91665691D01*
X192275154Y-91678912D01*
X192219045Y-91720548D01*
X192149333Y-91725239D01*
X192088151Y-91691497D01*
X192054924Y-91630034D01*
X192052200Y-91604185D01*
X192052200Y-90877813D01*
X192071885Y-90810774D01*
X192124689Y-90765019D01*
X192193847Y-90755075D01*
X192257403Y-90784100D01*
X192275153Y-90803084D01*
X192285138Y-90816306D01*
X192851861Y-90249584D01*
X192874667Y-90334694D01*
G37*
G04 #@! TD.AperFunction*
G04 #@! TA.AperFunction,Conductor*
G36*
X141164865Y-85295348D02*
G01*
X141209382Y-85346725D01*
X141236429Y-85404728D01*
X141236432Y-85404734D01*
X141366954Y-85591141D01*
X141527856Y-85752043D01*
X141527859Y-85752045D01*
X141527861Y-85752047D01*
X141540805Y-85761110D01*
X141584430Y-85815685D01*
X141591625Y-85885184D01*
X141560104Y-85947539D01*
X141557364Y-85950367D01*
X141276048Y-86231683D01*
X141268811Y-86242515D01*
X141242025Y-86282605D01*
X141242024Y-86282606D01*
X141193914Y-86354607D01*
X141137343Y-86491182D01*
X141137340Y-86491192D01*
X141108500Y-86636179D01*
X141108500Y-86800336D01*
X141088815Y-86867375D01*
X141055625Y-86901910D01*
X141019863Y-86926951D01*
X140858951Y-87087862D01*
X140743323Y-87252999D01*
X140728432Y-87274266D01*
X140728315Y-87274518D01*
X140701106Y-87332867D01*
X140654933Y-87385306D01*
X140587739Y-87404457D01*
X140520858Y-87384241D01*
X140476342Y-87332865D01*
X140449135Y-87274520D01*
X140449134Y-87274518D01*
X140318657Y-87088179D01*
X140157820Y-86927342D01*
X139971482Y-86796865D01*
X139765328Y-86700734D01*
X139569000Y-86648127D01*
X139569000Y-87611314D01*
X139564606Y-87606920D01*
X139473394Y-87554259D01*
X139371661Y-87527000D01*
X139266339Y-87527000D01*
X139164606Y-87554259D01*
X139073394Y-87606920D01*
X139069000Y-87611314D01*
X139069000Y-86622728D01*
X139088685Y-86555689D01*
X139105314Y-86535052D01*
X139561652Y-86078714D01*
X139622973Y-86045231D01*
X139660135Y-86042869D01*
X139803366Y-86055400D01*
X139826999Y-86057468D01*
X139827000Y-86057468D01*
X139827002Y-86057468D01*
X139883673Y-86052509D01*
X140053692Y-86037635D01*
X140273496Y-85978739D01*
X140479734Y-85882568D01*
X140666139Y-85752047D01*
X140827047Y-85591139D01*
X140957568Y-85404734D01*
X140984618Y-85346724D01*
X141030790Y-85294285D01*
X141097983Y-85275133D01*
X141164865Y-85295348D01*
G37*
G04 #@! TD.AperFunction*
G04 #@! TA.AperFunction,Conductor*
G36*
X143768365Y-85159174D02*
G01*
X143812880Y-85210547D01*
X143876382Y-85346725D01*
X143903431Y-85404732D01*
X143903432Y-85404734D01*
X144033954Y-85591141D01*
X144194858Y-85752045D01*
X144194861Y-85752047D01*
X144381266Y-85882568D01*
X144587504Y-85978739D01*
X144807308Y-86037635D01*
X144969230Y-86051801D01*
X145033998Y-86057468D01*
X145034000Y-86057468D01*
X145034002Y-86057468D01*
X145090673Y-86052509D01*
X145260692Y-86037635D01*
X145480496Y-85978739D01*
X145686734Y-85882568D01*
X145873139Y-85752047D01*
X146034047Y-85591139D01*
X146164568Y-85404734D01*
X146191618Y-85346724D01*
X146237790Y-85294285D01*
X146304983Y-85275133D01*
X146371865Y-85295348D01*
X146416382Y-85346725D01*
X146443429Y-85404728D01*
X146443432Y-85404734D01*
X146573954Y-85591141D01*
X146734856Y-85752043D01*
X146734859Y-85752045D01*
X146734861Y-85752047D01*
X146747805Y-85761110D01*
X146791430Y-85815685D01*
X146798625Y-85885184D01*
X146767104Y-85947539D01*
X146764364Y-85950367D01*
X146512049Y-86202682D01*
X146492672Y-86231683D01*
X146463049Y-86276018D01*
X146448319Y-86298063D01*
X146429916Y-86325604D01*
X146429912Y-86325611D01*
X146373343Y-86462182D01*
X146373340Y-86462192D01*
X146344500Y-86607179D01*
X146344500Y-86800336D01*
X146324815Y-86867375D01*
X146291625Y-86901910D01*
X146255863Y-86926951D01*
X146094951Y-87087862D01*
X145979323Y-87252999D01*
X145964432Y-87274266D01*
X145964315Y-87274518D01*
X145937106Y-87332867D01*
X145890933Y-87385306D01*
X145823739Y-87404457D01*
X145756858Y-87384241D01*
X145712342Y-87332865D01*
X145685135Y-87274520D01*
X145685134Y-87274518D01*
X145554657Y-87088179D01*
X145393820Y-86927342D01*
X145207482Y-86796865D01*
X145001328Y-86700734D01*
X144805000Y-86648127D01*
X144805000Y-87611314D01*
X144800606Y-87606920D01*
X144709394Y-87554259D01*
X144607661Y-87527000D01*
X144502339Y-87527000D01*
X144400606Y-87554259D01*
X144309394Y-87606920D01*
X144305000Y-87611314D01*
X144305000Y-86648127D01*
X144108671Y-86700734D01*
X143902517Y-86796865D01*
X143716179Y-86927342D01*
X143555342Y-87088179D01*
X143424865Y-87274517D01*
X143328734Y-87480673D01*
X143328728Y-87480688D01*
X143327030Y-87487025D01*
X143290660Y-87546682D01*
X143227810Y-87577206D01*
X143158435Y-87568905D01*
X143104561Y-87524415D01*
X143087482Y-87487011D01*
X143085739Y-87480504D01*
X142989568Y-87274266D01*
X142859047Y-87087861D01*
X142788505Y-87017319D01*
X142755022Y-86955999D01*
X142760006Y-86886307D01*
X142788504Y-86841961D01*
X142949951Y-86680516D01*
X143032084Y-86557595D01*
X143088658Y-86421013D01*
X143089019Y-86419195D01*
X143089023Y-86419195D01*
X143089023Y-86419176D01*
X143117500Y-86276018D01*
X143117500Y-85878662D01*
X143137185Y-85811623D01*
X143170379Y-85777086D01*
X143206139Y-85752047D01*
X143367047Y-85591139D01*
X143497568Y-85404734D01*
X143588119Y-85210547D01*
X143634290Y-85158110D01*
X143701484Y-85138958D01*
X143768365Y-85159174D01*
G37*
G04 #@! TD.AperFunction*
G04 #@! TA.AperFunction,Conductor*
G36*
X148975365Y-85159174D02*
G01*
X149019880Y-85210547D01*
X149083382Y-85346725D01*
X149110431Y-85404732D01*
X149110432Y-85404734D01*
X149240954Y-85591141D01*
X149401858Y-85752045D01*
X149401861Y-85752047D01*
X149588266Y-85882568D01*
X149794504Y-85978739D01*
X150014308Y-86037635D01*
X150176230Y-86051801D01*
X150240998Y-86057468D01*
X150241000Y-86057468D01*
X150241002Y-86057468D01*
X150297673Y-86052509D01*
X150467692Y-86037635D01*
X150687496Y-85978739D01*
X150893734Y-85882568D01*
X151080139Y-85752047D01*
X151241047Y-85591139D01*
X151371568Y-85404734D01*
X151398618Y-85346724D01*
X151444790Y-85294285D01*
X151511983Y-85275133D01*
X151578865Y-85295348D01*
X151623382Y-85346725D01*
X151650429Y-85404728D01*
X151650432Y-85404734D01*
X151780954Y-85591141D01*
X151941856Y-85752043D01*
X151941859Y-85752045D01*
X151941861Y-85752047D01*
X151954805Y-85761110D01*
X151998430Y-85815685D01*
X152005625Y-85885184D01*
X151974104Y-85947539D01*
X151971364Y-85950367D01*
X151690048Y-86231683D01*
X151682811Y-86242515D01*
X151656025Y-86282605D01*
X151656024Y-86282606D01*
X151607914Y-86354607D01*
X151551343Y-86491182D01*
X151551340Y-86491192D01*
X151522500Y-86636179D01*
X151522500Y-86800336D01*
X151502815Y-86867375D01*
X151469625Y-86901910D01*
X151433863Y-86926951D01*
X151272951Y-87087862D01*
X151157323Y-87252999D01*
X151142432Y-87274266D01*
X151142315Y-87274518D01*
X151115106Y-87332867D01*
X151068933Y-87385306D01*
X151001739Y-87404457D01*
X150934858Y-87384241D01*
X150890342Y-87332865D01*
X150863135Y-87274520D01*
X150863134Y-87274518D01*
X150732657Y-87088179D01*
X150571820Y-86927342D01*
X150385482Y-86796865D01*
X150179328Y-86700734D01*
X149983000Y-86648127D01*
X149983000Y-87611314D01*
X149978606Y-87606920D01*
X149887394Y-87554259D01*
X149785661Y-87527000D01*
X149680339Y-87527000D01*
X149578606Y-87554259D01*
X149487394Y-87606920D01*
X149483000Y-87611314D01*
X149483000Y-86648127D01*
X149286671Y-86700734D01*
X149080517Y-86796865D01*
X148894179Y-86927342D01*
X148733342Y-87088179D01*
X148602865Y-87274517D01*
X148526657Y-87437946D01*
X148480484Y-87490385D01*
X148413291Y-87509537D01*
X148346410Y-87489321D01*
X148301894Y-87437947D01*
X148225568Y-87274266D01*
X148095047Y-87087861D01*
X148095045Y-87087858D01*
X148010007Y-87002820D01*
X147976522Y-86941497D01*
X147981506Y-86871805D01*
X148010005Y-86827460D01*
X148156951Y-86680516D01*
X148239084Y-86557595D01*
X148239874Y-86555689D01*
X148277483Y-86464891D01*
X148295658Y-86421013D01*
X148314636Y-86325605D01*
X148324500Y-86276019D01*
X148324500Y-85878662D01*
X148344185Y-85811623D01*
X148377379Y-85777086D01*
X148413139Y-85752047D01*
X148574047Y-85591139D01*
X148704568Y-85404734D01*
X148795119Y-85210547D01*
X148841290Y-85158110D01*
X148908484Y-85138958D01*
X148975365Y-85159174D01*
G37*
G04 #@! TD.AperFunction*
G04 #@! TA.AperFunction,Conductor*
G36*
X154182365Y-85159174D02*
G01*
X154226880Y-85210547D01*
X154290382Y-85346725D01*
X154317431Y-85404732D01*
X154317432Y-85404734D01*
X154447954Y-85591141D01*
X154608858Y-85752045D01*
X154608861Y-85752047D01*
X154795266Y-85882568D01*
X155001504Y-85978739D01*
X155221308Y-86037635D01*
X155383230Y-86051801D01*
X155447998Y-86057468D01*
X155448000Y-86057468D01*
X155448002Y-86057468D01*
X155504673Y-86052509D01*
X155674692Y-86037635D01*
X155894496Y-85978739D01*
X156100734Y-85882568D01*
X156287139Y-85752047D01*
X156448047Y-85591139D01*
X156578568Y-85404734D01*
X156605618Y-85346724D01*
X156651790Y-85294285D01*
X156718983Y-85275133D01*
X156785865Y-85295348D01*
X156830382Y-85346725D01*
X156857429Y-85404728D01*
X156857432Y-85404734D01*
X156987954Y-85591141D01*
X157148856Y-85752043D01*
X157148859Y-85752045D01*
X157148861Y-85752047D01*
X157161805Y-85761110D01*
X157205430Y-85815685D01*
X157212625Y-85885184D01*
X157181104Y-85947539D01*
X157178364Y-85950367D01*
X156897048Y-86231683D01*
X156889811Y-86242515D01*
X156863025Y-86282605D01*
X156863024Y-86282606D01*
X156814914Y-86354607D01*
X156758343Y-86491182D01*
X156758340Y-86491192D01*
X156729500Y-86636179D01*
X156729500Y-86800336D01*
X156709815Y-86867375D01*
X156676625Y-86901910D01*
X156640863Y-86926951D01*
X156479951Y-87087862D01*
X156364323Y-87252999D01*
X156349432Y-87274266D01*
X156349315Y-87274518D01*
X156322106Y-87332867D01*
X156275933Y-87385306D01*
X156208739Y-87404457D01*
X156141858Y-87384241D01*
X156097342Y-87332865D01*
X156070135Y-87274520D01*
X156070134Y-87274518D01*
X155939657Y-87088179D01*
X155778820Y-86927342D01*
X155592482Y-86796865D01*
X155386328Y-86700734D01*
X155190000Y-86648127D01*
X155190000Y-87611314D01*
X155185606Y-87606920D01*
X155094394Y-87554259D01*
X154992661Y-87527000D01*
X154887339Y-87527000D01*
X154785606Y-87554259D01*
X154694394Y-87606920D01*
X154690000Y-87611314D01*
X154690000Y-86648127D01*
X154493671Y-86700734D01*
X154287517Y-86796865D01*
X154101179Y-86927342D01*
X153940342Y-87088179D01*
X153809865Y-87274517D01*
X153719157Y-87469041D01*
X153672984Y-87521480D01*
X153605791Y-87540632D01*
X153538910Y-87520416D01*
X153494394Y-87469042D01*
X153403568Y-87274266D01*
X153273047Y-87087861D01*
X153202505Y-87017319D01*
X153169022Y-86955999D01*
X153174006Y-86886307D01*
X153202504Y-86841961D01*
X153363951Y-86680516D01*
X153446084Y-86557595D01*
X153502658Y-86421013D01*
X153503019Y-86419195D01*
X153503023Y-86419195D01*
X153503023Y-86419176D01*
X153531500Y-86276018D01*
X153531500Y-85878662D01*
X153551185Y-85811623D01*
X153584379Y-85777086D01*
X153620139Y-85752047D01*
X153781047Y-85591139D01*
X153911568Y-85404734D01*
X154002119Y-85210547D01*
X154048290Y-85158110D01*
X154115484Y-85138958D01*
X154182365Y-85159174D01*
G37*
G04 #@! TD.AperFunction*
G04 #@! TA.AperFunction,Conductor*
G36*
X159374865Y-85190269D02*
G01*
X159419380Y-85241642D01*
X159468382Y-85346725D01*
X159495431Y-85404732D01*
X159495432Y-85404734D01*
X159625954Y-85591141D01*
X159786858Y-85752045D01*
X159786861Y-85752047D01*
X159973266Y-85882568D01*
X160179504Y-85978739D01*
X160399308Y-86037635D01*
X160561230Y-86051801D01*
X160625998Y-86057468D01*
X160626000Y-86057468D01*
X160626002Y-86057468D01*
X160682673Y-86052509D01*
X160852692Y-86037635D01*
X161072496Y-85978739D01*
X161278734Y-85882568D01*
X161465139Y-85752047D01*
X161626047Y-85591139D01*
X161756568Y-85404734D01*
X161783618Y-85346724D01*
X161829790Y-85294285D01*
X161896983Y-85275133D01*
X161963865Y-85295348D01*
X162008382Y-85346725D01*
X162035429Y-85404728D01*
X162035432Y-85404734D01*
X162165954Y-85591141D01*
X162326856Y-85752043D01*
X162326859Y-85752045D01*
X162326861Y-85752047D01*
X162339805Y-85761110D01*
X162383430Y-85815685D01*
X162390625Y-85885184D01*
X162359104Y-85947539D01*
X162356364Y-85950367D01*
X162104049Y-86202682D01*
X162084672Y-86231683D01*
X162055049Y-86276018D01*
X162040319Y-86298063D01*
X162021916Y-86325604D01*
X162021912Y-86325611D01*
X161965343Y-86462182D01*
X161965340Y-86462192D01*
X161936500Y-86607179D01*
X161936500Y-86800336D01*
X161916815Y-86867375D01*
X161883625Y-86901910D01*
X161847863Y-86926951D01*
X161686951Y-87087862D01*
X161571323Y-87252999D01*
X161556432Y-87274266D01*
X161556315Y-87274518D01*
X161529106Y-87332867D01*
X161482933Y-87385306D01*
X161415739Y-87404457D01*
X161348858Y-87384241D01*
X161304342Y-87332865D01*
X161277135Y-87274520D01*
X161277134Y-87274518D01*
X161146657Y-87088179D01*
X160985820Y-86927342D01*
X160799482Y-86796865D01*
X160593328Y-86700734D01*
X160397000Y-86648127D01*
X160397000Y-87611314D01*
X160392606Y-87606920D01*
X160301394Y-87554259D01*
X160199661Y-87527000D01*
X160094339Y-87527000D01*
X159992606Y-87554259D01*
X159901394Y-87606920D01*
X159897000Y-87611314D01*
X159897000Y-86648127D01*
X159700671Y-86700734D01*
X159494517Y-86796865D01*
X159308179Y-86927342D01*
X159147342Y-87088179D01*
X159016865Y-87274517D01*
X158926157Y-87469041D01*
X158879984Y-87521480D01*
X158812791Y-87540632D01*
X158745910Y-87520416D01*
X158701394Y-87469042D01*
X158610568Y-87274266D01*
X158480047Y-87087861D01*
X158409505Y-87017319D01*
X158376022Y-86955999D01*
X158381006Y-86886307D01*
X158409504Y-86841961D01*
X158570951Y-86680516D01*
X158653084Y-86557595D01*
X158709658Y-86421013D01*
X158710019Y-86419195D01*
X158710023Y-86419195D01*
X158710023Y-86419176D01*
X158738500Y-86276018D01*
X158738500Y-85878662D01*
X158758185Y-85811623D01*
X158791379Y-85777086D01*
X158827139Y-85752047D01*
X158988047Y-85591139D01*
X159118568Y-85404734D01*
X159194619Y-85241642D01*
X159240790Y-85189205D01*
X159307984Y-85170053D01*
X159374865Y-85190269D01*
G37*
G04 #@! TD.AperFunction*
G04 #@! TA.AperFunction,Conductor*
G36*
X164567365Y-85159174D02*
G01*
X164611880Y-85210547D01*
X164675382Y-85346725D01*
X164702431Y-85404732D01*
X164702432Y-85404734D01*
X164832954Y-85591141D01*
X164993858Y-85752045D01*
X164993861Y-85752047D01*
X165180266Y-85882568D01*
X165386504Y-85978739D01*
X165606308Y-86037635D01*
X165768230Y-86051801D01*
X165832998Y-86057468D01*
X165833000Y-86057468D01*
X165833002Y-86057468D01*
X165889673Y-86052509D01*
X166059692Y-86037635D01*
X166279496Y-85978739D01*
X166485734Y-85882568D01*
X166672139Y-85752047D01*
X166833047Y-85591139D01*
X166963568Y-85404734D01*
X166990618Y-85346724D01*
X167036790Y-85294285D01*
X167103983Y-85275133D01*
X167170865Y-85295348D01*
X167215382Y-85346725D01*
X167242429Y-85404728D01*
X167242432Y-85404734D01*
X167372954Y-85591141D01*
X167533856Y-85752043D01*
X167533859Y-85752045D01*
X167533861Y-85752047D01*
X167546805Y-85761110D01*
X167590430Y-85815685D01*
X167597625Y-85885184D01*
X167566104Y-85947539D01*
X167563364Y-85950367D01*
X167311049Y-86202682D01*
X167291672Y-86231683D01*
X167262049Y-86276018D01*
X167247319Y-86298063D01*
X167228916Y-86325604D01*
X167228912Y-86325611D01*
X167172343Y-86462182D01*
X167172340Y-86462192D01*
X167143500Y-86607179D01*
X167143500Y-86800336D01*
X167123815Y-86867375D01*
X167090625Y-86901910D01*
X167054863Y-86926951D01*
X166893951Y-87087862D01*
X166778323Y-87252999D01*
X166763432Y-87274266D01*
X166763315Y-87274518D01*
X166736106Y-87332867D01*
X166689933Y-87385306D01*
X166622739Y-87404457D01*
X166555858Y-87384241D01*
X166511342Y-87332865D01*
X166484135Y-87274520D01*
X166484134Y-87274518D01*
X166353657Y-87088179D01*
X166192820Y-86927342D01*
X166006482Y-86796865D01*
X165800328Y-86700734D01*
X165604000Y-86648127D01*
X165604000Y-87611314D01*
X165599606Y-87606920D01*
X165508394Y-87554259D01*
X165406661Y-87527000D01*
X165301339Y-87527000D01*
X165199606Y-87554259D01*
X165108394Y-87606920D01*
X165104000Y-87611314D01*
X165104000Y-86648127D01*
X164907671Y-86700734D01*
X164701517Y-86796865D01*
X164515179Y-86927342D01*
X164354342Y-87088179D01*
X164223865Y-87274517D01*
X164133157Y-87469041D01*
X164086984Y-87521480D01*
X164019791Y-87540632D01*
X163952910Y-87520416D01*
X163908394Y-87469042D01*
X163817568Y-87274266D01*
X163687047Y-87087861D01*
X163687045Y-87087858D01*
X163602007Y-87002820D01*
X163568522Y-86941497D01*
X163573506Y-86871805D01*
X163602005Y-86827460D01*
X163748951Y-86680516D01*
X163831084Y-86557595D01*
X163831874Y-86555689D01*
X163869483Y-86464891D01*
X163887658Y-86421013D01*
X163906636Y-86325605D01*
X163916500Y-86276019D01*
X163916500Y-85878662D01*
X163936185Y-85811623D01*
X163969379Y-85777086D01*
X164005139Y-85752047D01*
X164166047Y-85591139D01*
X164296568Y-85404734D01*
X164387119Y-85210547D01*
X164433290Y-85158110D01*
X164500484Y-85138958D01*
X164567365Y-85159174D01*
G37*
G04 #@! TD.AperFunction*
G04 #@! TA.AperFunction,Conductor*
G36*
X169769811Y-85111055D02*
G01*
X169823690Y-85155540D01*
X169840775Y-85192952D01*
X169842257Y-85198486D01*
X169842261Y-85198497D01*
X169938431Y-85404732D01*
X169938432Y-85404734D01*
X170068954Y-85591141D01*
X170229858Y-85752045D01*
X170229861Y-85752047D01*
X170416266Y-85882568D01*
X170622504Y-85978739D01*
X170842308Y-86037635D01*
X171004230Y-86051801D01*
X171068998Y-86057468D01*
X171069000Y-86057468D01*
X171069002Y-86057468D01*
X171125673Y-86052509D01*
X171295692Y-86037635D01*
X171515496Y-85978739D01*
X171721734Y-85882568D01*
X171908139Y-85752047D01*
X172069047Y-85591139D01*
X172199568Y-85404734D01*
X172226618Y-85346724D01*
X172272790Y-85294285D01*
X172339983Y-85275133D01*
X172406865Y-85295348D01*
X172451382Y-85346725D01*
X172478429Y-85404728D01*
X172478432Y-85404734D01*
X172608954Y-85591141D01*
X172769859Y-85752046D01*
X172782803Y-85761109D01*
X172799335Y-85772685D01*
X172805621Y-85777086D01*
X172849247Y-85831662D01*
X172858500Y-85878662D01*
X172858500Y-86550451D01*
X172838815Y-86617490D01*
X172786011Y-86663245D01*
X172766595Y-86670225D01*
X172654504Y-86700260D01*
X172448267Y-86796431D01*
X172448265Y-86796432D01*
X172261858Y-86926954D01*
X172100954Y-87087858D01*
X171985323Y-87252999D01*
X171970432Y-87274266D01*
X171970315Y-87274518D01*
X171943106Y-87332867D01*
X171896933Y-87385306D01*
X171829739Y-87404457D01*
X171762858Y-87384241D01*
X171718342Y-87332865D01*
X171691135Y-87274520D01*
X171691134Y-87274518D01*
X171560657Y-87088179D01*
X171399820Y-86927342D01*
X171213482Y-86796865D01*
X171007328Y-86700734D01*
X170811000Y-86648127D01*
X170811000Y-87611314D01*
X170806606Y-87606920D01*
X170715394Y-87554259D01*
X170613661Y-87527000D01*
X170508339Y-87527000D01*
X170406606Y-87554259D01*
X170315394Y-87606920D01*
X170311000Y-87611314D01*
X170311000Y-86648127D01*
X170114671Y-86700734D01*
X169908517Y-86796865D01*
X169722179Y-86927342D01*
X169561342Y-87088179D01*
X169430865Y-87274517D01*
X169340157Y-87469041D01*
X169293984Y-87521480D01*
X169226791Y-87540632D01*
X169159910Y-87520416D01*
X169115394Y-87469042D01*
X169024568Y-87274266D01*
X168894047Y-87087861D01*
X168894045Y-87087858D01*
X168809007Y-87002820D01*
X168775522Y-86941497D01*
X168780506Y-86871805D01*
X168809005Y-86827460D01*
X168955951Y-86680516D01*
X169038084Y-86557595D01*
X169038874Y-86555689D01*
X169076483Y-86464891D01*
X169094658Y-86421013D01*
X169113636Y-86325605D01*
X169123500Y-86276019D01*
X169123500Y-85878662D01*
X169143185Y-85811623D01*
X169176379Y-85777086D01*
X169212139Y-85752047D01*
X169373047Y-85591139D01*
X169503568Y-85404734D01*
X169599739Y-85198496D01*
X169599742Y-85198486D01*
X169601225Y-85192952D01*
X169637589Y-85133291D01*
X169700435Y-85102761D01*
X169769811Y-85111055D01*
G37*
G04 #@! TD.AperFunction*
G04 #@! TA.AperFunction,Conductor*
G36*
X175005890Y-85168769D02*
G01*
X175050407Y-85220144D01*
X175116431Y-85361732D01*
X175116432Y-85361734D01*
X175246954Y-85548141D01*
X175407858Y-85709045D01*
X175407861Y-85709047D01*
X175594266Y-85839568D01*
X175800504Y-85935739D01*
X176020308Y-85994635D01*
X176182230Y-86008801D01*
X176246998Y-86014468D01*
X176247000Y-86014468D01*
X176247002Y-86014468D01*
X176303673Y-86009509D01*
X176473692Y-85994635D01*
X176693496Y-85935739D01*
X176899734Y-85839568D01*
X177086139Y-85709047D01*
X177247047Y-85548139D01*
X177377568Y-85361734D01*
X177404618Y-85303724D01*
X177450790Y-85251285D01*
X177517983Y-85232133D01*
X177584865Y-85252348D01*
X177629382Y-85303725D01*
X177656429Y-85361728D01*
X177656432Y-85361734D01*
X177786954Y-85548141D01*
X177947856Y-85709043D01*
X177947859Y-85709045D01*
X177947861Y-85709047D01*
X177960805Y-85718110D01*
X178004430Y-85772685D01*
X178011625Y-85842184D01*
X177980104Y-85904539D01*
X177977364Y-85907367D01*
X177725050Y-86159681D01*
X177725048Y-86159684D01*
X177709533Y-86182905D01*
X177709531Y-86182906D01*
X177709531Y-86182907D01*
X177642916Y-86282603D01*
X177642916Y-86282604D01*
X177586343Y-86419182D01*
X177586340Y-86419192D01*
X177557500Y-86564179D01*
X177557500Y-86757336D01*
X177537815Y-86824375D01*
X177504625Y-86858910D01*
X177468863Y-86883951D01*
X177307951Y-87044862D01*
X177224511Y-87164029D01*
X177177432Y-87231266D01*
X177177315Y-87231518D01*
X177150106Y-87289867D01*
X177103933Y-87342306D01*
X177036739Y-87361457D01*
X176969858Y-87341241D01*
X176925342Y-87289865D01*
X176898135Y-87231520D01*
X176898134Y-87231518D01*
X176767657Y-87045179D01*
X176606820Y-86884342D01*
X176420482Y-86753865D01*
X176214328Y-86657734D01*
X176018000Y-86605127D01*
X176018000Y-87568314D01*
X176013606Y-87563920D01*
X175922394Y-87511259D01*
X175820661Y-87484000D01*
X175715339Y-87484000D01*
X175613606Y-87511259D01*
X175522394Y-87563920D01*
X175518000Y-87568314D01*
X175518000Y-86605127D01*
X175321671Y-86657734D01*
X175115517Y-86753865D01*
X174929179Y-86884342D01*
X174768342Y-87045179D01*
X174637865Y-87231517D01*
X174595882Y-87321552D01*
X174549710Y-87373991D01*
X174482516Y-87393143D01*
X174415635Y-87372927D01*
X174370300Y-87319762D01*
X174359500Y-87269147D01*
X174359500Y-85878662D01*
X174379185Y-85811623D01*
X174412379Y-85777086D01*
X174448139Y-85752047D01*
X174609047Y-85591139D01*
X174739568Y-85404734D01*
X174825644Y-85220142D01*
X174871815Y-85167705D01*
X174939008Y-85148553D01*
X175005890Y-85168769D01*
G37*
G04 #@! TD.AperFunction*
G04 #@! TA.AperFunction,Conductor*
G36*
X127151063Y-57768992D02*
G01*
X127182866Y-57793843D01*
X127190302Y-57801920D01*
X127191215Y-57802912D01*
X127191222Y-57802918D01*
X127374365Y-57945464D01*
X127374371Y-57945468D01*
X127374374Y-57945470D01*
X127578497Y-58055936D01*
X127692487Y-58095068D01*
X127798015Y-58131297D01*
X127798017Y-58131297D01*
X127798019Y-58131298D01*
X128026951Y-58169500D01*
X128026952Y-58169500D01*
X128259047Y-58169500D01*
X128259049Y-58169500D01*
X128387275Y-58148102D01*
X128456636Y-58156484D01*
X128495363Y-58182730D01*
X128841281Y-58528648D01*
X128874766Y-58589971D01*
X128877600Y-58616329D01*
X128877600Y-60943517D01*
X128857915Y-61010556D01*
X128805111Y-61056311D01*
X128735953Y-61066255D01*
X128701195Y-61055899D01*
X128589328Y-61003734D01*
X128393000Y-60951127D01*
X128393000Y-61914314D01*
X128388606Y-61909920D01*
X128297394Y-61857259D01*
X128195661Y-61830000D01*
X128090339Y-61830000D01*
X127988606Y-61857259D01*
X127897394Y-61909920D01*
X127893000Y-61914314D01*
X127893000Y-60951127D01*
X127696671Y-61003734D01*
X127490517Y-61099865D01*
X127304179Y-61230342D01*
X127143342Y-61391179D01*
X127012867Y-61577515D01*
X126985657Y-61635867D01*
X126939484Y-61688306D01*
X126872290Y-61707457D01*
X126805409Y-61687241D01*
X126760893Y-61635865D01*
X126743557Y-61598689D01*
X126733568Y-61577266D01*
X126635541Y-61437267D01*
X126603048Y-61390862D01*
X126550701Y-61338515D01*
X126442139Y-61229953D01*
X126428462Y-61220376D01*
X126406375Y-61204910D01*
X126362751Y-61150332D01*
X126353500Y-61103336D01*
X126353500Y-58293499D01*
X126373185Y-58226460D01*
X126425989Y-58180705D01*
X126477500Y-58169499D01*
X126550871Y-58169499D01*
X126550872Y-58169499D01*
X126610483Y-58163091D01*
X126745331Y-58112796D01*
X126860546Y-58026546D01*
X126946796Y-57911331D01*
X126951541Y-57898610D01*
X126975455Y-57834493D01*
X127017326Y-57778559D01*
X127082790Y-57754141D01*
X127151063Y-57768992D01*
G37*
G04 #@! TD.AperFunction*
M02*
