M48
; DRILL file {KiCad 8.0.8} date 2025-02-01T04:40:51+0200
; FORMAT={-:-/ absolute / metric / decimal}
; #@! TF.CreationDate,2025-02-01T04:40:51+02:00
; #@! TF.GenerationSoftware,Kicad,Pcbnew,8.0.8
; #@! TF.FileFunction,Plated,1,2,PTH
FMAT,2
METRIC
; #@! TA.AperFunction,Plated,PTH,ViaDrill
T1C0.300
; #@! TA.AperFunction,Plated,PTH,ComponentDrill
T2C0.800
; #@! TA.AperFunction,Plated,PTH,ComponentDrill
T3C0.900
; #@! TA.AperFunction,Plated,PTH,ComponentDrill
T4C1.000
; #@! TA.AperFunction,Plated,PTH,ComponentDrill
T5C3.200
%
G90
G05
T1
X104.307Y-97.681
X105.283Y-143.764
X105.41Y-140.97
X105.537Y-131.064
X105.537Y-134.239
X105.537Y-137.668
X105.918Y-61.849
X106.045Y-67.31
X106.326Y-98.653
X106.804Y-100.68
X106.963Y-76.367
X111.252Y-55.626
X111.633Y-150.114
X113.919Y-150.114
X115.454Y-107.823
X116.332Y-150.114
X119.076Y-102.537
X119.126Y-150.114
X119.252Y-100.816
X119.667Y-113.172
X122.174Y-150.114
X122.682Y-123.825
X122.936Y-129.54
X124.714Y-150.114
X126.365Y-127.127
X127.889Y-150.114
X129.667Y-130.175
X130.81Y-124.206
X131.445Y-150.114
X132.969Y-55.626
X134.859Y-89.154
X135.509Y-150.114
X138.441Y-69.091
X138.938Y-150.114
X139.065Y-55.626
X142.873Y-77.344
X144.907Y-55.753
X144.926Y-77.212
X145.713Y-73.763
X145.866Y-60.709
X147.397Y-73.508
X147.972Y-111.692
X149.055Y-73.806
X149.479Y-55.753
X150.282Y-67.521
X150.919Y-57.833
X154.94Y-55.626
X157.645Y-103.524
X160.401Y-55.753
X160.968Y-127.285
X164.592Y-55.626
X167.386Y-149.733
X167.822Y-128.323
X169.799Y-149.733
X170.118Y-58.912
X171.196Y-55.88
X172.373Y-95.061
X172.593Y-149.733
X173.366Y-64.016
X173.808Y-100.075
X174.836Y-98.165
X176.276Y-55.753
X176.276Y-149.733
X179.324Y-149.733
X181.102Y-55.753
X181.536Y-86.538
X181.576Y-113.11
X182.372Y-149.733
X183.601Y-100.199
X185.039Y-55.626
X185.42Y-149.733
X188.214Y-149.86
X188.849Y-55.626
X191.389Y-149.86
X193.167Y-55.626
X194.564Y-149.987
X200.279Y-119.888
X200.406Y-61.595
X200.406Y-65.278
X200.406Y-68.961
X200.406Y-72.39
X200.406Y-113.411
X200.406Y-116.332
X200.406Y-123.698
X200.406Y-127.0
X200.533Y-76.073
X200.533Y-82.169
X200.533Y-85.344
X200.533Y-88.646
X200.533Y-91.821
X200.533Y-130.683
X200.533Y-133.35
X200.533Y-136.652
X200.533Y-139.954
X200.66Y-79.502
X200.66Y-143.256
T2
X118.872Y-62.23
X121.412Y-62.23
X125.603Y-62.23
X128.143Y-62.23
X138.958Y-70.739
X139.065Y-116.459
X139.319Y-87.927
X139.573Y-113.411
X139.827Y-84.752
X141.458Y-70.739
X141.605Y-116.459
X141.859Y-87.927
X142.113Y-113.411
X142.367Y-84.752
X142.748Y-136.652
X142.748Y-139.192
X144.272Y-116.459
X144.555Y-87.927
X144.751Y-113.411
X145.034Y-84.752
X145.796Y-136.652
X145.796Y-139.192
X146.812Y-116.459
X147.095Y-87.927
X147.291Y-113.411
X147.447Y-123.444
X147.447Y-131.064
X147.574Y-84.752
X147.701Y-70.358
X147.701Y-77.978
X148.59Y-62.23
X148.59Y-64.77
X148.844Y-136.652
X148.844Y-139.192
X149.479Y-116.459
X149.733Y-87.927
X149.86Y-113.411
X149.987Y-123.444
X149.987Y-131.064
X150.241Y-70.358
X150.241Y-77.978
X150.241Y-84.752
X151.638Y-62.23
X151.638Y-64.77
X151.892Y-136.173
X151.892Y-138.713
X152.019Y-116.459
X152.273Y-87.927
X152.4Y-113.411
X152.527Y-123.444
X152.527Y-131.064
X152.781Y-70.358
X152.781Y-77.978
X152.781Y-84.752
X154.686Y-62.23
X154.686Y-64.77
X154.686Y-116.459
X154.94Y-87.927
X154.94Y-136.623
X154.94Y-139.163
X155.067Y-113.411
X155.067Y-123.444
X155.067Y-131.064
X155.321Y-70.358
X155.321Y-77.978
X155.448Y-84.752
X157.226Y-116.459
X157.48Y-87.927
X157.607Y-113.411
X157.607Y-123.444
X157.607Y-131.064
X157.734Y-62.259
X157.734Y-64.799
X157.861Y-70.358
X157.861Y-77.978
X157.988Y-84.752
X157.988Y-136.173
X157.988Y-138.713
X159.795Y-116.459
X160.147Y-87.927
X160.147Y-123.444
X160.147Y-131.064
X160.245Y-113.411
X160.401Y-70.358
X160.401Y-77.978
X160.626Y-84.752
X160.782Y-62.259
X160.782Y-64.799
X161.036Y-136.525
X161.036Y-139.065
X162.335Y-116.459
X162.687Y-87.927
X162.687Y-123.444
X162.687Y-131.064
X162.785Y-113.411
X162.941Y-70.358
X162.941Y-77.978
X163.166Y-84.752
X163.83Y-62.23
X163.83Y-64.77
X164.084Y-136.144
X164.084Y-138.684
X164.904Y-116.459
X165.227Y-123.444
X165.227Y-131.064
X165.354Y-87.927
X165.354Y-113.411
X165.481Y-70.358
X165.481Y-77.978
X165.833Y-84.752
X166.878Y-62.259
X166.878Y-64.799
X167.132Y-136.525
X167.132Y-139.065
X167.444Y-116.459
X167.767Y-123.444
X167.767Y-131.064
X167.894Y-87.927
X167.894Y-113.411
X168.021Y-70.358
X168.021Y-77.978
X168.373Y-84.752
X169.926Y-62.23
X169.926Y-64.77
X170.053Y-116.459
X170.18Y-136.525
X170.18Y-139.065
X170.307Y-123.444
X170.307Y-131.064
X170.532Y-113.411
X170.561Y-70.358
X170.561Y-77.978
X170.561Y-87.927
X171.069Y-84.752
X172.593Y-116.459
X173.072Y-113.411
X173.101Y-87.927
X173.228Y-136.525
X173.228Y-139.065
X173.609Y-84.752
X174.518Y-131.064
X175.162Y-116.459
X175.641Y-113.411
X175.768Y-87.884
X176.247Y-84.709
X177.018Y-131.064
X177.702Y-116.459
X178.181Y-113.411
X178.308Y-87.884
X178.787Y-84.709
X191.897Y-67.838
X191.897Y-70.338
X196.723Y-68.072
X196.723Y-70.612
T3
X115.316Y-56.642
X117.856Y-56.642
X125.603Y-56.769
X128.143Y-56.769
X189.004Y-90.161
X189.004Y-92.321
X189.004Y-94.481
X189.004Y-96.641
X189.004Y-98.801
X189.004Y-100.961
X189.004Y-103.121
X189.004Y-105.281
X189.004Y-107.441
X189.004Y-109.601
X189.004Y-111.761
X189.004Y-113.921
X193.294Y-90.161
X193.294Y-92.321
X193.294Y-94.481
X193.294Y-96.641
X193.294Y-98.801
X193.294Y-100.961
X193.294Y-103.121
X193.294Y-105.281
X193.294Y-107.441
X193.294Y-109.601
X193.294Y-111.761
X193.294Y-113.921
T4
X109.601Y-77.343
X109.601Y-79.883
X109.601Y-82.423
X109.601Y-84.963
X109.601Y-87.503
X109.601Y-90.043
X109.601Y-92.583
X109.601Y-95.123
X109.601Y-97.663
X109.601Y-100.203
X109.601Y-102.743
X109.601Y-105.283
X109.601Y-107.823
X109.601Y-110.363
X109.601Y-112.903
X109.601Y-115.443
X109.601Y-117.983
X109.601Y-120.523
X109.601Y-123.063
X109.601Y-125.603
X112.141Y-77.343
X112.141Y-79.883
X112.141Y-82.423
X112.141Y-84.963
X112.141Y-87.503
X112.141Y-90.043
X112.141Y-92.583
X112.141Y-95.123
X112.141Y-97.663
X112.141Y-100.203
X112.141Y-102.743
X112.141Y-105.283
X112.141Y-107.823
X112.141Y-110.363
X112.141Y-112.903
X112.141Y-115.443
X112.141Y-117.983
X112.141Y-120.523
X112.141Y-123.063
X112.141Y-125.603
T5
X191.149Y-78.646
X191.149Y-125.436
M30
