G04 #@! TF.GenerationSoftware,KiCad,Pcbnew,8.0.8*
G04 #@! TF.CreationDate,2025-02-01T04:39:39+02:00*
G04 #@! TF.ProjectId,my_raspi_gpib,6d795f72-6173-4706-995f-677069622e6b,rev?*
G04 #@! TF.SameCoordinates,Original*
G04 #@! TF.FileFunction,Soldermask,Top*
G04 #@! TF.FilePolarity,Negative*
%FSLAX46Y46*%
G04 Gerber Fmt 4.6, Leading zero omitted, Abs format (unit mm)*
G04 Created by KiCad (PCBNEW 8.0.8) date 2025-02-01 04:39:39*
%MOMM*%
%LPD*%
G01*
G04 APERTURE LIST*
%ADD10C,1.600000*%
%ADD11O,1.600000X1.600000*%
%ADD12C,3.200000*%
%ADD13R,1.400000X1.400000*%
%ADD14C,1.400000*%
%ADD15C,4.800000*%
%ADD16R,1.800000X1.800000*%
%ADD17C,1.800000*%
%ADD18R,1.600000X1.600000*%
%ADD19R,1.700000X1.700000*%
%ADD20O,1.700000X1.700000*%
G04 APERTURE END LIST*
D10*
X157480000Y-87927000D03*
D11*
X154940000Y-87927000D03*
D10*
X154940000Y-136623000D03*
D11*
X154940000Y-139163000D03*
D10*
X173228000Y-136525000D03*
D11*
X173228000Y-139065000D03*
D10*
X149860000Y-113411000D03*
D11*
X152400000Y-113411000D03*
D12*
X199644000Y-148844000D03*
D10*
X142748000Y-136652000D03*
D11*
X142748000Y-139192000D03*
D13*
X189004000Y-113921000D03*
D14*
X189004000Y-111761000D03*
X189004000Y-109601000D03*
X189004000Y-107441000D03*
X189004000Y-105281000D03*
X189004000Y-103121000D03*
X189004000Y-100961000D03*
X189004000Y-98801000D03*
X189004000Y-96641000D03*
X189004000Y-94481000D03*
X189004000Y-92321000D03*
X189004000Y-90161000D03*
X193294000Y-113921000D03*
X193294000Y-111761000D03*
X193294000Y-109601000D03*
X193294000Y-107441000D03*
X193294000Y-105281000D03*
X193294000Y-103121000D03*
X193294000Y-100961000D03*
X193294000Y-98801000D03*
X193294000Y-96641000D03*
X193294000Y-94481000D03*
X193294000Y-92321000D03*
X193294000Y-90161000D03*
D15*
X191149000Y-78646000D03*
X191149000Y-125436000D03*
D10*
X157988000Y-138713000D03*
D11*
X157988000Y-136173000D03*
D10*
X146812000Y-116459000D03*
D11*
X144272000Y-116459000D03*
D10*
X145034000Y-84752000D03*
D11*
X147574000Y-84752000D03*
D16*
X115316000Y-56642000D03*
D17*
X117856000Y-56642000D03*
D10*
X167444000Y-116459000D03*
D11*
X164904000Y-116459000D03*
D10*
X141458000Y-70739000D03*
X138958000Y-70739000D03*
X175641000Y-113411000D03*
D11*
X178181000Y-113411000D03*
D18*
X147701000Y-77978000D03*
D11*
X150241000Y-77978000D03*
X152781000Y-77978000D03*
X155321000Y-77978000D03*
X157861000Y-77978000D03*
X160401000Y-77978000D03*
X162941000Y-77978000D03*
X165481000Y-77978000D03*
X168021000Y-77978000D03*
X170561000Y-77978000D03*
X170561000Y-70358000D03*
X168021000Y-70358000D03*
X165481000Y-70358000D03*
X162941000Y-70358000D03*
X160401000Y-70358000D03*
X157861000Y-70358000D03*
X155321000Y-70358000D03*
X152781000Y-70358000D03*
X150241000Y-70358000D03*
X147701000Y-70358000D03*
D10*
X157226000Y-116459000D03*
D11*
X154686000Y-116459000D03*
D12*
X106807000Y-148844000D03*
D10*
X118872000Y-62230000D03*
D11*
X121412000Y-62230000D03*
D10*
X141605000Y-116459000D03*
D11*
X139065000Y-116459000D03*
D10*
X155448000Y-84752000D03*
D11*
X157988000Y-84752000D03*
D10*
X170180000Y-136525000D03*
D11*
X170180000Y-139065000D03*
D10*
X144751000Y-113411000D03*
D11*
X147291000Y-113411000D03*
D10*
X139827000Y-84752000D03*
D11*
X142367000Y-84752000D03*
D10*
X191897000Y-67838000D03*
X191897000Y-70338000D03*
X165833000Y-84752000D03*
D11*
X168373000Y-84752000D03*
D10*
X161036000Y-136525000D03*
D11*
X161036000Y-139065000D03*
D10*
X173101000Y-87927000D03*
D11*
X170561000Y-87927000D03*
D12*
X199644000Y-56007000D03*
D10*
X166878000Y-64799000D03*
D11*
X166878000Y-62259000D03*
D10*
X165354000Y-113411000D03*
D11*
X167894000Y-113411000D03*
D10*
X147095000Y-87927000D03*
D11*
X144555000Y-87927000D03*
D10*
X162335000Y-116459000D03*
D11*
X159795000Y-116459000D03*
D10*
X196723000Y-68072000D03*
D11*
X196723000Y-70612000D03*
D10*
X178308000Y-87884000D03*
D11*
X175768000Y-87884000D03*
D10*
X148590000Y-64770000D03*
D11*
X148590000Y-62230000D03*
D18*
X170307000Y-123444000D03*
D11*
X167767000Y-123444000D03*
X165227000Y-123444000D03*
X162687000Y-123444000D03*
X160147000Y-123444000D03*
X157607000Y-123444000D03*
X155067000Y-123444000D03*
X152527000Y-123444000D03*
X149987000Y-123444000D03*
X147447000Y-123444000D03*
X147447000Y-131064000D03*
X149987000Y-131064000D03*
X152527000Y-131064000D03*
X155067000Y-131064000D03*
X157607000Y-131064000D03*
X160147000Y-131064000D03*
X162687000Y-131064000D03*
X165227000Y-131064000D03*
X167767000Y-131064000D03*
X170307000Y-131064000D03*
D10*
X157734000Y-64799000D03*
D11*
X157734000Y-62259000D03*
D10*
X125603000Y-62230000D03*
D11*
X128143000Y-62230000D03*
D10*
X167894000Y-87927000D03*
D11*
X165354000Y-87927000D03*
D10*
X151892000Y-138713000D03*
D11*
X151892000Y-136173000D03*
D10*
X152273000Y-87927000D03*
D11*
X149733000Y-87927000D03*
D10*
X154686000Y-64770000D03*
D11*
X154686000Y-62230000D03*
D10*
X160782000Y-64799000D03*
D11*
X160782000Y-62259000D03*
D10*
X163830000Y-64770000D03*
D11*
X163830000Y-62230000D03*
D10*
X164084000Y-138684000D03*
D11*
X164084000Y-136144000D03*
D10*
X155067000Y-113411000D03*
D11*
X157607000Y-113411000D03*
D10*
X174518000Y-131064000D03*
X177018000Y-131064000D03*
X152019000Y-116459000D03*
D11*
X149479000Y-116459000D03*
D10*
X167132000Y-136525000D03*
D11*
X167132000Y-139065000D03*
D10*
X170532000Y-113411000D03*
D11*
X173072000Y-113411000D03*
D10*
X148844000Y-136652000D03*
D11*
X148844000Y-139192000D03*
D12*
X106807000Y-56007000D03*
D10*
X151638000Y-64770000D03*
D11*
X151638000Y-62230000D03*
D10*
X162687000Y-87927000D03*
D11*
X160147000Y-87927000D03*
D10*
X171069000Y-84752000D03*
D11*
X173609000Y-84752000D03*
D10*
X139573000Y-113411000D03*
D11*
X142113000Y-113411000D03*
D19*
X109601000Y-77343000D03*
D20*
X112141000Y-77343000D03*
X109601000Y-79883000D03*
X112141000Y-79883000D03*
X109601000Y-82423000D03*
X112141000Y-82423000D03*
X109601000Y-84963000D03*
X112141000Y-84963000D03*
X109601000Y-87503000D03*
X112141000Y-87503000D03*
X109601000Y-90043000D03*
X112141000Y-90043000D03*
X109601000Y-92583000D03*
X112141000Y-92583000D03*
X109601000Y-95123000D03*
X112141000Y-95123000D03*
X109601000Y-97663000D03*
X112141000Y-97663000D03*
X109601000Y-100203000D03*
X112141000Y-100203000D03*
X109601000Y-102743000D03*
X112141000Y-102743000D03*
X109601000Y-105283000D03*
X112141000Y-105283000D03*
X109601000Y-107823000D03*
X112141000Y-107823000D03*
X109601000Y-110363000D03*
X112141000Y-110363000D03*
X109601000Y-112903000D03*
X112141000Y-112903000D03*
X109601000Y-115443000D03*
X112141000Y-115443000D03*
X109601000Y-117983000D03*
X112141000Y-117983000D03*
X109601000Y-120523000D03*
X112141000Y-120523000D03*
X109601000Y-123063000D03*
X112141000Y-123063000D03*
X109601000Y-125603000D03*
X112141000Y-125603000D03*
D10*
X169926000Y-64770000D03*
D11*
X169926000Y-62230000D03*
D10*
X160626000Y-84752000D03*
D11*
X163166000Y-84752000D03*
D10*
X150241000Y-84752000D03*
D11*
X152781000Y-84752000D03*
D10*
X145796000Y-136652000D03*
D11*
X145796000Y-139192000D03*
D10*
X160245000Y-113411000D03*
D11*
X162785000Y-113411000D03*
D10*
X177702000Y-116459000D03*
D11*
X175162000Y-116459000D03*
D10*
X172593000Y-116459000D03*
D11*
X170053000Y-116459000D03*
D10*
X176247000Y-84709000D03*
D11*
X178787000Y-84709000D03*
D10*
X141859000Y-87927000D03*
D11*
X139319000Y-87927000D03*
D16*
X125603000Y-56769000D03*
D17*
X128143000Y-56769000D03*
M02*
