G04 #@! TF.GenerationSoftware,KiCad,Pcbnew,8.0.8*
G04 #@! TF.CreationDate,2025-02-01T04:39:39+02:00*
G04 #@! TF.ProjectId,my_raspi_gpib,6d795f72-6173-4706-995f-677069622e6b,rev?*
G04 #@! TF.SameCoordinates,Original*
G04 #@! TF.FileFunction,Legend,Top*
G04 #@! TF.FilePolarity,Positive*
%FSLAX46Y46*%
G04 Gerber Fmt 4.6, Leading zero omitted, Abs format (unit mm)*
G04 Created by KiCad (PCBNEW 8.0.8) date 2025-02-01 04:39:39*
%MOMM*%
%LPD*%
G01*
G04 APERTURE LIST*
%ADD10C,0.100000*%
%ADD11C,0.150000*%
%ADD12C,0.120000*%
%ADD13C,0.200000*%
%ADD14C,1.600000*%
%ADD15O,1.600000X1.600000*%
%ADD16C,3.200000*%
%ADD17R,1.400000X1.400000*%
%ADD18C,1.400000*%
%ADD19C,4.800000*%
%ADD20R,1.800000X1.800000*%
%ADD21C,1.800000*%
%ADD22R,1.600000X1.600000*%
%ADD23R,1.700000X1.700000*%
%ADD24O,1.700000X1.700000*%
G04 APERTURE END LIST*
D10*
X105094693Y-77215419D02*
X104523265Y-77215419D01*
X104808979Y-77215419D02*
X104808979Y-76215419D01*
X104808979Y-76215419D02*
X104713741Y-76358276D01*
X104713741Y-76358276D02*
X104618503Y-76453514D01*
X104618503Y-76453514D02*
X104523265Y-76501133D01*
D11*
X155567142Y-90751819D02*
X155233809Y-90275628D01*
X154995714Y-90751819D02*
X154995714Y-89751819D01*
X154995714Y-89751819D02*
X155376666Y-89751819D01*
X155376666Y-89751819D02*
X155471904Y-89799438D01*
X155471904Y-89799438D02*
X155519523Y-89847057D01*
X155519523Y-89847057D02*
X155567142Y-89942295D01*
X155567142Y-89942295D02*
X155567142Y-90085152D01*
X155567142Y-90085152D02*
X155519523Y-90180390D01*
X155519523Y-90180390D02*
X155471904Y-90228009D01*
X155471904Y-90228009D02*
X155376666Y-90275628D01*
X155376666Y-90275628D02*
X154995714Y-90275628D01*
X156519523Y-90751819D02*
X155948095Y-90751819D01*
X156233809Y-90751819D02*
X156233809Y-89751819D01*
X156233809Y-89751819D02*
X156138571Y-89894676D01*
X156138571Y-89894676D02*
X156043333Y-89989914D01*
X156043333Y-89989914D02*
X155948095Y-90037533D01*
X156852857Y-89751819D02*
X157471904Y-89751819D01*
X157471904Y-89751819D02*
X157138571Y-90132771D01*
X157138571Y-90132771D02*
X157281428Y-90132771D01*
X157281428Y-90132771D02*
X157376666Y-90180390D01*
X157376666Y-90180390D02*
X157424285Y-90228009D01*
X157424285Y-90228009D02*
X157471904Y-90323247D01*
X157471904Y-90323247D02*
X157471904Y-90561342D01*
X157471904Y-90561342D02*
X157424285Y-90656580D01*
X157424285Y-90656580D02*
X157376666Y-90704200D01*
X157376666Y-90704200D02*
X157281428Y-90751819D01*
X157281428Y-90751819D02*
X156995714Y-90751819D01*
X156995714Y-90751819D02*
X156900476Y-90704200D01*
X156900476Y-90704200D02*
X156852857Y-90656580D01*
X155394819Y-142472857D02*
X154918628Y-142806190D01*
X155394819Y-143044285D02*
X154394819Y-143044285D01*
X154394819Y-143044285D02*
X154394819Y-142663333D01*
X154394819Y-142663333D02*
X154442438Y-142568095D01*
X154442438Y-142568095D02*
X154490057Y-142520476D01*
X154490057Y-142520476D02*
X154585295Y-142472857D01*
X154585295Y-142472857D02*
X154728152Y-142472857D01*
X154728152Y-142472857D02*
X154823390Y-142520476D01*
X154823390Y-142520476D02*
X154871009Y-142568095D01*
X154871009Y-142568095D02*
X154918628Y-142663333D01*
X154918628Y-142663333D02*
X154918628Y-143044285D01*
X154728152Y-141615714D02*
X155394819Y-141615714D01*
X154347200Y-141853809D02*
X155061485Y-142091904D01*
X155061485Y-142091904D02*
X155061485Y-141472857D01*
X155394819Y-141044285D02*
X155394819Y-140853809D01*
X155394819Y-140853809D02*
X155347200Y-140758571D01*
X155347200Y-140758571D02*
X155299580Y-140710952D01*
X155299580Y-140710952D02*
X155156723Y-140615714D01*
X155156723Y-140615714D02*
X154966247Y-140568095D01*
X154966247Y-140568095D02*
X154585295Y-140568095D01*
X154585295Y-140568095D02*
X154490057Y-140615714D01*
X154490057Y-140615714D02*
X154442438Y-140663333D01*
X154442438Y-140663333D02*
X154394819Y-140758571D01*
X154394819Y-140758571D02*
X154394819Y-140949047D01*
X154394819Y-140949047D02*
X154442438Y-141044285D01*
X154442438Y-141044285D02*
X154490057Y-141091904D01*
X154490057Y-141091904D02*
X154585295Y-141139523D01*
X154585295Y-141139523D02*
X154823390Y-141139523D01*
X154823390Y-141139523D02*
X154918628Y-141091904D01*
X154918628Y-141091904D02*
X154966247Y-141044285D01*
X154966247Y-141044285D02*
X155013866Y-140949047D01*
X155013866Y-140949047D02*
X155013866Y-140758571D01*
X155013866Y-140758571D02*
X154966247Y-140663333D01*
X154966247Y-140663333D02*
X154918628Y-140615714D01*
X154918628Y-140615714D02*
X154823390Y-140568095D01*
X173682819Y-142247857D02*
X173206628Y-142581190D01*
X173682819Y-142819285D02*
X172682819Y-142819285D01*
X172682819Y-142819285D02*
X172682819Y-142438333D01*
X172682819Y-142438333D02*
X172730438Y-142343095D01*
X172730438Y-142343095D02*
X172778057Y-142295476D01*
X172778057Y-142295476D02*
X172873295Y-142247857D01*
X172873295Y-142247857D02*
X173016152Y-142247857D01*
X173016152Y-142247857D02*
X173111390Y-142295476D01*
X173111390Y-142295476D02*
X173159009Y-142343095D01*
X173159009Y-142343095D02*
X173206628Y-142438333D01*
X173206628Y-142438333D02*
X173206628Y-142819285D01*
X173016152Y-141390714D02*
X173682819Y-141390714D01*
X172635200Y-141628809D02*
X173349485Y-141866904D01*
X173349485Y-141866904D02*
X173349485Y-141247857D01*
X172682819Y-140390714D02*
X172682819Y-140866904D01*
X172682819Y-140866904D02*
X173159009Y-140914523D01*
X173159009Y-140914523D02*
X173111390Y-140866904D01*
X173111390Y-140866904D02*
X173063771Y-140771666D01*
X173063771Y-140771666D02*
X173063771Y-140533571D01*
X173063771Y-140533571D02*
X173111390Y-140438333D01*
X173111390Y-140438333D02*
X173159009Y-140390714D01*
X173159009Y-140390714D02*
X173254247Y-140343095D01*
X173254247Y-140343095D02*
X173492342Y-140343095D01*
X173492342Y-140343095D02*
X173587580Y-140390714D01*
X173587580Y-140390714D02*
X173635200Y-140438333D01*
X173635200Y-140438333D02*
X173682819Y-140533571D01*
X173682819Y-140533571D02*
X173682819Y-140771666D01*
X173682819Y-140771666D02*
X173635200Y-140866904D01*
X173635200Y-140866904D02*
X173587580Y-140914523D01*
X150487142Y-111495819D02*
X150153809Y-111019628D01*
X149915714Y-111495819D02*
X149915714Y-110495819D01*
X149915714Y-110495819D02*
X150296666Y-110495819D01*
X150296666Y-110495819D02*
X150391904Y-110543438D01*
X150391904Y-110543438D02*
X150439523Y-110591057D01*
X150439523Y-110591057D02*
X150487142Y-110686295D01*
X150487142Y-110686295D02*
X150487142Y-110829152D01*
X150487142Y-110829152D02*
X150439523Y-110924390D01*
X150439523Y-110924390D02*
X150391904Y-110972009D01*
X150391904Y-110972009D02*
X150296666Y-111019628D01*
X150296666Y-111019628D02*
X149915714Y-111019628D01*
X150820476Y-110495819D02*
X151439523Y-110495819D01*
X151439523Y-110495819D02*
X151106190Y-110876771D01*
X151106190Y-110876771D02*
X151249047Y-110876771D01*
X151249047Y-110876771D02*
X151344285Y-110924390D01*
X151344285Y-110924390D02*
X151391904Y-110972009D01*
X151391904Y-110972009D02*
X151439523Y-111067247D01*
X151439523Y-111067247D02*
X151439523Y-111305342D01*
X151439523Y-111305342D02*
X151391904Y-111400580D01*
X151391904Y-111400580D02*
X151344285Y-111448200D01*
X151344285Y-111448200D02*
X151249047Y-111495819D01*
X151249047Y-111495819D02*
X150963333Y-111495819D01*
X150963333Y-111495819D02*
X150868095Y-111448200D01*
X150868095Y-111448200D02*
X150820476Y-111400580D01*
X152296666Y-110829152D02*
X152296666Y-111495819D01*
X152058571Y-110448200D02*
X151820476Y-111162485D01*
X151820476Y-111162485D02*
X152439523Y-111162485D01*
X143202819Y-142501857D02*
X142726628Y-142835190D01*
X143202819Y-143073285D02*
X142202819Y-143073285D01*
X142202819Y-143073285D02*
X142202819Y-142692333D01*
X142202819Y-142692333D02*
X142250438Y-142597095D01*
X142250438Y-142597095D02*
X142298057Y-142549476D01*
X142298057Y-142549476D02*
X142393295Y-142501857D01*
X142393295Y-142501857D02*
X142536152Y-142501857D01*
X142536152Y-142501857D02*
X142631390Y-142549476D01*
X142631390Y-142549476D02*
X142679009Y-142597095D01*
X142679009Y-142597095D02*
X142726628Y-142692333D01*
X142726628Y-142692333D02*
X142726628Y-143073285D01*
X142202819Y-141597095D02*
X142202819Y-142073285D01*
X142202819Y-142073285D02*
X142679009Y-142120904D01*
X142679009Y-142120904D02*
X142631390Y-142073285D01*
X142631390Y-142073285D02*
X142583771Y-141978047D01*
X142583771Y-141978047D02*
X142583771Y-141739952D01*
X142583771Y-141739952D02*
X142631390Y-141644714D01*
X142631390Y-141644714D02*
X142679009Y-141597095D01*
X142679009Y-141597095D02*
X142774247Y-141549476D01*
X142774247Y-141549476D02*
X143012342Y-141549476D01*
X143012342Y-141549476D02*
X143107580Y-141597095D01*
X143107580Y-141597095D02*
X143155200Y-141644714D01*
X143155200Y-141644714D02*
X143202819Y-141739952D01*
X143202819Y-141739952D02*
X143202819Y-141978047D01*
X143202819Y-141978047D02*
X143155200Y-142073285D01*
X143155200Y-142073285D02*
X143107580Y-142120904D01*
X142298057Y-141168523D02*
X142250438Y-141120904D01*
X142250438Y-141120904D02*
X142202819Y-141025666D01*
X142202819Y-141025666D02*
X142202819Y-140787571D01*
X142202819Y-140787571D02*
X142250438Y-140692333D01*
X142250438Y-140692333D02*
X142298057Y-140644714D01*
X142298057Y-140644714D02*
X142393295Y-140597095D01*
X142393295Y-140597095D02*
X142488533Y-140597095D01*
X142488533Y-140597095D02*
X142631390Y-140644714D01*
X142631390Y-140644714D02*
X143202819Y-141216142D01*
X143202819Y-141216142D02*
X143202819Y-140597095D01*
D10*
X194751419Y-101274333D02*
X195465704Y-101274333D01*
X195465704Y-101274333D02*
X195608561Y-101321952D01*
X195608561Y-101321952D02*
X195703800Y-101417190D01*
X195703800Y-101417190D02*
X195751419Y-101560047D01*
X195751419Y-101560047D02*
X195751419Y-101655285D01*
X195751419Y-100274333D02*
X195751419Y-100845761D01*
X195751419Y-100560047D02*
X194751419Y-100560047D01*
X194751419Y-100560047D02*
X194894276Y-100655285D01*
X194894276Y-100655285D02*
X194989514Y-100750523D01*
X194989514Y-100750523D02*
X195037133Y-100845761D01*
D11*
X158696819Y-142276857D02*
X158220628Y-142610190D01*
X158696819Y-142848285D02*
X157696819Y-142848285D01*
X157696819Y-142848285D02*
X157696819Y-142467333D01*
X157696819Y-142467333D02*
X157744438Y-142372095D01*
X157744438Y-142372095D02*
X157792057Y-142324476D01*
X157792057Y-142324476D02*
X157887295Y-142276857D01*
X157887295Y-142276857D02*
X158030152Y-142276857D01*
X158030152Y-142276857D02*
X158125390Y-142324476D01*
X158125390Y-142324476D02*
X158173009Y-142372095D01*
X158173009Y-142372095D02*
X158220628Y-142467333D01*
X158220628Y-142467333D02*
X158220628Y-142848285D01*
X157792057Y-141895904D02*
X157744438Y-141848285D01*
X157744438Y-141848285D02*
X157696819Y-141753047D01*
X157696819Y-141753047D02*
X157696819Y-141514952D01*
X157696819Y-141514952D02*
X157744438Y-141419714D01*
X157744438Y-141419714D02*
X157792057Y-141372095D01*
X157792057Y-141372095D02*
X157887295Y-141324476D01*
X157887295Y-141324476D02*
X157982533Y-141324476D01*
X157982533Y-141324476D02*
X158125390Y-141372095D01*
X158125390Y-141372095D02*
X158696819Y-141943523D01*
X158696819Y-141943523D02*
X158696819Y-141324476D01*
X157696819Y-140991142D02*
X157696819Y-140324476D01*
X157696819Y-140324476D02*
X158696819Y-140753047D01*
X144899142Y-119283819D02*
X144565809Y-118807628D01*
X144327714Y-119283819D02*
X144327714Y-118283819D01*
X144327714Y-118283819D02*
X144708666Y-118283819D01*
X144708666Y-118283819D02*
X144803904Y-118331438D01*
X144803904Y-118331438D02*
X144851523Y-118379057D01*
X144851523Y-118379057D02*
X144899142Y-118474295D01*
X144899142Y-118474295D02*
X144899142Y-118617152D01*
X144899142Y-118617152D02*
X144851523Y-118712390D01*
X144851523Y-118712390D02*
X144803904Y-118760009D01*
X144803904Y-118760009D02*
X144708666Y-118807628D01*
X144708666Y-118807628D02*
X144327714Y-118807628D01*
X145756285Y-118617152D02*
X145756285Y-119283819D01*
X145518190Y-118236200D02*
X145280095Y-118950485D01*
X145280095Y-118950485D02*
X145899142Y-118950485D01*
X146184857Y-118283819D02*
X146803904Y-118283819D01*
X146803904Y-118283819D02*
X146470571Y-118664771D01*
X146470571Y-118664771D02*
X146613428Y-118664771D01*
X146613428Y-118664771D02*
X146708666Y-118712390D01*
X146708666Y-118712390D02*
X146756285Y-118760009D01*
X146756285Y-118760009D02*
X146803904Y-118855247D01*
X146803904Y-118855247D02*
X146803904Y-119093342D01*
X146803904Y-119093342D02*
X146756285Y-119188580D01*
X146756285Y-119188580D02*
X146708666Y-119236200D01*
X146708666Y-119236200D02*
X146613428Y-119283819D01*
X146613428Y-119283819D02*
X146327714Y-119283819D01*
X146327714Y-119283819D02*
X146232476Y-119236200D01*
X146232476Y-119236200D02*
X146184857Y-119188580D01*
X146137333Y-82836819D02*
X145804000Y-82360628D01*
X145565905Y-82836819D02*
X145565905Y-81836819D01*
X145565905Y-81836819D02*
X145946857Y-81836819D01*
X145946857Y-81836819D02*
X146042095Y-81884438D01*
X146042095Y-81884438D02*
X146089714Y-81932057D01*
X146089714Y-81932057D02*
X146137333Y-82027295D01*
X146137333Y-82027295D02*
X146137333Y-82170152D01*
X146137333Y-82170152D02*
X146089714Y-82265390D01*
X146089714Y-82265390D02*
X146042095Y-82313009D01*
X146042095Y-82313009D02*
X145946857Y-82360628D01*
X145946857Y-82360628D02*
X145565905Y-82360628D01*
X146470667Y-81836819D02*
X147089714Y-81836819D01*
X147089714Y-81836819D02*
X146756381Y-82217771D01*
X146756381Y-82217771D02*
X146899238Y-82217771D01*
X146899238Y-82217771D02*
X146994476Y-82265390D01*
X146994476Y-82265390D02*
X147042095Y-82313009D01*
X147042095Y-82313009D02*
X147089714Y-82408247D01*
X147089714Y-82408247D02*
X147089714Y-82646342D01*
X147089714Y-82646342D02*
X147042095Y-82741580D01*
X147042095Y-82741580D02*
X146994476Y-82789200D01*
X146994476Y-82789200D02*
X146899238Y-82836819D01*
X146899238Y-82836819D02*
X146613524Y-82836819D01*
X146613524Y-82836819D02*
X146518286Y-82789200D01*
X146518286Y-82789200D02*
X146470667Y-82741580D01*
X115847905Y-54136819D02*
X115847905Y-53136819D01*
X115847905Y-53136819D02*
X116086000Y-53136819D01*
X116086000Y-53136819D02*
X116228857Y-53184438D01*
X116228857Y-53184438D02*
X116324095Y-53279676D01*
X116324095Y-53279676D02*
X116371714Y-53374914D01*
X116371714Y-53374914D02*
X116419333Y-53565390D01*
X116419333Y-53565390D02*
X116419333Y-53708247D01*
X116419333Y-53708247D02*
X116371714Y-53898723D01*
X116371714Y-53898723D02*
X116324095Y-53993961D01*
X116324095Y-53993961D02*
X116228857Y-54089200D01*
X116228857Y-54089200D02*
X116086000Y-54136819D01*
X116086000Y-54136819D02*
X115847905Y-54136819D01*
X116800286Y-53232057D02*
X116847905Y-53184438D01*
X116847905Y-53184438D02*
X116943143Y-53136819D01*
X116943143Y-53136819D02*
X117181238Y-53136819D01*
X117181238Y-53136819D02*
X117276476Y-53184438D01*
X117276476Y-53184438D02*
X117324095Y-53232057D01*
X117324095Y-53232057D02*
X117371714Y-53327295D01*
X117371714Y-53327295D02*
X117371714Y-53422533D01*
X117371714Y-53422533D02*
X117324095Y-53565390D01*
X117324095Y-53565390D02*
X116752667Y-54136819D01*
X116752667Y-54136819D02*
X117371714Y-54136819D01*
X165531142Y-119283819D02*
X165197809Y-118807628D01*
X164959714Y-119283819D02*
X164959714Y-118283819D01*
X164959714Y-118283819D02*
X165340666Y-118283819D01*
X165340666Y-118283819D02*
X165435904Y-118331438D01*
X165435904Y-118331438D02*
X165483523Y-118379057D01*
X165483523Y-118379057D02*
X165531142Y-118474295D01*
X165531142Y-118474295D02*
X165531142Y-118617152D01*
X165531142Y-118617152D02*
X165483523Y-118712390D01*
X165483523Y-118712390D02*
X165435904Y-118760009D01*
X165435904Y-118760009D02*
X165340666Y-118807628D01*
X165340666Y-118807628D02*
X164959714Y-118807628D01*
X165864476Y-118283819D02*
X166483523Y-118283819D01*
X166483523Y-118283819D02*
X166150190Y-118664771D01*
X166150190Y-118664771D02*
X166293047Y-118664771D01*
X166293047Y-118664771D02*
X166388285Y-118712390D01*
X166388285Y-118712390D02*
X166435904Y-118760009D01*
X166435904Y-118760009D02*
X166483523Y-118855247D01*
X166483523Y-118855247D02*
X166483523Y-119093342D01*
X166483523Y-119093342D02*
X166435904Y-119188580D01*
X166435904Y-119188580D02*
X166388285Y-119236200D01*
X166388285Y-119236200D02*
X166293047Y-119283819D01*
X166293047Y-119283819D02*
X166007333Y-119283819D01*
X166007333Y-119283819D02*
X165912095Y-119236200D01*
X165912095Y-119236200D02*
X165864476Y-119188580D01*
X166959714Y-119283819D02*
X167150190Y-119283819D01*
X167150190Y-119283819D02*
X167245428Y-119236200D01*
X167245428Y-119236200D02*
X167293047Y-119188580D01*
X167293047Y-119188580D02*
X167388285Y-119045723D01*
X167388285Y-119045723D02*
X167435904Y-118855247D01*
X167435904Y-118855247D02*
X167435904Y-118474295D01*
X167435904Y-118474295D02*
X167388285Y-118379057D01*
X167388285Y-118379057D02*
X167340666Y-118331438D01*
X167340666Y-118331438D02*
X167245428Y-118283819D01*
X167245428Y-118283819D02*
X167054952Y-118283819D01*
X167054952Y-118283819D02*
X166959714Y-118331438D01*
X166959714Y-118331438D02*
X166912095Y-118379057D01*
X166912095Y-118379057D02*
X166864476Y-118474295D01*
X166864476Y-118474295D02*
X166864476Y-118712390D01*
X166864476Y-118712390D02*
X166912095Y-118807628D01*
X166912095Y-118807628D02*
X166959714Y-118855247D01*
X166959714Y-118855247D02*
X167054952Y-118902866D01*
X167054952Y-118902866D02*
X167245428Y-118902866D01*
X167245428Y-118902866D02*
X167340666Y-118855247D01*
X167340666Y-118855247D02*
X167388285Y-118807628D01*
X167388285Y-118807628D02*
X167435904Y-118712390D01*
X140041333Y-73648580D02*
X139993714Y-73696200D01*
X139993714Y-73696200D02*
X139850857Y-73743819D01*
X139850857Y-73743819D02*
X139755619Y-73743819D01*
X139755619Y-73743819D02*
X139612762Y-73696200D01*
X139612762Y-73696200D02*
X139517524Y-73600961D01*
X139517524Y-73600961D02*
X139469905Y-73505723D01*
X139469905Y-73505723D02*
X139422286Y-73315247D01*
X139422286Y-73315247D02*
X139422286Y-73172390D01*
X139422286Y-73172390D02*
X139469905Y-72981914D01*
X139469905Y-72981914D02*
X139517524Y-72886676D01*
X139517524Y-72886676D02*
X139612762Y-72791438D01*
X139612762Y-72791438D02*
X139755619Y-72743819D01*
X139755619Y-72743819D02*
X139850857Y-72743819D01*
X139850857Y-72743819D02*
X139993714Y-72791438D01*
X139993714Y-72791438D02*
X140041333Y-72839057D01*
X140422286Y-72839057D02*
X140469905Y-72791438D01*
X140469905Y-72791438D02*
X140565143Y-72743819D01*
X140565143Y-72743819D02*
X140803238Y-72743819D01*
X140803238Y-72743819D02*
X140898476Y-72791438D01*
X140898476Y-72791438D02*
X140946095Y-72839057D01*
X140946095Y-72839057D02*
X140993714Y-72934295D01*
X140993714Y-72934295D02*
X140993714Y-73029533D01*
X140993714Y-73029533D02*
X140946095Y-73172390D01*
X140946095Y-73172390D02*
X140374667Y-73743819D01*
X140374667Y-73743819D02*
X140993714Y-73743819D01*
X176268142Y-111495819D02*
X175934809Y-111019628D01*
X175696714Y-111495819D02*
X175696714Y-110495819D01*
X175696714Y-110495819D02*
X176077666Y-110495819D01*
X176077666Y-110495819D02*
X176172904Y-110543438D01*
X176172904Y-110543438D02*
X176220523Y-110591057D01*
X176220523Y-110591057D02*
X176268142Y-110686295D01*
X176268142Y-110686295D02*
X176268142Y-110829152D01*
X176268142Y-110829152D02*
X176220523Y-110924390D01*
X176220523Y-110924390D02*
X176172904Y-110972009D01*
X176172904Y-110972009D02*
X176077666Y-111019628D01*
X176077666Y-111019628D02*
X175696714Y-111019628D01*
X176649095Y-110591057D02*
X176696714Y-110543438D01*
X176696714Y-110543438D02*
X176791952Y-110495819D01*
X176791952Y-110495819D02*
X177030047Y-110495819D01*
X177030047Y-110495819D02*
X177125285Y-110543438D01*
X177125285Y-110543438D02*
X177172904Y-110591057D01*
X177172904Y-110591057D02*
X177220523Y-110686295D01*
X177220523Y-110686295D02*
X177220523Y-110781533D01*
X177220523Y-110781533D02*
X177172904Y-110924390D01*
X177172904Y-110924390D02*
X176601476Y-111495819D01*
X176601476Y-111495819D02*
X177220523Y-111495819D01*
X177696714Y-111495819D02*
X177887190Y-111495819D01*
X177887190Y-111495819D02*
X177982428Y-111448200D01*
X177982428Y-111448200D02*
X178030047Y-111400580D01*
X178030047Y-111400580D02*
X178125285Y-111257723D01*
X178125285Y-111257723D02*
X178172904Y-111067247D01*
X178172904Y-111067247D02*
X178172904Y-110686295D01*
X178172904Y-110686295D02*
X178125285Y-110591057D01*
X178125285Y-110591057D02*
X178077666Y-110543438D01*
X178077666Y-110543438D02*
X177982428Y-110495819D01*
X177982428Y-110495819D02*
X177791952Y-110495819D01*
X177791952Y-110495819D02*
X177696714Y-110543438D01*
X177696714Y-110543438D02*
X177649095Y-110591057D01*
X177649095Y-110591057D02*
X177601476Y-110686295D01*
X177601476Y-110686295D02*
X177601476Y-110924390D01*
X177601476Y-110924390D02*
X177649095Y-111019628D01*
X177649095Y-111019628D02*
X177696714Y-111067247D01*
X177696714Y-111067247D02*
X177791952Y-111114866D01*
X177791952Y-111114866D02*
X177982428Y-111114866D01*
X177982428Y-111114866D02*
X178077666Y-111067247D01*
X178077666Y-111067247D02*
X178125285Y-111019628D01*
X178125285Y-111019628D02*
X178172904Y-110924390D01*
X144825819Y-74929904D02*
X145635342Y-74929904D01*
X145635342Y-74929904D02*
X145730580Y-74882285D01*
X145730580Y-74882285D02*
X145778200Y-74834666D01*
X145778200Y-74834666D02*
X145825819Y-74739428D01*
X145825819Y-74739428D02*
X145825819Y-74548952D01*
X145825819Y-74548952D02*
X145778200Y-74453714D01*
X145778200Y-74453714D02*
X145730580Y-74406095D01*
X145730580Y-74406095D02*
X145635342Y-74358476D01*
X145635342Y-74358476D02*
X144825819Y-74358476D01*
X145825819Y-73358476D02*
X145825819Y-73929904D01*
X145825819Y-73644190D02*
X144825819Y-73644190D01*
X144825819Y-73644190D02*
X144968676Y-73739428D01*
X144968676Y-73739428D02*
X145063914Y-73834666D01*
X145063914Y-73834666D02*
X145111533Y-73929904D01*
X155313142Y-119283819D02*
X154979809Y-118807628D01*
X154741714Y-119283819D02*
X154741714Y-118283819D01*
X154741714Y-118283819D02*
X155122666Y-118283819D01*
X155122666Y-118283819D02*
X155217904Y-118331438D01*
X155217904Y-118331438D02*
X155265523Y-118379057D01*
X155265523Y-118379057D02*
X155313142Y-118474295D01*
X155313142Y-118474295D02*
X155313142Y-118617152D01*
X155313142Y-118617152D02*
X155265523Y-118712390D01*
X155265523Y-118712390D02*
X155217904Y-118760009D01*
X155217904Y-118760009D02*
X155122666Y-118807628D01*
X155122666Y-118807628D02*
X154741714Y-118807628D01*
X156170285Y-118617152D02*
X156170285Y-119283819D01*
X155932190Y-118236200D02*
X155694095Y-118950485D01*
X155694095Y-118950485D02*
X156313142Y-118950485D01*
X157217904Y-119283819D02*
X156646476Y-119283819D01*
X156932190Y-119283819D02*
X156932190Y-118283819D01*
X156932190Y-118283819D02*
X156836952Y-118426676D01*
X156836952Y-118426676D02*
X156741714Y-118521914D01*
X156741714Y-118521914D02*
X156646476Y-118569533D01*
X119499142Y-60314819D02*
X119165809Y-59838628D01*
X118927714Y-60314819D02*
X118927714Y-59314819D01*
X118927714Y-59314819D02*
X119308666Y-59314819D01*
X119308666Y-59314819D02*
X119403904Y-59362438D01*
X119403904Y-59362438D02*
X119451523Y-59410057D01*
X119451523Y-59410057D02*
X119499142Y-59505295D01*
X119499142Y-59505295D02*
X119499142Y-59648152D01*
X119499142Y-59648152D02*
X119451523Y-59743390D01*
X119451523Y-59743390D02*
X119403904Y-59791009D01*
X119403904Y-59791009D02*
X119308666Y-59838628D01*
X119308666Y-59838628D02*
X118927714Y-59838628D01*
X120403904Y-59314819D02*
X119927714Y-59314819D01*
X119927714Y-59314819D02*
X119880095Y-59791009D01*
X119880095Y-59791009D02*
X119927714Y-59743390D01*
X119927714Y-59743390D02*
X120022952Y-59695771D01*
X120022952Y-59695771D02*
X120261047Y-59695771D01*
X120261047Y-59695771D02*
X120356285Y-59743390D01*
X120356285Y-59743390D02*
X120403904Y-59791009D01*
X120403904Y-59791009D02*
X120451523Y-59886247D01*
X120451523Y-59886247D02*
X120451523Y-60124342D01*
X120451523Y-60124342D02*
X120403904Y-60219580D01*
X120403904Y-60219580D02*
X120356285Y-60267200D01*
X120356285Y-60267200D02*
X120261047Y-60314819D01*
X120261047Y-60314819D02*
X120022952Y-60314819D01*
X120022952Y-60314819D02*
X119927714Y-60267200D01*
X119927714Y-60267200D02*
X119880095Y-60219580D01*
X121308666Y-59648152D02*
X121308666Y-60314819D01*
X121070571Y-59267200D02*
X120832476Y-59981485D01*
X120832476Y-59981485D02*
X121451523Y-59981485D01*
X139692142Y-119283819D02*
X139358809Y-118807628D01*
X139120714Y-119283819D02*
X139120714Y-118283819D01*
X139120714Y-118283819D02*
X139501666Y-118283819D01*
X139501666Y-118283819D02*
X139596904Y-118331438D01*
X139596904Y-118331438D02*
X139644523Y-118379057D01*
X139644523Y-118379057D02*
X139692142Y-118474295D01*
X139692142Y-118474295D02*
X139692142Y-118617152D01*
X139692142Y-118617152D02*
X139644523Y-118712390D01*
X139644523Y-118712390D02*
X139596904Y-118760009D01*
X139596904Y-118760009D02*
X139501666Y-118807628D01*
X139501666Y-118807628D02*
X139120714Y-118807628D01*
X140549285Y-118617152D02*
X140549285Y-119283819D01*
X140311190Y-118236200D02*
X140073095Y-118950485D01*
X140073095Y-118950485D02*
X140692142Y-118950485D01*
X141501666Y-118617152D02*
X141501666Y-119283819D01*
X141263571Y-118236200D02*
X141025476Y-118950485D01*
X141025476Y-118950485D02*
X141644523Y-118950485D01*
X156551333Y-82836819D02*
X156218000Y-82360628D01*
X155979905Y-82836819D02*
X155979905Y-81836819D01*
X155979905Y-81836819D02*
X156360857Y-81836819D01*
X156360857Y-81836819D02*
X156456095Y-81884438D01*
X156456095Y-81884438D02*
X156503714Y-81932057D01*
X156503714Y-81932057D02*
X156551333Y-82027295D01*
X156551333Y-82027295D02*
X156551333Y-82170152D01*
X156551333Y-82170152D02*
X156503714Y-82265390D01*
X156503714Y-82265390D02*
X156456095Y-82313009D01*
X156456095Y-82313009D02*
X156360857Y-82360628D01*
X156360857Y-82360628D02*
X155979905Y-82360628D01*
X157456095Y-81836819D02*
X156979905Y-81836819D01*
X156979905Y-81836819D02*
X156932286Y-82313009D01*
X156932286Y-82313009D02*
X156979905Y-82265390D01*
X156979905Y-82265390D02*
X157075143Y-82217771D01*
X157075143Y-82217771D02*
X157313238Y-82217771D01*
X157313238Y-82217771D02*
X157408476Y-82265390D01*
X157408476Y-82265390D02*
X157456095Y-82313009D01*
X157456095Y-82313009D02*
X157503714Y-82408247D01*
X157503714Y-82408247D02*
X157503714Y-82646342D01*
X157503714Y-82646342D02*
X157456095Y-82741580D01*
X157456095Y-82741580D02*
X157408476Y-82789200D01*
X157408476Y-82789200D02*
X157313238Y-82836819D01*
X157313238Y-82836819D02*
X157075143Y-82836819D01*
X157075143Y-82836819D02*
X156979905Y-82789200D01*
X156979905Y-82789200D02*
X156932286Y-82741580D01*
X170634819Y-142247857D02*
X170158628Y-142581190D01*
X170634819Y-142819285D02*
X169634819Y-142819285D01*
X169634819Y-142819285D02*
X169634819Y-142438333D01*
X169634819Y-142438333D02*
X169682438Y-142343095D01*
X169682438Y-142343095D02*
X169730057Y-142295476D01*
X169730057Y-142295476D02*
X169825295Y-142247857D01*
X169825295Y-142247857D02*
X169968152Y-142247857D01*
X169968152Y-142247857D02*
X170063390Y-142295476D01*
X170063390Y-142295476D02*
X170111009Y-142343095D01*
X170111009Y-142343095D02*
X170158628Y-142438333D01*
X170158628Y-142438333D02*
X170158628Y-142819285D01*
X169968152Y-141390714D02*
X170634819Y-141390714D01*
X169587200Y-141628809D02*
X170301485Y-141866904D01*
X170301485Y-141866904D02*
X170301485Y-141247857D01*
X169634819Y-140438333D02*
X169634819Y-140628809D01*
X169634819Y-140628809D02*
X169682438Y-140724047D01*
X169682438Y-140724047D02*
X169730057Y-140771666D01*
X169730057Y-140771666D02*
X169872914Y-140866904D01*
X169872914Y-140866904D02*
X170063390Y-140914523D01*
X170063390Y-140914523D02*
X170444342Y-140914523D01*
X170444342Y-140914523D02*
X170539580Y-140866904D01*
X170539580Y-140866904D02*
X170587200Y-140819285D01*
X170587200Y-140819285D02*
X170634819Y-140724047D01*
X170634819Y-140724047D02*
X170634819Y-140533571D01*
X170634819Y-140533571D02*
X170587200Y-140438333D01*
X170587200Y-140438333D02*
X170539580Y-140390714D01*
X170539580Y-140390714D02*
X170444342Y-140343095D01*
X170444342Y-140343095D02*
X170206247Y-140343095D01*
X170206247Y-140343095D02*
X170111009Y-140390714D01*
X170111009Y-140390714D02*
X170063390Y-140438333D01*
X170063390Y-140438333D02*
X170015771Y-140533571D01*
X170015771Y-140533571D02*
X170015771Y-140724047D01*
X170015771Y-140724047D02*
X170063390Y-140819285D01*
X170063390Y-140819285D02*
X170111009Y-140866904D01*
X170111009Y-140866904D02*
X170206247Y-140914523D01*
X145378142Y-111495819D02*
X145044809Y-111019628D01*
X144806714Y-111495819D02*
X144806714Y-110495819D01*
X144806714Y-110495819D02*
X145187666Y-110495819D01*
X145187666Y-110495819D02*
X145282904Y-110543438D01*
X145282904Y-110543438D02*
X145330523Y-110591057D01*
X145330523Y-110591057D02*
X145378142Y-110686295D01*
X145378142Y-110686295D02*
X145378142Y-110829152D01*
X145378142Y-110829152D02*
X145330523Y-110924390D01*
X145330523Y-110924390D02*
X145282904Y-110972009D01*
X145282904Y-110972009D02*
X145187666Y-111019628D01*
X145187666Y-111019628D02*
X144806714Y-111019628D01*
X145711476Y-110495819D02*
X146330523Y-110495819D01*
X146330523Y-110495819D02*
X145997190Y-110876771D01*
X145997190Y-110876771D02*
X146140047Y-110876771D01*
X146140047Y-110876771D02*
X146235285Y-110924390D01*
X146235285Y-110924390D02*
X146282904Y-110972009D01*
X146282904Y-110972009D02*
X146330523Y-111067247D01*
X146330523Y-111067247D02*
X146330523Y-111305342D01*
X146330523Y-111305342D02*
X146282904Y-111400580D01*
X146282904Y-111400580D02*
X146235285Y-111448200D01*
X146235285Y-111448200D02*
X146140047Y-111495819D01*
X146140047Y-111495819D02*
X145854333Y-111495819D01*
X145854333Y-111495819D02*
X145759095Y-111448200D01*
X145759095Y-111448200D02*
X145711476Y-111400580D01*
X147235285Y-110495819D02*
X146759095Y-110495819D01*
X146759095Y-110495819D02*
X146711476Y-110972009D01*
X146711476Y-110972009D02*
X146759095Y-110924390D01*
X146759095Y-110924390D02*
X146854333Y-110876771D01*
X146854333Y-110876771D02*
X147092428Y-110876771D01*
X147092428Y-110876771D02*
X147187666Y-110924390D01*
X147187666Y-110924390D02*
X147235285Y-110972009D01*
X147235285Y-110972009D02*
X147282904Y-111067247D01*
X147282904Y-111067247D02*
X147282904Y-111305342D01*
X147282904Y-111305342D02*
X147235285Y-111400580D01*
X147235285Y-111400580D02*
X147187666Y-111448200D01*
X147187666Y-111448200D02*
X147092428Y-111495819D01*
X147092428Y-111495819D02*
X146854333Y-111495819D01*
X146854333Y-111495819D02*
X146759095Y-111448200D01*
X146759095Y-111448200D02*
X146711476Y-111400580D01*
X140803333Y-83047819D02*
X140470000Y-82571628D01*
X140231905Y-83047819D02*
X140231905Y-82047819D01*
X140231905Y-82047819D02*
X140612857Y-82047819D01*
X140612857Y-82047819D02*
X140708095Y-82095438D01*
X140708095Y-82095438D02*
X140755714Y-82143057D01*
X140755714Y-82143057D02*
X140803333Y-82238295D01*
X140803333Y-82238295D02*
X140803333Y-82381152D01*
X140803333Y-82381152D02*
X140755714Y-82476390D01*
X140755714Y-82476390D02*
X140708095Y-82524009D01*
X140708095Y-82524009D02*
X140612857Y-82571628D01*
X140612857Y-82571628D02*
X140231905Y-82571628D01*
X141184286Y-82143057D02*
X141231905Y-82095438D01*
X141231905Y-82095438D02*
X141327143Y-82047819D01*
X141327143Y-82047819D02*
X141565238Y-82047819D01*
X141565238Y-82047819D02*
X141660476Y-82095438D01*
X141660476Y-82095438D02*
X141708095Y-82143057D01*
X141708095Y-82143057D02*
X141755714Y-82238295D01*
X141755714Y-82238295D02*
X141755714Y-82333533D01*
X141755714Y-82333533D02*
X141708095Y-82476390D01*
X141708095Y-82476390D02*
X141136667Y-83047819D01*
X141136667Y-83047819D02*
X141755714Y-83047819D01*
X194806580Y-69254666D02*
X194854200Y-69302285D01*
X194854200Y-69302285D02*
X194901819Y-69445142D01*
X194901819Y-69445142D02*
X194901819Y-69540380D01*
X194901819Y-69540380D02*
X194854200Y-69683237D01*
X194854200Y-69683237D02*
X194758961Y-69778475D01*
X194758961Y-69778475D02*
X194663723Y-69826094D01*
X194663723Y-69826094D02*
X194473247Y-69873713D01*
X194473247Y-69873713D02*
X194330390Y-69873713D01*
X194330390Y-69873713D02*
X194139914Y-69826094D01*
X194139914Y-69826094D02*
X194044676Y-69778475D01*
X194044676Y-69778475D02*
X193949438Y-69683237D01*
X193949438Y-69683237D02*
X193901819Y-69540380D01*
X193901819Y-69540380D02*
X193901819Y-69445142D01*
X193901819Y-69445142D02*
X193949438Y-69302285D01*
X193949438Y-69302285D02*
X193997057Y-69254666D01*
X194901819Y-68302285D02*
X194901819Y-68873713D01*
X194901819Y-68587999D02*
X193901819Y-68587999D01*
X193901819Y-68587999D02*
X194044676Y-68683237D01*
X194044676Y-68683237D02*
X194139914Y-68778475D01*
X194139914Y-68778475D02*
X194187533Y-68873713D01*
X166936333Y-82836819D02*
X166603000Y-82360628D01*
X166364905Y-82836819D02*
X166364905Y-81836819D01*
X166364905Y-81836819D02*
X166745857Y-81836819D01*
X166745857Y-81836819D02*
X166841095Y-81884438D01*
X166841095Y-81884438D02*
X166888714Y-81932057D01*
X166888714Y-81932057D02*
X166936333Y-82027295D01*
X166936333Y-82027295D02*
X166936333Y-82170152D01*
X166936333Y-82170152D02*
X166888714Y-82265390D01*
X166888714Y-82265390D02*
X166841095Y-82313009D01*
X166841095Y-82313009D02*
X166745857Y-82360628D01*
X166745857Y-82360628D02*
X166364905Y-82360628D01*
X167269667Y-81836819D02*
X167936333Y-81836819D01*
X167936333Y-81836819D02*
X167507762Y-82836819D01*
X161490819Y-142374857D02*
X161014628Y-142708190D01*
X161490819Y-142946285D02*
X160490819Y-142946285D01*
X160490819Y-142946285D02*
X160490819Y-142565333D01*
X160490819Y-142565333D02*
X160538438Y-142470095D01*
X160538438Y-142470095D02*
X160586057Y-142422476D01*
X160586057Y-142422476D02*
X160681295Y-142374857D01*
X160681295Y-142374857D02*
X160824152Y-142374857D01*
X160824152Y-142374857D02*
X160919390Y-142422476D01*
X160919390Y-142422476D02*
X160967009Y-142470095D01*
X160967009Y-142470095D02*
X161014628Y-142565333D01*
X161014628Y-142565333D02*
X161014628Y-142946285D01*
X160824152Y-141517714D02*
X161490819Y-141517714D01*
X160443200Y-141755809D02*
X161157485Y-141993904D01*
X161157485Y-141993904D02*
X161157485Y-141374857D01*
X160919390Y-140851047D02*
X160871771Y-140946285D01*
X160871771Y-140946285D02*
X160824152Y-140993904D01*
X160824152Y-140993904D02*
X160728914Y-141041523D01*
X160728914Y-141041523D02*
X160681295Y-141041523D01*
X160681295Y-141041523D02*
X160586057Y-140993904D01*
X160586057Y-140993904D02*
X160538438Y-140946285D01*
X160538438Y-140946285D02*
X160490819Y-140851047D01*
X160490819Y-140851047D02*
X160490819Y-140660571D01*
X160490819Y-140660571D02*
X160538438Y-140565333D01*
X160538438Y-140565333D02*
X160586057Y-140517714D01*
X160586057Y-140517714D02*
X160681295Y-140470095D01*
X160681295Y-140470095D02*
X160728914Y-140470095D01*
X160728914Y-140470095D02*
X160824152Y-140517714D01*
X160824152Y-140517714D02*
X160871771Y-140565333D01*
X160871771Y-140565333D02*
X160919390Y-140660571D01*
X160919390Y-140660571D02*
X160919390Y-140851047D01*
X160919390Y-140851047D02*
X160967009Y-140946285D01*
X160967009Y-140946285D02*
X161014628Y-140993904D01*
X161014628Y-140993904D02*
X161109866Y-141041523D01*
X161109866Y-141041523D02*
X161300342Y-141041523D01*
X161300342Y-141041523D02*
X161395580Y-140993904D01*
X161395580Y-140993904D02*
X161443200Y-140946285D01*
X161443200Y-140946285D02*
X161490819Y-140851047D01*
X161490819Y-140851047D02*
X161490819Y-140660571D01*
X161490819Y-140660571D02*
X161443200Y-140565333D01*
X161443200Y-140565333D02*
X161395580Y-140517714D01*
X161395580Y-140517714D02*
X161300342Y-140470095D01*
X161300342Y-140470095D02*
X161109866Y-140470095D01*
X161109866Y-140470095D02*
X161014628Y-140517714D01*
X161014628Y-140517714D02*
X160967009Y-140565333D01*
X160967009Y-140565333D02*
X160919390Y-140660571D01*
X171188142Y-90751819D02*
X170854809Y-90275628D01*
X170616714Y-90751819D02*
X170616714Y-89751819D01*
X170616714Y-89751819D02*
X170997666Y-89751819D01*
X170997666Y-89751819D02*
X171092904Y-89799438D01*
X171092904Y-89799438D02*
X171140523Y-89847057D01*
X171140523Y-89847057D02*
X171188142Y-89942295D01*
X171188142Y-89942295D02*
X171188142Y-90085152D01*
X171188142Y-90085152D02*
X171140523Y-90180390D01*
X171140523Y-90180390D02*
X171092904Y-90228009D01*
X171092904Y-90228009D02*
X170997666Y-90275628D01*
X170997666Y-90275628D02*
X170616714Y-90275628D01*
X172140523Y-90751819D02*
X171569095Y-90751819D01*
X171854809Y-90751819D02*
X171854809Y-89751819D01*
X171854809Y-89751819D02*
X171759571Y-89894676D01*
X171759571Y-89894676D02*
X171664333Y-89989914D01*
X171664333Y-89989914D02*
X171569095Y-90037533D01*
X172997666Y-89751819D02*
X172807190Y-89751819D01*
X172807190Y-89751819D02*
X172711952Y-89799438D01*
X172711952Y-89799438D02*
X172664333Y-89847057D01*
X172664333Y-89847057D02*
X172569095Y-89989914D01*
X172569095Y-89989914D02*
X172521476Y-90180390D01*
X172521476Y-90180390D02*
X172521476Y-90561342D01*
X172521476Y-90561342D02*
X172569095Y-90656580D01*
X172569095Y-90656580D02*
X172616714Y-90704200D01*
X172616714Y-90704200D02*
X172711952Y-90751819D01*
X172711952Y-90751819D02*
X172902428Y-90751819D01*
X172902428Y-90751819D02*
X172997666Y-90704200D01*
X172997666Y-90704200D02*
X173045285Y-90656580D01*
X173045285Y-90656580D02*
X173092904Y-90561342D01*
X173092904Y-90561342D02*
X173092904Y-90323247D01*
X173092904Y-90323247D02*
X173045285Y-90228009D01*
X173045285Y-90228009D02*
X172997666Y-90180390D01*
X172997666Y-90180390D02*
X172902428Y-90132771D01*
X172902428Y-90132771D02*
X172711952Y-90132771D01*
X172711952Y-90132771D02*
X172616714Y-90180390D01*
X172616714Y-90180390D02*
X172569095Y-90228009D01*
X172569095Y-90228009D02*
X172521476Y-90323247D01*
X167459819Y-60459857D02*
X166983628Y-60793190D01*
X167459819Y-61031285D02*
X166459819Y-61031285D01*
X166459819Y-61031285D02*
X166459819Y-60650333D01*
X166459819Y-60650333D02*
X166507438Y-60555095D01*
X166507438Y-60555095D02*
X166555057Y-60507476D01*
X166555057Y-60507476D02*
X166650295Y-60459857D01*
X166650295Y-60459857D02*
X166793152Y-60459857D01*
X166793152Y-60459857D02*
X166888390Y-60507476D01*
X166888390Y-60507476D02*
X166936009Y-60555095D01*
X166936009Y-60555095D02*
X166983628Y-60650333D01*
X166983628Y-60650333D02*
X166983628Y-61031285D01*
X166555057Y-60078904D02*
X166507438Y-60031285D01*
X166507438Y-60031285D02*
X166459819Y-59936047D01*
X166459819Y-59936047D02*
X166459819Y-59697952D01*
X166459819Y-59697952D02*
X166507438Y-59602714D01*
X166507438Y-59602714D02*
X166555057Y-59555095D01*
X166555057Y-59555095D02*
X166650295Y-59507476D01*
X166650295Y-59507476D02*
X166745533Y-59507476D01*
X166745533Y-59507476D02*
X166888390Y-59555095D01*
X166888390Y-59555095D02*
X167459819Y-60126523D01*
X167459819Y-60126523D02*
X167459819Y-59507476D01*
X166793152Y-58650333D02*
X167459819Y-58650333D01*
X166412200Y-58888428D02*
X167126485Y-59126523D01*
X167126485Y-59126523D02*
X167126485Y-58507476D01*
X165981142Y-111495819D02*
X165647809Y-111019628D01*
X165409714Y-111495819D02*
X165409714Y-110495819D01*
X165409714Y-110495819D02*
X165790666Y-110495819D01*
X165790666Y-110495819D02*
X165885904Y-110543438D01*
X165885904Y-110543438D02*
X165933523Y-110591057D01*
X165933523Y-110591057D02*
X165981142Y-110686295D01*
X165981142Y-110686295D02*
X165981142Y-110829152D01*
X165981142Y-110829152D02*
X165933523Y-110924390D01*
X165933523Y-110924390D02*
X165885904Y-110972009D01*
X165885904Y-110972009D02*
X165790666Y-111019628D01*
X165790666Y-111019628D02*
X165409714Y-111019628D01*
X166314476Y-110495819D02*
X166933523Y-110495819D01*
X166933523Y-110495819D02*
X166600190Y-110876771D01*
X166600190Y-110876771D02*
X166743047Y-110876771D01*
X166743047Y-110876771D02*
X166838285Y-110924390D01*
X166838285Y-110924390D02*
X166885904Y-110972009D01*
X166885904Y-110972009D02*
X166933523Y-111067247D01*
X166933523Y-111067247D02*
X166933523Y-111305342D01*
X166933523Y-111305342D02*
X166885904Y-111400580D01*
X166885904Y-111400580D02*
X166838285Y-111448200D01*
X166838285Y-111448200D02*
X166743047Y-111495819D01*
X166743047Y-111495819D02*
X166457333Y-111495819D01*
X166457333Y-111495819D02*
X166362095Y-111448200D01*
X166362095Y-111448200D02*
X166314476Y-111400580D01*
X167885904Y-111495819D02*
X167314476Y-111495819D01*
X167600190Y-111495819D02*
X167600190Y-110495819D01*
X167600190Y-110495819D02*
X167504952Y-110638676D01*
X167504952Y-110638676D02*
X167409714Y-110733914D01*
X167409714Y-110733914D02*
X167314476Y-110781533D01*
X145182142Y-90751819D02*
X144848809Y-90275628D01*
X144610714Y-90751819D02*
X144610714Y-89751819D01*
X144610714Y-89751819D02*
X144991666Y-89751819D01*
X144991666Y-89751819D02*
X145086904Y-89799438D01*
X145086904Y-89799438D02*
X145134523Y-89847057D01*
X145134523Y-89847057D02*
X145182142Y-89942295D01*
X145182142Y-89942295D02*
X145182142Y-90085152D01*
X145182142Y-90085152D02*
X145134523Y-90180390D01*
X145134523Y-90180390D02*
X145086904Y-90228009D01*
X145086904Y-90228009D02*
X144991666Y-90275628D01*
X144991666Y-90275628D02*
X144610714Y-90275628D01*
X146134523Y-90751819D02*
X145563095Y-90751819D01*
X145848809Y-90751819D02*
X145848809Y-89751819D01*
X145848809Y-89751819D02*
X145753571Y-89894676D01*
X145753571Y-89894676D02*
X145658333Y-89989914D01*
X145658333Y-89989914D02*
X145563095Y-90037533D01*
X147086904Y-90751819D02*
X146515476Y-90751819D01*
X146801190Y-90751819D02*
X146801190Y-89751819D01*
X146801190Y-89751819D02*
X146705952Y-89894676D01*
X146705952Y-89894676D02*
X146610714Y-89989914D01*
X146610714Y-89989914D02*
X146515476Y-90037533D01*
X160422142Y-119283819D02*
X160088809Y-118807628D01*
X159850714Y-119283819D02*
X159850714Y-118283819D01*
X159850714Y-118283819D02*
X160231666Y-118283819D01*
X160231666Y-118283819D02*
X160326904Y-118331438D01*
X160326904Y-118331438D02*
X160374523Y-118379057D01*
X160374523Y-118379057D02*
X160422142Y-118474295D01*
X160422142Y-118474295D02*
X160422142Y-118617152D01*
X160422142Y-118617152D02*
X160374523Y-118712390D01*
X160374523Y-118712390D02*
X160326904Y-118760009D01*
X160326904Y-118760009D02*
X160231666Y-118807628D01*
X160231666Y-118807628D02*
X159850714Y-118807628D01*
X161279285Y-118617152D02*
X161279285Y-119283819D01*
X161041190Y-118236200D02*
X160803095Y-118950485D01*
X160803095Y-118950485D02*
X161422142Y-118950485D01*
X161993571Y-118283819D02*
X162088809Y-118283819D01*
X162088809Y-118283819D02*
X162184047Y-118331438D01*
X162184047Y-118331438D02*
X162231666Y-118379057D01*
X162231666Y-118379057D02*
X162279285Y-118474295D01*
X162279285Y-118474295D02*
X162326904Y-118664771D01*
X162326904Y-118664771D02*
X162326904Y-118902866D01*
X162326904Y-118902866D02*
X162279285Y-119093342D01*
X162279285Y-119093342D02*
X162231666Y-119188580D01*
X162231666Y-119188580D02*
X162184047Y-119236200D01*
X162184047Y-119236200D02*
X162088809Y-119283819D01*
X162088809Y-119283819D02*
X161993571Y-119283819D01*
X161993571Y-119283819D02*
X161898333Y-119236200D01*
X161898333Y-119236200D02*
X161850714Y-119188580D01*
X161850714Y-119188580D02*
X161803095Y-119093342D01*
X161803095Y-119093342D02*
X161755476Y-118902866D01*
X161755476Y-118902866D02*
X161755476Y-118664771D01*
X161755476Y-118664771D02*
X161803095Y-118474295D01*
X161803095Y-118474295D02*
X161850714Y-118379057D01*
X161850714Y-118379057D02*
X161898333Y-118331438D01*
X161898333Y-118331438D02*
X161993571Y-118283819D01*
X199547819Y-69508666D02*
X199071628Y-69841999D01*
X199547819Y-70080094D02*
X198547819Y-70080094D01*
X198547819Y-70080094D02*
X198547819Y-69699142D01*
X198547819Y-69699142D02*
X198595438Y-69603904D01*
X198595438Y-69603904D02*
X198643057Y-69556285D01*
X198643057Y-69556285D02*
X198738295Y-69508666D01*
X198738295Y-69508666D02*
X198881152Y-69508666D01*
X198881152Y-69508666D02*
X198976390Y-69556285D01*
X198976390Y-69556285D02*
X199024009Y-69603904D01*
X199024009Y-69603904D02*
X199071628Y-69699142D01*
X199071628Y-69699142D02*
X199071628Y-70080094D01*
X199547819Y-68556285D02*
X199547819Y-69127713D01*
X199547819Y-68841999D02*
X198547819Y-68841999D01*
X198547819Y-68841999D02*
X198690676Y-68937237D01*
X198690676Y-68937237D02*
X198785914Y-69032475D01*
X198785914Y-69032475D02*
X198833533Y-69127713D01*
X176395142Y-90708819D02*
X176061809Y-90232628D01*
X175823714Y-90708819D02*
X175823714Y-89708819D01*
X175823714Y-89708819D02*
X176204666Y-89708819D01*
X176204666Y-89708819D02*
X176299904Y-89756438D01*
X176299904Y-89756438D02*
X176347523Y-89804057D01*
X176347523Y-89804057D02*
X176395142Y-89899295D01*
X176395142Y-89899295D02*
X176395142Y-90042152D01*
X176395142Y-90042152D02*
X176347523Y-90137390D01*
X176347523Y-90137390D02*
X176299904Y-90185009D01*
X176299904Y-90185009D02*
X176204666Y-90232628D01*
X176204666Y-90232628D02*
X175823714Y-90232628D01*
X177347523Y-90708819D02*
X176776095Y-90708819D01*
X177061809Y-90708819D02*
X177061809Y-89708819D01*
X177061809Y-89708819D02*
X176966571Y-89851676D01*
X176966571Y-89851676D02*
X176871333Y-89946914D01*
X176871333Y-89946914D02*
X176776095Y-89994533D01*
X177680857Y-89708819D02*
X178347523Y-89708819D01*
X178347523Y-89708819D02*
X177918952Y-90708819D01*
X149171819Y-60459857D02*
X148695628Y-60793190D01*
X149171819Y-61031285D02*
X148171819Y-61031285D01*
X148171819Y-61031285D02*
X148171819Y-60650333D01*
X148171819Y-60650333D02*
X148219438Y-60555095D01*
X148219438Y-60555095D02*
X148267057Y-60507476D01*
X148267057Y-60507476D02*
X148362295Y-60459857D01*
X148362295Y-60459857D02*
X148505152Y-60459857D01*
X148505152Y-60459857D02*
X148600390Y-60507476D01*
X148600390Y-60507476D02*
X148648009Y-60555095D01*
X148648009Y-60555095D02*
X148695628Y-60650333D01*
X148695628Y-60650333D02*
X148695628Y-61031285D01*
X149171819Y-59507476D02*
X149171819Y-60078904D01*
X149171819Y-59793190D02*
X148171819Y-59793190D01*
X148171819Y-59793190D02*
X148314676Y-59888428D01*
X148314676Y-59888428D02*
X148409914Y-59983666D01*
X148409914Y-59983666D02*
X148457533Y-60078904D01*
X148600390Y-58936047D02*
X148552771Y-59031285D01*
X148552771Y-59031285D02*
X148505152Y-59078904D01*
X148505152Y-59078904D02*
X148409914Y-59126523D01*
X148409914Y-59126523D02*
X148362295Y-59126523D01*
X148362295Y-59126523D02*
X148267057Y-59078904D01*
X148267057Y-59078904D02*
X148219438Y-59031285D01*
X148219438Y-59031285D02*
X148171819Y-58936047D01*
X148171819Y-58936047D02*
X148171819Y-58745571D01*
X148171819Y-58745571D02*
X148219438Y-58650333D01*
X148219438Y-58650333D02*
X148267057Y-58602714D01*
X148267057Y-58602714D02*
X148362295Y-58555095D01*
X148362295Y-58555095D02*
X148409914Y-58555095D01*
X148409914Y-58555095D02*
X148505152Y-58602714D01*
X148505152Y-58602714D02*
X148552771Y-58650333D01*
X148552771Y-58650333D02*
X148600390Y-58745571D01*
X148600390Y-58745571D02*
X148600390Y-58936047D01*
X148600390Y-58936047D02*
X148648009Y-59031285D01*
X148648009Y-59031285D02*
X148695628Y-59078904D01*
X148695628Y-59078904D02*
X148790866Y-59126523D01*
X148790866Y-59126523D02*
X148981342Y-59126523D01*
X148981342Y-59126523D02*
X149076580Y-59078904D01*
X149076580Y-59078904D02*
X149124200Y-59031285D01*
X149124200Y-59031285D02*
X149171819Y-58936047D01*
X149171819Y-58936047D02*
X149171819Y-58745571D01*
X149171819Y-58745571D02*
X149124200Y-58650333D01*
X149124200Y-58650333D02*
X149076580Y-58602714D01*
X149076580Y-58602714D02*
X148981342Y-58555095D01*
X148981342Y-58555095D02*
X148790866Y-58555095D01*
X148790866Y-58555095D02*
X148695628Y-58602714D01*
X148695628Y-58602714D02*
X148648009Y-58650333D01*
X148648009Y-58650333D02*
X148600390Y-58745571D01*
X173091819Y-128230189D02*
X172091819Y-128230189D01*
X172996580Y-127182571D02*
X173044200Y-127230190D01*
X173044200Y-127230190D02*
X173091819Y-127373047D01*
X173091819Y-127373047D02*
X173091819Y-127468285D01*
X173091819Y-127468285D02*
X173044200Y-127611142D01*
X173044200Y-127611142D02*
X172948961Y-127706380D01*
X172948961Y-127706380D02*
X172853723Y-127753999D01*
X172853723Y-127753999D02*
X172663247Y-127801618D01*
X172663247Y-127801618D02*
X172520390Y-127801618D01*
X172520390Y-127801618D02*
X172329914Y-127753999D01*
X172329914Y-127753999D02*
X172234676Y-127706380D01*
X172234676Y-127706380D02*
X172139438Y-127611142D01*
X172139438Y-127611142D02*
X172091819Y-127468285D01*
X172091819Y-127468285D02*
X172091819Y-127373047D01*
X172091819Y-127373047D02*
X172139438Y-127230190D01*
X172139438Y-127230190D02*
X172187057Y-127182571D01*
X173091819Y-126230190D02*
X173091819Y-126801618D01*
X173091819Y-126515904D02*
X172091819Y-126515904D01*
X172091819Y-126515904D02*
X172234676Y-126611142D01*
X172234676Y-126611142D02*
X172329914Y-126706380D01*
X172329914Y-126706380D02*
X172377533Y-126801618D01*
X158188819Y-60459857D02*
X157712628Y-60793190D01*
X158188819Y-61031285D02*
X157188819Y-61031285D01*
X157188819Y-61031285D02*
X157188819Y-60650333D01*
X157188819Y-60650333D02*
X157236438Y-60555095D01*
X157236438Y-60555095D02*
X157284057Y-60507476D01*
X157284057Y-60507476D02*
X157379295Y-60459857D01*
X157379295Y-60459857D02*
X157522152Y-60459857D01*
X157522152Y-60459857D02*
X157617390Y-60507476D01*
X157617390Y-60507476D02*
X157665009Y-60555095D01*
X157665009Y-60555095D02*
X157712628Y-60650333D01*
X157712628Y-60650333D02*
X157712628Y-61031285D01*
X157284057Y-60078904D02*
X157236438Y-60031285D01*
X157236438Y-60031285D02*
X157188819Y-59936047D01*
X157188819Y-59936047D02*
X157188819Y-59697952D01*
X157188819Y-59697952D02*
X157236438Y-59602714D01*
X157236438Y-59602714D02*
X157284057Y-59555095D01*
X157284057Y-59555095D02*
X157379295Y-59507476D01*
X157379295Y-59507476D02*
X157474533Y-59507476D01*
X157474533Y-59507476D02*
X157617390Y-59555095D01*
X157617390Y-59555095D02*
X158188819Y-60126523D01*
X158188819Y-60126523D02*
X158188819Y-59507476D01*
X158188819Y-58555095D02*
X158188819Y-59126523D01*
X158188819Y-58840809D02*
X157188819Y-58840809D01*
X157188819Y-58840809D02*
X157331676Y-58936047D01*
X157331676Y-58936047D02*
X157426914Y-59031285D01*
X157426914Y-59031285D02*
X157474533Y-59126523D01*
X126230142Y-60314819D02*
X125896809Y-59838628D01*
X125658714Y-60314819D02*
X125658714Y-59314819D01*
X125658714Y-59314819D02*
X126039666Y-59314819D01*
X126039666Y-59314819D02*
X126134904Y-59362438D01*
X126134904Y-59362438D02*
X126182523Y-59410057D01*
X126182523Y-59410057D02*
X126230142Y-59505295D01*
X126230142Y-59505295D02*
X126230142Y-59648152D01*
X126230142Y-59648152D02*
X126182523Y-59743390D01*
X126182523Y-59743390D02*
X126134904Y-59791009D01*
X126134904Y-59791009D02*
X126039666Y-59838628D01*
X126039666Y-59838628D02*
X125658714Y-59838628D01*
X127134904Y-59314819D02*
X126658714Y-59314819D01*
X126658714Y-59314819D02*
X126611095Y-59791009D01*
X126611095Y-59791009D02*
X126658714Y-59743390D01*
X126658714Y-59743390D02*
X126753952Y-59695771D01*
X126753952Y-59695771D02*
X126992047Y-59695771D01*
X126992047Y-59695771D02*
X127087285Y-59743390D01*
X127087285Y-59743390D02*
X127134904Y-59791009D01*
X127134904Y-59791009D02*
X127182523Y-59886247D01*
X127182523Y-59886247D02*
X127182523Y-60124342D01*
X127182523Y-60124342D02*
X127134904Y-60219580D01*
X127134904Y-60219580D02*
X127087285Y-60267200D01*
X127087285Y-60267200D02*
X126992047Y-60314819D01*
X126992047Y-60314819D02*
X126753952Y-60314819D01*
X126753952Y-60314819D02*
X126658714Y-60267200D01*
X126658714Y-60267200D02*
X126611095Y-60219580D01*
X127515857Y-59314819D02*
X128134904Y-59314819D01*
X128134904Y-59314819D02*
X127801571Y-59695771D01*
X127801571Y-59695771D02*
X127944428Y-59695771D01*
X127944428Y-59695771D02*
X128039666Y-59743390D01*
X128039666Y-59743390D02*
X128087285Y-59791009D01*
X128087285Y-59791009D02*
X128134904Y-59886247D01*
X128134904Y-59886247D02*
X128134904Y-60124342D01*
X128134904Y-60124342D02*
X128087285Y-60219580D01*
X128087285Y-60219580D02*
X128039666Y-60267200D01*
X128039666Y-60267200D02*
X127944428Y-60314819D01*
X127944428Y-60314819D02*
X127658714Y-60314819D01*
X127658714Y-60314819D02*
X127563476Y-60267200D01*
X127563476Y-60267200D02*
X127515857Y-60219580D01*
X165981142Y-90751819D02*
X165647809Y-90275628D01*
X165409714Y-90751819D02*
X165409714Y-89751819D01*
X165409714Y-89751819D02*
X165790666Y-89751819D01*
X165790666Y-89751819D02*
X165885904Y-89799438D01*
X165885904Y-89799438D02*
X165933523Y-89847057D01*
X165933523Y-89847057D02*
X165981142Y-89942295D01*
X165981142Y-89942295D02*
X165981142Y-90085152D01*
X165981142Y-90085152D02*
X165933523Y-90180390D01*
X165933523Y-90180390D02*
X165885904Y-90228009D01*
X165885904Y-90228009D02*
X165790666Y-90275628D01*
X165790666Y-90275628D02*
X165409714Y-90275628D01*
X166933523Y-90751819D02*
X166362095Y-90751819D01*
X166647809Y-90751819D02*
X166647809Y-89751819D01*
X166647809Y-89751819D02*
X166552571Y-89894676D01*
X166552571Y-89894676D02*
X166457333Y-89989914D01*
X166457333Y-89989914D02*
X166362095Y-90037533D01*
X167838285Y-89751819D02*
X167362095Y-89751819D01*
X167362095Y-89751819D02*
X167314476Y-90228009D01*
X167314476Y-90228009D02*
X167362095Y-90180390D01*
X167362095Y-90180390D02*
X167457333Y-90132771D01*
X167457333Y-90132771D02*
X167695428Y-90132771D01*
X167695428Y-90132771D02*
X167790666Y-90180390D01*
X167790666Y-90180390D02*
X167838285Y-90228009D01*
X167838285Y-90228009D02*
X167885904Y-90323247D01*
X167885904Y-90323247D02*
X167885904Y-90561342D01*
X167885904Y-90561342D02*
X167838285Y-90656580D01*
X167838285Y-90656580D02*
X167790666Y-90704200D01*
X167790666Y-90704200D02*
X167695428Y-90751819D01*
X167695428Y-90751819D02*
X167457333Y-90751819D01*
X167457333Y-90751819D02*
X167362095Y-90704200D01*
X167362095Y-90704200D02*
X167314476Y-90656580D01*
X152473819Y-142403857D02*
X151997628Y-142737190D01*
X152473819Y-142975285D02*
X151473819Y-142975285D01*
X151473819Y-142975285D02*
X151473819Y-142594333D01*
X151473819Y-142594333D02*
X151521438Y-142499095D01*
X151521438Y-142499095D02*
X151569057Y-142451476D01*
X151569057Y-142451476D02*
X151664295Y-142403857D01*
X151664295Y-142403857D02*
X151807152Y-142403857D01*
X151807152Y-142403857D02*
X151902390Y-142451476D01*
X151902390Y-142451476D02*
X151950009Y-142499095D01*
X151950009Y-142499095D02*
X151997628Y-142594333D01*
X151997628Y-142594333D02*
X151997628Y-142975285D01*
X151569057Y-142022904D02*
X151521438Y-141975285D01*
X151521438Y-141975285D02*
X151473819Y-141880047D01*
X151473819Y-141880047D02*
X151473819Y-141641952D01*
X151473819Y-141641952D02*
X151521438Y-141546714D01*
X151521438Y-141546714D02*
X151569057Y-141499095D01*
X151569057Y-141499095D02*
X151664295Y-141451476D01*
X151664295Y-141451476D02*
X151759533Y-141451476D01*
X151759533Y-141451476D02*
X151902390Y-141499095D01*
X151902390Y-141499095D02*
X152473819Y-142070523D01*
X152473819Y-142070523D02*
X152473819Y-141451476D01*
X151473819Y-140594333D02*
X151473819Y-140784809D01*
X151473819Y-140784809D02*
X151521438Y-140880047D01*
X151521438Y-140880047D02*
X151569057Y-140927666D01*
X151569057Y-140927666D02*
X151711914Y-141022904D01*
X151711914Y-141022904D02*
X151902390Y-141070523D01*
X151902390Y-141070523D02*
X152283342Y-141070523D01*
X152283342Y-141070523D02*
X152378580Y-141022904D01*
X152378580Y-141022904D02*
X152426200Y-140975285D01*
X152426200Y-140975285D02*
X152473819Y-140880047D01*
X152473819Y-140880047D02*
X152473819Y-140689571D01*
X152473819Y-140689571D02*
X152426200Y-140594333D01*
X152426200Y-140594333D02*
X152378580Y-140546714D01*
X152378580Y-140546714D02*
X152283342Y-140499095D01*
X152283342Y-140499095D02*
X152045247Y-140499095D01*
X152045247Y-140499095D02*
X151950009Y-140546714D01*
X151950009Y-140546714D02*
X151902390Y-140594333D01*
X151902390Y-140594333D02*
X151854771Y-140689571D01*
X151854771Y-140689571D02*
X151854771Y-140880047D01*
X151854771Y-140880047D02*
X151902390Y-140975285D01*
X151902390Y-140975285D02*
X151950009Y-141022904D01*
X151950009Y-141022904D02*
X152045247Y-141070523D01*
X150360142Y-90751819D02*
X150026809Y-90275628D01*
X149788714Y-90751819D02*
X149788714Y-89751819D01*
X149788714Y-89751819D02*
X150169666Y-89751819D01*
X150169666Y-89751819D02*
X150264904Y-89799438D01*
X150264904Y-89799438D02*
X150312523Y-89847057D01*
X150312523Y-89847057D02*
X150360142Y-89942295D01*
X150360142Y-89942295D02*
X150360142Y-90085152D01*
X150360142Y-90085152D02*
X150312523Y-90180390D01*
X150312523Y-90180390D02*
X150264904Y-90228009D01*
X150264904Y-90228009D02*
X150169666Y-90275628D01*
X150169666Y-90275628D02*
X149788714Y-90275628D01*
X151312523Y-90751819D02*
X150741095Y-90751819D01*
X151026809Y-90751819D02*
X151026809Y-89751819D01*
X151026809Y-89751819D02*
X150931571Y-89894676D01*
X150931571Y-89894676D02*
X150836333Y-89989914D01*
X150836333Y-89989914D02*
X150741095Y-90037533D01*
X151693476Y-89847057D02*
X151741095Y-89799438D01*
X151741095Y-89799438D02*
X151836333Y-89751819D01*
X151836333Y-89751819D02*
X152074428Y-89751819D01*
X152074428Y-89751819D02*
X152169666Y-89799438D01*
X152169666Y-89799438D02*
X152217285Y-89847057D01*
X152217285Y-89847057D02*
X152264904Y-89942295D01*
X152264904Y-89942295D02*
X152264904Y-90037533D01*
X152264904Y-90037533D02*
X152217285Y-90180390D01*
X152217285Y-90180390D02*
X151645857Y-90751819D01*
X151645857Y-90751819D02*
X152264904Y-90751819D01*
X155267819Y-60459857D02*
X154791628Y-60793190D01*
X155267819Y-61031285D02*
X154267819Y-61031285D01*
X154267819Y-61031285D02*
X154267819Y-60650333D01*
X154267819Y-60650333D02*
X154315438Y-60555095D01*
X154315438Y-60555095D02*
X154363057Y-60507476D01*
X154363057Y-60507476D02*
X154458295Y-60459857D01*
X154458295Y-60459857D02*
X154601152Y-60459857D01*
X154601152Y-60459857D02*
X154696390Y-60507476D01*
X154696390Y-60507476D02*
X154744009Y-60555095D01*
X154744009Y-60555095D02*
X154791628Y-60650333D01*
X154791628Y-60650333D02*
X154791628Y-61031285D01*
X154363057Y-60078904D02*
X154315438Y-60031285D01*
X154315438Y-60031285D02*
X154267819Y-59936047D01*
X154267819Y-59936047D02*
X154267819Y-59697952D01*
X154267819Y-59697952D02*
X154315438Y-59602714D01*
X154315438Y-59602714D02*
X154363057Y-59555095D01*
X154363057Y-59555095D02*
X154458295Y-59507476D01*
X154458295Y-59507476D02*
X154553533Y-59507476D01*
X154553533Y-59507476D02*
X154696390Y-59555095D01*
X154696390Y-59555095D02*
X155267819Y-60126523D01*
X155267819Y-60126523D02*
X155267819Y-59507476D01*
X154267819Y-58888428D02*
X154267819Y-58793190D01*
X154267819Y-58793190D02*
X154315438Y-58697952D01*
X154315438Y-58697952D02*
X154363057Y-58650333D01*
X154363057Y-58650333D02*
X154458295Y-58602714D01*
X154458295Y-58602714D02*
X154648771Y-58555095D01*
X154648771Y-58555095D02*
X154886866Y-58555095D01*
X154886866Y-58555095D02*
X155077342Y-58602714D01*
X155077342Y-58602714D02*
X155172580Y-58650333D01*
X155172580Y-58650333D02*
X155220200Y-58697952D01*
X155220200Y-58697952D02*
X155267819Y-58793190D01*
X155267819Y-58793190D02*
X155267819Y-58888428D01*
X155267819Y-58888428D02*
X155220200Y-58983666D01*
X155220200Y-58983666D02*
X155172580Y-59031285D01*
X155172580Y-59031285D02*
X155077342Y-59078904D01*
X155077342Y-59078904D02*
X154886866Y-59126523D01*
X154886866Y-59126523D02*
X154648771Y-59126523D01*
X154648771Y-59126523D02*
X154458295Y-59078904D01*
X154458295Y-59078904D02*
X154363057Y-59031285D01*
X154363057Y-59031285D02*
X154315438Y-58983666D01*
X154315438Y-58983666D02*
X154267819Y-58888428D01*
X161236819Y-60586857D02*
X160760628Y-60920190D01*
X161236819Y-61158285D02*
X160236819Y-61158285D01*
X160236819Y-61158285D02*
X160236819Y-60777333D01*
X160236819Y-60777333D02*
X160284438Y-60682095D01*
X160284438Y-60682095D02*
X160332057Y-60634476D01*
X160332057Y-60634476D02*
X160427295Y-60586857D01*
X160427295Y-60586857D02*
X160570152Y-60586857D01*
X160570152Y-60586857D02*
X160665390Y-60634476D01*
X160665390Y-60634476D02*
X160713009Y-60682095D01*
X160713009Y-60682095D02*
X160760628Y-60777333D01*
X160760628Y-60777333D02*
X160760628Y-61158285D01*
X160332057Y-60205904D02*
X160284438Y-60158285D01*
X160284438Y-60158285D02*
X160236819Y-60063047D01*
X160236819Y-60063047D02*
X160236819Y-59824952D01*
X160236819Y-59824952D02*
X160284438Y-59729714D01*
X160284438Y-59729714D02*
X160332057Y-59682095D01*
X160332057Y-59682095D02*
X160427295Y-59634476D01*
X160427295Y-59634476D02*
X160522533Y-59634476D01*
X160522533Y-59634476D02*
X160665390Y-59682095D01*
X160665390Y-59682095D02*
X161236819Y-60253523D01*
X161236819Y-60253523D02*
X161236819Y-59634476D01*
X160332057Y-59253523D02*
X160284438Y-59205904D01*
X160284438Y-59205904D02*
X160236819Y-59110666D01*
X160236819Y-59110666D02*
X160236819Y-58872571D01*
X160236819Y-58872571D02*
X160284438Y-58777333D01*
X160284438Y-58777333D02*
X160332057Y-58729714D01*
X160332057Y-58729714D02*
X160427295Y-58682095D01*
X160427295Y-58682095D02*
X160522533Y-58682095D01*
X160522533Y-58682095D02*
X160665390Y-58729714D01*
X160665390Y-58729714D02*
X161236819Y-59301142D01*
X161236819Y-59301142D02*
X161236819Y-58682095D01*
X164284819Y-60459857D02*
X163808628Y-60793190D01*
X164284819Y-61031285D02*
X163284819Y-61031285D01*
X163284819Y-61031285D02*
X163284819Y-60650333D01*
X163284819Y-60650333D02*
X163332438Y-60555095D01*
X163332438Y-60555095D02*
X163380057Y-60507476D01*
X163380057Y-60507476D02*
X163475295Y-60459857D01*
X163475295Y-60459857D02*
X163618152Y-60459857D01*
X163618152Y-60459857D02*
X163713390Y-60507476D01*
X163713390Y-60507476D02*
X163761009Y-60555095D01*
X163761009Y-60555095D02*
X163808628Y-60650333D01*
X163808628Y-60650333D02*
X163808628Y-61031285D01*
X163380057Y-60078904D02*
X163332438Y-60031285D01*
X163332438Y-60031285D02*
X163284819Y-59936047D01*
X163284819Y-59936047D02*
X163284819Y-59697952D01*
X163284819Y-59697952D02*
X163332438Y-59602714D01*
X163332438Y-59602714D02*
X163380057Y-59555095D01*
X163380057Y-59555095D02*
X163475295Y-59507476D01*
X163475295Y-59507476D02*
X163570533Y-59507476D01*
X163570533Y-59507476D02*
X163713390Y-59555095D01*
X163713390Y-59555095D02*
X164284819Y-60126523D01*
X164284819Y-60126523D02*
X164284819Y-59507476D01*
X163284819Y-59174142D02*
X163284819Y-58555095D01*
X163284819Y-58555095D02*
X163665771Y-58888428D01*
X163665771Y-58888428D02*
X163665771Y-58745571D01*
X163665771Y-58745571D02*
X163713390Y-58650333D01*
X163713390Y-58650333D02*
X163761009Y-58602714D01*
X163761009Y-58602714D02*
X163856247Y-58555095D01*
X163856247Y-58555095D02*
X164094342Y-58555095D01*
X164094342Y-58555095D02*
X164189580Y-58602714D01*
X164189580Y-58602714D02*
X164237200Y-58650333D01*
X164237200Y-58650333D02*
X164284819Y-58745571D01*
X164284819Y-58745571D02*
X164284819Y-59031285D01*
X164284819Y-59031285D02*
X164237200Y-59126523D01*
X164237200Y-59126523D02*
X164189580Y-59174142D01*
X164792819Y-142374857D02*
X164316628Y-142708190D01*
X164792819Y-142946285D02*
X163792819Y-142946285D01*
X163792819Y-142946285D02*
X163792819Y-142565333D01*
X163792819Y-142565333D02*
X163840438Y-142470095D01*
X163840438Y-142470095D02*
X163888057Y-142422476D01*
X163888057Y-142422476D02*
X163983295Y-142374857D01*
X163983295Y-142374857D02*
X164126152Y-142374857D01*
X164126152Y-142374857D02*
X164221390Y-142422476D01*
X164221390Y-142422476D02*
X164269009Y-142470095D01*
X164269009Y-142470095D02*
X164316628Y-142565333D01*
X164316628Y-142565333D02*
X164316628Y-142946285D01*
X163888057Y-141993904D02*
X163840438Y-141946285D01*
X163840438Y-141946285D02*
X163792819Y-141851047D01*
X163792819Y-141851047D02*
X163792819Y-141612952D01*
X163792819Y-141612952D02*
X163840438Y-141517714D01*
X163840438Y-141517714D02*
X163888057Y-141470095D01*
X163888057Y-141470095D02*
X163983295Y-141422476D01*
X163983295Y-141422476D02*
X164078533Y-141422476D01*
X164078533Y-141422476D02*
X164221390Y-141470095D01*
X164221390Y-141470095D02*
X164792819Y-142041523D01*
X164792819Y-142041523D02*
X164792819Y-141422476D01*
X164221390Y-140851047D02*
X164173771Y-140946285D01*
X164173771Y-140946285D02*
X164126152Y-140993904D01*
X164126152Y-140993904D02*
X164030914Y-141041523D01*
X164030914Y-141041523D02*
X163983295Y-141041523D01*
X163983295Y-141041523D02*
X163888057Y-140993904D01*
X163888057Y-140993904D02*
X163840438Y-140946285D01*
X163840438Y-140946285D02*
X163792819Y-140851047D01*
X163792819Y-140851047D02*
X163792819Y-140660571D01*
X163792819Y-140660571D02*
X163840438Y-140565333D01*
X163840438Y-140565333D02*
X163888057Y-140517714D01*
X163888057Y-140517714D02*
X163983295Y-140470095D01*
X163983295Y-140470095D02*
X164030914Y-140470095D01*
X164030914Y-140470095D02*
X164126152Y-140517714D01*
X164126152Y-140517714D02*
X164173771Y-140565333D01*
X164173771Y-140565333D02*
X164221390Y-140660571D01*
X164221390Y-140660571D02*
X164221390Y-140851047D01*
X164221390Y-140851047D02*
X164269009Y-140946285D01*
X164269009Y-140946285D02*
X164316628Y-140993904D01*
X164316628Y-140993904D02*
X164411866Y-141041523D01*
X164411866Y-141041523D02*
X164602342Y-141041523D01*
X164602342Y-141041523D02*
X164697580Y-140993904D01*
X164697580Y-140993904D02*
X164745200Y-140946285D01*
X164745200Y-140946285D02*
X164792819Y-140851047D01*
X164792819Y-140851047D02*
X164792819Y-140660571D01*
X164792819Y-140660571D02*
X164745200Y-140565333D01*
X164745200Y-140565333D02*
X164697580Y-140517714D01*
X164697580Y-140517714D02*
X164602342Y-140470095D01*
X164602342Y-140470095D02*
X164411866Y-140470095D01*
X164411866Y-140470095D02*
X164316628Y-140517714D01*
X164316628Y-140517714D02*
X164269009Y-140565333D01*
X164269009Y-140565333D02*
X164221390Y-140660571D01*
X155694142Y-111495819D02*
X155360809Y-111019628D01*
X155122714Y-111495819D02*
X155122714Y-110495819D01*
X155122714Y-110495819D02*
X155503666Y-110495819D01*
X155503666Y-110495819D02*
X155598904Y-110543438D01*
X155598904Y-110543438D02*
X155646523Y-110591057D01*
X155646523Y-110591057D02*
X155694142Y-110686295D01*
X155694142Y-110686295D02*
X155694142Y-110829152D01*
X155694142Y-110829152D02*
X155646523Y-110924390D01*
X155646523Y-110924390D02*
X155598904Y-110972009D01*
X155598904Y-110972009D02*
X155503666Y-111019628D01*
X155503666Y-111019628D02*
X155122714Y-111019628D01*
X156027476Y-110495819D02*
X156646523Y-110495819D01*
X156646523Y-110495819D02*
X156313190Y-110876771D01*
X156313190Y-110876771D02*
X156456047Y-110876771D01*
X156456047Y-110876771D02*
X156551285Y-110924390D01*
X156551285Y-110924390D02*
X156598904Y-110972009D01*
X156598904Y-110972009D02*
X156646523Y-111067247D01*
X156646523Y-111067247D02*
X156646523Y-111305342D01*
X156646523Y-111305342D02*
X156598904Y-111400580D01*
X156598904Y-111400580D02*
X156551285Y-111448200D01*
X156551285Y-111448200D02*
X156456047Y-111495819D01*
X156456047Y-111495819D02*
X156170333Y-111495819D01*
X156170333Y-111495819D02*
X156075095Y-111448200D01*
X156075095Y-111448200D02*
X156027476Y-111400580D01*
X156979857Y-110495819D02*
X157598904Y-110495819D01*
X157598904Y-110495819D02*
X157265571Y-110876771D01*
X157265571Y-110876771D02*
X157408428Y-110876771D01*
X157408428Y-110876771D02*
X157503666Y-110924390D01*
X157503666Y-110924390D02*
X157551285Y-110972009D01*
X157551285Y-110972009D02*
X157598904Y-111067247D01*
X157598904Y-111067247D02*
X157598904Y-111305342D01*
X157598904Y-111305342D02*
X157551285Y-111400580D01*
X157551285Y-111400580D02*
X157503666Y-111448200D01*
X157503666Y-111448200D02*
X157408428Y-111495819D01*
X157408428Y-111495819D02*
X157122714Y-111495819D01*
X157122714Y-111495819D02*
X157027476Y-111448200D01*
X157027476Y-111448200D02*
X156979857Y-111400580D01*
X175601333Y-128873580D02*
X175553714Y-128921200D01*
X175553714Y-128921200D02*
X175410857Y-128968819D01*
X175410857Y-128968819D02*
X175315619Y-128968819D01*
X175315619Y-128968819D02*
X175172762Y-128921200D01*
X175172762Y-128921200D02*
X175077524Y-128825961D01*
X175077524Y-128825961D02*
X175029905Y-128730723D01*
X175029905Y-128730723D02*
X174982286Y-128540247D01*
X174982286Y-128540247D02*
X174982286Y-128397390D01*
X174982286Y-128397390D02*
X175029905Y-128206914D01*
X175029905Y-128206914D02*
X175077524Y-128111676D01*
X175077524Y-128111676D02*
X175172762Y-128016438D01*
X175172762Y-128016438D02*
X175315619Y-127968819D01*
X175315619Y-127968819D02*
X175410857Y-127968819D01*
X175410857Y-127968819D02*
X175553714Y-128016438D01*
X175553714Y-128016438D02*
X175601333Y-128064057D01*
X175934667Y-127968819D02*
X176553714Y-127968819D01*
X176553714Y-127968819D02*
X176220381Y-128349771D01*
X176220381Y-128349771D02*
X176363238Y-128349771D01*
X176363238Y-128349771D02*
X176458476Y-128397390D01*
X176458476Y-128397390D02*
X176506095Y-128445009D01*
X176506095Y-128445009D02*
X176553714Y-128540247D01*
X176553714Y-128540247D02*
X176553714Y-128778342D01*
X176553714Y-128778342D02*
X176506095Y-128873580D01*
X176506095Y-128873580D02*
X176458476Y-128921200D01*
X176458476Y-128921200D02*
X176363238Y-128968819D01*
X176363238Y-128968819D02*
X176077524Y-128968819D01*
X176077524Y-128968819D02*
X175982286Y-128921200D01*
X175982286Y-128921200D02*
X175934667Y-128873580D01*
X150106142Y-119283819D02*
X149772809Y-118807628D01*
X149534714Y-119283819D02*
X149534714Y-118283819D01*
X149534714Y-118283819D02*
X149915666Y-118283819D01*
X149915666Y-118283819D02*
X150010904Y-118331438D01*
X150010904Y-118331438D02*
X150058523Y-118379057D01*
X150058523Y-118379057D02*
X150106142Y-118474295D01*
X150106142Y-118474295D02*
X150106142Y-118617152D01*
X150106142Y-118617152D02*
X150058523Y-118712390D01*
X150058523Y-118712390D02*
X150010904Y-118760009D01*
X150010904Y-118760009D02*
X149915666Y-118807628D01*
X149915666Y-118807628D02*
X149534714Y-118807628D01*
X150963285Y-118617152D02*
X150963285Y-119283819D01*
X150725190Y-118236200D02*
X150487095Y-118950485D01*
X150487095Y-118950485D02*
X151106142Y-118950485D01*
X151439476Y-118379057D02*
X151487095Y-118331438D01*
X151487095Y-118331438D02*
X151582333Y-118283819D01*
X151582333Y-118283819D02*
X151820428Y-118283819D01*
X151820428Y-118283819D02*
X151915666Y-118331438D01*
X151915666Y-118331438D02*
X151963285Y-118379057D01*
X151963285Y-118379057D02*
X152010904Y-118474295D01*
X152010904Y-118474295D02*
X152010904Y-118569533D01*
X152010904Y-118569533D02*
X151963285Y-118712390D01*
X151963285Y-118712390D02*
X151391857Y-119283819D01*
X151391857Y-119283819D02*
X152010904Y-119283819D01*
X167586819Y-142374857D02*
X167110628Y-142708190D01*
X167586819Y-142946285D02*
X166586819Y-142946285D01*
X166586819Y-142946285D02*
X166586819Y-142565333D01*
X166586819Y-142565333D02*
X166634438Y-142470095D01*
X166634438Y-142470095D02*
X166682057Y-142422476D01*
X166682057Y-142422476D02*
X166777295Y-142374857D01*
X166777295Y-142374857D02*
X166920152Y-142374857D01*
X166920152Y-142374857D02*
X167015390Y-142422476D01*
X167015390Y-142422476D02*
X167063009Y-142470095D01*
X167063009Y-142470095D02*
X167110628Y-142565333D01*
X167110628Y-142565333D02*
X167110628Y-142946285D01*
X166920152Y-141517714D02*
X167586819Y-141517714D01*
X166539200Y-141755809D02*
X167253485Y-141993904D01*
X167253485Y-141993904D02*
X167253485Y-141374857D01*
X166586819Y-141089142D02*
X166586819Y-140422476D01*
X166586819Y-140422476D02*
X167586819Y-140851047D01*
X171159142Y-111495819D02*
X170825809Y-111019628D01*
X170587714Y-111495819D02*
X170587714Y-110495819D01*
X170587714Y-110495819D02*
X170968666Y-110495819D01*
X170968666Y-110495819D02*
X171063904Y-110543438D01*
X171063904Y-110543438D02*
X171111523Y-110591057D01*
X171111523Y-110591057D02*
X171159142Y-110686295D01*
X171159142Y-110686295D02*
X171159142Y-110829152D01*
X171159142Y-110829152D02*
X171111523Y-110924390D01*
X171111523Y-110924390D02*
X171063904Y-110972009D01*
X171063904Y-110972009D02*
X170968666Y-111019628D01*
X170968666Y-111019628D02*
X170587714Y-111019628D01*
X171492476Y-110495819D02*
X172111523Y-110495819D01*
X172111523Y-110495819D02*
X171778190Y-110876771D01*
X171778190Y-110876771D02*
X171921047Y-110876771D01*
X171921047Y-110876771D02*
X172016285Y-110924390D01*
X172016285Y-110924390D02*
X172063904Y-110972009D01*
X172063904Y-110972009D02*
X172111523Y-111067247D01*
X172111523Y-111067247D02*
X172111523Y-111305342D01*
X172111523Y-111305342D02*
X172063904Y-111400580D01*
X172063904Y-111400580D02*
X172016285Y-111448200D01*
X172016285Y-111448200D02*
X171921047Y-111495819D01*
X171921047Y-111495819D02*
X171635333Y-111495819D01*
X171635333Y-111495819D02*
X171540095Y-111448200D01*
X171540095Y-111448200D02*
X171492476Y-111400580D01*
X172730571Y-110495819D02*
X172825809Y-110495819D01*
X172825809Y-110495819D02*
X172921047Y-110543438D01*
X172921047Y-110543438D02*
X172968666Y-110591057D01*
X172968666Y-110591057D02*
X173016285Y-110686295D01*
X173016285Y-110686295D02*
X173063904Y-110876771D01*
X173063904Y-110876771D02*
X173063904Y-111114866D01*
X173063904Y-111114866D02*
X173016285Y-111305342D01*
X173016285Y-111305342D02*
X172968666Y-111400580D01*
X172968666Y-111400580D02*
X172921047Y-111448200D01*
X172921047Y-111448200D02*
X172825809Y-111495819D01*
X172825809Y-111495819D02*
X172730571Y-111495819D01*
X172730571Y-111495819D02*
X172635333Y-111448200D01*
X172635333Y-111448200D02*
X172587714Y-111400580D01*
X172587714Y-111400580D02*
X172540095Y-111305342D01*
X172540095Y-111305342D02*
X172492476Y-111114866D01*
X172492476Y-111114866D02*
X172492476Y-110876771D01*
X172492476Y-110876771D02*
X172540095Y-110686295D01*
X172540095Y-110686295D02*
X172587714Y-110591057D01*
X172587714Y-110591057D02*
X172635333Y-110543438D01*
X172635333Y-110543438D02*
X172730571Y-110495819D01*
X149298819Y-142374857D02*
X148822628Y-142708190D01*
X149298819Y-142946285D02*
X148298819Y-142946285D01*
X148298819Y-142946285D02*
X148298819Y-142565333D01*
X148298819Y-142565333D02*
X148346438Y-142470095D01*
X148346438Y-142470095D02*
X148394057Y-142422476D01*
X148394057Y-142422476D02*
X148489295Y-142374857D01*
X148489295Y-142374857D02*
X148632152Y-142374857D01*
X148632152Y-142374857D02*
X148727390Y-142422476D01*
X148727390Y-142422476D02*
X148775009Y-142470095D01*
X148775009Y-142470095D02*
X148822628Y-142565333D01*
X148822628Y-142565333D02*
X148822628Y-142946285D01*
X148298819Y-141470095D02*
X148298819Y-141946285D01*
X148298819Y-141946285D02*
X148775009Y-141993904D01*
X148775009Y-141993904D02*
X148727390Y-141946285D01*
X148727390Y-141946285D02*
X148679771Y-141851047D01*
X148679771Y-141851047D02*
X148679771Y-141612952D01*
X148679771Y-141612952D02*
X148727390Y-141517714D01*
X148727390Y-141517714D02*
X148775009Y-141470095D01*
X148775009Y-141470095D02*
X148870247Y-141422476D01*
X148870247Y-141422476D02*
X149108342Y-141422476D01*
X149108342Y-141422476D02*
X149203580Y-141470095D01*
X149203580Y-141470095D02*
X149251200Y-141517714D01*
X149251200Y-141517714D02*
X149298819Y-141612952D01*
X149298819Y-141612952D02*
X149298819Y-141851047D01*
X149298819Y-141851047D02*
X149251200Y-141946285D01*
X149251200Y-141946285D02*
X149203580Y-141993904D01*
X148298819Y-140803428D02*
X148298819Y-140708190D01*
X148298819Y-140708190D02*
X148346438Y-140612952D01*
X148346438Y-140612952D02*
X148394057Y-140565333D01*
X148394057Y-140565333D02*
X148489295Y-140517714D01*
X148489295Y-140517714D02*
X148679771Y-140470095D01*
X148679771Y-140470095D02*
X148917866Y-140470095D01*
X148917866Y-140470095D02*
X149108342Y-140517714D01*
X149108342Y-140517714D02*
X149203580Y-140565333D01*
X149203580Y-140565333D02*
X149251200Y-140612952D01*
X149251200Y-140612952D02*
X149298819Y-140708190D01*
X149298819Y-140708190D02*
X149298819Y-140803428D01*
X149298819Y-140803428D02*
X149251200Y-140898666D01*
X149251200Y-140898666D02*
X149203580Y-140946285D01*
X149203580Y-140946285D02*
X149108342Y-140993904D01*
X149108342Y-140993904D02*
X148917866Y-141041523D01*
X148917866Y-141041523D02*
X148679771Y-141041523D01*
X148679771Y-141041523D02*
X148489295Y-140993904D01*
X148489295Y-140993904D02*
X148394057Y-140946285D01*
X148394057Y-140946285D02*
X148346438Y-140898666D01*
X148346438Y-140898666D02*
X148298819Y-140803428D01*
X152219819Y-60459857D02*
X151743628Y-60793190D01*
X152219819Y-61031285D02*
X151219819Y-61031285D01*
X151219819Y-61031285D02*
X151219819Y-60650333D01*
X151219819Y-60650333D02*
X151267438Y-60555095D01*
X151267438Y-60555095D02*
X151315057Y-60507476D01*
X151315057Y-60507476D02*
X151410295Y-60459857D01*
X151410295Y-60459857D02*
X151553152Y-60459857D01*
X151553152Y-60459857D02*
X151648390Y-60507476D01*
X151648390Y-60507476D02*
X151696009Y-60555095D01*
X151696009Y-60555095D02*
X151743628Y-60650333D01*
X151743628Y-60650333D02*
X151743628Y-61031285D01*
X152219819Y-59507476D02*
X152219819Y-60078904D01*
X152219819Y-59793190D02*
X151219819Y-59793190D01*
X151219819Y-59793190D02*
X151362676Y-59888428D01*
X151362676Y-59888428D02*
X151457914Y-59983666D01*
X151457914Y-59983666D02*
X151505533Y-60078904D01*
X152219819Y-59031285D02*
X152219819Y-58840809D01*
X152219819Y-58840809D02*
X152172200Y-58745571D01*
X152172200Y-58745571D02*
X152124580Y-58697952D01*
X152124580Y-58697952D02*
X151981723Y-58602714D01*
X151981723Y-58602714D02*
X151791247Y-58555095D01*
X151791247Y-58555095D02*
X151410295Y-58555095D01*
X151410295Y-58555095D02*
X151315057Y-58602714D01*
X151315057Y-58602714D02*
X151267438Y-58650333D01*
X151267438Y-58650333D02*
X151219819Y-58745571D01*
X151219819Y-58745571D02*
X151219819Y-58936047D01*
X151219819Y-58936047D02*
X151267438Y-59031285D01*
X151267438Y-59031285D02*
X151315057Y-59078904D01*
X151315057Y-59078904D02*
X151410295Y-59126523D01*
X151410295Y-59126523D02*
X151648390Y-59126523D01*
X151648390Y-59126523D02*
X151743628Y-59078904D01*
X151743628Y-59078904D02*
X151791247Y-59031285D01*
X151791247Y-59031285D02*
X151838866Y-58936047D01*
X151838866Y-58936047D02*
X151838866Y-58745571D01*
X151838866Y-58745571D02*
X151791247Y-58650333D01*
X151791247Y-58650333D02*
X151743628Y-58602714D01*
X151743628Y-58602714D02*
X151648390Y-58555095D01*
X160774142Y-90751819D02*
X160440809Y-90275628D01*
X160202714Y-90751819D02*
X160202714Y-89751819D01*
X160202714Y-89751819D02*
X160583666Y-89751819D01*
X160583666Y-89751819D02*
X160678904Y-89799438D01*
X160678904Y-89799438D02*
X160726523Y-89847057D01*
X160726523Y-89847057D02*
X160774142Y-89942295D01*
X160774142Y-89942295D02*
X160774142Y-90085152D01*
X160774142Y-90085152D02*
X160726523Y-90180390D01*
X160726523Y-90180390D02*
X160678904Y-90228009D01*
X160678904Y-90228009D02*
X160583666Y-90275628D01*
X160583666Y-90275628D02*
X160202714Y-90275628D01*
X161726523Y-90751819D02*
X161155095Y-90751819D01*
X161440809Y-90751819D02*
X161440809Y-89751819D01*
X161440809Y-89751819D02*
X161345571Y-89894676D01*
X161345571Y-89894676D02*
X161250333Y-89989914D01*
X161250333Y-89989914D02*
X161155095Y-90037533D01*
X162583666Y-90085152D02*
X162583666Y-90751819D01*
X162345571Y-89704200D02*
X162107476Y-90418485D01*
X162107476Y-90418485D02*
X162726523Y-90418485D01*
X172172333Y-82836819D02*
X171839000Y-82360628D01*
X171600905Y-82836819D02*
X171600905Y-81836819D01*
X171600905Y-81836819D02*
X171981857Y-81836819D01*
X171981857Y-81836819D02*
X172077095Y-81884438D01*
X172077095Y-81884438D02*
X172124714Y-81932057D01*
X172124714Y-81932057D02*
X172172333Y-82027295D01*
X172172333Y-82027295D02*
X172172333Y-82170152D01*
X172172333Y-82170152D02*
X172124714Y-82265390D01*
X172124714Y-82265390D02*
X172077095Y-82313009D01*
X172077095Y-82313009D02*
X171981857Y-82360628D01*
X171981857Y-82360628D02*
X171600905Y-82360628D01*
X172743762Y-82265390D02*
X172648524Y-82217771D01*
X172648524Y-82217771D02*
X172600905Y-82170152D01*
X172600905Y-82170152D02*
X172553286Y-82074914D01*
X172553286Y-82074914D02*
X172553286Y-82027295D01*
X172553286Y-82027295D02*
X172600905Y-81932057D01*
X172600905Y-81932057D02*
X172648524Y-81884438D01*
X172648524Y-81884438D02*
X172743762Y-81836819D01*
X172743762Y-81836819D02*
X172934238Y-81836819D01*
X172934238Y-81836819D02*
X173029476Y-81884438D01*
X173029476Y-81884438D02*
X173077095Y-81932057D01*
X173077095Y-81932057D02*
X173124714Y-82027295D01*
X173124714Y-82027295D02*
X173124714Y-82074914D01*
X173124714Y-82074914D02*
X173077095Y-82170152D01*
X173077095Y-82170152D02*
X173029476Y-82217771D01*
X173029476Y-82217771D02*
X172934238Y-82265390D01*
X172934238Y-82265390D02*
X172743762Y-82265390D01*
X172743762Y-82265390D02*
X172648524Y-82313009D01*
X172648524Y-82313009D02*
X172600905Y-82360628D01*
X172600905Y-82360628D02*
X172553286Y-82455866D01*
X172553286Y-82455866D02*
X172553286Y-82646342D01*
X172553286Y-82646342D02*
X172600905Y-82741580D01*
X172600905Y-82741580D02*
X172648524Y-82789200D01*
X172648524Y-82789200D02*
X172743762Y-82836819D01*
X172743762Y-82836819D02*
X172934238Y-82836819D01*
X172934238Y-82836819D02*
X173029476Y-82789200D01*
X173029476Y-82789200D02*
X173077095Y-82741580D01*
X173077095Y-82741580D02*
X173124714Y-82646342D01*
X173124714Y-82646342D02*
X173124714Y-82455866D01*
X173124714Y-82455866D02*
X173077095Y-82360628D01*
X173077095Y-82360628D02*
X173029476Y-82313009D01*
X173029476Y-82313009D02*
X172934238Y-82265390D01*
X140200142Y-111495819D02*
X139866809Y-111019628D01*
X139628714Y-111495819D02*
X139628714Y-110495819D01*
X139628714Y-110495819D02*
X140009666Y-110495819D01*
X140009666Y-110495819D02*
X140104904Y-110543438D01*
X140104904Y-110543438D02*
X140152523Y-110591057D01*
X140152523Y-110591057D02*
X140200142Y-110686295D01*
X140200142Y-110686295D02*
X140200142Y-110829152D01*
X140200142Y-110829152D02*
X140152523Y-110924390D01*
X140152523Y-110924390D02*
X140104904Y-110972009D01*
X140104904Y-110972009D02*
X140009666Y-111019628D01*
X140009666Y-111019628D02*
X139628714Y-111019628D01*
X140533476Y-110495819D02*
X141152523Y-110495819D01*
X141152523Y-110495819D02*
X140819190Y-110876771D01*
X140819190Y-110876771D02*
X140962047Y-110876771D01*
X140962047Y-110876771D02*
X141057285Y-110924390D01*
X141057285Y-110924390D02*
X141104904Y-110972009D01*
X141104904Y-110972009D02*
X141152523Y-111067247D01*
X141152523Y-111067247D02*
X141152523Y-111305342D01*
X141152523Y-111305342D02*
X141104904Y-111400580D01*
X141104904Y-111400580D02*
X141057285Y-111448200D01*
X141057285Y-111448200D02*
X140962047Y-111495819D01*
X140962047Y-111495819D02*
X140676333Y-111495819D01*
X140676333Y-111495819D02*
X140581095Y-111448200D01*
X140581095Y-111448200D02*
X140533476Y-111400580D01*
X142009666Y-110495819D02*
X141819190Y-110495819D01*
X141819190Y-110495819D02*
X141723952Y-110543438D01*
X141723952Y-110543438D02*
X141676333Y-110591057D01*
X141676333Y-110591057D02*
X141581095Y-110733914D01*
X141581095Y-110733914D02*
X141533476Y-110924390D01*
X141533476Y-110924390D02*
X141533476Y-111305342D01*
X141533476Y-111305342D02*
X141581095Y-111400580D01*
X141581095Y-111400580D02*
X141628714Y-111448200D01*
X141628714Y-111448200D02*
X141723952Y-111495819D01*
X141723952Y-111495819D02*
X141914428Y-111495819D01*
X141914428Y-111495819D02*
X142009666Y-111448200D01*
X142009666Y-111448200D02*
X142057285Y-111400580D01*
X142057285Y-111400580D02*
X142104904Y-111305342D01*
X142104904Y-111305342D02*
X142104904Y-111067247D01*
X142104904Y-111067247D02*
X142057285Y-110972009D01*
X142057285Y-110972009D02*
X142009666Y-110924390D01*
X142009666Y-110924390D02*
X141914428Y-110876771D01*
X141914428Y-110876771D02*
X141723952Y-110876771D01*
X141723952Y-110876771D02*
X141628714Y-110924390D01*
X141628714Y-110924390D02*
X141581095Y-110972009D01*
X141581095Y-110972009D02*
X141533476Y-111067247D01*
X170380819Y-60459857D02*
X169904628Y-60793190D01*
X170380819Y-61031285D02*
X169380819Y-61031285D01*
X169380819Y-61031285D02*
X169380819Y-60650333D01*
X169380819Y-60650333D02*
X169428438Y-60555095D01*
X169428438Y-60555095D02*
X169476057Y-60507476D01*
X169476057Y-60507476D02*
X169571295Y-60459857D01*
X169571295Y-60459857D02*
X169714152Y-60459857D01*
X169714152Y-60459857D02*
X169809390Y-60507476D01*
X169809390Y-60507476D02*
X169857009Y-60555095D01*
X169857009Y-60555095D02*
X169904628Y-60650333D01*
X169904628Y-60650333D02*
X169904628Y-61031285D01*
X169476057Y-60078904D02*
X169428438Y-60031285D01*
X169428438Y-60031285D02*
X169380819Y-59936047D01*
X169380819Y-59936047D02*
X169380819Y-59697952D01*
X169380819Y-59697952D02*
X169428438Y-59602714D01*
X169428438Y-59602714D02*
X169476057Y-59555095D01*
X169476057Y-59555095D02*
X169571295Y-59507476D01*
X169571295Y-59507476D02*
X169666533Y-59507476D01*
X169666533Y-59507476D02*
X169809390Y-59555095D01*
X169809390Y-59555095D02*
X170380819Y-60126523D01*
X170380819Y-60126523D02*
X170380819Y-59507476D01*
X169380819Y-58602714D02*
X169380819Y-59078904D01*
X169380819Y-59078904D02*
X169857009Y-59126523D01*
X169857009Y-59126523D02*
X169809390Y-59078904D01*
X169809390Y-59078904D02*
X169761771Y-58983666D01*
X169761771Y-58983666D02*
X169761771Y-58745571D01*
X169761771Y-58745571D02*
X169809390Y-58650333D01*
X169809390Y-58650333D02*
X169857009Y-58602714D01*
X169857009Y-58602714D02*
X169952247Y-58555095D01*
X169952247Y-58555095D02*
X170190342Y-58555095D01*
X170190342Y-58555095D02*
X170285580Y-58602714D01*
X170285580Y-58602714D02*
X170333200Y-58650333D01*
X170333200Y-58650333D02*
X170380819Y-58745571D01*
X170380819Y-58745571D02*
X170380819Y-58983666D01*
X170380819Y-58983666D02*
X170333200Y-59078904D01*
X170333200Y-59078904D02*
X170285580Y-59126523D01*
X161729333Y-82836819D02*
X161396000Y-82360628D01*
X161157905Y-82836819D02*
X161157905Y-81836819D01*
X161157905Y-81836819D02*
X161538857Y-81836819D01*
X161538857Y-81836819D02*
X161634095Y-81884438D01*
X161634095Y-81884438D02*
X161681714Y-81932057D01*
X161681714Y-81932057D02*
X161729333Y-82027295D01*
X161729333Y-82027295D02*
X161729333Y-82170152D01*
X161729333Y-82170152D02*
X161681714Y-82265390D01*
X161681714Y-82265390D02*
X161634095Y-82313009D01*
X161634095Y-82313009D02*
X161538857Y-82360628D01*
X161538857Y-82360628D02*
X161157905Y-82360628D01*
X162586476Y-81836819D02*
X162396000Y-81836819D01*
X162396000Y-81836819D02*
X162300762Y-81884438D01*
X162300762Y-81884438D02*
X162253143Y-81932057D01*
X162253143Y-81932057D02*
X162157905Y-82074914D01*
X162157905Y-82074914D02*
X162110286Y-82265390D01*
X162110286Y-82265390D02*
X162110286Y-82646342D01*
X162110286Y-82646342D02*
X162157905Y-82741580D01*
X162157905Y-82741580D02*
X162205524Y-82789200D01*
X162205524Y-82789200D02*
X162300762Y-82836819D01*
X162300762Y-82836819D02*
X162491238Y-82836819D01*
X162491238Y-82836819D02*
X162586476Y-82789200D01*
X162586476Y-82789200D02*
X162634095Y-82741580D01*
X162634095Y-82741580D02*
X162681714Y-82646342D01*
X162681714Y-82646342D02*
X162681714Y-82408247D01*
X162681714Y-82408247D02*
X162634095Y-82313009D01*
X162634095Y-82313009D02*
X162586476Y-82265390D01*
X162586476Y-82265390D02*
X162491238Y-82217771D01*
X162491238Y-82217771D02*
X162300762Y-82217771D01*
X162300762Y-82217771D02*
X162205524Y-82265390D01*
X162205524Y-82265390D02*
X162157905Y-82313009D01*
X162157905Y-82313009D02*
X162110286Y-82408247D01*
X151344333Y-82836819D02*
X151011000Y-82360628D01*
X150772905Y-82836819D02*
X150772905Y-81836819D01*
X150772905Y-81836819D02*
X151153857Y-81836819D01*
X151153857Y-81836819D02*
X151249095Y-81884438D01*
X151249095Y-81884438D02*
X151296714Y-81932057D01*
X151296714Y-81932057D02*
X151344333Y-82027295D01*
X151344333Y-82027295D02*
X151344333Y-82170152D01*
X151344333Y-82170152D02*
X151296714Y-82265390D01*
X151296714Y-82265390D02*
X151249095Y-82313009D01*
X151249095Y-82313009D02*
X151153857Y-82360628D01*
X151153857Y-82360628D02*
X150772905Y-82360628D01*
X152201476Y-82170152D02*
X152201476Y-82836819D01*
X151963381Y-81789200D02*
X151725286Y-82503485D01*
X151725286Y-82503485D02*
X152344333Y-82503485D01*
X146123819Y-142374857D02*
X145647628Y-142708190D01*
X146123819Y-142946285D02*
X145123819Y-142946285D01*
X145123819Y-142946285D02*
X145123819Y-142565333D01*
X145123819Y-142565333D02*
X145171438Y-142470095D01*
X145171438Y-142470095D02*
X145219057Y-142422476D01*
X145219057Y-142422476D02*
X145314295Y-142374857D01*
X145314295Y-142374857D02*
X145457152Y-142374857D01*
X145457152Y-142374857D02*
X145552390Y-142422476D01*
X145552390Y-142422476D02*
X145600009Y-142470095D01*
X145600009Y-142470095D02*
X145647628Y-142565333D01*
X145647628Y-142565333D02*
X145647628Y-142946285D01*
X145123819Y-141470095D02*
X145123819Y-141946285D01*
X145123819Y-141946285D02*
X145600009Y-141993904D01*
X145600009Y-141993904D02*
X145552390Y-141946285D01*
X145552390Y-141946285D02*
X145504771Y-141851047D01*
X145504771Y-141851047D02*
X145504771Y-141612952D01*
X145504771Y-141612952D02*
X145552390Y-141517714D01*
X145552390Y-141517714D02*
X145600009Y-141470095D01*
X145600009Y-141470095D02*
X145695247Y-141422476D01*
X145695247Y-141422476D02*
X145933342Y-141422476D01*
X145933342Y-141422476D02*
X146028580Y-141470095D01*
X146028580Y-141470095D02*
X146076200Y-141517714D01*
X146076200Y-141517714D02*
X146123819Y-141612952D01*
X146123819Y-141612952D02*
X146123819Y-141851047D01*
X146123819Y-141851047D02*
X146076200Y-141946285D01*
X146076200Y-141946285D02*
X146028580Y-141993904D01*
X146123819Y-140470095D02*
X146123819Y-141041523D01*
X146123819Y-140755809D02*
X145123819Y-140755809D01*
X145123819Y-140755809D02*
X145266676Y-140851047D01*
X145266676Y-140851047D02*
X145361914Y-140946285D01*
X145361914Y-140946285D02*
X145409533Y-141041523D01*
X160872142Y-111495819D02*
X160538809Y-111019628D01*
X160300714Y-111495819D02*
X160300714Y-110495819D01*
X160300714Y-110495819D02*
X160681666Y-110495819D01*
X160681666Y-110495819D02*
X160776904Y-110543438D01*
X160776904Y-110543438D02*
X160824523Y-110591057D01*
X160824523Y-110591057D02*
X160872142Y-110686295D01*
X160872142Y-110686295D02*
X160872142Y-110829152D01*
X160872142Y-110829152D02*
X160824523Y-110924390D01*
X160824523Y-110924390D02*
X160776904Y-110972009D01*
X160776904Y-110972009D02*
X160681666Y-111019628D01*
X160681666Y-111019628D02*
X160300714Y-111019628D01*
X161205476Y-110495819D02*
X161824523Y-110495819D01*
X161824523Y-110495819D02*
X161491190Y-110876771D01*
X161491190Y-110876771D02*
X161634047Y-110876771D01*
X161634047Y-110876771D02*
X161729285Y-110924390D01*
X161729285Y-110924390D02*
X161776904Y-110972009D01*
X161776904Y-110972009D02*
X161824523Y-111067247D01*
X161824523Y-111067247D02*
X161824523Y-111305342D01*
X161824523Y-111305342D02*
X161776904Y-111400580D01*
X161776904Y-111400580D02*
X161729285Y-111448200D01*
X161729285Y-111448200D02*
X161634047Y-111495819D01*
X161634047Y-111495819D02*
X161348333Y-111495819D01*
X161348333Y-111495819D02*
X161253095Y-111448200D01*
X161253095Y-111448200D02*
X161205476Y-111400580D01*
X162205476Y-110591057D02*
X162253095Y-110543438D01*
X162253095Y-110543438D02*
X162348333Y-110495819D01*
X162348333Y-110495819D02*
X162586428Y-110495819D01*
X162586428Y-110495819D02*
X162681666Y-110543438D01*
X162681666Y-110543438D02*
X162729285Y-110591057D01*
X162729285Y-110591057D02*
X162776904Y-110686295D01*
X162776904Y-110686295D02*
X162776904Y-110781533D01*
X162776904Y-110781533D02*
X162729285Y-110924390D01*
X162729285Y-110924390D02*
X162157857Y-111495819D01*
X162157857Y-111495819D02*
X162776904Y-111495819D01*
X175789142Y-119283819D02*
X175455809Y-118807628D01*
X175217714Y-119283819D02*
X175217714Y-118283819D01*
X175217714Y-118283819D02*
X175598666Y-118283819D01*
X175598666Y-118283819D02*
X175693904Y-118331438D01*
X175693904Y-118331438D02*
X175741523Y-118379057D01*
X175741523Y-118379057D02*
X175789142Y-118474295D01*
X175789142Y-118474295D02*
X175789142Y-118617152D01*
X175789142Y-118617152D02*
X175741523Y-118712390D01*
X175741523Y-118712390D02*
X175693904Y-118760009D01*
X175693904Y-118760009D02*
X175598666Y-118807628D01*
X175598666Y-118807628D02*
X175217714Y-118807628D01*
X176122476Y-118283819D02*
X176741523Y-118283819D01*
X176741523Y-118283819D02*
X176408190Y-118664771D01*
X176408190Y-118664771D02*
X176551047Y-118664771D01*
X176551047Y-118664771D02*
X176646285Y-118712390D01*
X176646285Y-118712390D02*
X176693904Y-118760009D01*
X176693904Y-118760009D02*
X176741523Y-118855247D01*
X176741523Y-118855247D02*
X176741523Y-119093342D01*
X176741523Y-119093342D02*
X176693904Y-119188580D01*
X176693904Y-119188580D02*
X176646285Y-119236200D01*
X176646285Y-119236200D02*
X176551047Y-119283819D01*
X176551047Y-119283819D02*
X176265333Y-119283819D01*
X176265333Y-119283819D02*
X176170095Y-119236200D01*
X176170095Y-119236200D02*
X176122476Y-119188580D01*
X177074857Y-118283819D02*
X177741523Y-118283819D01*
X177741523Y-118283819D02*
X177312952Y-119283819D01*
X170680142Y-119283819D02*
X170346809Y-118807628D01*
X170108714Y-119283819D02*
X170108714Y-118283819D01*
X170108714Y-118283819D02*
X170489666Y-118283819D01*
X170489666Y-118283819D02*
X170584904Y-118331438D01*
X170584904Y-118331438D02*
X170632523Y-118379057D01*
X170632523Y-118379057D02*
X170680142Y-118474295D01*
X170680142Y-118474295D02*
X170680142Y-118617152D01*
X170680142Y-118617152D02*
X170632523Y-118712390D01*
X170632523Y-118712390D02*
X170584904Y-118760009D01*
X170584904Y-118760009D02*
X170489666Y-118807628D01*
X170489666Y-118807628D02*
X170108714Y-118807628D01*
X171013476Y-118283819D02*
X171632523Y-118283819D01*
X171632523Y-118283819D02*
X171299190Y-118664771D01*
X171299190Y-118664771D02*
X171442047Y-118664771D01*
X171442047Y-118664771D02*
X171537285Y-118712390D01*
X171537285Y-118712390D02*
X171584904Y-118760009D01*
X171584904Y-118760009D02*
X171632523Y-118855247D01*
X171632523Y-118855247D02*
X171632523Y-119093342D01*
X171632523Y-119093342D02*
X171584904Y-119188580D01*
X171584904Y-119188580D02*
X171537285Y-119236200D01*
X171537285Y-119236200D02*
X171442047Y-119283819D01*
X171442047Y-119283819D02*
X171156333Y-119283819D01*
X171156333Y-119283819D02*
X171061095Y-119236200D01*
X171061095Y-119236200D02*
X171013476Y-119188580D01*
X172203952Y-118712390D02*
X172108714Y-118664771D01*
X172108714Y-118664771D02*
X172061095Y-118617152D01*
X172061095Y-118617152D02*
X172013476Y-118521914D01*
X172013476Y-118521914D02*
X172013476Y-118474295D01*
X172013476Y-118474295D02*
X172061095Y-118379057D01*
X172061095Y-118379057D02*
X172108714Y-118331438D01*
X172108714Y-118331438D02*
X172203952Y-118283819D01*
X172203952Y-118283819D02*
X172394428Y-118283819D01*
X172394428Y-118283819D02*
X172489666Y-118331438D01*
X172489666Y-118331438D02*
X172537285Y-118379057D01*
X172537285Y-118379057D02*
X172584904Y-118474295D01*
X172584904Y-118474295D02*
X172584904Y-118521914D01*
X172584904Y-118521914D02*
X172537285Y-118617152D01*
X172537285Y-118617152D02*
X172489666Y-118664771D01*
X172489666Y-118664771D02*
X172394428Y-118712390D01*
X172394428Y-118712390D02*
X172203952Y-118712390D01*
X172203952Y-118712390D02*
X172108714Y-118760009D01*
X172108714Y-118760009D02*
X172061095Y-118807628D01*
X172061095Y-118807628D02*
X172013476Y-118902866D01*
X172013476Y-118902866D02*
X172013476Y-119093342D01*
X172013476Y-119093342D02*
X172061095Y-119188580D01*
X172061095Y-119188580D02*
X172108714Y-119236200D01*
X172108714Y-119236200D02*
X172203952Y-119283819D01*
X172203952Y-119283819D02*
X172394428Y-119283819D01*
X172394428Y-119283819D02*
X172489666Y-119236200D01*
X172489666Y-119236200D02*
X172537285Y-119188580D01*
X172537285Y-119188580D02*
X172584904Y-119093342D01*
X172584904Y-119093342D02*
X172584904Y-118902866D01*
X172584904Y-118902866D02*
X172537285Y-118807628D01*
X172537285Y-118807628D02*
X172489666Y-118760009D01*
X172489666Y-118760009D02*
X172394428Y-118712390D01*
X177350333Y-82793819D02*
X177017000Y-82317628D01*
X176778905Y-82793819D02*
X176778905Y-81793819D01*
X176778905Y-81793819D02*
X177159857Y-81793819D01*
X177159857Y-81793819D02*
X177255095Y-81841438D01*
X177255095Y-81841438D02*
X177302714Y-81889057D01*
X177302714Y-81889057D02*
X177350333Y-81984295D01*
X177350333Y-81984295D02*
X177350333Y-82127152D01*
X177350333Y-82127152D02*
X177302714Y-82222390D01*
X177302714Y-82222390D02*
X177255095Y-82270009D01*
X177255095Y-82270009D02*
X177159857Y-82317628D01*
X177159857Y-82317628D02*
X176778905Y-82317628D01*
X177826524Y-82793819D02*
X178017000Y-82793819D01*
X178017000Y-82793819D02*
X178112238Y-82746200D01*
X178112238Y-82746200D02*
X178159857Y-82698580D01*
X178159857Y-82698580D02*
X178255095Y-82555723D01*
X178255095Y-82555723D02*
X178302714Y-82365247D01*
X178302714Y-82365247D02*
X178302714Y-81984295D01*
X178302714Y-81984295D02*
X178255095Y-81889057D01*
X178255095Y-81889057D02*
X178207476Y-81841438D01*
X178207476Y-81841438D02*
X178112238Y-81793819D01*
X178112238Y-81793819D02*
X177921762Y-81793819D01*
X177921762Y-81793819D02*
X177826524Y-81841438D01*
X177826524Y-81841438D02*
X177778905Y-81889057D01*
X177778905Y-81889057D02*
X177731286Y-81984295D01*
X177731286Y-81984295D02*
X177731286Y-82222390D01*
X177731286Y-82222390D02*
X177778905Y-82317628D01*
X177778905Y-82317628D02*
X177826524Y-82365247D01*
X177826524Y-82365247D02*
X177921762Y-82412866D01*
X177921762Y-82412866D02*
X178112238Y-82412866D01*
X178112238Y-82412866D02*
X178207476Y-82365247D01*
X178207476Y-82365247D02*
X178255095Y-82317628D01*
X178255095Y-82317628D02*
X178302714Y-82222390D01*
X139946142Y-90751819D02*
X139612809Y-90275628D01*
X139374714Y-90751819D02*
X139374714Y-89751819D01*
X139374714Y-89751819D02*
X139755666Y-89751819D01*
X139755666Y-89751819D02*
X139850904Y-89799438D01*
X139850904Y-89799438D02*
X139898523Y-89847057D01*
X139898523Y-89847057D02*
X139946142Y-89942295D01*
X139946142Y-89942295D02*
X139946142Y-90085152D01*
X139946142Y-90085152D02*
X139898523Y-90180390D01*
X139898523Y-90180390D02*
X139850904Y-90228009D01*
X139850904Y-90228009D02*
X139755666Y-90275628D01*
X139755666Y-90275628D02*
X139374714Y-90275628D01*
X140898523Y-90751819D02*
X140327095Y-90751819D01*
X140612809Y-90751819D02*
X140612809Y-89751819D01*
X140612809Y-89751819D02*
X140517571Y-89894676D01*
X140517571Y-89894676D02*
X140422333Y-89989914D01*
X140422333Y-89989914D02*
X140327095Y-90037533D01*
X141517571Y-89751819D02*
X141612809Y-89751819D01*
X141612809Y-89751819D02*
X141708047Y-89799438D01*
X141708047Y-89799438D02*
X141755666Y-89847057D01*
X141755666Y-89847057D02*
X141803285Y-89942295D01*
X141803285Y-89942295D02*
X141850904Y-90132771D01*
X141850904Y-90132771D02*
X141850904Y-90370866D01*
X141850904Y-90370866D02*
X141803285Y-90561342D01*
X141803285Y-90561342D02*
X141755666Y-90656580D01*
X141755666Y-90656580D02*
X141708047Y-90704200D01*
X141708047Y-90704200D02*
X141612809Y-90751819D01*
X141612809Y-90751819D02*
X141517571Y-90751819D01*
X141517571Y-90751819D02*
X141422333Y-90704200D01*
X141422333Y-90704200D02*
X141374714Y-90656580D01*
X141374714Y-90656580D02*
X141327095Y-90561342D01*
X141327095Y-90561342D02*
X141279476Y-90370866D01*
X141279476Y-90370866D02*
X141279476Y-90132771D01*
X141279476Y-90132771D02*
X141327095Y-89942295D01*
X141327095Y-89942295D02*
X141374714Y-89847057D01*
X141374714Y-89847057D02*
X141422333Y-89799438D01*
X141422333Y-89799438D02*
X141517571Y-89751819D01*
X126134905Y-54263819D02*
X126134905Y-53263819D01*
X126134905Y-53263819D02*
X126373000Y-53263819D01*
X126373000Y-53263819D02*
X126515857Y-53311438D01*
X126515857Y-53311438D02*
X126611095Y-53406676D01*
X126611095Y-53406676D02*
X126658714Y-53501914D01*
X126658714Y-53501914D02*
X126706333Y-53692390D01*
X126706333Y-53692390D02*
X126706333Y-53835247D01*
X126706333Y-53835247D02*
X126658714Y-54025723D01*
X126658714Y-54025723D02*
X126611095Y-54120961D01*
X126611095Y-54120961D02*
X126515857Y-54216200D01*
X126515857Y-54216200D02*
X126373000Y-54263819D01*
X126373000Y-54263819D02*
X126134905Y-54263819D01*
X127658714Y-54263819D02*
X127087286Y-54263819D01*
X127373000Y-54263819D02*
X127373000Y-53263819D01*
X127373000Y-53263819D02*
X127277762Y-53406676D01*
X127277762Y-53406676D02*
X127182524Y-53501914D01*
X127182524Y-53501914D02*
X127087286Y-53549533D01*
D12*
X156110000Y-87927000D02*
X156040000Y-87927000D01*
X158850000Y-87927000D02*
G75*
G02*
X156110000Y-87927000I-1370000J0D01*
G01*
X156110000Y-87927000D02*
G75*
G02*
X158850000Y-87927000I1370000J0D01*
G01*
X154940000Y-137993000D02*
X154940000Y-138063000D01*
X156310000Y-136623000D02*
G75*
G02*
X153570000Y-136623000I-1370000J0D01*
G01*
X153570000Y-136623000D02*
G75*
G02*
X156310000Y-136623000I1370000J0D01*
G01*
X173228000Y-137895000D02*
X173228000Y-137965000D01*
X174598000Y-136525000D02*
G75*
G02*
X171858000Y-136525000I-1370000J0D01*
G01*
X171858000Y-136525000D02*
G75*
G02*
X174598000Y-136525000I1370000J0D01*
G01*
X151230000Y-113411000D02*
X151300000Y-113411000D01*
X151230000Y-113411000D02*
G75*
G02*
X148490000Y-113411000I-1370000J0D01*
G01*
X148490000Y-113411000D02*
G75*
G02*
X151230000Y-113411000I1370000J0D01*
G01*
X142748000Y-138022000D02*
X142748000Y-138092000D01*
X144118000Y-136652000D02*
G75*
G02*
X141378000Y-136652000I-1370000J0D01*
G01*
X141378000Y-136652000D02*
G75*
G02*
X144118000Y-136652000I1370000J0D01*
G01*
D10*
X186594000Y-90161000D02*
X186594000Y-90161000D01*
X186694000Y-90161000D02*
X186694000Y-90161000D01*
D13*
X187149000Y-74791000D02*
X203049000Y-74791000D01*
X187149000Y-129291000D02*
X187149000Y-74791000D01*
X203049000Y-74791000D02*
X203049000Y-129291000D01*
X203049000Y-118541000D02*
X211649000Y-118541000D01*
X203049000Y-129291000D02*
X187149000Y-129291000D01*
X211649000Y-85541000D02*
X203049000Y-85541000D01*
X211649000Y-118541000D02*
X211649000Y-85541000D01*
D10*
X186594000Y-90161000D02*
G75*
G02*
X186694000Y-90161000I50000J0D01*
G01*
X186694000Y-90161000D02*
G75*
G02*
X186594000Y-90161000I-50000J0D01*
G01*
D12*
X157988000Y-137343000D02*
X157988000Y-137273000D01*
X159358000Y-138713000D02*
G75*
G02*
X156618000Y-138713000I-1370000J0D01*
G01*
X156618000Y-138713000D02*
G75*
G02*
X159358000Y-138713000I1370000J0D01*
G01*
X145442000Y-116459000D02*
X145372000Y-116459000D01*
X148182000Y-116459000D02*
G75*
G02*
X145442000Y-116459000I-1370000J0D01*
G01*
X145442000Y-116459000D02*
G75*
G02*
X148182000Y-116459000I1370000J0D01*
G01*
X146404000Y-84752000D02*
X146474000Y-84752000D01*
X146404000Y-84752000D02*
G75*
G02*
X143664000Y-84752000I-1370000J0D01*
G01*
X143664000Y-84752000D02*
G75*
G02*
X146404000Y-84752000I1370000J0D01*
G01*
X115026000Y-55406000D02*
X115026000Y-55562000D01*
X115026000Y-57722000D02*
X115026000Y-57878000D01*
X115026000Y-55406484D02*
G75*
G02*
X118257397Y-55561939I1560000J-1235516D01*
G01*
X115545039Y-55562000D02*
G75*
G02*
X117626910Y-55561951I1040961J-1080000D01*
G01*
X117626910Y-57722049D02*
G75*
G02*
X115545039Y-57722000I-1040910J1080049D01*
G01*
X118257397Y-57722061D02*
G75*
G02*
X115026000Y-57877516I-1671397J1080061D01*
G01*
X166074000Y-116459000D02*
X166004000Y-116459000D01*
X168814000Y-116459000D02*
G75*
G02*
X166074000Y-116459000I-1370000J0D01*
G01*
X166074000Y-116459000D02*
G75*
G02*
X168814000Y-116459000I1370000J0D01*
G01*
X138188000Y-69944000D02*
X138188000Y-69319000D01*
X138188000Y-72159000D02*
X138188000Y-71534000D01*
X142228000Y-69319000D02*
X138188000Y-69319000D01*
X142228000Y-69944000D02*
X142228000Y-69319000D01*
X142228000Y-72159000D02*
X138188000Y-72159000D01*
X142228000Y-72159000D02*
X142228000Y-71534000D01*
X177011000Y-113411000D02*
X177081000Y-113411000D01*
X177011000Y-113411000D02*
G75*
G02*
X174271000Y-113411000I-1370000J0D01*
G01*
X174271000Y-113411000D02*
G75*
G02*
X177011000Y-113411000I1370000J0D01*
G01*
X146371000Y-71518000D02*
X146371000Y-73168000D01*
X146371000Y-75168000D02*
X146371000Y-76818000D01*
X146371000Y-76818000D02*
X171891000Y-76818000D01*
X171891000Y-71518000D02*
X146371000Y-71518000D01*
X171891000Y-76818000D02*
X171891000Y-71518000D01*
X146371000Y-73168000D02*
G75*
G02*
X146371000Y-75168000I0J-1000000D01*
G01*
X155856000Y-116459000D02*
X155786000Y-116459000D01*
X158596000Y-116459000D02*
G75*
G02*
X155856000Y-116459000I-1370000J0D01*
G01*
X155856000Y-116459000D02*
G75*
G02*
X158596000Y-116459000I1370000J0D01*
G01*
X120242000Y-62230000D02*
X120312000Y-62230000D01*
X120242000Y-62230000D02*
G75*
G02*
X117502000Y-62230000I-1370000J0D01*
G01*
X117502000Y-62230000D02*
G75*
G02*
X120242000Y-62230000I1370000J0D01*
G01*
X140235000Y-116459000D02*
X140165000Y-116459000D01*
X142975000Y-116459000D02*
G75*
G02*
X140235000Y-116459000I-1370000J0D01*
G01*
X140235000Y-116459000D02*
G75*
G02*
X142975000Y-116459000I1370000J0D01*
G01*
X156818000Y-84752000D02*
X156888000Y-84752000D01*
X156818000Y-84752000D02*
G75*
G02*
X154078000Y-84752000I-1370000J0D01*
G01*
X154078000Y-84752000D02*
G75*
G02*
X156818000Y-84752000I1370000J0D01*
G01*
X170180000Y-137895000D02*
X170180000Y-137965000D01*
X171550000Y-136525000D02*
G75*
G02*
X168810000Y-136525000I-1370000J0D01*
G01*
X168810000Y-136525000D02*
G75*
G02*
X171550000Y-136525000I1370000J0D01*
G01*
X146121000Y-113411000D02*
X146191000Y-113411000D01*
X146121000Y-113411000D02*
G75*
G02*
X143381000Y-113411000I-1370000J0D01*
G01*
X143381000Y-113411000D02*
G75*
G02*
X146121000Y-113411000I1370000J0D01*
G01*
X141197000Y-84752000D02*
X141267000Y-84752000D01*
X141197000Y-84752000D02*
G75*
G02*
X138457000Y-84752000I-1370000J0D01*
G01*
X138457000Y-84752000D02*
G75*
G02*
X141197000Y-84752000I1370000J0D01*
G01*
X190477000Y-67068000D02*
X190477000Y-71108000D01*
X191102000Y-67068000D02*
X190477000Y-67068000D01*
X191102000Y-71108000D02*
X190477000Y-71108000D01*
X193317000Y-67068000D02*
X192692000Y-67068000D01*
X193317000Y-67068000D02*
X193317000Y-71108000D01*
X193317000Y-71108000D02*
X192692000Y-71108000D01*
X167203000Y-84752000D02*
X167273000Y-84752000D01*
X167203000Y-84752000D02*
G75*
G02*
X164463000Y-84752000I-1370000J0D01*
G01*
X164463000Y-84752000D02*
G75*
G02*
X167203000Y-84752000I1370000J0D01*
G01*
X161036000Y-137895000D02*
X161036000Y-137965000D01*
X162406000Y-136525000D02*
G75*
G02*
X159666000Y-136525000I-1370000J0D01*
G01*
X159666000Y-136525000D02*
G75*
G02*
X162406000Y-136525000I1370000J0D01*
G01*
X171731000Y-87927000D02*
X171661000Y-87927000D01*
X174471000Y-87927000D02*
G75*
G02*
X171731000Y-87927000I-1370000J0D01*
G01*
X171731000Y-87927000D02*
G75*
G02*
X174471000Y-87927000I1370000J0D01*
G01*
X166878000Y-63429000D02*
X166878000Y-63359000D01*
X168248000Y-64799000D02*
G75*
G02*
X165508000Y-64799000I-1370000J0D01*
G01*
X165508000Y-64799000D02*
G75*
G02*
X168248000Y-64799000I1370000J0D01*
G01*
X166724000Y-113411000D02*
X166794000Y-113411000D01*
X166724000Y-113411000D02*
G75*
G02*
X163984000Y-113411000I-1370000J0D01*
G01*
X163984000Y-113411000D02*
G75*
G02*
X166724000Y-113411000I1370000J0D01*
G01*
X145725000Y-87927000D02*
X145655000Y-87927000D01*
X148465000Y-87927000D02*
G75*
G02*
X145725000Y-87927000I-1370000J0D01*
G01*
X145725000Y-87927000D02*
G75*
G02*
X148465000Y-87927000I1370000J0D01*
G01*
X160965000Y-116459000D02*
X160895000Y-116459000D01*
X163705000Y-116459000D02*
G75*
G02*
X160965000Y-116459000I-1370000J0D01*
G01*
X160965000Y-116459000D02*
G75*
G02*
X163705000Y-116459000I1370000J0D01*
G01*
X196723000Y-69442000D02*
X196723000Y-69512000D01*
X198093000Y-68072000D02*
G75*
G02*
X195353000Y-68072000I-1370000J0D01*
G01*
X195353000Y-68072000D02*
G75*
G02*
X198093000Y-68072000I1370000J0D01*
G01*
X176938000Y-87884000D02*
X176868000Y-87884000D01*
X179678000Y-87884000D02*
G75*
G02*
X176938000Y-87884000I-1370000J0D01*
G01*
X176938000Y-87884000D02*
G75*
G02*
X179678000Y-87884000I1370000J0D01*
G01*
X148590000Y-63400000D02*
X148590000Y-63330000D01*
X149960000Y-64770000D02*
G75*
G02*
X147220000Y-64770000I-1370000J0D01*
G01*
X147220000Y-64770000D02*
G75*
G02*
X149960000Y-64770000I1370000J0D01*
G01*
X146117000Y-124604000D02*
X146117000Y-129904000D01*
X146117000Y-129904000D02*
X171637000Y-129904000D01*
X171637000Y-124604000D02*
X146117000Y-124604000D01*
X171637000Y-126254000D02*
X171637000Y-124604000D01*
X171637000Y-129904000D02*
X171637000Y-128254000D01*
X171637000Y-128254000D02*
G75*
G02*
X171637000Y-126254000I0J1000000D01*
G01*
X157734000Y-63429000D02*
X157734000Y-63359000D01*
X159104000Y-64799000D02*
G75*
G02*
X156364000Y-64799000I-1370000J0D01*
G01*
X156364000Y-64799000D02*
G75*
G02*
X159104000Y-64799000I1370000J0D01*
G01*
X126973000Y-62230000D02*
X127043000Y-62230000D01*
X126973000Y-62230000D02*
G75*
G02*
X124233000Y-62230000I-1370000J0D01*
G01*
X124233000Y-62230000D02*
G75*
G02*
X126973000Y-62230000I1370000J0D01*
G01*
X166524000Y-87927000D02*
X166454000Y-87927000D01*
X169264000Y-87927000D02*
G75*
G02*
X166524000Y-87927000I-1370000J0D01*
G01*
X166524000Y-87927000D02*
G75*
G02*
X169264000Y-87927000I1370000J0D01*
G01*
X151892000Y-137343000D02*
X151892000Y-137273000D01*
X153262000Y-138713000D02*
G75*
G02*
X150522000Y-138713000I-1370000J0D01*
G01*
X150522000Y-138713000D02*
G75*
G02*
X153262000Y-138713000I1370000J0D01*
G01*
X150903000Y-87927000D02*
X150833000Y-87927000D01*
X153643000Y-87927000D02*
G75*
G02*
X150903000Y-87927000I-1370000J0D01*
G01*
X150903000Y-87927000D02*
G75*
G02*
X153643000Y-87927000I1370000J0D01*
G01*
X154686000Y-63400000D02*
X154686000Y-63330000D01*
X156056000Y-64770000D02*
G75*
G02*
X153316000Y-64770000I-1370000J0D01*
G01*
X153316000Y-64770000D02*
G75*
G02*
X156056000Y-64770000I1370000J0D01*
G01*
X160782000Y-63429000D02*
X160782000Y-63359000D01*
X162152000Y-64799000D02*
G75*
G02*
X159412000Y-64799000I-1370000J0D01*
G01*
X159412000Y-64799000D02*
G75*
G02*
X162152000Y-64799000I1370000J0D01*
G01*
X163830000Y-63400000D02*
X163830000Y-63330000D01*
X165200000Y-64770000D02*
G75*
G02*
X162460000Y-64770000I-1370000J0D01*
G01*
X162460000Y-64770000D02*
G75*
G02*
X165200000Y-64770000I1370000J0D01*
G01*
X164084000Y-137314000D02*
X164084000Y-137244000D01*
X165454000Y-138684000D02*
G75*
G02*
X162714000Y-138684000I-1370000J0D01*
G01*
X162714000Y-138684000D02*
G75*
G02*
X165454000Y-138684000I1370000J0D01*
G01*
X156437000Y-113411000D02*
X156507000Y-113411000D01*
X156437000Y-113411000D02*
G75*
G02*
X153697000Y-113411000I-1370000J0D01*
G01*
X153697000Y-113411000D02*
G75*
G02*
X156437000Y-113411000I1370000J0D01*
G01*
X173748000Y-129644000D02*
X173748000Y-130269000D01*
X173748000Y-129644000D02*
X177788000Y-129644000D01*
X173748000Y-131859000D02*
X173748000Y-132484000D01*
X173748000Y-132484000D02*
X177788000Y-132484000D01*
X177788000Y-129644000D02*
X177788000Y-130269000D01*
X177788000Y-131859000D02*
X177788000Y-132484000D01*
X150649000Y-116459000D02*
X150579000Y-116459000D01*
X153389000Y-116459000D02*
G75*
G02*
X150649000Y-116459000I-1370000J0D01*
G01*
X150649000Y-116459000D02*
G75*
G02*
X153389000Y-116459000I1370000J0D01*
G01*
X167132000Y-137895000D02*
X167132000Y-137965000D01*
X168502000Y-136525000D02*
G75*
G02*
X165762000Y-136525000I-1370000J0D01*
G01*
X165762000Y-136525000D02*
G75*
G02*
X168502000Y-136525000I1370000J0D01*
G01*
X171902000Y-113411000D02*
X171972000Y-113411000D01*
X171902000Y-113411000D02*
G75*
G02*
X169162000Y-113411000I-1370000J0D01*
G01*
X169162000Y-113411000D02*
G75*
G02*
X171902000Y-113411000I1370000J0D01*
G01*
X148844000Y-138022000D02*
X148844000Y-138092000D01*
X150214000Y-136652000D02*
G75*
G02*
X147474000Y-136652000I-1370000J0D01*
G01*
X147474000Y-136652000D02*
G75*
G02*
X150214000Y-136652000I1370000J0D01*
G01*
X151638000Y-63400000D02*
X151638000Y-63330000D01*
X153008000Y-64770000D02*
G75*
G02*
X150268000Y-64770000I-1370000J0D01*
G01*
X150268000Y-64770000D02*
G75*
G02*
X153008000Y-64770000I1370000J0D01*
G01*
X161317000Y-87927000D02*
X161247000Y-87927000D01*
X164057000Y-87927000D02*
G75*
G02*
X161317000Y-87927000I-1370000J0D01*
G01*
X161317000Y-87927000D02*
G75*
G02*
X164057000Y-87927000I1370000J0D01*
G01*
X172439000Y-84752000D02*
X172509000Y-84752000D01*
X172439000Y-84752000D02*
G75*
G02*
X169699000Y-84752000I-1370000J0D01*
G01*
X169699000Y-84752000D02*
G75*
G02*
X172439000Y-84752000I1370000J0D01*
G01*
X140943000Y-113411000D02*
X141013000Y-113411000D01*
X140943000Y-113411000D02*
G75*
G02*
X138203000Y-113411000I-1370000J0D01*
G01*
X138203000Y-113411000D02*
G75*
G02*
X140943000Y-113411000I1370000J0D01*
G01*
X108271000Y-76013000D02*
X109601000Y-76013000D01*
X108271000Y-77343000D02*
X108271000Y-76013000D01*
X108271000Y-78613000D02*
X108271000Y-126933000D01*
X108271000Y-78613000D02*
X110871000Y-78613000D01*
X108271000Y-126933000D02*
X113471000Y-126933000D01*
X110871000Y-76013000D02*
X113471000Y-76013000D01*
X110871000Y-78613000D02*
X110871000Y-76013000D01*
X113471000Y-76013000D02*
X113471000Y-126933000D01*
X169926000Y-63400000D02*
X169926000Y-63330000D01*
X171296000Y-64770000D02*
G75*
G02*
X168556000Y-64770000I-1370000J0D01*
G01*
X168556000Y-64770000D02*
G75*
G02*
X171296000Y-64770000I1370000J0D01*
G01*
X161996000Y-84752000D02*
X162066000Y-84752000D01*
X161996000Y-84752000D02*
G75*
G02*
X159256000Y-84752000I-1370000J0D01*
G01*
X159256000Y-84752000D02*
G75*
G02*
X161996000Y-84752000I1370000J0D01*
G01*
X151611000Y-84752000D02*
X151681000Y-84752000D01*
X151611000Y-84752000D02*
G75*
G02*
X148871000Y-84752000I-1370000J0D01*
G01*
X148871000Y-84752000D02*
G75*
G02*
X151611000Y-84752000I1370000J0D01*
G01*
X145796000Y-138022000D02*
X145796000Y-138092000D01*
X147166000Y-136652000D02*
G75*
G02*
X144426000Y-136652000I-1370000J0D01*
G01*
X144426000Y-136652000D02*
G75*
G02*
X147166000Y-136652000I1370000J0D01*
G01*
X161615000Y-113411000D02*
X161685000Y-113411000D01*
X161615000Y-113411000D02*
G75*
G02*
X158875000Y-113411000I-1370000J0D01*
G01*
X158875000Y-113411000D02*
G75*
G02*
X161615000Y-113411000I1370000J0D01*
G01*
X176332000Y-116459000D02*
X176262000Y-116459000D01*
X179072000Y-116459000D02*
G75*
G02*
X176332000Y-116459000I-1370000J0D01*
G01*
X176332000Y-116459000D02*
G75*
G02*
X179072000Y-116459000I1370000J0D01*
G01*
X171223000Y-116459000D02*
X171153000Y-116459000D01*
X173963000Y-116459000D02*
G75*
G02*
X171223000Y-116459000I-1370000J0D01*
G01*
X171223000Y-116459000D02*
G75*
G02*
X173963000Y-116459000I1370000J0D01*
G01*
X177617000Y-84709000D02*
X177687000Y-84709000D01*
X177617000Y-84709000D02*
G75*
G02*
X174877000Y-84709000I-1370000J0D01*
G01*
X174877000Y-84709000D02*
G75*
G02*
X177617000Y-84709000I1370000J0D01*
G01*
X140489000Y-87927000D02*
X140419000Y-87927000D01*
X143229000Y-87927000D02*
G75*
G02*
X140489000Y-87927000I-1370000J0D01*
G01*
X140489000Y-87927000D02*
G75*
G02*
X143229000Y-87927000I1370000J0D01*
G01*
X125313000Y-55533000D02*
X125313000Y-55689000D01*
X125313000Y-57849000D02*
X125313000Y-58005000D01*
X125313000Y-55533484D02*
G75*
G02*
X128544397Y-55688939I1560000J-1235516D01*
G01*
X125832039Y-55689000D02*
G75*
G02*
X127913910Y-55688951I1040961J-1080000D01*
G01*
X127913910Y-57849049D02*
G75*
G02*
X125832039Y-57849000I-1040910J1080049D01*
G01*
X128544397Y-57849061D02*
G75*
G02*
X125313000Y-58004516I-1671397J1080061D01*
G01*
%LPC*%
D14*
X157480000Y-87927000D03*
D15*
X154940000Y-87927000D03*
D14*
X154940000Y-136623000D03*
D15*
X154940000Y-139163000D03*
D14*
X173228000Y-136525000D03*
D15*
X173228000Y-139065000D03*
D14*
X149860000Y-113411000D03*
D15*
X152400000Y-113411000D03*
D16*
X199644000Y-148844000D03*
D14*
X142748000Y-136652000D03*
D15*
X142748000Y-139192000D03*
D17*
X189004000Y-113921000D03*
D18*
X189004000Y-111761000D03*
X189004000Y-109601000D03*
X189004000Y-107441000D03*
X189004000Y-105281000D03*
X189004000Y-103121000D03*
X189004000Y-100961000D03*
X189004000Y-98801000D03*
X189004000Y-96641000D03*
X189004000Y-94481000D03*
X189004000Y-92321000D03*
X189004000Y-90161000D03*
X193294000Y-113921000D03*
X193294000Y-111761000D03*
X193294000Y-109601000D03*
X193294000Y-107441000D03*
X193294000Y-105281000D03*
X193294000Y-103121000D03*
X193294000Y-100961000D03*
X193294000Y-98801000D03*
X193294000Y-96641000D03*
X193294000Y-94481000D03*
X193294000Y-92321000D03*
X193294000Y-90161000D03*
D19*
X191149000Y-78646000D03*
X191149000Y-125436000D03*
D14*
X157988000Y-138713000D03*
D15*
X157988000Y-136173000D03*
D14*
X146812000Y-116459000D03*
D15*
X144272000Y-116459000D03*
D14*
X145034000Y-84752000D03*
D15*
X147574000Y-84752000D03*
D20*
X115316000Y-56642000D03*
D21*
X117856000Y-56642000D03*
D14*
X167444000Y-116459000D03*
D15*
X164904000Y-116459000D03*
D14*
X141458000Y-70739000D03*
X138958000Y-70739000D03*
X175641000Y-113411000D03*
D15*
X178181000Y-113411000D03*
D22*
X147701000Y-77978000D03*
D15*
X150241000Y-77978000D03*
X152781000Y-77978000D03*
X155321000Y-77978000D03*
X157861000Y-77978000D03*
X160401000Y-77978000D03*
X162941000Y-77978000D03*
X165481000Y-77978000D03*
X168021000Y-77978000D03*
X170561000Y-77978000D03*
X170561000Y-70358000D03*
X168021000Y-70358000D03*
X165481000Y-70358000D03*
X162941000Y-70358000D03*
X160401000Y-70358000D03*
X157861000Y-70358000D03*
X155321000Y-70358000D03*
X152781000Y-70358000D03*
X150241000Y-70358000D03*
X147701000Y-70358000D03*
D14*
X157226000Y-116459000D03*
D15*
X154686000Y-116459000D03*
D16*
X106807000Y-148844000D03*
D14*
X118872000Y-62230000D03*
D15*
X121412000Y-62230000D03*
D14*
X141605000Y-116459000D03*
D15*
X139065000Y-116459000D03*
D14*
X155448000Y-84752000D03*
D15*
X157988000Y-84752000D03*
D14*
X170180000Y-136525000D03*
D15*
X170180000Y-139065000D03*
D14*
X144751000Y-113411000D03*
D15*
X147291000Y-113411000D03*
D14*
X139827000Y-84752000D03*
D15*
X142367000Y-84752000D03*
D14*
X191897000Y-67838000D03*
X191897000Y-70338000D03*
X165833000Y-84752000D03*
D15*
X168373000Y-84752000D03*
D14*
X161036000Y-136525000D03*
D15*
X161036000Y-139065000D03*
D14*
X173101000Y-87927000D03*
D15*
X170561000Y-87927000D03*
D16*
X199644000Y-56007000D03*
D14*
X166878000Y-64799000D03*
D15*
X166878000Y-62259000D03*
D14*
X165354000Y-113411000D03*
D15*
X167894000Y-113411000D03*
D14*
X147095000Y-87927000D03*
D15*
X144555000Y-87927000D03*
D14*
X162335000Y-116459000D03*
D15*
X159795000Y-116459000D03*
D14*
X196723000Y-68072000D03*
D15*
X196723000Y-70612000D03*
D14*
X178308000Y-87884000D03*
D15*
X175768000Y-87884000D03*
D14*
X148590000Y-64770000D03*
D15*
X148590000Y-62230000D03*
D22*
X170307000Y-123444000D03*
D15*
X167767000Y-123444000D03*
X165227000Y-123444000D03*
X162687000Y-123444000D03*
X160147000Y-123444000D03*
X157607000Y-123444000D03*
X155067000Y-123444000D03*
X152527000Y-123444000D03*
X149987000Y-123444000D03*
X147447000Y-123444000D03*
X147447000Y-131064000D03*
X149987000Y-131064000D03*
X152527000Y-131064000D03*
X155067000Y-131064000D03*
X157607000Y-131064000D03*
X160147000Y-131064000D03*
X162687000Y-131064000D03*
X165227000Y-131064000D03*
X167767000Y-131064000D03*
X170307000Y-131064000D03*
D14*
X157734000Y-64799000D03*
D15*
X157734000Y-62259000D03*
D14*
X125603000Y-62230000D03*
D15*
X128143000Y-62230000D03*
D14*
X167894000Y-87927000D03*
D15*
X165354000Y-87927000D03*
D14*
X151892000Y-138713000D03*
D15*
X151892000Y-136173000D03*
D14*
X152273000Y-87927000D03*
D15*
X149733000Y-87927000D03*
D14*
X154686000Y-64770000D03*
D15*
X154686000Y-62230000D03*
D14*
X160782000Y-64799000D03*
D15*
X160782000Y-62259000D03*
D14*
X163830000Y-64770000D03*
D15*
X163830000Y-62230000D03*
D14*
X164084000Y-138684000D03*
D15*
X164084000Y-136144000D03*
D14*
X155067000Y-113411000D03*
D15*
X157607000Y-113411000D03*
D14*
X174518000Y-131064000D03*
X177018000Y-131064000D03*
X152019000Y-116459000D03*
D15*
X149479000Y-116459000D03*
D14*
X167132000Y-136525000D03*
D15*
X167132000Y-139065000D03*
D14*
X170532000Y-113411000D03*
D15*
X173072000Y-113411000D03*
D14*
X148844000Y-136652000D03*
D15*
X148844000Y-139192000D03*
D16*
X106807000Y-56007000D03*
D14*
X151638000Y-64770000D03*
D15*
X151638000Y-62230000D03*
D14*
X162687000Y-87927000D03*
D15*
X160147000Y-87927000D03*
D14*
X171069000Y-84752000D03*
D15*
X173609000Y-84752000D03*
D14*
X139573000Y-113411000D03*
D15*
X142113000Y-113411000D03*
D23*
X109601000Y-77343000D03*
D24*
X112141000Y-77343000D03*
X109601000Y-79883000D03*
X112141000Y-79883000D03*
X109601000Y-82423000D03*
X112141000Y-82423000D03*
X109601000Y-84963000D03*
X112141000Y-84963000D03*
X109601000Y-87503000D03*
X112141000Y-87503000D03*
X109601000Y-90043000D03*
X112141000Y-90043000D03*
X109601000Y-92583000D03*
X112141000Y-92583000D03*
X109601000Y-95123000D03*
X112141000Y-95123000D03*
X109601000Y-97663000D03*
X112141000Y-97663000D03*
X109601000Y-100203000D03*
X112141000Y-100203000D03*
X109601000Y-102743000D03*
X112141000Y-102743000D03*
X109601000Y-105283000D03*
X112141000Y-105283000D03*
X109601000Y-107823000D03*
X112141000Y-107823000D03*
X109601000Y-110363000D03*
X112141000Y-110363000D03*
X109601000Y-112903000D03*
X112141000Y-112903000D03*
X109601000Y-115443000D03*
X112141000Y-115443000D03*
X109601000Y-117983000D03*
X112141000Y-117983000D03*
X109601000Y-120523000D03*
X112141000Y-120523000D03*
X109601000Y-123063000D03*
X112141000Y-123063000D03*
X109601000Y-125603000D03*
X112141000Y-125603000D03*
D14*
X169926000Y-64770000D03*
D15*
X169926000Y-62230000D03*
D14*
X160626000Y-84752000D03*
D15*
X163166000Y-84752000D03*
D14*
X150241000Y-84752000D03*
D15*
X152781000Y-84752000D03*
D14*
X145796000Y-136652000D03*
D15*
X145796000Y-139192000D03*
D14*
X160245000Y-113411000D03*
D15*
X162785000Y-113411000D03*
D14*
X177702000Y-116459000D03*
D15*
X175162000Y-116459000D03*
D14*
X172593000Y-116459000D03*
D15*
X170053000Y-116459000D03*
D14*
X176247000Y-84709000D03*
D15*
X178787000Y-84709000D03*
D14*
X141859000Y-87927000D03*
D15*
X139319000Y-87927000D03*
D20*
X125603000Y-56769000D03*
D21*
X128143000Y-56769000D03*
%LPD*%
M02*
