%TF.GenerationSoftware,KiCad,Pcbnew,8.0.8*%
%TF.CreationDate,2025-02-01T04:41:03+02:00*%
%TF.ProjectId,my_raspi_gpib,6d795f72-6173-4706-995f-677069622e6b,rev?*%
%TF.SameCoordinates,Original*%
%TF.FileFunction,Drillmap*%
%TF.FilePolarity,Positive*%
%FSLAX45Y45*%
G04 Gerber Fmt 4.5, Leading zero omitted, Abs format (unit mm)*
G04 Created by KiCad (PCBNEW 8.0.8) date 2025-02-01 04:41:03*
%MOMM*%
%LPD*%
G01*
G04 APERTURE LIST*
%ADD10C,0.050000*%
%ADD11C,0.200000*%
%ADD12C,0.100000*%
%ADD13C,0.320000*%
G04 APERTURE END LIST*
D10*
X20320000Y-15240000D02*
X10325100Y-15240000D01*
X20320000Y-5245100D02*
X20320000Y-15240000D01*
X10325100Y-15240000D02*
X10325100Y-5245100D01*
X10325100Y-5245100D02*
X20320000Y-5245100D01*
D11*
D12*
X10415710Y-9753140D02*
X10445710Y-9783140D01*
X10445710Y-9753140D02*
X10415710Y-9783140D01*
X10513300Y-14361400D02*
X10543300Y-14391400D01*
X10543300Y-14361400D02*
X10513300Y-14391400D01*
X10526000Y-14082000D02*
X10556000Y-14112000D01*
X10556000Y-14082000D02*
X10526000Y-14112000D01*
X10538700Y-13091400D02*
X10568700Y-13121400D01*
X10568700Y-13091400D02*
X10538700Y-13121400D01*
X10538700Y-13408900D02*
X10568700Y-13438900D01*
X10568700Y-13408900D02*
X10538700Y-13438900D01*
X10538700Y-13751800D02*
X10568700Y-13781800D01*
X10568700Y-13751800D02*
X10538700Y-13781800D01*
X10576800Y-6169900D02*
X10606800Y-6199900D01*
X10606800Y-6169900D02*
X10576800Y-6199900D01*
X10589500Y-6716000D02*
X10619500Y-6746000D01*
X10619500Y-6716000D02*
X10589500Y-6746000D01*
X10617590Y-9850260D02*
X10647590Y-9880260D01*
X10647590Y-9850260D02*
X10617590Y-9880260D01*
X10665400Y-10053020D02*
X10695400Y-10083020D01*
X10695400Y-10053020D02*
X10665400Y-10083020D01*
X10681270Y-7621650D02*
X10711270Y-7651650D01*
X10711270Y-7621650D02*
X10681270Y-7651650D01*
X11110200Y-5547600D02*
X11140200Y-5577600D01*
X11140200Y-5547600D02*
X11110200Y-5577600D01*
X11148300Y-14996400D02*
X11178300Y-15026400D01*
X11178300Y-14996400D02*
X11148300Y-15026400D01*
X11376900Y-14996400D02*
X11406900Y-15026400D01*
X11406900Y-14996400D02*
X11376900Y-15026400D01*
X11530360Y-10767300D02*
X11560360Y-10797300D01*
X11560360Y-10767300D02*
X11530360Y-10797300D01*
X11618200Y-14996400D02*
X11648200Y-15026400D01*
X11648200Y-14996400D02*
X11618200Y-15026400D01*
X11892640Y-10238700D02*
X11922640Y-10268700D01*
X11922640Y-10238700D02*
X11892640Y-10268700D01*
X11897600Y-14996400D02*
X11927600Y-15026400D01*
X11927600Y-14996400D02*
X11897600Y-15026400D01*
X11910160Y-10066580D02*
X11940160Y-10096580D01*
X11940160Y-10066580D02*
X11910160Y-10096580D01*
X11951670Y-11302160D02*
X11981670Y-11332160D01*
X11981670Y-11302160D02*
X11951670Y-11332160D01*
X12202400Y-14996400D02*
X12232400Y-15026400D01*
X12232400Y-14996400D02*
X12202400Y-15026400D01*
X12253200Y-12367500D02*
X12283200Y-12397500D01*
X12283200Y-12367500D02*
X12253200Y-12397500D01*
X12278600Y-12939000D02*
X12308600Y-12969000D01*
X12308600Y-12939000D02*
X12278600Y-12969000D01*
X12456400Y-14996400D02*
X12486400Y-15026400D01*
X12486400Y-14996400D02*
X12456400Y-15026400D01*
X12621500Y-12697700D02*
X12651500Y-12727700D01*
X12651500Y-12697700D02*
X12621500Y-12727700D01*
X12773900Y-14996400D02*
X12803900Y-15026400D01*
X12803900Y-14996400D02*
X12773900Y-15026400D01*
X12951700Y-13002500D02*
X12981700Y-13032500D01*
X12981700Y-13002500D02*
X12951700Y-13032500D01*
X13066000Y-12405600D02*
X13096000Y-12435600D01*
X13096000Y-12405600D02*
X13066000Y-12435600D01*
X13129500Y-14996400D02*
X13159500Y-15026400D01*
X13159500Y-14996400D02*
X13129500Y-15026400D01*
X13281900Y-5547600D02*
X13311900Y-5577600D01*
X13311900Y-5547600D02*
X13281900Y-5577600D01*
X13470920Y-8900440D02*
X13500920Y-8930440D01*
X13500920Y-8900440D02*
X13470920Y-8930440D01*
X13535900Y-14996400D02*
X13565900Y-15026400D01*
X13565900Y-14996400D02*
X13535900Y-15026400D01*
X13829150Y-6894140D02*
X13859150Y-6924140D01*
X13859150Y-6894140D02*
X13829150Y-6924140D01*
X13878800Y-14996400D02*
X13908800Y-15026400D01*
X13908800Y-14996400D02*
X13878800Y-15026400D01*
X13891500Y-5547600D02*
X13921500Y-5577600D01*
X13921500Y-5547600D02*
X13891500Y-5577600D01*
X14272300Y-7719360D02*
X14302300Y-7749360D01*
X14302300Y-7719360D02*
X14272300Y-7749360D01*
X14475700Y-5560300D02*
X14505700Y-5590300D01*
X14505700Y-5560300D02*
X14475700Y-5590300D01*
X14477640Y-7706190D02*
X14507640Y-7736190D01*
X14507640Y-7706190D02*
X14477640Y-7736190D01*
X14556330Y-7361320D02*
X14586330Y-7391320D01*
X14586330Y-7361320D02*
X14556330Y-7391320D01*
X14571560Y-6055870D02*
X14601560Y-6085870D01*
X14601560Y-6055870D02*
X14571560Y-6085870D01*
X14724670Y-7335770D02*
X14754670Y-7365770D01*
X14754670Y-7335770D02*
X14724670Y-7365770D01*
X14782190Y-11154200D02*
X14812190Y-11184200D01*
X14812190Y-11154200D02*
X14782190Y-11184200D01*
X14890530Y-7365620D02*
X14920530Y-7395620D01*
X14920530Y-7365620D02*
X14890530Y-7395620D01*
X14932900Y-5560300D02*
X14962900Y-5590300D01*
X14962900Y-5560300D02*
X14932900Y-5590300D01*
X15013160Y-6737070D02*
X15043160Y-6767070D01*
X15043160Y-6737070D02*
X15013160Y-6767070D01*
X15076880Y-5768300D02*
X15106880Y-5798300D01*
X15106880Y-5768300D02*
X15076880Y-5798300D01*
X15479000Y-5547600D02*
X15509000Y-5577600D01*
X15509000Y-5547600D02*
X15479000Y-5577600D01*
X15749460Y-10337370D02*
X15779460Y-10367370D01*
X15779460Y-10337370D02*
X15749460Y-10367370D01*
X16025100Y-5560300D02*
X16055100Y-5590300D01*
X16055100Y-5560300D02*
X16025100Y-5590300D01*
X16081750Y-12713500D02*
X16111750Y-12743500D01*
X16111750Y-12713500D02*
X16081750Y-12743500D01*
X16444200Y-5547600D02*
X16474200Y-5577600D01*
X16474200Y-5547600D02*
X16444200Y-5577600D01*
X16723600Y-14958300D02*
X16753600Y-14988300D01*
X16753600Y-14958300D02*
X16723600Y-14988300D01*
X16767180Y-12817260D02*
X16797180Y-12847260D01*
X16797180Y-12817260D02*
X16767180Y-12847260D01*
X16964900Y-14958300D02*
X16994900Y-14988300D01*
X16994900Y-14958300D02*
X16964900Y-14988300D01*
X16996850Y-5876220D02*
X17026850Y-5906220D01*
X17026850Y-5876220D02*
X16996850Y-5906220D01*
X17104600Y-5573000D02*
X17134600Y-5603000D01*
X17134600Y-5573000D02*
X17104600Y-5603000D01*
X17222260Y-9491080D02*
X17252260Y-9521080D01*
X17252260Y-9491080D02*
X17222260Y-9521080D01*
X17244300Y-14958300D02*
X17274300Y-14988300D01*
X17274300Y-14958300D02*
X17244300Y-14988300D01*
X17321600Y-6386630D02*
X17351600Y-6416630D01*
X17351600Y-6386630D02*
X17321600Y-6416630D01*
X17365830Y-9992540D02*
X17395830Y-10022540D01*
X17395830Y-9992540D02*
X17365830Y-10022540D01*
X17468630Y-9801550D02*
X17498630Y-9831550D01*
X17498630Y-9801550D02*
X17468630Y-9831550D01*
X17612600Y-5560300D02*
X17642600Y-5590300D01*
X17642600Y-5560300D02*
X17612600Y-5590300D01*
X17612600Y-14958300D02*
X17642600Y-14988300D01*
X17642600Y-14958300D02*
X17612600Y-14988300D01*
X17917400Y-14958300D02*
X17947400Y-14988300D01*
X17947400Y-14958300D02*
X17917400Y-14988300D01*
X18095200Y-5560300D02*
X18125200Y-5590300D01*
X18125200Y-5560300D02*
X18095200Y-5590300D01*
X18138650Y-8638840D02*
X18168650Y-8668840D01*
X18168650Y-8638840D02*
X18138650Y-8668840D01*
X18142600Y-11296040D02*
X18172600Y-11326040D01*
X18172600Y-11296040D02*
X18142600Y-11326040D01*
X18222200Y-14958300D02*
X18252200Y-14988300D01*
X18252200Y-14958300D02*
X18222200Y-14988300D01*
X18345090Y-10004870D02*
X18375090Y-10034870D01*
X18375090Y-10004870D02*
X18345090Y-10034870D01*
X18488900Y-5547600D02*
X18518900Y-5577600D01*
X18518900Y-5547600D02*
X18488900Y-5577600D01*
X18527000Y-14958300D02*
X18557000Y-14988300D01*
X18557000Y-14958300D02*
X18527000Y-14988300D01*
X18806400Y-14971000D02*
X18836400Y-15001000D01*
X18836400Y-14971000D02*
X18806400Y-15001000D01*
X18869900Y-5547600D02*
X18899900Y-5577600D01*
X18899900Y-5547600D02*
X18869900Y-5577600D01*
X19123900Y-14971000D02*
X19153900Y-15001000D01*
X19153900Y-14971000D02*
X19123900Y-15001000D01*
X19301700Y-5547600D02*
X19331700Y-5577600D01*
X19331700Y-5547600D02*
X19301700Y-5577600D01*
X19441400Y-14983700D02*
X19471400Y-15013700D01*
X19471400Y-14983700D02*
X19441400Y-15013700D01*
X20012900Y-11973800D02*
X20042900Y-12003800D01*
X20042900Y-11973800D02*
X20012900Y-12003800D01*
X20025600Y-6144500D02*
X20055600Y-6174500D01*
X20055600Y-6144500D02*
X20025600Y-6174500D01*
X20025600Y-6512800D02*
X20055600Y-6542800D01*
X20055600Y-6512800D02*
X20025600Y-6542800D01*
X20025600Y-6881100D02*
X20055600Y-6911100D01*
X20055600Y-6881100D02*
X20025600Y-6911100D01*
X20025600Y-7224000D02*
X20055600Y-7254000D01*
X20055600Y-7224000D02*
X20025600Y-7254000D01*
X20025600Y-11326100D02*
X20055600Y-11356100D01*
X20055600Y-11326100D02*
X20025600Y-11356100D01*
X20025600Y-11618200D02*
X20055600Y-11648200D01*
X20055600Y-11618200D02*
X20025600Y-11648200D01*
X20025600Y-12354800D02*
X20055600Y-12384800D01*
X20055600Y-12354800D02*
X20025600Y-12384800D01*
X20025600Y-12685000D02*
X20055600Y-12715000D01*
X20055600Y-12685000D02*
X20025600Y-12715000D01*
X20038300Y-7592300D02*
X20068300Y-7622300D01*
X20068300Y-7592300D02*
X20038300Y-7622300D01*
X20038300Y-8201900D02*
X20068300Y-8231900D01*
X20068300Y-8201900D02*
X20038300Y-8231900D01*
X20038300Y-8519400D02*
X20068300Y-8549400D01*
X20068300Y-8519400D02*
X20038300Y-8549400D01*
X20038300Y-8849600D02*
X20068300Y-8879600D01*
X20068300Y-8849600D02*
X20038300Y-8879600D01*
X20038300Y-9167100D02*
X20068300Y-9197100D01*
X20068300Y-9167100D02*
X20038300Y-9197100D01*
X20038300Y-13053300D02*
X20068300Y-13083300D01*
X20068300Y-13053300D02*
X20038300Y-13083300D01*
X20038300Y-13320000D02*
X20068300Y-13350000D01*
X20068300Y-13320000D02*
X20038300Y-13350000D01*
X20038300Y-13650200D02*
X20068300Y-13680200D01*
X20068300Y-13650200D02*
X20038300Y-13680200D01*
X20038300Y-13980400D02*
X20068300Y-14010400D01*
X20068300Y-13980400D02*
X20038300Y-14010400D01*
X20051000Y-7935200D02*
X20081000Y-7965200D01*
X20081000Y-7935200D02*
X20051000Y-7965200D01*
X20051000Y-14310600D02*
X20081000Y-14340600D01*
X20081000Y-14310600D02*
X20051000Y-14340600D01*
X11927200Y-6223000D02*
G75*
G02*
X11847200Y-6223000I-40000J0D01*
G01*
X11847200Y-6223000D02*
G75*
G02*
X11927200Y-6223000I40000J0D01*
G01*
X12181200Y-6223000D02*
G75*
G02*
X12101200Y-6223000I-40000J0D01*
G01*
X12101200Y-6223000D02*
G75*
G02*
X12181200Y-6223000I40000J0D01*
G01*
X12600300Y-6223000D02*
G75*
G02*
X12520300Y-6223000I-40000J0D01*
G01*
X12520300Y-6223000D02*
G75*
G02*
X12600300Y-6223000I40000J0D01*
G01*
X12854300Y-6223000D02*
G75*
G02*
X12774300Y-6223000I-40000J0D01*
G01*
X12774300Y-6223000D02*
G75*
G02*
X12854300Y-6223000I40000J0D01*
G01*
X13935800Y-7073900D02*
G75*
G02*
X13855800Y-7073900I-40000J0D01*
G01*
X13855800Y-7073900D02*
G75*
G02*
X13935800Y-7073900I40000J0D01*
G01*
X13946500Y-11645900D02*
G75*
G02*
X13866500Y-11645900I-40000J0D01*
G01*
X13866500Y-11645900D02*
G75*
G02*
X13946500Y-11645900I40000J0D01*
G01*
X13971900Y-8792700D02*
G75*
G02*
X13891900Y-8792700I-40000J0D01*
G01*
X13891900Y-8792700D02*
G75*
G02*
X13971900Y-8792700I40000J0D01*
G01*
X13997300Y-11341100D02*
G75*
G02*
X13917300Y-11341100I-40000J0D01*
G01*
X13917300Y-11341100D02*
G75*
G02*
X13997300Y-11341100I40000J0D01*
G01*
X14022700Y-8475200D02*
G75*
G02*
X13942700Y-8475200I-40000J0D01*
G01*
X13942700Y-8475200D02*
G75*
G02*
X14022700Y-8475200I40000J0D01*
G01*
X14185800Y-7073900D02*
G75*
G02*
X14105800Y-7073900I-40000J0D01*
G01*
X14105800Y-7073900D02*
G75*
G02*
X14185800Y-7073900I40000J0D01*
G01*
X14200500Y-11645900D02*
G75*
G02*
X14120500Y-11645900I-40000J0D01*
G01*
X14120500Y-11645900D02*
G75*
G02*
X14200500Y-11645900I40000J0D01*
G01*
X14225900Y-8792700D02*
G75*
G02*
X14145900Y-8792700I-40000J0D01*
G01*
X14145900Y-8792700D02*
G75*
G02*
X14225900Y-8792700I40000J0D01*
G01*
X14251300Y-11341100D02*
G75*
G02*
X14171300Y-11341100I-40000J0D01*
G01*
X14171300Y-11341100D02*
G75*
G02*
X14251300Y-11341100I40000J0D01*
G01*
X14276700Y-8475200D02*
G75*
G02*
X14196700Y-8475200I-40000J0D01*
G01*
X14196700Y-8475200D02*
G75*
G02*
X14276700Y-8475200I40000J0D01*
G01*
X14314800Y-13665200D02*
G75*
G02*
X14234800Y-13665200I-40000J0D01*
G01*
X14234800Y-13665200D02*
G75*
G02*
X14314800Y-13665200I40000J0D01*
G01*
X14314800Y-13919200D02*
G75*
G02*
X14234800Y-13919200I-40000J0D01*
G01*
X14234800Y-13919200D02*
G75*
G02*
X14314800Y-13919200I40000J0D01*
G01*
X14467200Y-11645900D02*
G75*
G02*
X14387200Y-11645900I-40000J0D01*
G01*
X14387200Y-11645900D02*
G75*
G02*
X14467200Y-11645900I40000J0D01*
G01*
X14495500Y-8792700D02*
G75*
G02*
X14415500Y-8792700I-40000J0D01*
G01*
X14415500Y-8792700D02*
G75*
G02*
X14495500Y-8792700I40000J0D01*
G01*
X14515100Y-11341100D02*
G75*
G02*
X14435100Y-11341100I-40000J0D01*
G01*
X14435100Y-11341100D02*
G75*
G02*
X14515100Y-11341100I40000J0D01*
G01*
X14543400Y-8475200D02*
G75*
G02*
X14463400Y-8475200I-40000J0D01*
G01*
X14463400Y-8475200D02*
G75*
G02*
X14543400Y-8475200I40000J0D01*
G01*
X14619600Y-13665200D02*
G75*
G02*
X14539600Y-13665200I-40000J0D01*
G01*
X14539600Y-13665200D02*
G75*
G02*
X14619600Y-13665200I40000J0D01*
G01*
X14619600Y-13919200D02*
G75*
G02*
X14539600Y-13919200I-40000J0D01*
G01*
X14539600Y-13919200D02*
G75*
G02*
X14619600Y-13919200I40000J0D01*
G01*
X14721200Y-11645900D02*
G75*
G02*
X14641200Y-11645900I-40000J0D01*
G01*
X14641200Y-11645900D02*
G75*
G02*
X14721200Y-11645900I40000J0D01*
G01*
X14749500Y-8792700D02*
G75*
G02*
X14669500Y-8792700I-40000J0D01*
G01*
X14669500Y-8792700D02*
G75*
G02*
X14749500Y-8792700I40000J0D01*
G01*
X14769100Y-11341100D02*
G75*
G02*
X14689100Y-11341100I-40000J0D01*
G01*
X14689100Y-11341100D02*
G75*
G02*
X14769100Y-11341100I40000J0D01*
G01*
X14784700Y-12344400D02*
G75*
G02*
X14704700Y-12344400I-40000J0D01*
G01*
X14704700Y-12344400D02*
G75*
G02*
X14784700Y-12344400I40000J0D01*
G01*
X14784700Y-13106400D02*
G75*
G02*
X14704700Y-13106400I-40000J0D01*
G01*
X14704700Y-13106400D02*
G75*
G02*
X14784700Y-13106400I40000J0D01*
G01*
X14797400Y-8475200D02*
G75*
G02*
X14717400Y-8475200I-40000J0D01*
G01*
X14717400Y-8475200D02*
G75*
G02*
X14797400Y-8475200I40000J0D01*
G01*
X14810100Y-7035800D02*
G75*
G02*
X14730100Y-7035800I-40000J0D01*
G01*
X14730100Y-7035800D02*
G75*
G02*
X14810100Y-7035800I40000J0D01*
G01*
X14810100Y-7797800D02*
G75*
G02*
X14730100Y-7797800I-40000J0D01*
G01*
X14730100Y-7797800D02*
G75*
G02*
X14810100Y-7797800I40000J0D01*
G01*
X14899000Y-6223000D02*
G75*
G02*
X14819000Y-6223000I-40000J0D01*
G01*
X14819000Y-6223000D02*
G75*
G02*
X14899000Y-6223000I40000J0D01*
G01*
X14899000Y-6477000D02*
G75*
G02*
X14819000Y-6477000I-40000J0D01*
G01*
X14819000Y-6477000D02*
G75*
G02*
X14899000Y-6477000I40000J0D01*
G01*
X14924400Y-13665200D02*
G75*
G02*
X14844400Y-13665200I-40000J0D01*
G01*
X14844400Y-13665200D02*
G75*
G02*
X14924400Y-13665200I40000J0D01*
G01*
X14924400Y-13919200D02*
G75*
G02*
X14844400Y-13919200I-40000J0D01*
G01*
X14844400Y-13919200D02*
G75*
G02*
X14924400Y-13919200I40000J0D01*
G01*
X14987900Y-11645900D02*
G75*
G02*
X14907900Y-11645900I-40000J0D01*
G01*
X14907900Y-11645900D02*
G75*
G02*
X14987900Y-11645900I40000J0D01*
G01*
X15013300Y-8792700D02*
G75*
G02*
X14933300Y-8792700I-40000J0D01*
G01*
X14933300Y-8792700D02*
G75*
G02*
X15013300Y-8792700I40000J0D01*
G01*
X15026000Y-11341100D02*
G75*
G02*
X14946000Y-11341100I-40000J0D01*
G01*
X14946000Y-11341100D02*
G75*
G02*
X15026000Y-11341100I40000J0D01*
G01*
X15038700Y-12344400D02*
G75*
G02*
X14958700Y-12344400I-40000J0D01*
G01*
X14958700Y-12344400D02*
G75*
G02*
X15038700Y-12344400I40000J0D01*
G01*
X15038700Y-13106400D02*
G75*
G02*
X14958700Y-13106400I-40000J0D01*
G01*
X14958700Y-13106400D02*
G75*
G02*
X15038700Y-13106400I40000J0D01*
G01*
X15064100Y-7035800D02*
G75*
G02*
X14984100Y-7035800I-40000J0D01*
G01*
X14984100Y-7035800D02*
G75*
G02*
X15064100Y-7035800I40000J0D01*
G01*
X15064100Y-7797800D02*
G75*
G02*
X14984100Y-7797800I-40000J0D01*
G01*
X14984100Y-7797800D02*
G75*
G02*
X15064100Y-7797800I40000J0D01*
G01*
X15064100Y-8475200D02*
G75*
G02*
X14984100Y-8475200I-40000J0D01*
G01*
X14984100Y-8475200D02*
G75*
G02*
X15064100Y-8475200I40000J0D01*
G01*
X15203800Y-6223000D02*
G75*
G02*
X15123800Y-6223000I-40000J0D01*
G01*
X15123800Y-6223000D02*
G75*
G02*
X15203800Y-6223000I40000J0D01*
G01*
X15203800Y-6477000D02*
G75*
G02*
X15123800Y-6477000I-40000J0D01*
G01*
X15123800Y-6477000D02*
G75*
G02*
X15203800Y-6477000I40000J0D01*
G01*
X15229200Y-13617300D02*
G75*
G02*
X15149200Y-13617300I-40000J0D01*
G01*
X15149200Y-13617300D02*
G75*
G02*
X15229200Y-13617300I40000J0D01*
G01*
X15229200Y-13871300D02*
G75*
G02*
X15149200Y-13871300I-40000J0D01*
G01*
X15149200Y-13871300D02*
G75*
G02*
X15229200Y-13871300I40000J0D01*
G01*
X15241900Y-11645900D02*
G75*
G02*
X15161900Y-11645900I-40000J0D01*
G01*
X15161900Y-11645900D02*
G75*
G02*
X15241900Y-11645900I40000J0D01*
G01*
X15267300Y-8792700D02*
G75*
G02*
X15187300Y-8792700I-40000J0D01*
G01*
X15187300Y-8792700D02*
G75*
G02*
X15267300Y-8792700I40000J0D01*
G01*
X15280000Y-11341100D02*
G75*
G02*
X15200000Y-11341100I-40000J0D01*
G01*
X15200000Y-11341100D02*
G75*
G02*
X15280000Y-11341100I40000J0D01*
G01*
X15292700Y-12344400D02*
G75*
G02*
X15212700Y-12344400I-40000J0D01*
G01*
X15212700Y-12344400D02*
G75*
G02*
X15292700Y-12344400I40000J0D01*
G01*
X15292700Y-13106400D02*
G75*
G02*
X15212700Y-13106400I-40000J0D01*
G01*
X15212700Y-13106400D02*
G75*
G02*
X15292700Y-13106400I40000J0D01*
G01*
X15318100Y-7035800D02*
G75*
G02*
X15238100Y-7035800I-40000J0D01*
G01*
X15238100Y-7035800D02*
G75*
G02*
X15318100Y-7035800I40000J0D01*
G01*
X15318100Y-7797800D02*
G75*
G02*
X15238100Y-7797800I-40000J0D01*
G01*
X15238100Y-7797800D02*
G75*
G02*
X15318100Y-7797800I40000J0D01*
G01*
X15318100Y-8475200D02*
G75*
G02*
X15238100Y-8475200I-40000J0D01*
G01*
X15238100Y-8475200D02*
G75*
G02*
X15318100Y-8475200I40000J0D01*
G01*
X15508600Y-6223000D02*
G75*
G02*
X15428600Y-6223000I-40000J0D01*
G01*
X15428600Y-6223000D02*
G75*
G02*
X15508600Y-6223000I40000J0D01*
G01*
X15508600Y-6477000D02*
G75*
G02*
X15428600Y-6477000I-40000J0D01*
G01*
X15428600Y-6477000D02*
G75*
G02*
X15508600Y-6477000I40000J0D01*
G01*
X15508600Y-11645900D02*
G75*
G02*
X15428600Y-11645900I-40000J0D01*
G01*
X15428600Y-11645900D02*
G75*
G02*
X15508600Y-11645900I40000J0D01*
G01*
X15534000Y-8792700D02*
G75*
G02*
X15454000Y-8792700I-40000J0D01*
G01*
X15454000Y-8792700D02*
G75*
G02*
X15534000Y-8792700I40000J0D01*
G01*
X15534000Y-13662300D02*
G75*
G02*
X15454000Y-13662300I-40000J0D01*
G01*
X15454000Y-13662300D02*
G75*
G02*
X15534000Y-13662300I40000J0D01*
G01*
X15534000Y-13916300D02*
G75*
G02*
X15454000Y-13916300I-40000J0D01*
G01*
X15454000Y-13916300D02*
G75*
G02*
X15534000Y-13916300I40000J0D01*
G01*
X15546700Y-11341100D02*
G75*
G02*
X15466700Y-11341100I-40000J0D01*
G01*
X15466700Y-11341100D02*
G75*
G02*
X15546700Y-11341100I40000J0D01*
G01*
X15546700Y-12344400D02*
G75*
G02*
X15466700Y-12344400I-40000J0D01*
G01*
X15466700Y-12344400D02*
G75*
G02*
X15546700Y-12344400I40000J0D01*
G01*
X15546700Y-13106400D02*
G75*
G02*
X15466700Y-13106400I-40000J0D01*
G01*
X15466700Y-13106400D02*
G75*
G02*
X15546700Y-13106400I40000J0D01*
G01*
X15572100Y-7035800D02*
G75*
G02*
X15492100Y-7035800I-40000J0D01*
G01*
X15492100Y-7035800D02*
G75*
G02*
X15572100Y-7035800I40000J0D01*
G01*
X15572100Y-7797800D02*
G75*
G02*
X15492100Y-7797800I-40000J0D01*
G01*
X15492100Y-7797800D02*
G75*
G02*
X15572100Y-7797800I40000J0D01*
G01*
X15584800Y-8475200D02*
G75*
G02*
X15504800Y-8475200I-40000J0D01*
G01*
X15504800Y-8475200D02*
G75*
G02*
X15584800Y-8475200I40000J0D01*
G01*
X15762600Y-11645900D02*
G75*
G02*
X15682600Y-11645900I-40000J0D01*
G01*
X15682600Y-11645900D02*
G75*
G02*
X15762600Y-11645900I40000J0D01*
G01*
X15788000Y-8792700D02*
G75*
G02*
X15708000Y-8792700I-40000J0D01*
G01*
X15708000Y-8792700D02*
G75*
G02*
X15788000Y-8792700I40000J0D01*
G01*
X15800700Y-11341100D02*
G75*
G02*
X15720700Y-11341100I-40000J0D01*
G01*
X15720700Y-11341100D02*
G75*
G02*
X15800700Y-11341100I40000J0D01*
G01*
X15800700Y-12344400D02*
G75*
G02*
X15720700Y-12344400I-40000J0D01*
G01*
X15720700Y-12344400D02*
G75*
G02*
X15800700Y-12344400I40000J0D01*
G01*
X15800700Y-13106400D02*
G75*
G02*
X15720700Y-13106400I-40000J0D01*
G01*
X15720700Y-13106400D02*
G75*
G02*
X15800700Y-13106400I40000J0D01*
G01*
X15813400Y-6225900D02*
G75*
G02*
X15733400Y-6225900I-40000J0D01*
G01*
X15733400Y-6225900D02*
G75*
G02*
X15813400Y-6225900I40000J0D01*
G01*
X15813400Y-6479900D02*
G75*
G02*
X15733400Y-6479900I-40000J0D01*
G01*
X15733400Y-6479900D02*
G75*
G02*
X15813400Y-6479900I40000J0D01*
G01*
X15826100Y-7035800D02*
G75*
G02*
X15746100Y-7035800I-40000J0D01*
G01*
X15746100Y-7035800D02*
G75*
G02*
X15826100Y-7035800I40000J0D01*
G01*
X15826100Y-7797800D02*
G75*
G02*
X15746100Y-7797800I-40000J0D01*
G01*
X15746100Y-7797800D02*
G75*
G02*
X15826100Y-7797800I40000J0D01*
G01*
X15838800Y-8475200D02*
G75*
G02*
X15758800Y-8475200I-40000J0D01*
G01*
X15758800Y-8475200D02*
G75*
G02*
X15838800Y-8475200I40000J0D01*
G01*
X15838800Y-13617300D02*
G75*
G02*
X15758800Y-13617300I-40000J0D01*
G01*
X15758800Y-13617300D02*
G75*
G02*
X15838800Y-13617300I40000J0D01*
G01*
X15838800Y-13871300D02*
G75*
G02*
X15758800Y-13871300I-40000J0D01*
G01*
X15758800Y-13871300D02*
G75*
G02*
X15838800Y-13871300I40000J0D01*
G01*
X16019500Y-11645900D02*
G75*
G02*
X15939500Y-11645900I-40000J0D01*
G01*
X15939500Y-11645900D02*
G75*
G02*
X16019500Y-11645900I40000J0D01*
G01*
X16054700Y-8792700D02*
G75*
G02*
X15974700Y-8792700I-40000J0D01*
G01*
X15974700Y-8792700D02*
G75*
G02*
X16054700Y-8792700I40000J0D01*
G01*
X16054700Y-12344400D02*
G75*
G02*
X15974700Y-12344400I-40000J0D01*
G01*
X15974700Y-12344400D02*
G75*
G02*
X16054700Y-12344400I40000J0D01*
G01*
X16054700Y-13106400D02*
G75*
G02*
X15974700Y-13106400I-40000J0D01*
G01*
X15974700Y-13106400D02*
G75*
G02*
X16054700Y-13106400I40000J0D01*
G01*
X16064500Y-11341100D02*
G75*
G02*
X15984500Y-11341100I-40000J0D01*
G01*
X15984500Y-11341100D02*
G75*
G02*
X16064500Y-11341100I40000J0D01*
G01*
X16080100Y-7035800D02*
G75*
G02*
X16000100Y-7035800I-40000J0D01*
G01*
X16000100Y-7035800D02*
G75*
G02*
X16080100Y-7035800I40000J0D01*
G01*
X16080100Y-7797800D02*
G75*
G02*
X16000100Y-7797800I-40000J0D01*
G01*
X16000100Y-7797800D02*
G75*
G02*
X16080100Y-7797800I40000J0D01*
G01*
X16102600Y-8475200D02*
G75*
G02*
X16022600Y-8475200I-40000J0D01*
G01*
X16022600Y-8475200D02*
G75*
G02*
X16102600Y-8475200I40000J0D01*
G01*
X16118200Y-6225900D02*
G75*
G02*
X16038200Y-6225900I-40000J0D01*
G01*
X16038200Y-6225900D02*
G75*
G02*
X16118200Y-6225900I40000J0D01*
G01*
X16118200Y-6479900D02*
G75*
G02*
X16038200Y-6479900I-40000J0D01*
G01*
X16038200Y-6479900D02*
G75*
G02*
X16118200Y-6479900I40000J0D01*
G01*
X16143600Y-13652500D02*
G75*
G02*
X16063600Y-13652500I-40000J0D01*
G01*
X16063600Y-13652500D02*
G75*
G02*
X16143600Y-13652500I40000J0D01*
G01*
X16143600Y-13906500D02*
G75*
G02*
X16063600Y-13906500I-40000J0D01*
G01*
X16063600Y-13906500D02*
G75*
G02*
X16143600Y-13906500I40000J0D01*
G01*
X16273500Y-11645900D02*
G75*
G02*
X16193500Y-11645900I-40000J0D01*
G01*
X16193500Y-11645900D02*
G75*
G02*
X16273500Y-11645900I40000J0D01*
G01*
X16308700Y-8792700D02*
G75*
G02*
X16228700Y-8792700I-40000J0D01*
G01*
X16228700Y-8792700D02*
G75*
G02*
X16308700Y-8792700I40000J0D01*
G01*
X16308700Y-12344400D02*
G75*
G02*
X16228700Y-12344400I-40000J0D01*
G01*
X16228700Y-12344400D02*
G75*
G02*
X16308700Y-12344400I40000J0D01*
G01*
X16308700Y-13106400D02*
G75*
G02*
X16228700Y-13106400I-40000J0D01*
G01*
X16228700Y-13106400D02*
G75*
G02*
X16308700Y-13106400I40000J0D01*
G01*
X16318500Y-11341100D02*
G75*
G02*
X16238500Y-11341100I-40000J0D01*
G01*
X16238500Y-11341100D02*
G75*
G02*
X16318500Y-11341100I40000J0D01*
G01*
X16334100Y-7035800D02*
G75*
G02*
X16254100Y-7035800I-40000J0D01*
G01*
X16254100Y-7035800D02*
G75*
G02*
X16334100Y-7035800I40000J0D01*
G01*
X16334100Y-7797800D02*
G75*
G02*
X16254100Y-7797800I-40000J0D01*
G01*
X16254100Y-7797800D02*
G75*
G02*
X16334100Y-7797800I40000J0D01*
G01*
X16356600Y-8475200D02*
G75*
G02*
X16276600Y-8475200I-40000J0D01*
G01*
X16276600Y-8475200D02*
G75*
G02*
X16356600Y-8475200I40000J0D01*
G01*
X16423000Y-6223000D02*
G75*
G02*
X16343000Y-6223000I-40000J0D01*
G01*
X16343000Y-6223000D02*
G75*
G02*
X16423000Y-6223000I40000J0D01*
G01*
X16423000Y-6477000D02*
G75*
G02*
X16343000Y-6477000I-40000J0D01*
G01*
X16343000Y-6477000D02*
G75*
G02*
X16423000Y-6477000I40000J0D01*
G01*
X16448400Y-13614400D02*
G75*
G02*
X16368400Y-13614400I-40000J0D01*
G01*
X16368400Y-13614400D02*
G75*
G02*
X16448400Y-13614400I40000J0D01*
G01*
X16448400Y-13868400D02*
G75*
G02*
X16368400Y-13868400I-40000J0D01*
G01*
X16368400Y-13868400D02*
G75*
G02*
X16448400Y-13868400I40000J0D01*
G01*
X16530400Y-11645900D02*
G75*
G02*
X16450400Y-11645900I-40000J0D01*
G01*
X16450400Y-11645900D02*
G75*
G02*
X16530400Y-11645900I40000J0D01*
G01*
X16562700Y-12344400D02*
G75*
G02*
X16482700Y-12344400I-40000J0D01*
G01*
X16482700Y-12344400D02*
G75*
G02*
X16562700Y-12344400I40000J0D01*
G01*
X16562700Y-13106400D02*
G75*
G02*
X16482700Y-13106400I-40000J0D01*
G01*
X16482700Y-13106400D02*
G75*
G02*
X16562700Y-13106400I40000J0D01*
G01*
X16575400Y-8792700D02*
G75*
G02*
X16495400Y-8792700I-40000J0D01*
G01*
X16495400Y-8792700D02*
G75*
G02*
X16575400Y-8792700I40000J0D01*
G01*
X16575400Y-11341100D02*
G75*
G02*
X16495400Y-11341100I-40000J0D01*
G01*
X16495400Y-11341100D02*
G75*
G02*
X16575400Y-11341100I40000J0D01*
G01*
X16588100Y-7035800D02*
G75*
G02*
X16508100Y-7035800I-40000J0D01*
G01*
X16508100Y-7035800D02*
G75*
G02*
X16588100Y-7035800I40000J0D01*
G01*
X16588100Y-7797800D02*
G75*
G02*
X16508100Y-7797800I-40000J0D01*
G01*
X16508100Y-7797800D02*
G75*
G02*
X16588100Y-7797800I40000J0D01*
G01*
X16623300Y-8475200D02*
G75*
G02*
X16543300Y-8475200I-40000J0D01*
G01*
X16543300Y-8475200D02*
G75*
G02*
X16623300Y-8475200I40000J0D01*
G01*
X16727800Y-6225900D02*
G75*
G02*
X16647800Y-6225900I-40000J0D01*
G01*
X16647800Y-6225900D02*
G75*
G02*
X16727800Y-6225900I40000J0D01*
G01*
X16727800Y-6479900D02*
G75*
G02*
X16647800Y-6479900I-40000J0D01*
G01*
X16647800Y-6479900D02*
G75*
G02*
X16727800Y-6479900I40000J0D01*
G01*
X16753200Y-13652500D02*
G75*
G02*
X16673200Y-13652500I-40000J0D01*
G01*
X16673200Y-13652500D02*
G75*
G02*
X16753200Y-13652500I40000J0D01*
G01*
X16753200Y-13906500D02*
G75*
G02*
X16673200Y-13906500I-40000J0D01*
G01*
X16673200Y-13906500D02*
G75*
G02*
X16753200Y-13906500I40000J0D01*
G01*
X16784400Y-11645900D02*
G75*
G02*
X16704400Y-11645900I-40000J0D01*
G01*
X16704400Y-11645900D02*
G75*
G02*
X16784400Y-11645900I40000J0D01*
G01*
X16816700Y-12344400D02*
G75*
G02*
X16736700Y-12344400I-40000J0D01*
G01*
X16736700Y-12344400D02*
G75*
G02*
X16816700Y-12344400I40000J0D01*
G01*
X16816700Y-13106400D02*
G75*
G02*
X16736700Y-13106400I-40000J0D01*
G01*
X16736700Y-13106400D02*
G75*
G02*
X16816700Y-13106400I40000J0D01*
G01*
X16829400Y-8792700D02*
G75*
G02*
X16749400Y-8792700I-40000J0D01*
G01*
X16749400Y-8792700D02*
G75*
G02*
X16829400Y-8792700I40000J0D01*
G01*
X16829400Y-11341100D02*
G75*
G02*
X16749400Y-11341100I-40000J0D01*
G01*
X16749400Y-11341100D02*
G75*
G02*
X16829400Y-11341100I40000J0D01*
G01*
X16842100Y-7035800D02*
G75*
G02*
X16762100Y-7035800I-40000J0D01*
G01*
X16762100Y-7035800D02*
G75*
G02*
X16842100Y-7035800I40000J0D01*
G01*
X16842100Y-7797800D02*
G75*
G02*
X16762100Y-7797800I-40000J0D01*
G01*
X16762100Y-7797800D02*
G75*
G02*
X16842100Y-7797800I40000J0D01*
G01*
X16877300Y-8475200D02*
G75*
G02*
X16797300Y-8475200I-40000J0D01*
G01*
X16797300Y-8475200D02*
G75*
G02*
X16877300Y-8475200I40000J0D01*
G01*
X17032600Y-6223000D02*
G75*
G02*
X16952600Y-6223000I-40000J0D01*
G01*
X16952600Y-6223000D02*
G75*
G02*
X17032600Y-6223000I40000J0D01*
G01*
X17032600Y-6477000D02*
G75*
G02*
X16952600Y-6477000I-40000J0D01*
G01*
X16952600Y-6477000D02*
G75*
G02*
X17032600Y-6477000I40000J0D01*
G01*
X17045300Y-11645900D02*
G75*
G02*
X16965300Y-11645900I-40000J0D01*
G01*
X16965300Y-11645900D02*
G75*
G02*
X17045300Y-11645900I40000J0D01*
G01*
X17058000Y-13652500D02*
G75*
G02*
X16978000Y-13652500I-40000J0D01*
G01*
X16978000Y-13652500D02*
G75*
G02*
X17058000Y-13652500I40000J0D01*
G01*
X17058000Y-13906500D02*
G75*
G02*
X16978000Y-13906500I-40000J0D01*
G01*
X16978000Y-13906500D02*
G75*
G02*
X17058000Y-13906500I40000J0D01*
G01*
X17070700Y-12344400D02*
G75*
G02*
X16990700Y-12344400I-40000J0D01*
G01*
X16990700Y-12344400D02*
G75*
G02*
X17070700Y-12344400I40000J0D01*
G01*
X17070700Y-13106400D02*
G75*
G02*
X16990700Y-13106400I-40000J0D01*
G01*
X16990700Y-13106400D02*
G75*
G02*
X17070700Y-13106400I40000J0D01*
G01*
X17093200Y-11341100D02*
G75*
G02*
X17013200Y-11341100I-40000J0D01*
G01*
X17013200Y-11341100D02*
G75*
G02*
X17093200Y-11341100I40000J0D01*
G01*
X17096100Y-7035800D02*
G75*
G02*
X17016100Y-7035800I-40000J0D01*
G01*
X17016100Y-7035800D02*
G75*
G02*
X17096100Y-7035800I40000J0D01*
G01*
X17096100Y-7797800D02*
G75*
G02*
X17016100Y-7797800I-40000J0D01*
G01*
X17016100Y-7797800D02*
G75*
G02*
X17096100Y-7797800I40000J0D01*
G01*
X17096100Y-8792700D02*
G75*
G02*
X17016100Y-8792700I-40000J0D01*
G01*
X17016100Y-8792700D02*
G75*
G02*
X17096100Y-8792700I40000J0D01*
G01*
X17146900Y-8475200D02*
G75*
G02*
X17066900Y-8475200I-40000J0D01*
G01*
X17066900Y-8475200D02*
G75*
G02*
X17146900Y-8475200I40000J0D01*
G01*
X17299300Y-11645900D02*
G75*
G02*
X17219300Y-11645900I-40000J0D01*
G01*
X17219300Y-11645900D02*
G75*
G02*
X17299300Y-11645900I40000J0D01*
G01*
X17347200Y-11341100D02*
G75*
G02*
X17267200Y-11341100I-40000J0D01*
G01*
X17267200Y-11341100D02*
G75*
G02*
X17347200Y-11341100I40000J0D01*
G01*
X17350100Y-8792700D02*
G75*
G02*
X17270100Y-8792700I-40000J0D01*
G01*
X17270100Y-8792700D02*
G75*
G02*
X17350100Y-8792700I40000J0D01*
G01*
X17362800Y-13652500D02*
G75*
G02*
X17282800Y-13652500I-40000J0D01*
G01*
X17282800Y-13652500D02*
G75*
G02*
X17362800Y-13652500I40000J0D01*
G01*
X17362800Y-13906500D02*
G75*
G02*
X17282800Y-13906500I-40000J0D01*
G01*
X17282800Y-13906500D02*
G75*
G02*
X17362800Y-13906500I40000J0D01*
G01*
X17400900Y-8475200D02*
G75*
G02*
X17320900Y-8475200I-40000J0D01*
G01*
X17320900Y-8475200D02*
G75*
G02*
X17400900Y-8475200I40000J0D01*
G01*
X17491800Y-13106400D02*
G75*
G02*
X17411800Y-13106400I-40000J0D01*
G01*
X17411800Y-13106400D02*
G75*
G02*
X17491800Y-13106400I40000J0D01*
G01*
X17556200Y-11645900D02*
G75*
G02*
X17476200Y-11645900I-40000J0D01*
G01*
X17476200Y-11645900D02*
G75*
G02*
X17556200Y-11645900I40000J0D01*
G01*
X17604100Y-11341100D02*
G75*
G02*
X17524100Y-11341100I-40000J0D01*
G01*
X17524100Y-11341100D02*
G75*
G02*
X17604100Y-11341100I40000J0D01*
G01*
X17616800Y-8788400D02*
G75*
G02*
X17536800Y-8788400I-40000J0D01*
G01*
X17536800Y-8788400D02*
G75*
G02*
X17616800Y-8788400I40000J0D01*
G01*
X17664700Y-8470900D02*
G75*
G02*
X17584700Y-8470900I-40000J0D01*
G01*
X17584700Y-8470900D02*
G75*
G02*
X17664700Y-8470900I40000J0D01*
G01*
X17741800Y-13106400D02*
G75*
G02*
X17661800Y-13106400I-40000J0D01*
G01*
X17661800Y-13106400D02*
G75*
G02*
X17741800Y-13106400I40000J0D01*
G01*
X17810200Y-11645900D02*
G75*
G02*
X17730200Y-11645900I-40000J0D01*
G01*
X17730200Y-11645900D02*
G75*
G02*
X17810200Y-11645900I40000J0D01*
G01*
X17858100Y-11341100D02*
G75*
G02*
X17778100Y-11341100I-40000J0D01*
G01*
X17778100Y-11341100D02*
G75*
G02*
X17858100Y-11341100I40000J0D01*
G01*
X17870800Y-8788400D02*
G75*
G02*
X17790800Y-8788400I-40000J0D01*
G01*
X17790800Y-8788400D02*
G75*
G02*
X17870800Y-8788400I40000J0D01*
G01*
X17918700Y-8470900D02*
G75*
G02*
X17838700Y-8470900I-40000J0D01*
G01*
X17838700Y-8470900D02*
G75*
G02*
X17918700Y-8470900I40000J0D01*
G01*
X19229700Y-6783800D02*
G75*
G02*
X19149700Y-6783800I-40000J0D01*
G01*
X19149700Y-6783800D02*
G75*
G02*
X19229700Y-6783800I40000J0D01*
G01*
X19229700Y-7033800D02*
G75*
G02*
X19149700Y-7033800I-40000J0D01*
G01*
X19149700Y-7033800D02*
G75*
G02*
X19229700Y-7033800I40000J0D01*
G01*
X19712300Y-6807200D02*
G75*
G02*
X19632300Y-6807200I-40000J0D01*
G01*
X19632300Y-6807200D02*
G75*
G02*
X19712300Y-6807200I40000J0D01*
G01*
X19712300Y-7061200D02*
G75*
G02*
X19632300Y-7061200I-40000J0D01*
G01*
X19632300Y-7061200D02*
G75*
G02*
X19712300Y-7061200I40000J0D01*
G01*
X11531600Y-5619200D02*
X11531600Y-5709200D01*
X11486600Y-5664200D02*
X11576600Y-5664200D01*
X11785600Y-5619200D02*
X11785600Y-5709200D01*
X11740600Y-5664200D02*
X11830600Y-5664200D01*
X12560300Y-5631900D02*
X12560300Y-5721900D01*
X12515300Y-5676900D02*
X12605300Y-5676900D01*
X12814300Y-5631900D02*
X12814300Y-5721900D01*
X12769300Y-5676900D02*
X12859300Y-5676900D01*
X18900400Y-8971100D02*
X18900400Y-9061100D01*
X18855400Y-9016100D02*
X18945400Y-9016100D01*
X18900400Y-9187100D02*
X18900400Y-9277100D01*
X18855400Y-9232100D02*
X18945400Y-9232100D01*
X18900400Y-9403100D02*
X18900400Y-9493100D01*
X18855400Y-9448100D02*
X18945400Y-9448100D01*
X18900400Y-9619100D02*
X18900400Y-9709100D01*
X18855400Y-9664100D02*
X18945400Y-9664100D01*
X18900400Y-9835100D02*
X18900400Y-9925100D01*
X18855400Y-9880100D02*
X18945400Y-9880100D01*
X18900400Y-10051100D02*
X18900400Y-10141100D01*
X18855400Y-10096100D02*
X18945400Y-10096100D01*
X18900400Y-10267100D02*
X18900400Y-10357100D01*
X18855400Y-10312100D02*
X18945400Y-10312100D01*
X18900400Y-10483100D02*
X18900400Y-10573100D01*
X18855400Y-10528100D02*
X18945400Y-10528100D01*
X18900400Y-10699100D02*
X18900400Y-10789100D01*
X18855400Y-10744100D02*
X18945400Y-10744100D01*
X18900400Y-10915100D02*
X18900400Y-11005100D01*
X18855400Y-10960100D02*
X18945400Y-10960100D01*
X18900400Y-11131100D02*
X18900400Y-11221100D01*
X18855400Y-11176100D02*
X18945400Y-11176100D01*
X18900400Y-11347100D02*
X18900400Y-11437100D01*
X18855400Y-11392100D02*
X18945400Y-11392100D01*
X19329400Y-8971100D02*
X19329400Y-9061100D01*
X19284400Y-9016100D02*
X19374400Y-9016100D01*
X19329400Y-9187100D02*
X19329400Y-9277100D01*
X19284400Y-9232100D02*
X19374400Y-9232100D01*
X19329400Y-9403100D02*
X19329400Y-9493100D01*
X19284400Y-9448100D02*
X19374400Y-9448100D01*
X19329400Y-9619100D02*
X19329400Y-9709100D01*
X19284400Y-9664100D02*
X19374400Y-9664100D01*
X19329400Y-9835100D02*
X19329400Y-9925100D01*
X19284400Y-9880100D02*
X19374400Y-9880100D01*
X19329400Y-10051100D02*
X19329400Y-10141100D01*
X19284400Y-10096100D02*
X19374400Y-10096100D01*
X19329400Y-10267100D02*
X19329400Y-10357100D01*
X19284400Y-10312100D02*
X19374400Y-10312100D01*
X19329400Y-10483100D02*
X19329400Y-10573100D01*
X19284400Y-10528100D02*
X19374400Y-10528100D01*
X19329400Y-10699100D02*
X19329400Y-10789100D01*
X19284400Y-10744100D02*
X19374400Y-10744100D01*
X19329400Y-10915100D02*
X19329400Y-11005100D01*
X19284400Y-10960100D02*
X19374400Y-10960100D01*
X19329400Y-11131100D02*
X19329400Y-11221100D01*
X19284400Y-11176100D02*
X19374400Y-11176100D01*
X19329400Y-11347100D02*
X19329400Y-11437100D01*
X19284400Y-11392100D02*
X19374400Y-11392100D01*
X10995456Y-7769656D02*
X10995456Y-7698944D01*
X10924744Y-7698944D01*
X10924744Y-7769656D01*
X10995456Y-7769656D01*
X10995456Y-8023656D02*
X10995456Y-7952944D01*
X10924744Y-7952944D01*
X10924744Y-8023656D01*
X10995456Y-8023656D01*
X10995456Y-8277656D02*
X10995456Y-8206944D01*
X10924744Y-8206944D01*
X10924744Y-8277656D01*
X10995456Y-8277656D01*
X10995456Y-8531656D02*
X10995456Y-8460944D01*
X10924744Y-8460944D01*
X10924744Y-8531656D01*
X10995456Y-8531656D01*
X10995456Y-8785656D02*
X10995456Y-8714944D01*
X10924744Y-8714944D01*
X10924744Y-8785656D01*
X10995456Y-8785656D01*
X10995456Y-9039656D02*
X10995456Y-8968944D01*
X10924744Y-8968944D01*
X10924744Y-9039656D01*
X10995456Y-9039656D01*
X10995456Y-9293656D02*
X10995456Y-9222944D01*
X10924744Y-9222944D01*
X10924744Y-9293656D01*
X10995456Y-9293656D01*
X10995456Y-9547656D02*
X10995456Y-9476944D01*
X10924744Y-9476944D01*
X10924744Y-9547656D01*
X10995456Y-9547656D01*
X10995456Y-9801656D02*
X10995456Y-9730944D01*
X10924744Y-9730944D01*
X10924744Y-9801656D01*
X10995456Y-9801656D01*
X10995456Y-10055656D02*
X10995456Y-9984944D01*
X10924744Y-9984944D01*
X10924744Y-10055656D01*
X10995456Y-10055656D01*
X10995456Y-10309656D02*
X10995456Y-10238944D01*
X10924744Y-10238944D01*
X10924744Y-10309656D01*
X10995456Y-10309656D01*
X10995456Y-10563656D02*
X10995456Y-10492944D01*
X10924744Y-10492944D01*
X10924744Y-10563656D01*
X10995456Y-10563656D01*
X10995456Y-10817656D02*
X10995456Y-10746944D01*
X10924744Y-10746944D01*
X10924744Y-10817656D01*
X10995456Y-10817656D01*
X10995456Y-11071656D02*
X10995456Y-11000944D01*
X10924744Y-11000944D01*
X10924744Y-11071656D01*
X10995456Y-11071656D01*
X10995456Y-11325656D02*
X10995456Y-11254944D01*
X10924744Y-11254944D01*
X10924744Y-11325656D01*
X10995456Y-11325656D01*
X10995456Y-11579656D02*
X10995456Y-11508944D01*
X10924744Y-11508944D01*
X10924744Y-11579656D01*
X10995456Y-11579656D01*
X10995456Y-11833656D02*
X10995456Y-11762944D01*
X10924744Y-11762944D01*
X10924744Y-11833656D01*
X10995456Y-11833656D01*
X10995456Y-12087656D02*
X10995456Y-12016944D01*
X10924744Y-12016944D01*
X10924744Y-12087656D01*
X10995456Y-12087656D01*
X10995456Y-12341656D02*
X10995456Y-12270944D01*
X10924744Y-12270944D01*
X10924744Y-12341656D01*
X10995456Y-12341656D01*
X10995456Y-12595656D02*
X10995456Y-12524944D01*
X10924744Y-12524944D01*
X10924744Y-12595656D01*
X10995456Y-12595656D01*
X11249456Y-7769656D02*
X11249456Y-7698944D01*
X11178744Y-7698944D01*
X11178744Y-7769656D01*
X11249456Y-7769656D01*
X11249456Y-8023656D02*
X11249456Y-7952944D01*
X11178744Y-7952944D01*
X11178744Y-8023656D01*
X11249456Y-8023656D01*
X11249456Y-8277656D02*
X11249456Y-8206944D01*
X11178744Y-8206944D01*
X11178744Y-8277656D01*
X11249456Y-8277656D01*
X11249456Y-8531656D02*
X11249456Y-8460944D01*
X11178744Y-8460944D01*
X11178744Y-8531656D01*
X11249456Y-8531656D01*
X11249456Y-8785656D02*
X11249456Y-8714944D01*
X11178744Y-8714944D01*
X11178744Y-8785656D01*
X11249456Y-8785656D01*
X11249456Y-9039656D02*
X11249456Y-8968944D01*
X11178744Y-8968944D01*
X11178744Y-9039656D01*
X11249456Y-9039656D01*
X11249456Y-9293656D02*
X11249456Y-9222944D01*
X11178744Y-9222944D01*
X11178744Y-9293656D01*
X11249456Y-9293656D01*
X11249456Y-9547656D02*
X11249456Y-9476944D01*
X11178744Y-9476944D01*
X11178744Y-9547656D01*
X11249456Y-9547656D01*
X11249456Y-9801656D02*
X11249456Y-9730944D01*
X11178744Y-9730944D01*
X11178744Y-9801656D01*
X11249456Y-9801656D01*
X11249456Y-10055656D02*
X11249456Y-9984944D01*
X11178744Y-9984944D01*
X11178744Y-10055656D01*
X11249456Y-10055656D01*
X11249456Y-10309656D02*
X11249456Y-10238944D01*
X11178744Y-10238944D01*
X11178744Y-10309656D01*
X11249456Y-10309656D01*
X11249456Y-10563656D02*
X11249456Y-10492944D01*
X11178744Y-10492944D01*
X11178744Y-10563656D01*
X11249456Y-10563656D01*
X11249456Y-10817656D02*
X11249456Y-10746944D01*
X11178744Y-10746944D01*
X11178744Y-10817656D01*
X11249456Y-10817656D01*
X11249456Y-11071656D02*
X11249456Y-11000944D01*
X11178744Y-11000944D01*
X11178744Y-11071656D01*
X11249456Y-11071656D01*
X11249456Y-11325656D02*
X11249456Y-11254944D01*
X11178744Y-11254944D01*
X11178744Y-11325656D01*
X11249456Y-11325656D01*
X11249456Y-11579656D02*
X11249456Y-11508944D01*
X11178744Y-11508944D01*
X11178744Y-11579656D01*
X11249456Y-11579656D01*
X11249456Y-11833656D02*
X11249456Y-11762944D01*
X11178744Y-11762944D01*
X11178744Y-11833656D01*
X11249456Y-11833656D01*
X11249456Y-12087656D02*
X11249456Y-12016944D01*
X11178744Y-12016944D01*
X11178744Y-12087656D01*
X11249456Y-12087656D01*
X11249456Y-12341656D02*
X11249456Y-12270944D01*
X11178744Y-12270944D01*
X11178744Y-12341656D01*
X11249456Y-12341656D01*
X11249456Y-12595656D02*
X11249456Y-12524944D01*
X11178744Y-12524944D01*
X11178744Y-12595656D01*
X11249456Y-12595656D01*
D13*
X19114900Y-8024600D02*
X19274900Y-7864600D01*
X19114900Y-7704600D01*
X18954900Y-7864600D01*
X19114900Y-8024600D01*
X19114900Y-12703600D02*
X19274900Y-12543600D01*
X19114900Y-12383600D01*
X18954900Y-12543600D01*
X19114900Y-12703600D01*
D11*
X10583377Y-15553984D02*
X10583377Y-15353984D01*
X10583377Y-15353984D02*
X10630996Y-15353984D01*
X10630996Y-15353984D02*
X10659567Y-15363508D01*
X10659567Y-15363508D02*
X10678615Y-15382555D01*
X10678615Y-15382555D02*
X10688139Y-15401603D01*
X10688139Y-15401603D02*
X10697663Y-15439698D01*
X10697663Y-15439698D02*
X10697663Y-15468269D01*
X10697663Y-15468269D02*
X10688139Y-15506365D01*
X10688139Y-15506365D02*
X10678615Y-15525412D01*
X10678615Y-15525412D02*
X10659567Y-15544460D01*
X10659567Y-15544460D02*
X10630996Y-15553984D01*
X10630996Y-15553984D02*
X10583377Y-15553984D01*
X10783377Y-15553984D02*
X10783377Y-15420650D01*
X10783377Y-15458746D02*
X10792901Y-15439698D01*
X10792901Y-15439698D02*
X10802424Y-15430174D01*
X10802424Y-15430174D02*
X10821472Y-15420650D01*
X10821472Y-15420650D02*
X10840520Y-15420650D01*
X10907186Y-15553984D02*
X10907186Y-15420650D01*
X10907186Y-15353984D02*
X10897663Y-15363508D01*
X10897663Y-15363508D02*
X10907186Y-15373031D01*
X10907186Y-15373031D02*
X10916710Y-15363508D01*
X10916710Y-15363508D02*
X10907186Y-15353984D01*
X10907186Y-15353984D02*
X10907186Y-15373031D01*
X11030996Y-15553984D02*
X11011948Y-15544460D01*
X11011948Y-15544460D02*
X11002424Y-15525412D01*
X11002424Y-15525412D02*
X11002424Y-15353984D01*
X11135758Y-15553984D02*
X11116710Y-15544460D01*
X11116710Y-15544460D02*
X11107186Y-15525412D01*
X11107186Y-15525412D02*
X11107186Y-15353984D01*
X11364329Y-15553984D02*
X11364329Y-15353984D01*
X11364329Y-15353984D02*
X11430996Y-15496841D01*
X11430996Y-15496841D02*
X11497662Y-15353984D01*
X11497662Y-15353984D02*
X11497662Y-15553984D01*
X11678615Y-15553984D02*
X11678615Y-15449222D01*
X11678615Y-15449222D02*
X11669091Y-15430174D01*
X11669091Y-15430174D02*
X11650043Y-15420650D01*
X11650043Y-15420650D02*
X11611948Y-15420650D01*
X11611948Y-15420650D02*
X11592901Y-15430174D01*
X11678615Y-15544460D02*
X11659567Y-15553984D01*
X11659567Y-15553984D02*
X11611948Y-15553984D01*
X11611948Y-15553984D02*
X11592901Y-15544460D01*
X11592901Y-15544460D02*
X11583377Y-15525412D01*
X11583377Y-15525412D02*
X11583377Y-15506365D01*
X11583377Y-15506365D02*
X11592901Y-15487317D01*
X11592901Y-15487317D02*
X11611948Y-15477793D01*
X11611948Y-15477793D02*
X11659567Y-15477793D01*
X11659567Y-15477793D02*
X11678615Y-15468269D01*
X11773853Y-15420650D02*
X11773853Y-15620650D01*
X11773853Y-15430174D02*
X11792901Y-15420650D01*
X11792901Y-15420650D02*
X11830996Y-15420650D01*
X11830996Y-15420650D02*
X11850043Y-15430174D01*
X11850043Y-15430174D02*
X11859567Y-15439698D01*
X11859567Y-15439698D02*
X11869091Y-15458746D01*
X11869091Y-15458746D02*
X11869091Y-15515888D01*
X11869091Y-15515888D02*
X11859567Y-15534936D01*
X11859567Y-15534936D02*
X11850043Y-15544460D01*
X11850043Y-15544460D02*
X11830996Y-15553984D01*
X11830996Y-15553984D02*
X11792901Y-15553984D01*
X11792901Y-15553984D02*
X11773853Y-15544460D01*
X11954805Y-15534936D02*
X11964329Y-15544460D01*
X11964329Y-15544460D02*
X11954805Y-15553984D01*
X11954805Y-15553984D02*
X11945282Y-15544460D01*
X11945282Y-15544460D02*
X11954805Y-15534936D01*
X11954805Y-15534936D02*
X11954805Y-15553984D01*
X11954805Y-15430174D02*
X11964329Y-15439698D01*
X11964329Y-15439698D02*
X11954805Y-15449222D01*
X11954805Y-15449222D02*
X11945282Y-15439698D01*
X11945282Y-15439698D02*
X11954805Y-15430174D01*
X11954805Y-15430174D02*
X11954805Y-15449222D01*
D12*
X10292600Y-15867500D02*
X10322600Y-15897500D01*
X10322600Y-15867500D02*
X10292600Y-15897500D01*
D11*
X10621472Y-15773984D02*
X10640520Y-15773984D01*
X10640520Y-15773984D02*
X10659567Y-15783508D01*
X10659567Y-15783508D02*
X10669091Y-15793031D01*
X10669091Y-15793031D02*
X10678615Y-15812079D01*
X10678615Y-15812079D02*
X10688139Y-15850174D01*
X10688139Y-15850174D02*
X10688139Y-15897793D01*
X10688139Y-15897793D02*
X10678615Y-15935888D01*
X10678615Y-15935888D02*
X10669091Y-15954936D01*
X10669091Y-15954936D02*
X10659567Y-15964460D01*
X10659567Y-15964460D02*
X10640520Y-15973984D01*
X10640520Y-15973984D02*
X10621472Y-15973984D01*
X10621472Y-15973984D02*
X10602424Y-15964460D01*
X10602424Y-15964460D02*
X10592901Y-15954936D01*
X10592901Y-15954936D02*
X10583377Y-15935888D01*
X10583377Y-15935888D02*
X10573853Y-15897793D01*
X10573853Y-15897793D02*
X10573853Y-15850174D01*
X10573853Y-15850174D02*
X10583377Y-15812079D01*
X10583377Y-15812079D02*
X10592901Y-15793031D01*
X10592901Y-15793031D02*
X10602424Y-15783508D01*
X10602424Y-15783508D02*
X10621472Y-15773984D01*
X10773853Y-15954936D02*
X10783377Y-15964460D01*
X10783377Y-15964460D02*
X10773853Y-15973984D01*
X10773853Y-15973984D02*
X10764329Y-15964460D01*
X10764329Y-15964460D02*
X10773853Y-15954936D01*
X10773853Y-15954936D02*
X10773853Y-15973984D01*
X10850044Y-15773984D02*
X10973853Y-15773984D01*
X10973853Y-15773984D02*
X10907186Y-15850174D01*
X10907186Y-15850174D02*
X10935758Y-15850174D01*
X10935758Y-15850174D02*
X10954805Y-15859698D01*
X10954805Y-15859698D02*
X10964329Y-15869222D01*
X10964329Y-15869222D02*
X10973853Y-15888269D01*
X10973853Y-15888269D02*
X10973853Y-15935888D01*
X10973853Y-15935888D02*
X10964329Y-15954936D01*
X10964329Y-15954936D02*
X10954805Y-15964460D01*
X10954805Y-15964460D02*
X10935758Y-15973984D01*
X10935758Y-15973984D02*
X10878615Y-15973984D01*
X10878615Y-15973984D02*
X10859567Y-15964460D01*
X10859567Y-15964460D02*
X10850044Y-15954936D01*
X11097663Y-15773984D02*
X11116710Y-15773984D01*
X11116710Y-15773984D02*
X11135758Y-15783508D01*
X11135758Y-15783508D02*
X11145282Y-15793031D01*
X11145282Y-15793031D02*
X11154805Y-15812079D01*
X11154805Y-15812079D02*
X11164329Y-15850174D01*
X11164329Y-15850174D02*
X11164329Y-15897793D01*
X11164329Y-15897793D02*
X11154805Y-15935888D01*
X11154805Y-15935888D02*
X11145282Y-15954936D01*
X11145282Y-15954936D02*
X11135758Y-15964460D01*
X11135758Y-15964460D02*
X11116710Y-15973984D01*
X11116710Y-15973984D02*
X11097663Y-15973984D01*
X11097663Y-15973984D02*
X11078615Y-15964460D01*
X11078615Y-15964460D02*
X11069091Y-15954936D01*
X11069091Y-15954936D02*
X11059567Y-15935888D01*
X11059567Y-15935888D02*
X11050044Y-15897793D01*
X11050044Y-15897793D02*
X11050044Y-15850174D01*
X11050044Y-15850174D02*
X11059567Y-15812079D01*
X11059567Y-15812079D02*
X11069091Y-15793031D01*
X11069091Y-15793031D02*
X11078615Y-15783508D01*
X11078615Y-15783508D02*
X11097663Y-15773984D01*
X11288139Y-15773984D02*
X11307186Y-15773984D01*
X11307186Y-15773984D02*
X11326234Y-15783508D01*
X11326234Y-15783508D02*
X11335758Y-15793031D01*
X11335758Y-15793031D02*
X11345282Y-15812079D01*
X11345282Y-15812079D02*
X11354805Y-15850174D01*
X11354805Y-15850174D02*
X11354805Y-15897793D01*
X11354805Y-15897793D02*
X11345282Y-15935888D01*
X11345282Y-15935888D02*
X11335758Y-15954936D01*
X11335758Y-15954936D02*
X11326234Y-15964460D01*
X11326234Y-15964460D02*
X11307186Y-15973984D01*
X11307186Y-15973984D02*
X11288139Y-15973984D01*
X11288139Y-15973984D02*
X11269091Y-15964460D01*
X11269091Y-15964460D02*
X11259567Y-15954936D01*
X11259567Y-15954936D02*
X11250043Y-15935888D01*
X11250043Y-15935888D02*
X11240520Y-15897793D01*
X11240520Y-15897793D02*
X11240520Y-15850174D01*
X11240520Y-15850174D02*
X11250043Y-15812079D01*
X11250043Y-15812079D02*
X11259567Y-15793031D01*
X11259567Y-15793031D02*
X11269091Y-15783508D01*
X11269091Y-15783508D02*
X11288139Y-15773984D01*
X11440520Y-15973984D02*
X11440520Y-15840650D01*
X11440520Y-15859698D02*
X11450043Y-15850174D01*
X11450043Y-15850174D02*
X11469091Y-15840650D01*
X11469091Y-15840650D02*
X11497663Y-15840650D01*
X11497663Y-15840650D02*
X11516710Y-15850174D01*
X11516710Y-15850174D02*
X11526234Y-15869222D01*
X11526234Y-15869222D02*
X11526234Y-15973984D01*
X11526234Y-15869222D02*
X11535758Y-15850174D01*
X11535758Y-15850174D02*
X11554805Y-15840650D01*
X11554805Y-15840650D02*
X11583377Y-15840650D01*
X11583377Y-15840650D02*
X11602424Y-15850174D01*
X11602424Y-15850174D02*
X11611948Y-15869222D01*
X11611948Y-15869222D02*
X11611948Y-15973984D01*
X11707186Y-15973984D02*
X11707186Y-15840650D01*
X11707186Y-15859698D02*
X11716710Y-15850174D01*
X11716710Y-15850174D02*
X11735758Y-15840650D01*
X11735758Y-15840650D02*
X11764329Y-15840650D01*
X11764329Y-15840650D02*
X11783377Y-15850174D01*
X11783377Y-15850174D02*
X11792901Y-15869222D01*
X11792901Y-15869222D02*
X11792901Y-15973984D01*
X11792901Y-15869222D02*
X11802424Y-15850174D01*
X11802424Y-15850174D02*
X11821472Y-15840650D01*
X11821472Y-15840650D02*
X11850043Y-15840650D01*
X11850043Y-15840650D02*
X11869091Y-15850174D01*
X11869091Y-15850174D02*
X11878615Y-15869222D01*
X11878615Y-15869222D02*
X11878615Y-15973984D01*
X12269091Y-15764460D02*
X12097663Y-16021603D01*
X12526234Y-15773984D02*
X12545282Y-15773984D01*
X12545282Y-15773984D02*
X12564329Y-15783508D01*
X12564329Y-15783508D02*
X12573853Y-15793031D01*
X12573853Y-15793031D02*
X12583377Y-15812079D01*
X12583377Y-15812079D02*
X12592901Y-15850174D01*
X12592901Y-15850174D02*
X12592901Y-15897793D01*
X12592901Y-15897793D02*
X12583377Y-15935888D01*
X12583377Y-15935888D02*
X12573853Y-15954936D01*
X12573853Y-15954936D02*
X12564329Y-15964460D01*
X12564329Y-15964460D02*
X12545282Y-15973984D01*
X12545282Y-15973984D02*
X12526234Y-15973984D01*
X12526234Y-15973984D02*
X12507186Y-15964460D01*
X12507186Y-15964460D02*
X12497663Y-15954936D01*
X12497663Y-15954936D02*
X12488139Y-15935888D01*
X12488139Y-15935888D02*
X12478615Y-15897793D01*
X12478615Y-15897793D02*
X12478615Y-15850174D01*
X12478615Y-15850174D02*
X12488139Y-15812079D01*
X12488139Y-15812079D02*
X12497663Y-15793031D01*
X12497663Y-15793031D02*
X12507186Y-15783508D01*
X12507186Y-15783508D02*
X12526234Y-15773984D01*
X12678615Y-15954936D02*
X12688139Y-15964460D01*
X12688139Y-15964460D02*
X12678615Y-15973984D01*
X12678615Y-15973984D02*
X12669091Y-15964460D01*
X12669091Y-15964460D02*
X12678615Y-15954936D01*
X12678615Y-15954936D02*
X12678615Y-15973984D01*
X12811948Y-15773984D02*
X12830996Y-15773984D01*
X12830996Y-15773984D02*
X12850044Y-15783508D01*
X12850044Y-15783508D02*
X12859567Y-15793031D01*
X12859567Y-15793031D02*
X12869091Y-15812079D01*
X12869091Y-15812079D02*
X12878615Y-15850174D01*
X12878615Y-15850174D02*
X12878615Y-15897793D01*
X12878615Y-15897793D02*
X12869091Y-15935888D01*
X12869091Y-15935888D02*
X12859567Y-15954936D01*
X12859567Y-15954936D02*
X12850044Y-15964460D01*
X12850044Y-15964460D02*
X12830996Y-15973984D01*
X12830996Y-15973984D02*
X12811948Y-15973984D01*
X12811948Y-15973984D02*
X12792901Y-15964460D01*
X12792901Y-15964460D02*
X12783377Y-15954936D01*
X12783377Y-15954936D02*
X12773853Y-15935888D01*
X12773853Y-15935888D02*
X12764329Y-15897793D01*
X12764329Y-15897793D02*
X12764329Y-15850174D01*
X12764329Y-15850174D02*
X12773853Y-15812079D01*
X12773853Y-15812079D02*
X12783377Y-15793031D01*
X12783377Y-15793031D02*
X12792901Y-15783508D01*
X12792901Y-15783508D02*
X12811948Y-15773984D01*
X13069091Y-15973984D02*
X12954806Y-15973984D01*
X13011948Y-15973984D02*
X13011948Y-15773984D01*
X13011948Y-15773984D02*
X12992901Y-15802555D01*
X12992901Y-15802555D02*
X12973853Y-15821603D01*
X12973853Y-15821603D02*
X12954806Y-15831127D01*
X13259567Y-15973984D02*
X13145282Y-15973984D01*
X13202425Y-15973984D02*
X13202425Y-15773984D01*
X13202425Y-15773984D02*
X13183377Y-15802555D01*
X13183377Y-15802555D02*
X13164329Y-15821603D01*
X13164329Y-15821603D02*
X13145282Y-15831127D01*
X13373853Y-15859698D02*
X13354806Y-15850174D01*
X13354806Y-15850174D02*
X13345282Y-15840650D01*
X13345282Y-15840650D02*
X13335758Y-15821603D01*
X13335758Y-15821603D02*
X13335758Y-15812079D01*
X13335758Y-15812079D02*
X13345282Y-15793031D01*
X13345282Y-15793031D02*
X13354806Y-15783508D01*
X13354806Y-15783508D02*
X13373853Y-15773984D01*
X13373853Y-15773984D02*
X13411948Y-15773984D01*
X13411948Y-15773984D02*
X13430996Y-15783508D01*
X13430996Y-15783508D02*
X13440520Y-15793031D01*
X13440520Y-15793031D02*
X13450044Y-15812079D01*
X13450044Y-15812079D02*
X13450044Y-15821603D01*
X13450044Y-15821603D02*
X13440520Y-15840650D01*
X13440520Y-15840650D02*
X13430996Y-15850174D01*
X13430996Y-15850174D02*
X13411948Y-15859698D01*
X13411948Y-15859698D02*
X13373853Y-15859698D01*
X13373853Y-15859698D02*
X13354806Y-15869222D01*
X13354806Y-15869222D02*
X13345282Y-15878746D01*
X13345282Y-15878746D02*
X13335758Y-15897793D01*
X13335758Y-15897793D02*
X13335758Y-15935888D01*
X13335758Y-15935888D02*
X13345282Y-15954936D01*
X13345282Y-15954936D02*
X13354806Y-15964460D01*
X13354806Y-15964460D02*
X13373853Y-15973984D01*
X13373853Y-15973984D02*
X13411948Y-15973984D01*
X13411948Y-15973984D02*
X13430996Y-15964460D01*
X13430996Y-15964460D02*
X13440520Y-15954936D01*
X13440520Y-15954936D02*
X13450044Y-15935888D01*
X13450044Y-15935888D02*
X13450044Y-15897793D01*
X13450044Y-15897793D02*
X13440520Y-15878746D01*
X13440520Y-15878746D02*
X13430996Y-15869222D01*
X13430996Y-15869222D02*
X13411948Y-15859698D01*
X13526234Y-15773984D02*
X13526234Y-15812079D01*
X13602425Y-15773984D02*
X13602425Y-15812079D01*
X13897663Y-16050174D02*
X13888139Y-16040650D01*
X13888139Y-16040650D02*
X13869091Y-16012079D01*
X13869091Y-16012079D02*
X13859568Y-15993031D01*
X13859568Y-15993031D02*
X13850044Y-15964460D01*
X13850044Y-15964460D02*
X13840520Y-15916841D01*
X13840520Y-15916841D02*
X13840520Y-15878746D01*
X13840520Y-15878746D02*
X13850044Y-15831127D01*
X13850044Y-15831127D02*
X13859568Y-15802555D01*
X13859568Y-15802555D02*
X13869091Y-15783508D01*
X13869091Y-15783508D02*
X13888139Y-15754936D01*
X13888139Y-15754936D02*
X13897663Y-15745412D01*
X13983377Y-15973984D02*
X14021472Y-15973984D01*
X14021472Y-15973984D02*
X14040520Y-15964460D01*
X14040520Y-15964460D02*
X14050044Y-15954936D01*
X14050044Y-15954936D02*
X14069091Y-15926365D01*
X14069091Y-15926365D02*
X14078615Y-15888269D01*
X14078615Y-15888269D02*
X14078615Y-15812079D01*
X14078615Y-15812079D02*
X14069091Y-15793031D01*
X14069091Y-15793031D02*
X14059568Y-15783508D01*
X14059568Y-15783508D02*
X14040520Y-15773984D01*
X14040520Y-15773984D02*
X14002425Y-15773984D01*
X14002425Y-15773984D02*
X13983377Y-15783508D01*
X13983377Y-15783508D02*
X13973853Y-15793031D01*
X13973853Y-15793031D02*
X13964329Y-15812079D01*
X13964329Y-15812079D02*
X13964329Y-15859698D01*
X13964329Y-15859698D02*
X13973853Y-15878746D01*
X13973853Y-15878746D02*
X13983377Y-15888269D01*
X13983377Y-15888269D02*
X14002425Y-15897793D01*
X14002425Y-15897793D02*
X14040520Y-15897793D01*
X14040520Y-15897793D02*
X14059568Y-15888269D01*
X14059568Y-15888269D02*
X14069091Y-15878746D01*
X14069091Y-15878746D02*
X14078615Y-15859698D01*
X14250044Y-15773984D02*
X14211948Y-15773984D01*
X14211948Y-15773984D02*
X14192901Y-15783508D01*
X14192901Y-15783508D02*
X14183377Y-15793031D01*
X14183377Y-15793031D02*
X14164329Y-15821603D01*
X14164329Y-15821603D02*
X14154806Y-15859698D01*
X14154806Y-15859698D02*
X14154806Y-15935888D01*
X14154806Y-15935888D02*
X14164329Y-15954936D01*
X14164329Y-15954936D02*
X14173853Y-15964460D01*
X14173853Y-15964460D02*
X14192901Y-15973984D01*
X14192901Y-15973984D02*
X14230996Y-15973984D01*
X14230996Y-15973984D02*
X14250044Y-15964460D01*
X14250044Y-15964460D02*
X14259568Y-15954936D01*
X14259568Y-15954936D02*
X14269091Y-15935888D01*
X14269091Y-15935888D02*
X14269091Y-15888269D01*
X14269091Y-15888269D02*
X14259568Y-15869222D01*
X14259568Y-15869222D02*
X14250044Y-15859698D01*
X14250044Y-15859698D02*
X14230996Y-15850174D01*
X14230996Y-15850174D02*
X14192901Y-15850174D01*
X14192901Y-15850174D02*
X14173853Y-15859698D01*
X14173853Y-15859698D02*
X14164329Y-15869222D01*
X14164329Y-15869222D02*
X14154806Y-15888269D01*
X14507187Y-15973984D02*
X14507187Y-15773984D01*
X14592901Y-15973984D02*
X14592901Y-15869222D01*
X14592901Y-15869222D02*
X14583377Y-15850174D01*
X14583377Y-15850174D02*
X14564330Y-15840650D01*
X14564330Y-15840650D02*
X14535758Y-15840650D01*
X14535758Y-15840650D02*
X14516710Y-15850174D01*
X14516710Y-15850174D02*
X14507187Y-15859698D01*
X14716710Y-15973984D02*
X14697663Y-15964460D01*
X14697663Y-15964460D02*
X14688139Y-15954936D01*
X14688139Y-15954936D02*
X14678615Y-15935888D01*
X14678615Y-15935888D02*
X14678615Y-15878746D01*
X14678615Y-15878746D02*
X14688139Y-15859698D01*
X14688139Y-15859698D02*
X14697663Y-15850174D01*
X14697663Y-15850174D02*
X14716710Y-15840650D01*
X14716710Y-15840650D02*
X14745282Y-15840650D01*
X14745282Y-15840650D02*
X14764330Y-15850174D01*
X14764330Y-15850174D02*
X14773853Y-15859698D01*
X14773853Y-15859698D02*
X14783377Y-15878746D01*
X14783377Y-15878746D02*
X14783377Y-15935888D01*
X14783377Y-15935888D02*
X14773853Y-15954936D01*
X14773853Y-15954936D02*
X14764330Y-15964460D01*
X14764330Y-15964460D02*
X14745282Y-15973984D01*
X14745282Y-15973984D02*
X14716710Y-15973984D01*
X14897663Y-15973984D02*
X14878615Y-15964460D01*
X14878615Y-15964460D02*
X14869091Y-15945412D01*
X14869091Y-15945412D02*
X14869091Y-15773984D01*
X15050044Y-15964460D02*
X15030996Y-15973984D01*
X15030996Y-15973984D02*
X14992901Y-15973984D01*
X14992901Y-15973984D02*
X14973853Y-15964460D01*
X14973853Y-15964460D02*
X14964330Y-15945412D01*
X14964330Y-15945412D02*
X14964330Y-15869222D01*
X14964330Y-15869222D02*
X14973853Y-15850174D01*
X14973853Y-15850174D02*
X14992901Y-15840650D01*
X14992901Y-15840650D02*
X15030996Y-15840650D01*
X15030996Y-15840650D02*
X15050044Y-15850174D01*
X15050044Y-15850174D02*
X15059568Y-15869222D01*
X15059568Y-15869222D02*
X15059568Y-15888269D01*
X15059568Y-15888269D02*
X14964330Y-15907317D01*
X15135758Y-15964460D02*
X15154806Y-15973984D01*
X15154806Y-15973984D02*
X15192901Y-15973984D01*
X15192901Y-15973984D02*
X15211949Y-15964460D01*
X15211949Y-15964460D02*
X15221472Y-15945412D01*
X15221472Y-15945412D02*
X15221472Y-15935888D01*
X15221472Y-15935888D02*
X15211949Y-15916841D01*
X15211949Y-15916841D02*
X15192901Y-15907317D01*
X15192901Y-15907317D02*
X15164330Y-15907317D01*
X15164330Y-15907317D02*
X15145282Y-15897793D01*
X15145282Y-15897793D02*
X15135758Y-15878746D01*
X15135758Y-15878746D02*
X15135758Y-15869222D01*
X15135758Y-15869222D02*
X15145282Y-15850174D01*
X15145282Y-15850174D02*
X15164330Y-15840650D01*
X15164330Y-15840650D02*
X15192901Y-15840650D01*
X15192901Y-15840650D02*
X15211949Y-15850174D01*
X15288139Y-16050174D02*
X15297663Y-16040650D01*
X15297663Y-16040650D02*
X15316711Y-16012079D01*
X15316711Y-16012079D02*
X15326234Y-15993031D01*
X15326234Y-15993031D02*
X15335758Y-15964460D01*
X15335758Y-15964460D02*
X15345282Y-15916841D01*
X15345282Y-15916841D02*
X15345282Y-15878746D01*
X15345282Y-15878746D02*
X15335758Y-15831127D01*
X15335758Y-15831127D02*
X15326234Y-15802555D01*
X15326234Y-15802555D02*
X15316711Y-15783508D01*
X15316711Y-15783508D02*
X15297663Y-15754936D01*
X15297663Y-15754936D02*
X15288139Y-15745412D01*
D12*
X10322600Y-16146500D02*
G75*
G02*
X10242600Y-16146500I-40000J0D01*
G01*
X10242600Y-16146500D02*
G75*
G02*
X10322600Y-16146500I40000J0D01*
G01*
D11*
X10621472Y-16037984D02*
X10640520Y-16037984D01*
X10640520Y-16037984D02*
X10659567Y-16047508D01*
X10659567Y-16047508D02*
X10669091Y-16057031D01*
X10669091Y-16057031D02*
X10678615Y-16076079D01*
X10678615Y-16076079D02*
X10688139Y-16114174D01*
X10688139Y-16114174D02*
X10688139Y-16161793D01*
X10688139Y-16161793D02*
X10678615Y-16199888D01*
X10678615Y-16199888D02*
X10669091Y-16218936D01*
X10669091Y-16218936D02*
X10659567Y-16228460D01*
X10659567Y-16228460D02*
X10640520Y-16237984D01*
X10640520Y-16237984D02*
X10621472Y-16237984D01*
X10621472Y-16237984D02*
X10602424Y-16228460D01*
X10602424Y-16228460D02*
X10592901Y-16218936D01*
X10592901Y-16218936D02*
X10583377Y-16199888D01*
X10583377Y-16199888D02*
X10573853Y-16161793D01*
X10573853Y-16161793D02*
X10573853Y-16114174D01*
X10573853Y-16114174D02*
X10583377Y-16076079D01*
X10583377Y-16076079D02*
X10592901Y-16057031D01*
X10592901Y-16057031D02*
X10602424Y-16047508D01*
X10602424Y-16047508D02*
X10621472Y-16037984D01*
X10773853Y-16218936D02*
X10783377Y-16228460D01*
X10783377Y-16228460D02*
X10773853Y-16237984D01*
X10773853Y-16237984D02*
X10764329Y-16228460D01*
X10764329Y-16228460D02*
X10773853Y-16218936D01*
X10773853Y-16218936D02*
X10773853Y-16237984D01*
X10897663Y-16123698D02*
X10878615Y-16114174D01*
X10878615Y-16114174D02*
X10869091Y-16104650D01*
X10869091Y-16104650D02*
X10859567Y-16085603D01*
X10859567Y-16085603D02*
X10859567Y-16076079D01*
X10859567Y-16076079D02*
X10869091Y-16057031D01*
X10869091Y-16057031D02*
X10878615Y-16047508D01*
X10878615Y-16047508D02*
X10897663Y-16037984D01*
X10897663Y-16037984D02*
X10935758Y-16037984D01*
X10935758Y-16037984D02*
X10954805Y-16047508D01*
X10954805Y-16047508D02*
X10964329Y-16057031D01*
X10964329Y-16057031D02*
X10973853Y-16076079D01*
X10973853Y-16076079D02*
X10973853Y-16085603D01*
X10973853Y-16085603D02*
X10964329Y-16104650D01*
X10964329Y-16104650D02*
X10954805Y-16114174D01*
X10954805Y-16114174D02*
X10935758Y-16123698D01*
X10935758Y-16123698D02*
X10897663Y-16123698D01*
X10897663Y-16123698D02*
X10878615Y-16133222D01*
X10878615Y-16133222D02*
X10869091Y-16142746D01*
X10869091Y-16142746D02*
X10859567Y-16161793D01*
X10859567Y-16161793D02*
X10859567Y-16199888D01*
X10859567Y-16199888D02*
X10869091Y-16218936D01*
X10869091Y-16218936D02*
X10878615Y-16228460D01*
X10878615Y-16228460D02*
X10897663Y-16237984D01*
X10897663Y-16237984D02*
X10935758Y-16237984D01*
X10935758Y-16237984D02*
X10954805Y-16228460D01*
X10954805Y-16228460D02*
X10964329Y-16218936D01*
X10964329Y-16218936D02*
X10973853Y-16199888D01*
X10973853Y-16199888D02*
X10973853Y-16161793D01*
X10973853Y-16161793D02*
X10964329Y-16142746D01*
X10964329Y-16142746D02*
X10954805Y-16133222D01*
X10954805Y-16133222D02*
X10935758Y-16123698D01*
X11097663Y-16037984D02*
X11116710Y-16037984D01*
X11116710Y-16037984D02*
X11135758Y-16047508D01*
X11135758Y-16047508D02*
X11145282Y-16057031D01*
X11145282Y-16057031D02*
X11154805Y-16076079D01*
X11154805Y-16076079D02*
X11164329Y-16114174D01*
X11164329Y-16114174D02*
X11164329Y-16161793D01*
X11164329Y-16161793D02*
X11154805Y-16199888D01*
X11154805Y-16199888D02*
X11145282Y-16218936D01*
X11145282Y-16218936D02*
X11135758Y-16228460D01*
X11135758Y-16228460D02*
X11116710Y-16237984D01*
X11116710Y-16237984D02*
X11097663Y-16237984D01*
X11097663Y-16237984D02*
X11078615Y-16228460D01*
X11078615Y-16228460D02*
X11069091Y-16218936D01*
X11069091Y-16218936D02*
X11059567Y-16199888D01*
X11059567Y-16199888D02*
X11050044Y-16161793D01*
X11050044Y-16161793D02*
X11050044Y-16114174D01*
X11050044Y-16114174D02*
X11059567Y-16076079D01*
X11059567Y-16076079D02*
X11069091Y-16057031D01*
X11069091Y-16057031D02*
X11078615Y-16047508D01*
X11078615Y-16047508D02*
X11097663Y-16037984D01*
X11288139Y-16037984D02*
X11307186Y-16037984D01*
X11307186Y-16037984D02*
X11326234Y-16047508D01*
X11326234Y-16047508D02*
X11335758Y-16057031D01*
X11335758Y-16057031D02*
X11345282Y-16076079D01*
X11345282Y-16076079D02*
X11354805Y-16114174D01*
X11354805Y-16114174D02*
X11354805Y-16161793D01*
X11354805Y-16161793D02*
X11345282Y-16199888D01*
X11345282Y-16199888D02*
X11335758Y-16218936D01*
X11335758Y-16218936D02*
X11326234Y-16228460D01*
X11326234Y-16228460D02*
X11307186Y-16237984D01*
X11307186Y-16237984D02*
X11288139Y-16237984D01*
X11288139Y-16237984D02*
X11269091Y-16228460D01*
X11269091Y-16228460D02*
X11259567Y-16218936D01*
X11259567Y-16218936D02*
X11250043Y-16199888D01*
X11250043Y-16199888D02*
X11240520Y-16161793D01*
X11240520Y-16161793D02*
X11240520Y-16114174D01*
X11240520Y-16114174D02*
X11250043Y-16076079D01*
X11250043Y-16076079D02*
X11259567Y-16057031D01*
X11259567Y-16057031D02*
X11269091Y-16047508D01*
X11269091Y-16047508D02*
X11288139Y-16037984D01*
X11440520Y-16237984D02*
X11440520Y-16104650D01*
X11440520Y-16123698D02*
X11450043Y-16114174D01*
X11450043Y-16114174D02*
X11469091Y-16104650D01*
X11469091Y-16104650D02*
X11497663Y-16104650D01*
X11497663Y-16104650D02*
X11516710Y-16114174D01*
X11516710Y-16114174D02*
X11526234Y-16133222D01*
X11526234Y-16133222D02*
X11526234Y-16237984D01*
X11526234Y-16133222D02*
X11535758Y-16114174D01*
X11535758Y-16114174D02*
X11554805Y-16104650D01*
X11554805Y-16104650D02*
X11583377Y-16104650D01*
X11583377Y-16104650D02*
X11602424Y-16114174D01*
X11602424Y-16114174D02*
X11611948Y-16133222D01*
X11611948Y-16133222D02*
X11611948Y-16237984D01*
X11707186Y-16237984D02*
X11707186Y-16104650D01*
X11707186Y-16123698D02*
X11716710Y-16114174D01*
X11716710Y-16114174D02*
X11735758Y-16104650D01*
X11735758Y-16104650D02*
X11764329Y-16104650D01*
X11764329Y-16104650D02*
X11783377Y-16114174D01*
X11783377Y-16114174D02*
X11792901Y-16133222D01*
X11792901Y-16133222D02*
X11792901Y-16237984D01*
X11792901Y-16133222D02*
X11802424Y-16114174D01*
X11802424Y-16114174D02*
X11821472Y-16104650D01*
X11821472Y-16104650D02*
X11850043Y-16104650D01*
X11850043Y-16104650D02*
X11869091Y-16114174D01*
X11869091Y-16114174D02*
X11878615Y-16133222D01*
X11878615Y-16133222D02*
X11878615Y-16237984D01*
X12269091Y-16028460D02*
X12097663Y-16285603D01*
X12526234Y-16037984D02*
X12545282Y-16037984D01*
X12545282Y-16037984D02*
X12564329Y-16047508D01*
X12564329Y-16047508D02*
X12573853Y-16057031D01*
X12573853Y-16057031D02*
X12583377Y-16076079D01*
X12583377Y-16076079D02*
X12592901Y-16114174D01*
X12592901Y-16114174D02*
X12592901Y-16161793D01*
X12592901Y-16161793D02*
X12583377Y-16199888D01*
X12583377Y-16199888D02*
X12573853Y-16218936D01*
X12573853Y-16218936D02*
X12564329Y-16228460D01*
X12564329Y-16228460D02*
X12545282Y-16237984D01*
X12545282Y-16237984D02*
X12526234Y-16237984D01*
X12526234Y-16237984D02*
X12507186Y-16228460D01*
X12507186Y-16228460D02*
X12497663Y-16218936D01*
X12497663Y-16218936D02*
X12488139Y-16199888D01*
X12488139Y-16199888D02*
X12478615Y-16161793D01*
X12478615Y-16161793D02*
X12478615Y-16114174D01*
X12478615Y-16114174D02*
X12488139Y-16076079D01*
X12488139Y-16076079D02*
X12497663Y-16057031D01*
X12497663Y-16057031D02*
X12507186Y-16047508D01*
X12507186Y-16047508D02*
X12526234Y-16037984D01*
X12678615Y-16218936D02*
X12688139Y-16228460D01*
X12688139Y-16228460D02*
X12678615Y-16237984D01*
X12678615Y-16237984D02*
X12669091Y-16228460D01*
X12669091Y-16228460D02*
X12678615Y-16218936D01*
X12678615Y-16218936D02*
X12678615Y-16237984D01*
X12811948Y-16037984D02*
X12830996Y-16037984D01*
X12830996Y-16037984D02*
X12850044Y-16047508D01*
X12850044Y-16047508D02*
X12859567Y-16057031D01*
X12859567Y-16057031D02*
X12869091Y-16076079D01*
X12869091Y-16076079D02*
X12878615Y-16114174D01*
X12878615Y-16114174D02*
X12878615Y-16161793D01*
X12878615Y-16161793D02*
X12869091Y-16199888D01*
X12869091Y-16199888D02*
X12859567Y-16218936D01*
X12859567Y-16218936D02*
X12850044Y-16228460D01*
X12850044Y-16228460D02*
X12830996Y-16237984D01*
X12830996Y-16237984D02*
X12811948Y-16237984D01*
X12811948Y-16237984D02*
X12792901Y-16228460D01*
X12792901Y-16228460D02*
X12783377Y-16218936D01*
X12783377Y-16218936D02*
X12773853Y-16199888D01*
X12773853Y-16199888D02*
X12764329Y-16161793D01*
X12764329Y-16161793D02*
X12764329Y-16114174D01*
X12764329Y-16114174D02*
X12773853Y-16076079D01*
X12773853Y-16076079D02*
X12783377Y-16057031D01*
X12783377Y-16057031D02*
X12792901Y-16047508D01*
X12792901Y-16047508D02*
X12811948Y-16037984D01*
X12945282Y-16037984D02*
X13069091Y-16037984D01*
X13069091Y-16037984D02*
X13002425Y-16114174D01*
X13002425Y-16114174D02*
X13030996Y-16114174D01*
X13030996Y-16114174D02*
X13050044Y-16123698D01*
X13050044Y-16123698D02*
X13059567Y-16133222D01*
X13059567Y-16133222D02*
X13069091Y-16152269D01*
X13069091Y-16152269D02*
X13069091Y-16199888D01*
X13069091Y-16199888D02*
X13059567Y-16218936D01*
X13059567Y-16218936D02*
X13050044Y-16228460D01*
X13050044Y-16228460D02*
X13030996Y-16237984D01*
X13030996Y-16237984D02*
X12973853Y-16237984D01*
X12973853Y-16237984D02*
X12954806Y-16228460D01*
X12954806Y-16228460D02*
X12945282Y-16218936D01*
X13259567Y-16237984D02*
X13145282Y-16237984D01*
X13202425Y-16237984D02*
X13202425Y-16037984D01*
X13202425Y-16037984D02*
X13183377Y-16066555D01*
X13183377Y-16066555D02*
X13164329Y-16085603D01*
X13164329Y-16085603D02*
X13145282Y-16095127D01*
X13440520Y-16037984D02*
X13345282Y-16037984D01*
X13345282Y-16037984D02*
X13335758Y-16133222D01*
X13335758Y-16133222D02*
X13345282Y-16123698D01*
X13345282Y-16123698D02*
X13364329Y-16114174D01*
X13364329Y-16114174D02*
X13411948Y-16114174D01*
X13411948Y-16114174D02*
X13430996Y-16123698D01*
X13430996Y-16123698D02*
X13440520Y-16133222D01*
X13440520Y-16133222D02*
X13450044Y-16152269D01*
X13450044Y-16152269D02*
X13450044Y-16199888D01*
X13450044Y-16199888D02*
X13440520Y-16218936D01*
X13440520Y-16218936D02*
X13430996Y-16228460D01*
X13430996Y-16228460D02*
X13411948Y-16237984D01*
X13411948Y-16237984D02*
X13364329Y-16237984D01*
X13364329Y-16237984D02*
X13345282Y-16228460D01*
X13345282Y-16228460D02*
X13335758Y-16218936D01*
X13526234Y-16037984D02*
X13526234Y-16076079D01*
X13602425Y-16037984D02*
X13602425Y-16076079D01*
X13897663Y-16314174D02*
X13888139Y-16304650D01*
X13888139Y-16304650D02*
X13869091Y-16276079D01*
X13869091Y-16276079D02*
X13859568Y-16257031D01*
X13859568Y-16257031D02*
X13850044Y-16228460D01*
X13850044Y-16228460D02*
X13840520Y-16180841D01*
X13840520Y-16180841D02*
X13840520Y-16142746D01*
X13840520Y-16142746D02*
X13850044Y-16095127D01*
X13850044Y-16095127D02*
X13859568Y-16066555D01*
X13859568Y-16066555D02*
X13869091Y-16047508D01*
X13869091Y-16047508D02*
X13888139Y-16018936D01*
X13888139Y-16018936D02*
X13897663Y-16009412D01*
X14078615Y-16237984D02*
X13964329Y-16237984D01*
X14021472Y-16237984D02*
X14021472Y-16037984D01*
X14021472Y-16037984D02*
X14002425Y-16066555D01*
X14002425Y-16066555D02*
X13983377Y-16085603D01*
X13983377Y-16085603D02*
X13964329Y-16095127D01*
X14259568Y-16037984D02*
X14164329Y-16037984D01*
X14164329Y-16037984D02*
X14154806Y-16133222D01*
X14154806Y-16133222D02*
X14164329Y-16123698D01*
X14164329Y-16123698D02*
X14183377Y-16114174D01*
X14183377Y-16114174D02*
X14230996Y-16114174D01*
X14230996Y-16114174D02*
X14250044Y-16123698D01*
X14250044Y-16123698D02*
X14259568Y-16133222D01*
X14259568Y-16133222D02*
X14269091Y-16152269D01*
X14269091Y-16152269D02*
X14269091Y-16199888D01*
X14269091Y-16199888D02*
X14259568Y-16218936D01*
X14259568Y-16218936D02*
X14250044Y-16228460D01*
X14250044Y-16228460D02*
X14230996Y-16237984D01*
X14230996Y-16237984D02*
X14183377Y-16237984D01*
X14183377Y-16237984D02*
X14164329Y-16228460D01*
X14164329Y-16228460D02*
X14154806Y-16218936D01*
X14440520Y-16104650D02*
X14440520Y-16237984D01*
X14392901Y-16028460D02*
X14345282Y-16171317D01*
X14345282Y-16171317D02*
X14469091Y-16171317D01*
X14697663Y-16237984D02*
X14697663Y-16037984D01*
X14783377Y-16237984D02*
X14783377Y-16133222D01*
X14783377Y-16133222D02*
X14773853Y-16114174D01*
X14773853Y-16114174D02*
X14754806Y-16104650D01*
X14754806Y-16104650D02*
X14726234Y-16104650D01*
X14726234Y-16104650D02*
X14707187Y-16114174D01*
X14707187Y-16114174D02*
X14697663Y-16123698D01*
X14907187Y-16237984D02*
X14888139Y-16228460D01*
X14888139Y-16228460D02*
X14878615Y-16218936D01*
X14878615Y-16218936D02*
X14869091Y-16199888D01*
X14869091Y-16199888D02*
X14869091Y-16142746D01*
X14869091Y-16142746D02*
X14878615Y-16123698D01*
X14878615Y-16123698D02*
X14888139Y-16114174D01*
X14888139Y-16114174D02*
X14907187Y-16104650D01*
X14907187Y-16104650D02*
X14935758Y-16104650D01*
X14935758Y-16104650D02*
X14954806Y-16114174D01*
X14954806Y-16114174D02*
X14964330Y-16123698D01*
X14964330Y-16123698D02*
X14973853Y-16142746D01*
X14973853Y-16142746D02*
X14973853Y-16199888D01*
X14973853Y-16199888D02*
X14964330Y-16218936D01*
X14964330Y-16218936D02*
X14954806Y-16228460D01*
X14954806Y-16228460D02*
X14935758Y-16237984D01*
X14935758Y-16237984D02*
X14907187Y-16237984D01*
X15088139Y-16237984D02*
X15069091Y-16228460D01*
X15069091Y-16228460D02*
X15059568Y-16209412D01*
X15059568Y-16209412D02*
X15059568Y-16037984D01*
X15240520Y-16228460D02*
X15221472Y-16237984D01*
X15221472Y-16237984D02*
X15183377Y-16237984D01*
X15183377Y-16237984D02*
X15164330Y-16228460D01*
X15164330Y-16228460D02*
X15154806Y-16209412D01*
X15154806Y-16209412D02*
X15154806Y-16133222D01*
X15154806Y-16133222D02*
X15164330Y-16114174D01*
X15164330Y-16114174D02*
X15183377Y-16104650D01*
X15183377Y-16104650D02*
X15221472Y-16104650D01*
X15221472Y-16104650D02*
X15240520Y-16114174D01*
X15240520Y-16114174D02*
X15250044Y-16133222D01*
X15250044Y-16133222D02*
X15250044Y-16152269D01*
X15250044Y-16152269D02*
X15154806Y-16171317D01*
X15326234Y-16228460D02*
X15345282Y-16237984D01*
X15345282Y-16237984D02*
X15383377Y-16237984D01*
X15383377Y-16237984D02*
X15402425Y-16228460D01*
X15402425Y-16228460D02*
X15411949Y-16209412D01*
X15411949Y-16209412D02*
X15411949Y-16199888D01*
X15411949Y-16199888D02*
X15402425Y-16180841D01*
X15402425Y-16180841D02*
X15383377Y-16171317D01*
X15383377Y-16171317D02*
X15354806Y-16171317D01*
X15354806Y-16171317D02*
X15335758Y-16161793D01*
X15335758Y-16161793D02*
X15326234Y-16142746D01*
X15326234Y-16142746D02*
X15326234Y-16133222D01*
X15326234Y-16133222D02*
X15335758Y-16114174D01*
X15335758Y-16114174D02*
X15354806Y-16104650D01*
X15354806Y-16104650D02*
X15383377Y-16104650D01*
X15383377Y-16104650D02*
X15402425Y-16114174D01*
X15478615Y-16314174D02*
X15488139Y-16304650D01*
X15488139Y-16304650D02*
X15507187Y-16276079D01*
X15507187Y-16276079D02*
X15516711Y-16257031D01*
X15516711Y-16257031D02*
X15526234Y-16228460D01*
X15526234Y-16228460D02*
X15535758Y-16180841D01*
X15535758Y-16180841D02*
X15535758Y-16142746D01*
X15535758Y-16142746D02*
X15526234Y-16095127D01*
X15526234Y-16095127D02*
X15516711Y-16066555D01*
X15516711Y-16066555D02*
X15507187Y-16047508D01*
X15507187Y-16047508D02*
X15488139Y-16018936D01*
X15488139Y-16018936D02*
X15478615Y-16009412D01*
D12*
X10277600Y-16365500D02*
X10277600Y-16455500D01*
X10232600Y-16410500D02*
X10322600Y-16410500D01*
D11*
X10621472Y-16301984D02*
X10640520Y-16301984D01*
X10640520Y-16301984D02*
X10659567Y-16311508D01*
X10659567Y-16311508D02*
X10669091Y-16321031D01*
X10669091Y-16321031D02*
X10678615Y-16340079D01*
X10678615Y-16340079D02*
X10688139Y-16378174D01*
X10688139Y-16378174D02*
X10688139Y-16425793D01*
X10688139Y-16425793D02*
X10678615Y-16463888D01*
X10678615Y-16463888D02*
X10669091Y-16482936D01*
X10669091Y-16482936D02*
X10659567Y-16492460D01*
X10659567Y-16492460D02*
X10640520Y-16501984D01*
X10640520Y-16501984D02*
X10621472Y-16501984D01*
X10621472Y-16501984D02*
X10602424Y-16492460D01*
X10602424Y-16492460D02*
X10592901Y-16482936D01*
X10592901Y-16482936D02*
X10583377Y-16463888D01*
X10583377Y-16463888D02*
X10573853Y-16425793D01*
X10573853Y-16425793D02*
X10573853Y-16378174D01*
X10573853Y-16378174D02*
X10583377Y-16340079D01*
X10583377Y-16340079D02*
X10592901Y-16321031D01*
X10592901Y-16321031D02*
X10602424Y-16311508D01*
X10602424Y-16311508D02*
X10621472Y-16301984D01*
X10773853Y-16482936D02*
X10783377Y-16492460D01*
X10783377Y-16492460D02*
X10773853Y-16501984D01*
X10773853Y-16501984D02*
X10764329Y-16492460D01*
X10764329Y-16492460D02*
X10773853Y-16482936D01*
X10773853Y-16482936D02*
X10773853Y-16501984D01*
X10878615Y-16501984D02*
X10916710Y-16501984D01*
X10916710Y-16501984D02*
X10935758Y-16492460D01*
X10935758Y-16492460D02*
X10945282Y-16482936D01*
X10945282Y-16482936D02*
X10964329Y-16454365D01*
X10964329Y-16454365D02*
X10973853Y-16416269D01*
X10973853Y-16416269D02*
X10973853Y-16340079D01*
X10973853Y-16340079D02*
X10964329Y-16321031D01*
X10964329Y-16321031D02*
X10954805Y-16311508D01*
X10954805Y-16311508D02*
X10935758Y-16301984D01*
X10935758Y-16301984D02*
X10897663Y-16301984D01*
X10897663Y-16301984D02*
X10878615Y-16311508D01*
X10878615Y-16311508D02*
X10869091Y-16321031D01*
X10869091Y-16321031D02*
X10859567Y-16340079D01*
X10859567Y-16340079D02*
X10859567Y-16387698D01*
X10859567Y-16387698D02*
X10869091Y-16406746D01*
X10869091Y-16406746D02*
X10878615Y-16416269D01*
X10878615Y-16416269D02*
X10897663Y-16425793D01*
X10897663Y-16425793D02*
X10935758Y-16425793D01*
X10935758Y-16425793D02*
X10954805Y-16416269D01*
X10954805Y-16416269D02*
X10964329Y-16406746D01*
X10964329Y-16406746D02*
X10973853Y-16387698D01*
X11097663Y-16301984D02*
X11116710Y-16301984D01*
X11116710Y-16301984D02*
X11135758Y-16311508D01*
X11135758Y-16311508D02*
X11145282Y-16321031D01*
X11145282Y-16321031D02*
X11154805Y-16340079D01*
X11154805Y-16340079D02*
X11164329Y-16378174D01*
X11164329Y-16378174D02*
X11164329Y-16425793D01*
X11164329Y-16425793D02*
X11154805Y-16463888D01*
X11154805Y-16463888D02*
X11145282Y-16482936D01*
X11145282Y-16482936D02*
X11135758Y-16492460D01*
X11135758Y-16492460D02*
X11116710Y-16501984D01*
X11116710Y-16501984D02*
X11097663Y-16501984D01*
X11097663Y-16501984D02*
X11078615Y-16492460D01*
X11078615Y-16492460D02*
X11069091Y-16482936D01*
X11069091Y-16482936D02*
X11059567Y-16463888D01*
X11059567Y-16463888D02*
X11050044Y-16425793D01*
X11050044Y-16425793D02*
X11050044Y-16378174D01*
X11050044Y-16378174D02*
X11059567Y-16340079D01*
X11059567Y-16340079D02*
X11069091Y-16321031D01*
X11069091Y-16321031D02*
X11078615Y-16311508D01*
X11078615Y-16311508D02*
X11097663Y-16301984D01*
X11288139Y-16301984D02*
X11307186Y-16301984D01*
X11307186Y-16301984D02*
X11326234Y-16311508D01*
X11326234Y-16311508D02*
X11335758Y-16321031D01*
X11335758Y-16321031D02*
X11345282Y-16340079D01*
X11345282Y-16340079D02*
X11354805Y-16378174D01*
X11354805Y-16378174D02*
X11354805Y-16425793D01*
X11354805Y-16425793D02*
X11345282Y-16463888D01*
X11345282Y-16463888D02*
X11335758Y-16482936D01*
X11335758Y-16482936D02*
X11326234Y-16492460D01*
X11326234Y-16492460D02*
X11307186Y-16501984D01*
X11307186Y-16501984D02*
X11288139Y-16501984D01*
X11288139Y-16501984D02*
X11269091Y-16492460D01*
X11269091Y-16492460D02*
X11259567Y-16482936D01*
X11259567Y-16482936D02*
X11250043Y-16463888D01*
X11250043Y-16463888D02*
X11240520Y-16425793D01*
X11240520Y-16425793D02*
X11240520Y-16378174D01*
X11240520Y-16378174D02*
X11250043Y-16340079D01*
X11250043Y-16340079D02*
X11259567Y-16321031D01*
X11259567Y-16321031D02*
X11269091Y-16311508D01*
X11269091Y-16311508D02*
X11288139Y-16301984D01*
X11440520Y-16501984D02*
X11440520Y-16368650D01*
X11440520Y-16387698D02*
X11450043Y-16378174D01*
X11450043Y-16378174D02*
X11469091Y-16368650D01*
X11469091Y-16368650D02*
X11497663Y-16368650D01*
X11497663Y-16368650D02*
X11516710Y-16378174D01*
X11516710Y-16378174D02*
X11526234Y-16397222D01*
X11526234Y-16397222D02*
X11526234Y-16501984D01*
X11526234Y-16397222D02*
X11535758Y-16378174D01*
X11535758Y-16378174D02*
X11554805Y-16368650D01*
X11554805Y-16368650D02*
X11583377Y-16368650D01*
X11583377Y-16368650D02*
X11602424Y-16378174D01*
X11602424Y-16378174D02*
X11611948Y-16397222D01*
X11611948Y-16397222D02*
X11611948Y-16501984D01*
X11707186Y-16501984D02*
X11707186Y-16368650D01*
X11707186Y-16387698D02*
X11716710Y-16378174D01*
X11716710Y-16378174D02*
X11735758Y-16368650D01*
X11735758Y-16368650D02*
X11764329Y-16368650D01*
X11764329Y-16368650D02*
X11783377Y-16378174D01*
X11783377Y-16378174D02*
X11792901Y-16397222D01*
X11792901Y-16397222D02*
X11792901Y-16501984D01*
X11792901Y-16397222D02*
X11802424Y-16378174D01*
X11802424Y-16378174D02*
X11821472Y-16368650D01*
X11821472Y-16368650D02*
X11850043Y-16368650D01*
X11850043Y-16368650D02*
X11869091Y-16378174D01*
X11869091Y-16378174D02*
X11878615Y-16397222D01*
X11878615Y-16397222D02*
X11878615Y-16501984D01*
X12269091Y-16292460D02*
X12097663Y-16549603D01*
X12526234Y-16301984D02*
X12545282Y-16301984D01*
X12545282Y-16301984D02*
X12564329Y-16311508D01*
X12564329Y-16311508D02*
X12573853Y-16321031D01*
X12573853Y-16321031D02*
X12583377Y-16340079D01*
X12583377Y-16340079D02*
X12592901Y-16378174D01*
X12592901Y-16378174D02*
X12592901Y-16425793D01*
X12592901Y-16425793D02*
X12583377Y-16463888D01*
X12583377Y-16463888D02*
X12573853Y-16482936D01*
X12573853Y-16482936D02*
X12564329Y-16492460D01*
X12564329Y-16492460D02*
X12545282Y-16501984D01*
X12545282Y-16501984D02*
X12526234Y-16501984D01*
X12526234Y-16501984D02*
X12507186Y-16492460D01*
X12507186Y-16492460D02*
X12497663Y-16482936D01*
X12497663Y-16482936D02*
X12488139Y-16463888D01*
X12488139Y-16463888D02*
X12478615Y-16425793D01*
X12478615Y-16425793D02*
X12478615Y-16378174D01*
X12478615Y-16378174D02*
X12488139Y-16340079D01*
X12488139Y-16340079D02*
X12497663Y-16321031D01*
X12497663Y-16321031D02*
X12507186Y-16311508D01*
X12507186Y-16311508D02*
X12526234Y-16301984D01*
X12678615Y-16482936D02*
X12688139Y-16492460D01*
X12688139Y-16492460D02*
X12678615Y-16501984D01*
X12678615Y-16501984D02*
X12669091Y-16492460D01*
X12669091Y-16492460D02*
X12678615Y-16482936D01*
X12678615Y-16482936D02*
X12678615Y-16501984D01*
X12811948Y-16301984D02*
X12830996Y-16301984D01*
X12830996Y-16301984D02*
X12850044Y-16311508D01*
X12850044Y-16311508D02*
X12859567Y-16321031D01*
X12859567Y-16321031D02*
X12869091Y-16340079D01*
X12869091Y-16340079D02*
X12878615Y-16378174D01*
X12878615Y-16378174D02*
X12878615Y-16425793D01*
X12878615Y-16425793D02*
X12869091Y-16463888D01*
X12869091Y-16463888D02*
X12859567Y-16482936D01*
X12859567Y-16482936D02*
X12850044Y-16492460D01*
X12850044Y-16492460D02*
X12830996Y-16501984D01*
X12830996Y-16501984D02*
X12811948Y-16501984D01*
X12811948Y-16501984D02*
X12792901Y-16492460D01*
X12792901Y-16492460D02*
X12783377Y-16482936D01*
X12783377Y-16482936D02*
X12773853Y-16463888D01*
X12773853Y-16463888D02*
X12764329Y-16425793D01*
X12764329Y-16425793D02*
X12764329Y-16378174D01*
X12764329Y-16378174D02*
X12773853Y-16340079D01*
X12773853Y-16340079D02*
X12783377Y-16321031D01*
X12783377Y-16321031D02*
X12792901Y-16311508D01*
X12792901Y-16311508D02*
X12811948Y-16301984D01*
X12945282Y-16301984D02*
X13069091Y-16301984D01*
X13069091Y-16301984D02*
X13002425Y-16378174D01*
X13002425Y-16378174D02*
X13030996Y-16378174D01*
X13030996Y-16378174D02*
X13050044Y-16387698D01*
X13050044Y-16387698D02*
X13059567Y-16397222D01*
X13059567Y-16397222D02*
X13069091Y-16416269D01*
X13069091Y-16416269D02*
X13069091Y-16463888D01*
X13069091Y-16463888D02*
X13059567Y-16482936D01*
X13059567Y-16482936D02*
X13050044Y-16492460D01*
X13050044Y-16492460D02*
X13030996Y-16501984D01*
X13030996Y-16501984D02*
X12973853Y-16501984D01*
X12973853Y-16501984D02*
X12954806Y-16492460D01*
X12954806Y-16492460D02*
X12945282Y-16482936D01*
X13250044Y-16301984D02*
X13154806Y-16301984D01*
X13154806Y-16301984D02*
X13145282Y-16397222D01*
X13145282Y-16397222D02*
X13154806Y-16387698D01*
X13154806Y-16387698D02*
X13173853Y-16378174D01*
X13173853Y-16378174D02*
X13221472Y-16378174D01*
X13221472Y-16378174D02*
X13240520Y-16387698D01*
X13240520Y-16387698D02*
X13250044Y-16397222D01*
X13250044Y-16397222D02*
X13259567Y-16416269D01*
X13259567Y-16416269D02*
X13259567Y-16463888D01*
X13259567Y-16463888D02*
X13250044Y-16482936D01*
X13250044Y-16482936D02*
X13240520Y-16492460D01*
X13240520Y-16492460D02*
X13221472Y-16501984D01*
X13221472Y-16501984D02*
X13173853Y-16501984D01*
X13173853Y-16501984D02*
X13154806Y-16492460D01*
X13154806Y-16492460D02*
X13145282Y-16482936D01*
X13430996Y-16368650D02*
X13430996Y-16501984D01*
X13383377Y-16292460D02*
X13335758Y-16435317D01*
X13335758Y-16435317D02*
X13459567Y-16435317D01*
X13526234Y-16301984D02*
X13526234Y-16340079D01*
X13602425Y-16301984D02*
X13602425Y-16340079D01*
X13897663Y-16578174D02*
X13888139Y-16568650D01*
X13888139Y-16568650D02*
X13869091Y-16540079D01*
X13869091Y-16540079D02*
X13859568Y-16521031D01*
X13859568Y-16521031D02*
X13850044Y-16492460D01*
X13850044Y-16492460D02*
X13840520Y-16444841D01*
X13840520Y-16444841D02*
X13840520Y-16406746D01*
X13840520Y-16406746D02*
X13850044Y-16359127D01*
X13850044Y-16359127D02*
X13859568Y-16330555D01*
X13859568Y-16330555D02*
X13869091Y-16311508D01*
X13869091Y-16311508D02*
X13888139Y-16282936D01*
X13888139Y-16282936D02*
X13897663Y-16273412D01*
X13964329Y-16321031D02*
X13973853Y-16311508D01*
X13973853Y-16311508D02*
X13992901Y-16301984D01*
X13992901Y-16301984D02*
X14040520Y-16301984D01*
X14040520Y-16301984D02*
X14059568Y-16311508D01*
X14059568Y-16311508D02*
X14069091Y-16321031D01*
X14069091Y-16321031D02*
X14078615Y-16340079D01*
X14078615Y-16340079D02*
X14078615Y-16359127D01*
X14078615Y-16359127D02*
X14069091Y-16387698D01*
X14069091Y-16387698D02*
X13954806Y-16501984D01*
X13954806Y-16501984D02*
X14078615Y-16501984D01*
X14192901Y-16387698D02*
X14173853Y-16378174D01*
X14173853Y-16378174D02*
X14164329Y-16368650D01*
X14164329Y-16368650D02*
X14154806Y-16349603D01*
X14154806Y-16349603D02*
X14154806Y-16340079D01*
X14154806Y-16340079D02*
X14164329Y-16321031D01*
X14164329Y-16321031D02*
X14173853Y-16311508D01*
X14173853Y-16311508D02*
X14192901Y-16301984D01*
X14192901Y-16301984D02*
X14230996Y-16301984D01*
X14230996Y-16301984D02*
X14250044Y-16311508D01*
X14250044Y-16311508D02*
X14259568Y-16321031D01*
X14259568Y-16321031D02*
X14269091Y-16340079D01*
X14269091Y-16340079D02*
X14269091Y-16349603D01*
X14269091Y-16349603D02*
X14259568Y-16368650D01*
X14259568Y-16368650D02*
X14250044Y-16378174D01*
X14250044Y-16378174D02*
X14230996Y-16387698D01*
X14230996Y-16387698D02*
X14192901Y-16387698D01*
X14192901Y-16387698D02*
X14173853Y-16397222D01*
X14173853Y-16397222D02*
X14164329Y-16406746D01*
X14164329Y-16406746D02*
X14154806Y-16425793D01*
X14154806Y-16425793D02*
X14154806Y-16463888D01*
X14154806Y-16463888D02*
X14164329Y-16482936D01*
X14164329Y-16482936D02*
X14173853Y-16492460D01*
X14173853Y-16492460D02*
X14192901Y-16501984D01*
X14192901Y-16501984D02*
X14230996Y-16501984D01*
X14230996Y-16501984D02*
X14250044Y-16492460D01*
X14250044Y-16492460D02*
X14259568Y-16482936D01*
X14259568Y-16482936D02*
X14269091Y-16463888D01*
X14269091Y-16463888D02*
X14269091Y-16425793D01*
X14269091Y-16425793D02*
X14259568Y-16406746D01*
X14259568Y-16406746D02*
X14250044Y-16397222D01*
X14250044Y-16397222D02*
X14230996Y-16387698D01*
X14507187Y-16501984D02*
X14507187Y-16301984D01*
X14592901Y-16501984D02*
X14592901Y-16397222D01*
X14592901Y-16397222D02*
X14583377Y-16378174D01*
X14583377Y-16378174D02*
X14564330Y-16368650D01*
X14564330Y-16368650D02*
X14535758Y-16368650D01*
X14535758Y-16368650D02*
X14516710Y-16378174D01*
X14516710Y-16378174D02*
X14507187Y-16387698D01*
X14716710Y-16501984D02*
X14697663Y-16492460D01*
X14697663Y-16492460D02*
X14688139Y-16482936D01*
X14688139Y-16482936D02*
X14678615Y-16463888D01*
X14678615Y-16463888D02*
X14678615Y-16406746D01*
X14678615Y-16406746D02*
X14688139Y-16387698D01*
X14688139Y-16387698D02*
X14697663Y-16378174D01*
X14697663Y-16378174D02*
X14716710Y-16368650D01*
X14716710Y-16368650D02*
X14745282Y-16368650D01*
X14745282Y-16368650D02*
X14764330Y-16378174D01*
X14764330Y-16378174D02*
X14773853Y-16387698D01*
X14773853Y-16387698D02*
X14783377Y-16406746D01*
X14783377Y-16406746D02*
X14783377Y-16463888D01*
X14783377Y-16463888D02*
X14773853Y-16482936D01*
X14773853Y-16482936D02*
X14764330Y-16492460D01*
X14764330Y-16492460D02*
X14745282Y-16501984D01*
X14745282Y-16501984D02*
X14716710Y-16501984D01*
X14897663Y-16501984D02*
X14878615Y-16492460D01*
X14878615Y-16492460D02*
X14869091Y-16473412D01*
X14869091Y-16473412D02*
X14869091Y-16301984D01*
X15050044Y-16492460D02*
X15030996Y-16501984D01*
X15030996Y-16501984D02*
X14992901Y-16501984D01*
X14992901Y-16501984D02*
X14973853Y-16492460D01*
X14973853Y-16492460D02*
X14964330Y-16473412D01*
X14964330Y-16473412D02*
X14964330Y-16397222D01*
X14964330Y-16397222D02*
X14973853Y-16378174D01*
X14973853Y-16378174D02*
X14992901Y-16368650D01*
X14992901Y-16368650D02*
X15030996Y-16368650D01*
X15030996Y-16368650D02*
X15050044Y-16378174D01*
X15050044Y-16378174D02*
X15059568Y-16397222D01*
X15059568Y-16397222D02*
X15059568Y-16416269D01*
X15059568Y-16416269D02*
X14964330Y-16435317D01*
X15135758Y-16492460D02*
X15154806Y-16501984D01*
X15154806Y-16501984D02*
X15192901Y-16501984D01*
X15192901Y-16501984D02*
X15211949Y-16492460D01*
X15211949Y-16492460D02*
X15221472Y-16473412D01*
X15221472Y-16473412D02*
X15221472Y-16463888D01*
X15221472Y-16463888D02*
X15211949Y-16444841D01*
X15211949Y-16444841D02*
X15192901Y-16435317D01*
X15192901Y-16435317D02*
X15164330Y-16435317D01*
X15164330Y-16435317D02*
X15145282Y-16425793D01*
X15145282Y-16425793D02*
X15135758Y-16406746D01*
X15135758Y-16406746D02*
X15135758Y-16397222D01*
X15135758Y-16397222D02*
X15145282Y-16378174D01*
X15145282Y-16378174D02*
X15164330Y-16368650D01*
X15164330Y-16368650D02*
X15192901Y-16368650D01*
X15192901Y-16368650D02*
X15211949Y-16378174D01*
X15288139Y-16578174D02*
X15297663Y-16568650D01*
X15297663Y-16568650D02*
X15316711Y-16540079D01*
X15316711Y-16540079D02*
X15326234Y-16521031D01*
X15326234Y-16521031D02*
X15335758Y-16492460D01*
X15335758Y-16492460D02*
X15345282Y-16444841D01*
X15345282Y-16444841D02*
X15345282Y-16406746D01*
X15345282Y-16406746D02*
X15335758Y-16359127D01*
X15335758Y-16359127D02*
X15326234Y-16330555D01*
X15326234Y-16330555D02*
X15316711Y-16311508D01*
X15316711Y-16311508D02*
X15297663Y-16282936D01*
X15297663Y-16282936D02*
X15288139Y-16273412D01*
D12*
X10307956Y-16709856D02*
X10307956Y-16639144D01*
X10237244Y-16639144D01*
X10237244Y-16709856D01*
X10307956Y-16709856D01*
D11*
X10688139Y-16765984D02*
X10573853Y-16765984D01*
X10630996Y-16765984D02*
X10630996Y-16565984D01*
X10630996Y-16565984D02*
X10611948Y-16594555D01*
X10611948Y-16594555D02*
X10592901Y-16613603D01*
X10592901Y-16613603D02*
X10573853Y-16623127D01*
X10773853Y-16746936D02*
X10783377Y-16756460D01*
X10783377Y-16756460D02*
X10773853Y-16765984D01*
X10773853Y-16765984D02*
X10764329Y-16756460D01*
X10764329Y-16756460D02*
X10773853Y-16746936D01*
X10773853Y-16746936D02*
X10773853Y-16765984D01*
X10907186Y-16565984D02*
X10926234Y-16565984D01*
X10926234Y-16565984D02*
X10945282Y-16575508D01*
X10945282Y-16575508D02*
X10954805Y-16585031D01*
X10954805Y-16585031D02*
X10964329Y-16604079D01*
X10964329Y-16604079D02*
X10973853Y-16642174D01*
X10973853Y-16642174D02*
X10973853Y-16689793D01*
X10973853Y-16689793D02*
X10964329Y-16727888D01*
X10964329Y-16727888D02*
X10954805Y-16746936D01*
X10954805Y-16746936D02*
X10945282Y-16756460D01*
X10945282Y-16756460D02*
X10926234Y-16765984D01*
X10926234Y-16765984D02*
X10907186Y-16765984D01*
X10907186Y-16765984D02*
X10888139Y-16756460D01*
X10888139Y-16756460D02*
X10878615Y-16746936D01*
X10878615Y-16746936D02*
X10869091Y-16727888D01*
X10869091Y-16727888D02*
X10859567Y-16689793D01*
X10859567Y-16689793D02*
X10859567Y-16642174D01*
X10859567Y-16642174D02*
X10869091Y-16604079D01*
X10869091Y-16604079D02*
X10878615Y-16585031D01*
X10878615Y-16585031D02*
X10888139Y-16575508D01*
X10888139Y-16575508D02*
X10907186Y-16565984D01*
X11097663Y-16565984D02*
X11116710Y-16565984D01*
X11116710Y-16565984D02*
X11135758Y-16575508D01*
X11135758Y-16575508D02*
X11145282Y-16585031D01*
X11145282Y-16585031D02*
X11154805Y-16604079D01*
X11154805Y-16604079D02*
X11164329Y-16642174D01*
X11164329Y-16642174D02*
X11164329Y-16689793D01*
X11164329Y-16689793D02*
X11154805Y-16727888D01*
X11154805Y-16727888D02*
X11145282Y-16746936D01*
X11145282Y-16746936D02*
X11135758Y-16756460D01*
X11135758Y-16756460D02*
X11116710Y-16765984D01*
X11116710Y-16765984D02*
X11097663Y-16765984D01*
X11097663Y-16765984D02*
X11078615Y-16756460D01*
X11078615Y-16756460D02*
X11069091Y-16746936D01*
X11069091Y-16746936D02*
X11059567Y-16727888D01*
X11059567Y-16727888D02*
X11050044Y-16689793D01*
X11050044Y-16689793D02*
X11050044Y-16642174D01*
X11050044Y-16642174D02*
X11059567Y-16604079D01*
X11059567Y-16604079D02*
X11069091Y-16585031D01*
X11069091Y-16585031D02*
X11078615Y-16575508D01*
X11078615Y-16575508D02*
X11097663Y-16565984D01*
X11288139Y-16565984D02*
X11307186Y-16565984D01*
X11307186Y-16565984D02*
X11326234Y-16575508D01*
X11326234Y-16575508D02*
X11335758Y-16585031D01*
X11335758Y-16585031D02*
X11345282Y-16604079D01*
X11345282Y-16604079D02*
X11354805Y-16642174D01*
X11354805Y-16642174D02*
X11354805Y-16689793D01*
X11354805Y-16689793D02*
X11345282Y-16727888D01*
X11345282Y-16727888D02*
X11335758Y-16746936D01*
X11335758Y-16746936D02*
X11326234Y-16756460D01*
X11326234Y-16756460D02*
X11307186Y-16765984D01*
X11307186Y-16765984D02*
X11288139Y-16765984D01*
X11288139Y-16765984D02*
X11269091Y-16756460D01*
X11269091Y-16756460D02*
X11259567Y-16746936D01*
X11259567Y-16746936D02*
X11250043Y-16727888D01*
X11250043Y-16727888D02*
X11240520Y-16689793D01*
X11240520Y-16689793D02*
X11240520Y-16642174D01*
X11240520Y-16642174D02*
X11250043Y-16604079D01*
X11250043Y-16604079D02*
X11259567Y-16585031D01*
X11259567Y-16585031D02*
X11269091Y-16575508D01*
X11269091Y-16575508D02*
X11288139Y-16565984D01*
X11440520Y-16765984D02*
X11440520Y-16632650D01*
X11440520Y-16651698D02*
X11450043Y-16642174D01*
X11450043Y-16642174D02*
X11469091Y-16632650D01*
X11469091Y-16632650D02*
X11497663Y-16632650D01*
X11497663Y-16632650D02*
X11516710Y-16642174D01*
X11516710Y-16642174D02*
X11526234Y-16661222D01*
X11526234Y-16661222D02*
X11526234Y-16765984D01*
X11526234Y-16661222D02*
X11535758Y-16642174D01*
X11535758Y-16642174D02*
X11554805Y-16632650D01*
X11554805Y-16632650D02*
X11583377Y-16632650D01*
X11583377Y-16632650D02*
X11602424Y-16642174D01*
X11602424Y-16642174D02*
X11611948Y-16661222D01*
X11611948Y-16661222D02*
X11611948Y-16765984D01*
X11707186Y-16765984D02*
X11707186Y-16632650D01*
X11707186Y-16651698D02*
X11716710Y-16642174D01*
X11716710Y-16642174D02*
X11735758Y-16632650D01*
X11735758Y-16632650D02*
X11764329Y-16632650D01*
X11764329Y-16632650D02*
X11783377Y-16642174D01*
X11783377Y-16642174D02*
X11792901Y-16661222D01*
X11792901Y-16661222D02*
X11792901Y-16765984D01*
X11792901Y-16661222D02*
X11802424Y-16642174D01*
X11802424Y-16642174D02*
X11821472Y-16632650D01*
X11821472Y-16632650D02*
X11850043Y-16632650D01*
X11850043Y-16632650D02*
X11869091Y-16642174D01*
X11869091Y-16642174D02*
X11878615Y-16661222D01*
X11878615Y-16661222D02*
X11878615Y-16765984D01*
X12269091Y-16556460D02*
X12097663Y-16813603D01*
X12526234Y-16565984D02*
X12545282Y-16565984D01*
X12545282Y-16565984D02*
X12564329Y-16575508D01*
X12564329Y-16575508D02*
X12573853Y-16585031D01*
X12573853Y-16585031D02*
X12583377Y-16604079D01*
X12583377Y-16604079D02*
X12592901Y-16642174D01*
X12592901Y-16642174D02*
X12592901Y-16689793D01*
X12592901Y-16689793D02*
X12583377Y-16727888D01*
X12583377Y-16727888D02*
X12573853Y-16746936D01*
X12573853Y-16746936D02*
X12564329Y-16756460D01*
X12564329Y-16756460D02*
X12545282Y-16765984D01*
X12545282Y-16765984D02*
X12526234Y-16765984D01*
X12526234Y-16765984D02*
X12507186Y-16756460D01*
X12507186Y-16756460D02*
X12497663Y-16746936D01*
X12497663Y-16746936D02*
X12488139Y-16727888D01*
X12488139Y-16727888D02*
X12478615Y-16689793D01*
X12478615Y-16689793D02*
X12478615Y-16642174D01*
X12478615Y-16642174D02*
X12488139Y-16604079D01*
X12488139Y-16604079D02*
X12497663Y-16585031D01*
X12497663Y-16585031D02*
X12507186Y-16575508D01*
X12507186Y-16575508D02*
X12526234Y-16565984D01*
X12678615Y-16746936D02*
X12688139Y-16756460D01*
X12688139Y-16756460D02*
X12678615Y-16765984D01*
X12678615Y-16765984D02*
X12669091Y-16756460D01*
X12669091Y-16756460D02*
X12678615Y-16746936D01*
X12678615Y-16746936D02*
X12678615Y-16765984D01*
X12811948Y-16565984D02*
X12830996Y-16565984D01*
X12830996Y-16565984D02*
X12850044Y-16575508D01*
X12850044Y-16575508D02*
X12859567Y-16585031D01*
X12859567Y-16585031D02*
X12869091Y-16604079D01*
X12869091Y-16604079D02*
X12878615Y-16642174D01*
X12878615Y-16642174D02*
X12878615Y-16689793D01*
X12878615Y-16689793D02*
X12869091Y-16727888D01*
X12869091Y-16727888D02*
X12859567Y-16746936D01*
X12859567Y-16746936D02*
X12850044Y-16756460D01*
X12850044Y-16756460D02*
X12830996Y-16765984D01*
X12830996Y-16765984D02*
X12811948Y-16765984D01*
X12811948Y-16765984D02*
X12792901Y-16756460D01*
X12792901Y-16756460D02*
X12783377Y-16746936D01*
X12783377Y-16746936D02*
X12773853Y-16727888D01*
X12773853Y-16727888D02*
X12764329Y-16689793D01*
X12764329Y-16689793D02*
X12764329Y-16642174D01*
X12764329Y-16642174D02*
X12773853Y-16604079D01*
X12773853Y-16604079D02*
X12783377Y-16585031D01*
X12783377Y-16585031D02*
X12792901Y-16575508D01*
X12792901Y-16575508D02*
X12811948Y-16565984D01*
X12945282Y-16565984D02*
X13069091Y-16565984D01*
X13069091Y-16565984D02*
X13002425Y-16642174D01*
X13002425Y-16642174D02*
X13030996Y-16642174D01*
X13030996Y-16642174D02*
X13050044Y-16651698D01*
X13050044Y-16651698D02*
X13059567Y-16661222D01*
X13059567Y-16661222D02*
X13069091Y-16680269D01*
X13069091Y-16680269D02*
X13069091Y-16727888D01*
X13069091Y-16727888D02*
X13059567Y-16746936D01*
X13059567Y-16746936D02*
X13050044Y-16756460D01*
X13050044Y-16756460D02*
X13030996Y-16765984D01*
X13030996Y-16765984D02*
X12973853Y-16765984D01*
X12973853Y-16765984D02*
X12954806Y-16756460D01*
X12954806Y-16756460D02*
X12945282Y-16746936D01*
X13164329Y-16765984D02*
X13202425Y-16765984D01*
X13202425Y-16765984D02*
X13221472Y-16756460D01*
X13221472Y-16756460D02*
X13230996Y-16746936D01*
X13230996Y-16746936D02*
X13250044Y-16718365D01*
X13250044Y-16718365D02*
X13259567Y-16680269D01*
X13259567Y-16680269D02*
X13259567Y-16604079D01*
X13259567Y-16604079D02*
X13250044Y-16585031D01*
X13250044Y-16585031D02*
X13240520Y-16575508D01*
X13240520Y-16575508D02*
X13221472Y-16565984D01*
X13221472Y-16565984D02*
X13183377Y-16565984D01*
X13183377Y-16565984D02*
X13164329Y-16575508D01*
X13164329Y-16575508D02*
X13154806Y-16585031D01*
X13154806Y-16585031D02*
X13145282Y-16604079D01*
X13145282Y-16604079D02*
X13145282Y-16651698D01*
X13145282Y-16651698D02*
X13154806Y-16670746D01*
X13154806Y-16670746D02*
X13164329Y-16680269D01*
X13164329Y-16680269D02*
X13183377Y-16689793D01*
X13183377Y-16689793D02*
X13221472Y-16689793D01*
X13221472Y-16689793D02*
X13240520Y-16680269D01*
X13240520Y-16680269D02*
X13250044Y-16670746D01*
X13250044Y-16670746D02*
X13259567Y-16651698D01*
X13430996Y-16632650D02*
X13430996Y-16765984D01*
X13383377Y-16556460D02*
X13335758Y-16699317D01*
X13335758Y-16699317D02*
X13459567Y-16699317D01*
X13526234Y-16565984D02*
X13526234Y-16604079D01*
X13602425Y-16565984D02*
X13602425Y-16604079D01*
X13897663Y-16842174D02*
X13888139Y-16832650D01*
X13888139Y-16832650D02*
X13869091Y-16804079D01*
X13869091Y-16804079D02*
X13859568Y-16785031D01*
X13859568Y-16785031D02*
X13850044Y-16756460D01*
X13850044Y-16756460D02*
X13840520Y-16708841D01*
X13840520Y-16708841D02*
X13840520Y-16670746D01*
X13840520Y-16670746D02*
X13850044Y-16623127D01*
X13850044Y-16623127D02*
X13859568Y-16594555D01*
X13859568Y-16594555D02*
X13869091Y-16575508D01*
X13869091Y-16575508D02*
X13888139Y-16546936D01*
X13888139Y-16546936D02*
X13897663Y-16537412D01*
X14059568Y-16632650D02*
X14059568Y-16765984D01*
X14011948Y-16556460D02*
X13964329Y-16699317D01*
X13964329Y-16699317D02*
X14088139Y-16699317D01*
X14202425Y-16565984D02*
X14221472Y-16565984D01*
X14221472Y-16565984D02*
X14240520Y-16575508D01*
X14240520Y-16575508D02*
X14250044Y-16585031D01*
X14250044Y-16585031D02*
X14259568Y-16604079D01*
X14259568Y-16604079D02*
X14269091Y-16642174D01*
X14269091Y-16642174D02*
X14269091Y-16689793D01*
X14269091Y-16689793D02*
X14259568Y-16727888D01*
X14259568Y-16727888D02*
X14250044Y-16746936D01*
X14250044Y-16746936D02*
X14240520Y-16756460D01*
X14240520Y-16756460D02*
X14221472Y-16765984D01*
X14221472Y-16765984D02*
X14202425Y-16765984D01*
X14202425Y-16765984D02*
X14183377Y-16756460D01*
X14183377Y-16756460D02*
X14173853Y-16746936D01*
X14173853Y-16746936D02*
X14164329Y-16727888D01*
X14164329Y-16727888D02*
X14154806Y-16689793D01*
X14154806Y-16689793D02*
X14154806Y-16642174D01*
X14154806Y-16642174D02*
X14164329Y-16604079D01*
X14164329Y-16604079D02*
X14173853Y-16585031D01*
X14173853Y-16585031D02*
X14183377Y-16575508D01*
X14183377Y-16575508D02*
X14202425Y-16565984D01*
X14507187Y-16765984D02*
X14507187Y-16565984D01*
X14592901Y-16765984D02*
X14592901Y-16661222D01*
X14592901Y-16661222D02*
X14583377Y-16642174D01*
X14583377Y-16642174D02*
X14564330Y-16632650D01*
X14564330Y-16632650D02*
X14535758Y-16632650D01*
X14535758Y-16632650D02*
X14516710Y-16642174D01*
X14516710Y-16642174D02*
X14507187Y-16651698D01*
X14716710Y-16765984D02*
X14697663Y-16756460D01*
X14697663Y-16756460D02*
X14688139Y-16746936D01*
X14688139Y-16746936D02*
X14678615Y-16727888D01*
X14678615Y-16727888D02*
X14678615Y-16670746D01*
X14678615Y-16670746D02*
X14688139Y-16651698D01*
X14688139Y-16651698D02*
X14697663Y-16642174D01*
X14697663Y-16642174D02*
X14716710Y-16632650D01*
X14716710Y-16632650D02*
X14745282Y-16632650D01*
X14745282Y-16632650D02*
X14764330Y-16642174D01*
X14764330Y-16642174D02*
X14773853Y-16651698D01*
X14773853Y-16651698D02*
X14783377Y-16670746D01*
X14783377Y-16670746D02*
X14783377Y-16727888D01*
X14783377Y-16727888D02*
X14773853Y-16746936D01*
X14773853Y-16746936D02*
X14764330Y-16756460D01*
X14764330Y-16756460D02*
X14745282Y-16765984D01*
X14745282Y-16765984D02*
X14716710Y-16765984D01*
X14897663Y-16765984D02*
X14878615Y-16756460D01*
X14878615Y-16756460D02*
X14869091Y-16737412D01*
X14869091Y-16737412D02*
X14869091Y-16565984D01*
X15050044Y-16756460D02*
X15030996Y-16765984D01*
X15030996Y-16765984D02*
X14992901Y-16765984D01*
X14992901Y-16765984D02*
X14973853Y-16756460D01*
X14973853Y-16756460D02*
X14964330Y-16737412D01*
X14964330Y-16737412D02*
X14964330Y-16661222D01*
X14964330Y-16661222D02*
X14973853Y-16642174D01*
X14973853Y-16642174D02*
X14992901Y-16632650D01*
X14992901Y-16632650D02*
X15030996Y-16632650D01*
X15030996Y-16632650D02*
X15050044Y-16642174D01*
X15050044Y-16642174D02*
X15059568Y-16661222D01*
X15059568Y-16661222D02*
X15059568Y-16680269D01*
X15059568Y-16680269D02*
X14964330Y-16699317D01*
X15135758Y-16756460D02*
X15154806Y-16765984D01*
X15154806Y-16765984D02*
X15192901Y-16765984D01*
X15192901Y-16765984D02*
X15211949Y-16756460D01*
X15211949Y-16756460D02*
X15221472Y-16737412D01*
X15221472Y-16737412D02*
X15221472Y-16727888D01*
X15221472Y-16727888D02*
X15211949Y-16708841D01*
X15211949Y-16708841D02*
X15192901Y-16699317D01*
X15192901Y-16699317D02*
X15164330Y-16699317D01*
X15164330Y-16699317D02*
X15145282Y-16689793D01*
X15145282Y-16689793D02*
X15135758Y-16670746D01*
X15135758Y-16670746D02*
X15135758Y-16661222D01*
X15135758Y-16661222D02*
X15145282Y-16642174D01*
X15145282Y-16642174D02*
X15164330Y-16632650D01*
X15164330Y-16632650D02*
X15192901Y-16632650D01*
X15192901Y-16632650D02*
X15211949Y-16642174D01*
X15288139Y-16842174D02*
X15297663Y-16832650D01*
X15297663Y-16832650D02*
X15316711Y-16804079D01*
X15316711Y-16804079D02*
X15326234Y-16785031D01*
X15326234Y-16785031D02*
X15335758Y-16756460D01*
X15335758Y-16756460D02*
X15345282Y-16708841D01*
X15345282Y-16708841D02*
X15345282Y-16670746D01*
X15345282Y-16670746D02*
X15335758Y-16623127D01*
X15335758Y-16623127D02*
X15326234Y-16594555D01*
X15326234Y-16594555D02*
X15316711Y-16575508D01*
X15316711Y-16575508D02*
X15297663Y-16546936D01*
X15297663Y-16546936D02*
X15288139Y-16537412D01*
X10222600Y-17038500D02*
X10322600Y-16938500D01*
X10222600Y-16838500D01*
X10122600Y-16938500D01*
X10222600Y-17038500D01*
X10564329Y-16829984D02*
X10688139Y-16829984D01*
X10688139Y-16829984D02*
X10621472Y-16906174D01*
X10621472Y-16906174D02*
X10650044Y-16906174D01*
X10650044Y-16906174D02*
X10669091Y-16915698D01*
X10669091Y-16915698D02*
X10678615Y-16925222D01*
X10678615Y-16925222D02*
X10688139Y-16944270D01*
X10688139Y-16944270D02*
X10688139Y-16991889D01*
X10688139Y-16991889D02*
X10678615Y-17010936D01*
X10678615Y-17010936D02*
X10669091Y-17020460D01*
X10669091Y-17020460D02*
X10650044Y-17029984D01*
X10650044Y-17029984D02*
X10592901Y-17029984D01*
X10592901Y-17029984D02*
X10573853Y-17020460D01*
X10573853Y-17020460D02*
X10564329Y-17010936D01*
X10773853Y-17010936D02*
X10783377Y-17020460D01*
X10783377Y-17020460D02*
X10773853Y-17029984D01*
X10773853Y-17029984D02*
X10764329Y-17020460D01*
X10764329Y-17020460D02*
X10773853Y-17010936D01*
X10773853Y-17010936D02*
X10773853Y-17029984D01*
X10859567Y-16849031D02*
X10869091Y-16839508D01*
X10869091Y-16839508D02*
X10888139Y-16829984D01*
X10888139Y-16829984D02*
X10935758Y-16829984D01*
X10935758Y-16829984D02*
X10954805Y-16839508D01*
X10954805Y-16839508D02*
X10964329Y-16849031D01*
X10964329Y-16849031D02*
X10973853Y-16868079D01*
X10973853Y-16868079D02*
X10973853Y-16887127D01*
X10973853Y-16887127D02*
X10964329Y-16915698D01*
X10964329Y-16915698D02*
X10850044Y-17029984D01*
X10850044Y-17029984D02*
X10973853Y-17029984D01*
X11097663Y-16829984D02*
X11116710Y-16829984D01*
X11116710Y-16829984D02*
X11135758Y-16839508D01*
X11135758Y-16839508D02*
X11145282Y-16849031D01*
X11145282Y-16849031D02*
X11154805Y-16868079D01*
X11154805Y-16868079D02*
X11164329Y-16906174D01*
X11164329Y-16906174D02*
X11164329Y-16953793D01*
X11164329Y-16953793D02*
X11154805Y-16991889D01*
X11154805Y-16991889D02*
X11145282Y-17010936D01*
X11145282Y-17010936D02*
X11135758Y-17020460D01*
X11135758Y-17020460D02*
X11116710Y-17029984D01*
X11116710Y-17029984D02*
X11097663Y-17029984D01*
X11097663Y-17029984D02*
X11078615Y-17020460D01*
X11078615Y-17020460D02*
X11069091Y-17010936D01*
X11069091Y-17010936D02*
X11059567Y-16991889D01*
X11059567Y-16991889D02*
X11050044Y-16953793D01*
X11050044Y-16953793D02*
X11050044Y-16906174D01*
X11050044Y-16906174D02*
X11059567Y-16868079D01*
X11059567Y-16868079D02*
X11069091Y-16849031D01*
X11069091Y-16849031D02*
X11078615Y-16839508D01*
X11078615Y-16839508D02*
X11097663Y-16829984D01*
X11288139Y-16829984D02*
X11307186Y-16829984D01*
X11307186Y-16829984D02*
X11326234Y-16839508D01*
X11326234Y-16839508D02*
X11335758Y-16849031D01*
X11335758Y-16849031D02*
X11345282Y-16868079D01*
X11345282Y-16868079D02*
X11354805Y-16906174D01*
X11354805Y-16906174D02*
X11354805Y-16953793D01*
X11354805Y-16953793D02*
X11345282Y-16991889D01*
X11345282Y-16991889D02*
X11335758Y-17010936D01*
X11335758Y-17010936D02*
X11326234Y-17020460D01*
X11326234Y-17020460D02*
X11307186Y-17029984D01*
X11307186Y-17029984D02*
X11288139Y-17029984D01*
X11288139Y-17029984D02*
X11269091Y-17020460D01*
X11269091Y-17020460D02*
X11259567Y-17010936D01*
X11259567Y-17010936D02*
X11250043Y-16991889D01*
X11250043Y-16991889D02*
X11240520Y-16953793D01*
X11240520Y-16953793D02*
X11240520Y-16906174D01*
X11240520Y-16906174D02*
X11250043Y-16868079D01*
X11250043Y-16868079D02*
X11259567Y-16849031D01*
X11259567Y-16849031D02*
X11269091Y-16839508D01*
X11269091Y-16839508D02*
X11288139Y-16829984D01*
X11440520Y-17029984D02*
X11440520Y-16896650D01*
X11440520Y-16915698D02*
X11450043Y-16906174D01*
X11450043Y-16906174D02*
X11469091Y-16896650D01*
X11469091Y-16896650D02*
X11497663Y-16896650D01*
X11497663Y-16896650D02*
X11516710Y-16906174D01*
X11516710Y-16906174D02*
X11526234Y-16925222D01*
X11526234Y-16925222D02*
X11526234Y-17029984D01*
X11526234Y-16925222D02*
X11535758Y-16906174D01*
X11535758Y-16906174D02*
X11554805Y-16896650D01*
X11554805Y-16896650D02*
X11583377Y-16896650D01*
X11583377Y-16896650D02*
X11602424Y-16906174D01*
X11602424Y-16906174D02*
X11611948Y-16925222D01*
X11611948Y-16925222D02*
X11611948Y-17029984D01*
X11707186Y-17029984D02*
X11707186Y-16896650D01*
X11707186Y-16915698D02*
X11716710Y-16906174D01*
X11716710Y-16906174D02*
X11735758Y-16896650D01*
X11735758Y-16896650D02*
X11764329Y-16896650D01*
X11764329Y-16896650D02*
X11783377Y-16906174D01*
X11783377Y-16906174D02*
X11792901Y-16925222D01*
X11792901Y-16925222D02*
X11792901Y-17029984D01*
X11792901Y-16925222D02*
X11802424Y-16906174D01*
X11802424Y-16906174D02*
X11821472Y-16896650D01*
X11821472Y-16896650D02*
X11850043Y-16896650D01*
X11850043Y-16896650D02*
X11869091Y-16906174D01*
X11869091Y-16906174D02*
X11878615Y-16925222D01*
X11878615Y-16925222D02*
X11878615Y-17029984D01*
X12269091Y-16820460D02*
X12097663Y-17077603D01*
X12526234Y-16829984D02*
X12545282Y-16829984D01*
X12545282Y-16829984D02*
X12564329Y-16839508D01*
X12564329Y-16839508D02*
X12573853Y-16849031D01*
X12573853Y-16849031D02*
X12583377Y-16868079D01*
X12583377Y-16868079D02*
X12592901Y-16906174D01*
X12592901Y-16906174D02*
X12592901Y-16953793D01*
X12592901Y-16953793D02*
X12583377Y-16991889D01*
X12583377Y-16991889D02*
X12573853Y-17010936D01*
X12573853Y-17010936D02*
X12564329Y-17020460D01*
X12564329Y-17020460D02*
X12545282Y-17029984D01*
X12545282Y-17029984D02*
X12526234Y-17029984D01*
X12526234Y-17029984D02*
X12507186Y-17020460D01*
X12507186Y-17020460D02*
X12497663Y-17010936D01*
X12497663Y-17010936D02*
X12488139Y-16991889D01*
X12488139Y-16991889D02*
X12478615Y-16953793D01*
X12478615Y-16953793D02*
X12478615Y-16906174D01*
X12478615Y-16906174D02*
X12488139Y-16868079D01*
X12488139Y-16868079D02*
X12497663Y-16849031D01*
X12497663Y-16849031D02*
X12507186Y-16839508D01*
X12507186Y-16839508D02*
X12526234Y-16829984D01*
X12678615Y-17010936D02*
X12688139Y-17020460D01*
X12688139Y-17020460D02*
X12678615Y-17029984D01*
X12678615Y-17029984D02*
X12669091Y-17020460D01*
X12669091Y-17020460D02*
X12678615Y-17010936D01*
X12678615Y-17010936D02*
X12678615Y-17029984D01*
X12878615Y-17029984D02*
X12764329Y-17029984D01*
X12821472Y-17029984D02*
X12821472Y-16829984D01*
X12821472Y-16829984D02*
X12802425Y-16858555D01*
X12802425Y-16858555D02*
X12783377Y-16877603D01*
X12783377Y-16877603D02*
X12764329Y-16887127D01*
X12954806Y-16849031D02*
X12964329Y-16839508D01*
X12964329Y-16839508D02*
X12983377Y-16829984D01*
X12983377Y-16829984D02*
X13030996Y-16829984D01*
X13030996Y-16829984D02*
X13050044Y-16839508D01*
X13050044Y-16839508D02*
X13059567Y-16849031D01*
X13059567Y-16849031D02*
X13069091Y-16868079D01*
X13069091Y-16868079D02*
X13069091Y-16887127D01*
X13069091Y-16887127D02*
X13059567Y-16915698D01*
X13059567Y-16915698D02*
X12945282Y-17029984D01*
X12945282Y-17029984D02*
X13069091Y-17029984D01*
X13240520Y-16829984D02*
X13202425Y-16829984D01*
X13202425Y-16829984D02*
X13183377Y-16839508D01*
X13183377Y-16839508D02*
X13173853Y-16849031D01*
X13173853Y-16849031D02*
X13154806Y-16877603D01*
X13154806Y-16877603D02*
X13145282Y-16915698D01*
X13145282Y-16915698D02*
X13145282Y-16991889D01*
X13145282Y-16991889D02*
X13154806Y-17010936D01*
X13154806Y-17010936D02*
X13164329Y-17020460D01*
X13164329Y-17020460D02*
X13183377Y-17029984D01*
X13183377Y-17029984D02*
X13221472Y-17029984D01*
X13221472Y-17029984D02*
X13240520Y-17020460D01*
X13240520Y-17020460D02*
X13250044Y-17010936D01*
X13250044Y-17010936D02*
X13259567Y-16991889D01*
X13259567Y-16991889D02*
X13259567Y-16944270D01*
X13259567Y-16944270D02*
X13250044Y-16925222D01*
X13250044Y-16925222D02*
X13240520Y-16915698D01*
X13240520Y-16915698D02*
X13221472Y-16906174D01*
X13221472Y-16906174D02*
X13183377Y-16906174D01*
X13183377Y-16906174D02*
X13164329Y-16915698D01*
X13164329Y-16915698D02*
X13154806Y-16925222D01*
X13154806Y-16925222D02*
X13145282Y-16944270D01*
X13383377Y-16829984D02*
X13402425Y-16829984D01*
X13402425Y-16829984D02*
X13421472Y-16839508D01*
X13421472Y-16839508D02*
X13430996Y-16849031D01*
X13430996Y-16849031D02*
X13440520Y-16868079D01*
X13440520Y-16868079D02*
X13450044Y-16906174D01*
X13450044Y-16906174D02*
X13450044Y-16953793D01*
X13450044Y-16953793D02*
X13440520Y-16991889D01*
X13440520Y-16991889D02*
X13430996Y-17010936D01*
X13430996Y-17010936D02*
X13421472Y-17020460D01*
X13421472Y-17020460D02*
X13402425Y-17029984D01*
X13402425Y-17029984D02*
X13383377Y-17029984D01*
X13383377Y-17029984D02*
X13364329Y-17020460D01*
X13364329Y-17020460D02*
X13354806Y-17010936D01*
X13354806Y-17010936D02*
X13345282Y-16991889D01*
X13345282Y-16991889D02*
X13335758Y-16953793D01*
X13335758Y-16953793D02*
X13335758Y-16906174D01*
X13335758Y-16906174D02*
X13345282Y-16868079D01*
X13345282Y-16868079D02*
X13354806Y-16849031D01*
X13354806Y-16849031D02*
X13364329Y-16839508D01*
X13364329Y-16839508D02*
X13383377Y-16829984D01*
X13526234Y-16829984D02*
X13526234Y-16868079D01*
X13602425Y-16829984D02*
X13602425Y-16868079D01*
X13897663Y-17106174D02*
X13888139Y-17096650D01*
X13888139Y-17096650D02*
X13869091Y-17068079D01*
X13869091Y-17068079D02*
X13859568Y-17049031D01*
X13859568Y-17049031D02*
X13850044Y-17020460D01*
X13850044Y-17020460D02*
X13840520Y-16972841D01*
X13840520Y-16972841D02*
X13840520Y-16934746D01*
X13840520Y-16934746D02*
X13850044Y-16887127D01*
X13850044Y-16887127D02*
X13859568Y-16858555D01*
X13859568Y-16858555D02*
X13869091Y-16839508D01*
X13869091Y-16839508D02*
X13888139Y-16810936D01*
X13888139Y-16810936D02*
X13897663Y-16801412D01*
X13964329Y-16849031D02*
X13973853Y-16839508D01*
X13973853Y-16839508D02*
X13992901Y-16829984D01*
X13992901Y-16829984D02*
X14040520Y-16829984D01*
X14040520Y-16829984D02*
X14059568Y-16839508D01*
X14059568Y-16839508D02*
X14069091Y-16849031D01*
X14069091Y-16849031D02*
X14078615Y-16868079D01*
X14078615Y-16868079D02*
X14078615Y-16887127D01*
X14078615Y-16887127D02*
X14069091Y-16915698D01*
X14069091Y-16915698D02*
X13954806Y-17029984D01*
X13954806Y-17029984D02*
X14078615Y-17029984D01*
X14316710Y-17029984D02*
X14316710Y-16829984D01*
X14402425Y-17029984D02*
X14402425Y-16925222D01*
X14402425Y-16925222D02*
X14392901Y-16906174D01*
X14392901Y-16906174D02*
X14373853Y-16896650D01*
X14373853Y-16896650D02*
X14345282Y-16896650D01*
X14345282Y-16896650D02*
X14326234Y-16906174D01*
X14326234Y-16906174D02*
X14316710Y-16915698D01*
X14526234Y-17029984D02*
X14507187Y-17020460D01*
X14507187Y-17020460D02*
X14497663Y-17010936D01*
X14497663Y-17010936D02*
X14488139Y-16991889D01*
X14488139Y-16991889D02*
X14488139Y-16934746D01*
X14488139Y-16934746D02*
X14497663Y-16915698D01*
X14497663Y-16915698D02*
X14507187Y-16906174D01*
X14507187Y-16906174D02*
X14526234Y-16896650D01*
X14526234Y-16896650D02*
X14554806Y-16896650D01*
X14554806Y-16896650D02*
X14573853Y-16906174D01*
X14573853Y-16906174D02*
X14583377Y-16915698D01*
X14583377Y-16915698D02*
X14592901Y-16934746D01*
X14592901Y-16934746D02*
X14592901Y-16991889D01*
X14592901Y-16991889D02*
X14583377Y-17010936D01*
X14583377Y-17010936D02*
X14573853Y-17020460D01*
X14573853Y-17020460D02*
X14554806Y-17029984D01*
X14554806Y-17029984D02*
X14526234Y-17029984D01*
X14707187Y-17029984D02*
X14688139Y-17020460D01*
X14688139Y-17020460D02*
X14678615Y-17001412D01*
X14678615Y-17001412D02*
X14678615Y-16829984D01*
X14859568Y-17020460D02*
X14840520Y-17029984D01*
X14840520Y-17029984D02*
X14802425Y-17029984D01*
X14802425Y-17029984D02*
X14783377Y-17020460D01*
X14783377Y-17020460D02*
X14773853Y-17001412D01*
X14773853Y-17001412D02*
X14773853Y-16925222D01*
X14773853Y-16925222D02*
X14783377Y-16906174D01*
X14783377Y-16906174D02*
X14802425Y-16896650D01*
X14802425Y-16896650D02*
X14840520Y-16896650D01*
X14840520Y-16896650D02*
X14859568Y-16906174D01*
X14859568Y-16906174D02*
X14869091Y-16925222D01*
X14869091Y-16925222D02*
X14869091Y-16944270D01*
X14869091Y-16944270D02*
X14773853Y-16963317D01*
X14945282Y-17020460D02*
X14964330Y-17029984D01*
X14964330Y-17029984D02*
X15002425Y-17029984D01*
X15002425Y-17029984D02*
X15021472Y-17020460D01*
X15021472Y-17020460D02*
X15030996Y-17001412D01*
X15030996Y-17001412D02*
X15030996Y-16991889D01*
X15030996Y-16991889D02*
X15021472Y-16972841D01*
X15021472Y-16972841D02*
X15002425Y-16963317D01*
X15002425Y-16963317D02*
X14973853Y-16963317D01*
X14973853Y-16963317D02*
X14954806Y-16953793D01*
X14954806Y-16953793D02*
X14945282Y-16934746D01*
X14945282Y-16934746D02*
X14945282Y-16925222D01*
X14945282Y-16925222D02*
X14954806Y-16906174D01*
X14954806Y-16906174D02*
X14973853Y-16896650D01*
X14973853Y-16896650D02*
X15002425Y-16896650D01*
X15002425Y-16896650D02*
X15021472Y-16906174D01*
X15097663Y-17106174D02*
X15107187Y-17096650D01*
X15107187Y-17096650D02*
X15126234Y-17068079D01*
X15126234Y-17068079D02*
X15135758Y-17049031D01*
X15135758Y-17049031D02*
X15145282Y-17020460D01*
X15145282Y-17020460D02*
X15154806Y-16972841D01*
X15154806Y-16972841D02*
X15154806Y-16934746D01*
X15154806Y-16934746D02*
X15145282Y-16887127D01*
X15145282Y-16887127D02*
X15135758Y-16858555D01*
X15135758Y-16858555D02*
X15126234Y-16839508D01*
X15126234Y-16839508D02*
X15107187Y-16810936D01*
X15107187Y-16810936D02*
X15097663Y-16801412D01*
M02*
