%TF.GenerationSoftware,KiCad,Pcbnew,8.0.8*%
%TF.CreationDate,2025-02-01T04:41:03+02:00*%
%TF.ProjectId,my_raspi_gpib,6d795f72-6173-4706-995f-677069622e6b,rev?*%
%TF.SameCoordinates,Original*%
%TF.FileFunction,Drillmap*%
%TF.FilePolarity,Positive*%
%FSLAX45Y45*%
G04 Gerber Fmt 4.5, Leading zero omitted, Abs format (unit mm)*
G04 Created by KiCad (PCBNEW 8.0.8) date 2025-02-01 04:41:03*
%MOMM*%
%LPD*%
G01*
G04 APERTURE LIST*
%ADD10C,0.050000*%
%ADD11C,0.200000*%
%ADD12C,0.320000*%
G04 APERTURE END LIST*
D10*
X20320000Y-15240000D02*
X10325100Y-15240000D01*
X20320000Y-5245100D02*
X20320000Y-15240000D01*
X10325100Y-15240000D02*
X10325100Y-5245100D01*
X10325100Y-5245100D02*
X20320000Y-5245100D01*
D11*
D12*
X10520700Y-5440700D02*
X10840700Y-5760700D01*
X10840700Y-5440700D02*
X10520700Y-5760700D01*
X10520700Y-14724400D02*
X10840700Y-15044400D01*
X10840700Y-14724400D02*
X10520700Y-15044400D01*
X19804400Y-5440700D02*
X20124400Y-5760700D01*
X20124400Y-5440700D02*
X19804400Y-5760700D01*
X19804400Y-14724400D02*
X20124400Y-15044400D01*
X20124400Y-14724400D02*
X19804400Y-15044400D01*
D11*
X10583377Y-15553984D02*
X10583377Y-15353984D01*
X10583377Y-15353984D02*
X10630996Y-15353984D01*
X10630996Y-15353984D02*
X10659567Y-15363508D01*
X10659567Y-15363508D02*
X10678615Y-15382555D01*
X10678615Y-15382555D02*
X10688139Y-15401603D01*
X10688139Y-15401603D02*
X10697663Y-15439698D01*
X10697663Y-15439698D02*
X10697663Y-15468269D01*
X10697663Y-15468269D02*
X10688139Y-15506365D01*
X10688139Y-15506365D02*
X10678615Y-15525412D01*
X10678615Y-15525412D02*
X10659567Y-15544460D01*
X10659567Y-15544460D02*
X10630996Y-15553984D01*
X10630996Y-15553984D02*
X10583377Y-15553984D01*
X10783377Y-15553984D02*
X10783377Y-15420650D01*
X10783377Y-15458746D02*
X10792901Y-15439698D01*
X10792901Y-15439698D02*
X10802424Y-15430174D01*
X10802424Y-15430174D02*
X10821472Y-15420650D01*
X10821472Y-15420650D02*
X10840520Y-15420650D01*
X10907186Y-15553984D02*
X10907186Y-15420650D01*
X10907186Y-15353984D02*
X10897663Y-15363508D01*
X10897663Y-15363508D02*
X10907186Y-15373031D01*
X10907186Y-15373031D02*
X10916710Y-15363508D01*
X10916710Y-15363508D02*
X10907186Y-15353984D01*
X10907186Y-15353984D02*
X10907186Y-15373031D01*
X11030996Y-15553984D02*
X11011948Y-15544460D01*
X11011948Y-15544460D02*
X11002424Y-15525412D01*
X11002424Y-15525412D02*
X11002424Y-15353984D01*
X11135758Y-15553984D02*
X11116710Y-15544460D01*
X11116710Y-15544460D02*
X11107186Y-15525412D01*
X11107186Y-15525412D02*
X11107186Y-15353984D01*
X11364329Y-15553984D02*
X11364329Y-15353984D01*
X11364329Y-15353984D02*
X11430996Y-15496841D01*
X11430996Y-15496841D02*
X11497662Y-15353984D01*
X11497662Y-15353984D02*
X11497662Y-15553984D01*
X11678615Y-15553984D02*
X11678615Y-15449222D01*
X11678615Y-15449222D02*
X11669091Y-15430174D01*
X11669091Y-15430174D02*
X11650043Y-15420650D01*
X11650043Y-15420650D02*
X11611948Y-15420650D01*
X11611948Y-15420650D02*
X11592901Y-15430174D01*
X11678615Y-15544460D02*
X11659567Y-15553984D01*
X11659567Y-15553984D02*
X11611948Y-15553984D01*
X11611948Y-15553984D02*
X11592901Y-15544460D01*
X11592901Y-15544460D02*
X11583377Y-15525412D01*
X11583377Y-15525412D02*
X11583377Y-15506365D01*
X11583377Y-15506365D02*
X11592901Y-15487317D01*
X11592901Y-15487317D02*
X11611948Y-15477793D01*
X11611948Y-15477793D02*
X11659567Y-15477793D01*
X11659567Y-15477793D02*
X11678615Y-15468269D01*
X11773853Y-15420650D02*
X11773853Y-15620650D01*
X11773853Y-15430174D02*
X11792901Y-15420650D01*
X11792901Y-15420650D02*
X11830996Y-15420650D01*
X11830996Y-15420650D02*
X11850043Y-15430174D01*
X11850043Y-15430174D02*
X11859567Y-15439698D01*
X11859567Y-15439698D02*
X11869091Y-15458746D01*
X11869091Y-15458746D02*
X11869091Y-15515888D01*
X11869091Y-15515888D02*
X11859567Y-15534936D01*
X11859567Y-15534936D02*
X11850043Y-15544460D01*
X11850043Y-15544460D02*
X11830996Y-15553984D01*
X11830996Y-15553984D02*
X11792901Y-15553984D01*
X11792901Y-15553984D02*
X11773853Y-15544460D01*
X11954805Y-15534936D02*
X11964329Y-15544460D01*
X11964329Y-15544460D02*
X11954805Y-15553984D01*
X11954805Y-15553984D02*
X11945282Y-15544460D01*
X11945282Y-15544460D02*
X11954805Y-15534936D01*
X11954805Y-15534936D02*
X11954805Y-15553984D01*
X11954805Y-15430174D02*
X11964329Y-15439698D01*
X11964329Y-15439698D02*
X11954805Y-15449222D01*
X11954805Y-15449222D02*
X11945282Y-15439698D01*
X11945282Y-15439698D02*
X11954805Y-15430174D01*
X11954805Y-15430174D02*
X11954805Y-15449222D01*
X10122600Y-15782500D02*
X10322600Y-15982500D01*
X10322600Y-15782500D02*
X10122600Y-15982500D01*
X10564329Y-15773984D02*
X10688139Y-15773984D01*
X10688139Y-15773984D02*
X10621472Y-15850174D01*
X10621472Y-15850174D02*
X10650044Y-15850174D01*
X10650044Y-15850174D02*
X10669091Y-15859698D01*
X10669091Y-15859698D02*
X10678615Y-15869222D01*
X10678615Y-15869222D02*
X10688139Y-15888269D01*
X10688139Y-15888269D02*
X10688139Y-15935888D01*
X10688139Y-15935888D02*
X10678615Y-15954936D01*
X10678615Y-15954936D02*
X10669091Y-15964460D01*
X10669091Y-15964460D02*
X10650044Y-15973984D01*
X10650044Y-15973984D02*
X10592901Y-15973984D01*
X10592901Y-15973984D02*
X10573853Y-15964460D01*
X10573853Y-15964460D02*
X10564329Y-15954936D01*
X10773853Y-15954936D02*
X10783377Y-15964460D01*
X10783377Y-15964460D02*
X10773853Y-15973984D01*
X10773853Y-15973984D02*
X10764329Y-15964460D01*
X10764329Y-15964460D02*
X10773853Y-15954936D01*
X10773853Y-15954936D02*
X10773853Y-15973984D01*
X10859567Y-15793031D02*
X10869091Y-15783508D01*
X10869091Y-15783508D02*
X10888139Y-15773984D01*
X10888139Y-15773984D02*
X10935758Y-15773984D01*
X10935758Y-15773984D02*
X10954805Y-15783508D01*
X10954805Y-15783508D02*
X10964329Y-15793031D01*
X10964329Y-15793031D02*
X10973853Y-15812079D01*
X10973853Y-15812079D02*
X10973853Y-15831127D01*
X10973853Y-15831127D02*
X10964329Y-15859698D01*
X10964329Y-15859698D02*
X10850044Y-15973984D01*
X10850044Y-15973984D02*
X10973853Y-15973984D01*
X11097663Y-15773984D02*
X11116710Y-15773984D01*
X11116710Y-15773984D02*
X11135758Y-15783508D01*
X11135758Y-15783508D02*
X11145282Y-15793031D01*
X11145282Y-15793031D02*
X11154805Y-15812079D01*
X11154805Y-15812079D02*
X11164329Y-15850174D01*
X11164329Y-15850174D02*
X11164329Y-15897793D01*
X11164329Y-15897793D02*
X11154805Y-15935888D01*
X11154805Y-15935888D02*
X11145282Y-15954936D01*
X11145282Y-15954936D02*
X11135758Y-15964460D01*
X11135758Y-15964460D02*
X11116710Y-15973984D01*
X11116710Y-15973984D02*
X11097663Y-15973984D01*
X11097663Y-15973984D02*
X11078615Y-15964460D01*
X11078615Y-15964460D02*
X11069091Y-15954936D01*
X11069091Y-15954936D02*
X11059567Y-15935888D01*
X11059567Y-15935888D02*
X11050044Y-15897793D01*
X11050044Y-15897793D02*
X11050044Y-15850174D01*
X11050044Y-15850174D02*
X11059567Y-15812079D01*
X11059567Y-15812079D02*
X11069091Y-15793031D01*
X11069091Y-15793031D02*
X11078615Y-15783508D01*
X11078615Y-15783508D02*
X11097663Y-15773984D01*
X11288139Y-15773984D02*
X11307186Y-15773984D01*
X11307186Y-15773984D02*
X11326234Y-15783508D01*
X11326234Y-15783508D02*
X11335758Y-15793031D01*
X11335758Y-15793031D02*
X11345282Y-15812079D01*
X11345282Y-15812079D02*
X11354805Y-15850174D01*
X11354805Y-15850174D02*
X11354805Y-15897793D01*
X11354805Y-15897793D02*
X11345282Y-15935888D01*
X11345282Y-15935888D02*
X11335758Y-15954936D01*
X11335758Y-15954936D02*
X11326234Y-15964460D01*
X11326234Y-15964460D02*
X11307186Y-15973984D01*
X11307186Y-15973984D02*
X11288139Y-15973984D01*
X11288139Y-15973984D02*
X11269091Y-15964460D01*
X11269091Y-15964460D02*
X11259567Y-15954936D01*
X11259567Y-15954936D02*
X11250043Y-15935888D01*
X11250043Y-15935888D02*
X11240520Y-15897793D01*
X11240520Y-15897793D02*
X11240520Y-15850174D01*
X11240520Y-15850174D02*
X11250043Y-15812079D01*
X11250043Y-15812079D02*
X11259567Y-15793031D01*
X11259567Y-15793031D02*
X11269091Y-15783508D01*
X11269091Y-15783508D02*
X11288139Y-15773984D01*
X11440520Y-15973984D02*
X11440520Y-15840650D01*
X11440520Y-15859698D02*
X11450043Y-15850174D01*
X11450043Y-15850174D02*
X11469091Y-15840650D01*
X11469091Y-15840650D02*
X11497663Y-15840650D01*
X11497663Y-15840650D02*
X11516710Y-15850174D01*
X11516710Y-15850174D02*
X11526234Y-15869222D01*
X11526234Y-15869222D02*
X11526234Y-15973984D01*
X11526234Y-15869222D02*
X11535758Y-15850174D01*
X11535758Y-15850174D02*
X11554805Y-15840650D01*
X11554805Y-15840650D02*
X11583377Y-15840650D01*
X11583377Y-15840650D02*
X11602424Y-15850174D01*
X11602424Y-15850174D02*
X11611948Y-15869222D01*
X11611948Y-15869222D02*
X11611948Y-15973984D01*
X11707186Y-15973984D02*
X11707186Y-15840650D01*
X11707186Y-15859698D02*
X11716710Y-15850174D01*
X11716710Y-15850174D02*
X11735758Y-15840650D01*
X11735758Y-15840650D02*
X11764329Y-15840650D01*
X11764329Y-15840650D02*
X11783377Y-15850174D01*
X11783377Y-15850174D02*
X11792901Y-15869222D01*
X11792901Y-15869222D02*
X11792901Y-15973984D01*
X11792901Y-15869222D02*
X11802424Y-15850174D01*
X11802424Y-15850174D02*
X11821472Y-15840650D01*
X11821472Y-15840650D02*
X11850043Y-15840650D01*
X11850043Y-15840650D02*
X11869091Y-15850174D01*
X11869091Y-15850174D02*
X11878615Y-15869222D01*
X11878615Y-15869222D02*
X11878615Y-15973984D01*
X12269091Y-15764460D02*
X12097663Y-16021603D01*
X12526234Y-15773984D02*
X12545282Y-15773984D01*
X12545282Y-15773984D02*
X12564329Y-15783508D01*
X12564329Y-15783508D02*
X12573853Y-15793031D01*
X12573853Y-15793031D02*
X12583377Y-15812079D01*
X12583377Y-15812079D02*
X12592901Y-15850174D01*
X12592901Y-15850174D02*
X12592901Y-15897793D01*
X12592901Y-15897793D02*
X12583377Y-15935888D01*
X12583377Y-15935888D02*
X12573853Y-15954936D01*
X12573853Y-15954936D02*
X12564329Y-15964460D01*
X12564329Y-15964460D02*
X12545282Y-15973984D01*
X12545282Y-15973984D02*
X12526234Y-15973984D01*
X12526234Y-15973984D02*
X12507186Y-15964460D01*
X12507186Y-15964460D02*
X12497663Y-15954936D01*
X12497663Y-15954936D02*
X12488139Y-15935888D01*
X12488139Y-15935888D02*
X12478615Y-15897793D01*
X12478615Y-15897793D02*
X12478615Y-15850174D01*
X12478615Y-15850174D02*
X12488139Y-15812079D01*
X12488139Y-15812079D02*
X12497663Y-15793031D01*
X12497663Y-15793031D02*
X12507186Y-15783508D01*
X12507186Y-15783508D02*
X12526234Y-15773984D01*
X12678615Y-15954936D02*
X12688139Y-15964460D01*
X12688139Y-15964460D02*
X12678615Y-15973984D01*
X12678615Y-15973984D02*
X12669091Y-15964460D01*
X12669091Y-15964460D02*
X12678615Y-15954936D01*
X12678615Y-15954936D02*
X12678615Y-15973984D01*
X12878615Y-15973984D02*
X12764329Y-15973984D01*
X12821472Y-15973984D02*
X12821472Y-15773984D01*
X12821472Y-15773984D02*
X12802425Y-15802555D01*
X12802425Y-15802555D02*
X12783377Y-15821603D01*
X12783377Y-15821603D02*
X12764329Y-15831127D01*
X12954806Y-15793031D02*
X12964329Y-15783508D01*
X12964329Y-15783508D02*
X12983377Y-15773984D01*
X12983377Y-15773984D02*
X13030996Y-15773984D01*
X13030996Y-15773984D02*
X13050044Y-15783508D01*
X13050044Y-15783508D02*
X13059567Y-15793031D01*
X13059567Y-15793031D02*
X13069091Y-15812079D01*
X13069091Y-15812079D02*
X13069091Y-15831127D01*
X13069091Y-15831127D02*
X13059567Y-15859698D01*
X13059567Y-15859698D02*
X12945282Y-15973984D01*
X12945282Y-15973984D02*
X13069091Y-15973984D01*
X13240520Y-15773984D02*
X13202425Y-15773984D01*
X13202425Y-15773984D02*
X13183377Y-15783508D01*
X13183377Y-15783508D02*
X13173853Y-15793031D01*
X13173853Y-15793031D02*
X13154806Y-15821603D01*
X13154806Y-15821603D02*
X13145282Y-15859698D01*
X13145282Y-15859698D02*
X13145282Y-15935888D01*
X13145282Y-15935888D02*
X13154806Y-15954936D01*
X13154806Y-15954936D02*
X13164329Y-15964460D01*
X13164329Y-15964460D02*
X13183377Y-15973984D01*
X13183377Y-15973984D02*
X13221472Y-15973984D01*
X13221472Y-15973984D02*
X13240520Y-15964460D01*
X13240520Y-15964460D02*
X13250044Y-15954936D01*
X13250044Y-15954936D02*
X13259567Y-15935888D01*
X13259567Y-15935888D02*
X13259567Y-15888269D01*
X13259567Y-15888269D02*
X13250044Y-15869222D01*
X13250044Y-15869222D02*
X13240520Y-15859698D01*
X13240520Y-15859698D02*
X13221472Y-15850174D01*
X13221472Y-15850174D02*
X13183377Y-15850174D01*
X13183377Y-15850174D02*
X13164329Y-15859698D01*
X13164329Y-15859698D02*
X13154806Y-15869222D01*
X13154806Y-15869222D02*
X13145282Y-15888269D01*
X13383377Y-15773984D02*
X13402425Y-15773984D01*
X13402425Y-15773984D02*
X13421472Y-15783508D01*
X13421472Y-15783508D02*
X13430996Y-15793031D01*
X13430996Y-15793031D02*
X13440520Y-15812079D01*
X13440520Y-15812079D02*
X13450044Y-15850174D01*
X13450044Y-15850174D02*
X13450044Y-15897793D01*
X13450044Y-15897793D02*
X13440520Y-15935888D01*
X13440520Y-15935888D02*
X13430996Y-15954936D01*
X13430996Y-15954936D02*
X13421472Y-15964460D01*
X13421472Y-15964460D02*
X13402425Y-15973984D01*
X13402425Y-15973984D02*
X13383377Y-15973984D01*
X13383377Y-15973984D02*
X13364329Y-15964460D01*
X13364329Y-15964460D02*
X13354806Y-15954936D01*
X13354806Y-15954936D02*
X13345282Y-15935888D01*
X13345282Y-15935888D02*
X13335758Y-15897793D01*
X13335758Y-15897793D02*
X13335758Y-15850174D01*
X13335758Y-15850174D02*
X13345282Y-15812079D01*
X13345282Y-15812079D02*
X13354806Y-15793031D01*
X13354806Y-15793031D02*
X13364329Y-15783508D01*
X13364329Y-15783508D02*
X13383377Y-15773984D01*
X13526234Y-15773984D02*
X13526234Y-15812079D01*
X13602425Y-15773984D02*
X13602425Y-15812079D01*
X13897663Y-16050174D02*
X13888139Y-16040650D01*
X13888139Y-16040650D02*
X13869091Y-16012079D01*
X13869091Y-16012079D02*
X13859568Y-15993031D01*
X13859568Y-15993031D02*
X13850044Y-15964460D01*
X13850044Y-15964460D02*
X13840520Y-15916841D01*
X13840520Y-15916841D02*
X13840520Y-15878746D01*
X13840520Y-15878746D02*
X13850044Y-15831127D01*
X13850044Y-15831127D02*
X13859568Y-15802555D01*
X13859568Y-15802555D02*
X13869091Y-15783508D01*
X13869091Y-15783508D02*
X13888139Y-15754936D01*
X13888139Y-15754936D02*
X13897663Y-15745412D01*
X14059568Y-15840650D02*
X14059568Y-15973984D01*
X14011948Y-15764460D02*
X13964329Y-15907317D01*
X13964329Y-15907317D02*
X14088139Y-15907317D01*
X14316710Y-15973984D02*
X14316710Y-15773984D01*
X14402425Y-15973984D02*
X14402425Y-15869222D01*
X14402425Y-15869222D02*
X14392901Y-15850174D01*
X14392901Y-15850174D02*
X14373853Y-15840650D01*
X14373853Y-15840650D02*
X14345282Y-15840650D01*
X14345282Y-15840650D02*
X14326234Y-15850174D01*
X14326234Y-15850174D02*
X14316710Y-15859698D01*
X14526234Y-15973984D02*
X14507187Y-15964460D01*
X14507187Y-15964460D02*
X14497663Y-15954936D01*
X14497663Y-15954936D02*
X14488139Y-15935888D01*
X14488139Y-15935888D02*
X14488139Y-15878746D01*
X14488139Y-15878746D02*
X14497663Y-15859698D01*
X14497663Y-15859698D02*
X14507187Y-15850174D01*
X14507187Y-15850174D02*
X14526234Y-15840650D01*
X14526234Y-15840650D02*
X14554806Y-15840650D01*
X14554806Y-15840650D02*
X14573853Y-15850174D01*
X14573853Y-15850174D02*
X14583377Y-15859698D01*
X14583377Y-15859698D02*
X14592901Y-15878746D01*
X14592901Y-15878746D02*
X14592901Y-15935888D01*
X14592901Y-15935888D02*
X14583377Y-15954936D01*
X14583377Y-15954936D02*
X14573853Y-15964460D01*
X14573853Y-15964460D02*
X14554806Y-15973984D01*
X14554806Y-15973984D02*
X14526234Y-15973984D01*
X14707187Y-15973984D02*
X14688139Y-15964460D01*
X14688139Y-15964460D02*
X14678615Y-15945412D01*
X14678615Y-15945412D02*
X14678615Y-15773984D01*
X14859568Y-15964460D02*
X14840520Y-15973984D01*
X14840520Y-15973984D02*
X14802425Y-15973984D01*
X14802425Y-15973984D02*
X14783377Y-15964460D01*
X14783377Y-15964460D02*
X14773853Y-15945412D01*
X14773853Y-15945412D02*
X14773853Y-15869222D01*
X14773853Y-15869222D02*
X14783377Y-15850174D01*
X14783377Y-15850174D02*
X14802425Y-15840650D01*
X14802425Y-15840650D02*
X14840520Y-15840650D01*
X14840520Y-15840650D02*
X14859568Y-15850174D01*
X14859568Y-15850174D02*
X14869091Y-15869222D01*
X14869091Y-15869222D02*
X14869091Y-15888269D01*
X14869091Y-15888269D02*
X14773853Y-15907317D01*
X14945282Y-15964460D02*
X14964330Y-15973984D01*
X14964330Y-15973984D02*
X15002425Y-15973984D01*
X15002425Y-15973984D02*
X15021472Y-15964460D01*
X15021472Y-15964460D02*
X15030996Y-15945412D01*
X15030996Y-15945412D02*
X15030996Y-15935888D01*
X15030996Y-15935888D02*
X15021472Y-15916841D01*
X15021472Y-15916841D02*
X15002425Y-15907317D01*
X15002425Y-15907317D02*
X14973853Y-15907317D01*
X14973853Y-15907317D02*
X14954806Y-15897793D01*
X14954806Y-15897793D02*
X14945282Y-15878746D01*
X14945282Y-15878746D02*
X14945282Y-15869222D01*
X14945282Y-15869222D02*
X14954806Y-15850174D01*
X14954806Y-15850174D02*
X14973853Y-15840650D01*
X14973853Y-15840650D02*
X15002425Y-15840650D01*
X15002425Y-15840650D02*
X15021472Y-15850174D01*
X15097663Y-16050174D02*
X15107187Y-16040650D01*
X15107187Y-16040650D02*
X15126234Y-16012079D01*
X15126234Y-16012079D02*
X15135758Y-15993031D01*
X15135758Y-15993031D02*
X15145282Y-15964460D01*
X15145282Y-15964460D02*
X15154806Y-15916841D01*
X15154806Y-15916841D02*
X15154806Y-15878746D01*
X15154806Y-15878746D02*
X15145282Y-15831127D01*
X15145282Y-15831127D02*
X15135758Y-15802555D01*
X15135758Y-15802555D02*
X15126234Y-15783508D01*
X15126234Y-15783508D02*
X15107187Y-15754936D01*
X15107187Y-15754936D02*
X15097663Y-15745412D01*
X15459568Y-16050174D02*
X15450044Y-16040650D01*
X15450044Y-16040650D02*
X15430996Y-16012079D01*
X15430996Y-16012079D02*
X15421472Y-15993031D01*
X15421472Y-15993031D02*
X15411949Y-15964460D01*
X15411949Y-15964460D02*
X15402425Y-15916841D01*
X15402425Y-15916841D02*
X15402425Y-15878746D01*
X15402425Y-15878746D02*
X15411949Y-15831127D01*
X15411949Y-15831127D02*
X15421472Y-15802555D01*
X15421472Y-15802555D02*
X15430996Y-15783508D01*
X15430996Y-15783508D02*
X15450044Y-15754936D01*
X15450044Y-15754936D02*
X15459568Y-15745412D01*
X15535758Y-15840650D02*
X15535758Y-15973984D01*
X15535758Y-15859698D02*
X15545282Y-15850174D01*
X15545282Y-15850174D02*
X15564330Y-15840650D01*
X15564330Y-15840650D02*
X15592901Y-15840650D01*
X15592901Y-15840650D02*
X15611949Y-15850174D01*
X15611949Y-15850174D02*
X15621472Y-15869222D01*
X15621472Y-15869222D02*
X15621472Y-15973984D01*
X15745282Y-15973984D02*
X15726234Y-15964460D01*
X15726234Y-15964460D02*
X15716711Y-15954936D01*
X15716711Y-15954936D02*
X15707187Y-15935888D01*
X15707187Y-15935888D02*
X15707187Y-15878746D01*
X15707187Y-15878746D02*
X15716711Y-15859698D01*
X15716711Y-15859698D02*
X15726234Y-15850174D01*
X15726234Y-15850174D02*
X15745282Y-15840650D01*
X15745282Y-15840650D02*
X15773853Y-15840650D01*
X15773853Y-15840650D02*
X15792901Y-15850174D01*
X15792901Y-15850174D02*
X15802425Y-15859698D01*
X15802425Y-15859698D02*
X15811949Y-15878746D01*
X15811949Y-15878746D02*
X15811949Y-15935888D01*
X15811949Y-15935888D02*
X15802425Y-15954936D01*
X15802425Y-15954936D02*
X15792901Y-15964460D01*
X15792901Y-15964460D02*
X15773853Y-15973984D01*
X15773853Y-15973984D02*
X15745282Y-15973984D01*
X15869092Y-15840650D02*
X15945282Y-15840650D01*
X15897663Y-15773984D02*
X15897663Y-15945412D01*
X15897663Y-15945412D02*
X15907187Y-15964460D01*
X15907187Y-15964460D02*
X15926234Y-15973984D01*
X15926234Y-15973984D02*
X15945282Y-15973984D01*
X16164330Y-15840650D02*
X16164330Y-16040650D01*
X16164330Y-15850174D02*
X16183377Y-15840650D01*
X16183377Y-15840650D02*
X16221473Y-15840650D01*
X16221473Y-15840650D02*
X16240520Y-15850174D01*
X16240520Y-15850174D02*
X16250044Y-15859698D01*
X16250044Y-15859698D02*
X16259568Y-15878746D01*
X16259568Y-15878746D02*
X16259568Y-15935888D01*
X16259568Y-15935888D02*
X16250044Y-15954936D01*
X16250044Y-15954936D02*
X16240520Y-15964460D01*
X16240520Y-15964460D02*
X16221473Y-15973984D01*
X16221473Y-15973984D02*
X16183377Y-15973984D01*
X16183377Y-15973984D02*
X16164330Y-15964460D01*
X16373853Y-15973984D02*
X16354806Y-15964460D01*
X16354806Y-15964460D02*
X16345282Y-15945412D01*
X16345282Y-15945412D02*
X16345282Y-15773984D01*
X16535758Y-15973984D02*
X16535758Y-15869222D01*
X16535758Y-15869222D02*
X16526234Y-15850174D01*
X16526234Y-15850174D02*
X16507187Y-15840650D01*
X16507187Y-15840650D02*
X16469092Y-15840650D01*
X16469092Y-15840650D02*
X16450044Y-15850174D01*
X16535758Y-15964460D02*
X16516711Y-15973984D01*
X16516711Y-15973984D02*
X16469092Y-15973984D01*
X16469092Y-15973984D02*
X16450044Y-15964460D01*
X16450044Y-15964460D02*
X16440520Y-15945412D01*
X16440520Y-15945412D02*
X16440520Y-15926365D01*
X16440520Y-15926365D02*
X16450044Y-15907317D01*
X16450044Y-15907317D02*
X16469092Y-15897793D01*
X16469092Y-15897793D02*
X16516711Y-15897793D01*
X16516711Y-15897793D02*
X16535758Y-15888269D01*
X16602425Y-15840650D02*
X16678615Y-15840650D01*
X16630996Y-15773984D02*
X16630996Y-15945412D01*
X16630996Y-15945412D02*
X16640520Y-15964460D01*
X16640520Y-15964460D02*
X16659568Y-15973984D01*
X16659568Y-15973984D02*
X16678615Y-15973984D01*
X16821473Y-15964460D02*
X16802425Y-15973984D01*
X16802425Y-15973984D02*
X16764330Y-15973984D01*
X16764330Y-15973984D02*
X16745282Y-15964460D01*
X16745282Y-15964460D02*
X16735758Y-15945412D01*
X16735758Y-15945412D02*
X16735758Y-15869222D01*
X16735758Y-15869222D02*
X16745282Y-15850174D01*
X16745282Y-15850174D02*
X16764330Y-15840650D01*
X16764330Y-15840650D02*
X16802425Y-15840650D01*
X16802425Y-15840650D02*
X16821473Y-15850174D01*
X16821473Y-15850174D02*
X16830996Y-15869222D01*
X16830996Y-15869222D02*
X16830996Y-15888269D01*
X16830996Y-15888269D02*
X16735758Y-15907317D01*
X17002425Y-15973984D02*
X17002425Y-15773984D01*
X17002425Y-15964460D02*
X16983377Y-15973984D01*
X16983377Y-15973984D02*
X16945282Y-15973984D01*
X16945282Y-15973984D02*
X16926235Y-15964460D01*
X16926235Y-15964460D02*
X16916711Y-15954936D01*
X16916711Y-15954936D02*
X16907187Y-15935888D01*
X16907187Y-15935888D02*
X16907187Y-15878746D01*
X16907187Y-15878746D02*
X16916711Y-15859698D01*
X16916711Y-15859698D02*
X16926235Y-15850174D01*
X16926235Y-15850174D02*
X16945282Y-15840650D01*
X16945282Y-15840650D02*
X16983377Y-15840650D01*
X16983377Y-15840650D02*
X17002425Y-15850174D01*
X17078616Y-16050174D02*
X17088139Y-16040650D01*
X17088139Y-16040650D02*
X17107187Y-16012079D01*
X17107187Y-16012079D02*
X17116711Y-15993031D01*
X17116711Y-15993031D02*
X17126235Y-15964460D01*
X17126235Y-15964460D02*
X17135758Y-15916841D01*
X17135758Y-15916841D02*
X17135758Y-15878746D01*
X17135758Y-15878746D02*
X17126235Y-15831127D01*
X17126235Y-15831127D02*
X17116711Y-15802555D01*
X17116711Y-15802555D02*
X17107187Y-15783508D01*
X17107187Y-15783508D02*
X17088139Y-15754936D01*
X17088139Y-15754936D02*
X17078616Y-15745412D01*
M02*
